<svg width="22" height="25" viewBox="0 0 22 25" fill="none" xmlns="http://www.w3.org/2000/svg">
<path d="M10.7561 14.149V13.482L9.26892 15.8726L10.4128 15.8732C10.8124 15.8734 11.1361 16.1957 11.1361 16.5932V17.2738L12.6394 14.8725L11.4776 14.8691C11.0788 14.8679 10.7561 14.5459 10.7561 14.149Z" fill="url(#paint0_linear_1_235)"/>
<path d="M18.7634 4.46338L14.269 3.33996V0H7.63933V3.33996L3.14485 4.46338C1.29515 4.92572 0 6.56553 0 8.44503V24.4361H3.40901V24.132C3.40901 23.2652 3.51651 22.3991 3.72857 21.5578L4.57407 18.2031L3.41831 11.169C3.35419 10.7786 3.62349 10.4108 4.01992 10.3477C4.4163 10.2847 4.78961 10.5498 4.85374 10.9402L6.03329 18.119C6.04895 18.2145 6.04488 18.312 6.02118 18.4059L5.13981 21.9029C4.9562 22.6314 4.86309 23.3814 4.86309 24.132V24.4361H17.0452V24.132C17.0452 23.3814 16.9521 22.6314 16.7685 21.9029L15.8871 18.4059C15.8634 18.312 15.8593 18.2145 15.875 18.119L17.0545 10.9402C17.1186 10.5498 17.4919 10.2846 17.8883 10.3477C18.2847 10.4108 18.554 10.7786 18.4899 11.169L17.3342 18.2031L18.1797 21.5578C18.3917 22.3991 18.4992 23.2652 18.4992 24.132V24.4361H21.9082V8.44503C21.9083 6.56553 20.6131 4.92572 18.7634 4.46338ZM14.5704 14.4743L11.0258 20.0787C10.8907 20.2924 10.6552 20.4162 10.4087 20.4162C10.3423 20.4162 10.2751 20.4072 10.2088 20.3886C9.8968 20.3007 9.68169 20.0198 9.68169 19.7001V17.235L7.95467 17.2341C7.691 17.234 7.44807 17.0933 7.31982 16.8664C7.19157 16.6395 7.19806 16.362 7.33683 16.1412L10.8628 10.5308C11.0338 10.2587 11.3674 10.1313 11.6799 10.2189C11.9924 10.3065 12.208 10.5877 12.208 10.9077V13.3745L13.9554 13.3796C14.2191 13.3804 14.4617 13.5218 14.5894 13.749C14.7171 13.9763 14.7098 14.2538 14.5704 14.4743Z" fill="url(#paint1_linear_1_235)"/>
<defs>
<linearGradient id="paint0_linear_1_235" x1="9.26892" y1="15.3779" x2="12.6394" y2="15.3779" gradientUnits="userSpaceOnUse">
<stop stop-color="#2A77B5"/>
<stop offset="1" stop-color="#5AC09C"/>
</linearGradient>
<linearGradient id="paint1_linear_1_235" x1="0" y1="12.218" x2="21.9082" y2="12.218" gradientUnits="userSpaceOnUse">
<stop stop-color="#2A77B5"/>
<stop offset="1" stop-color="#5AC09C"/>
</linearGradient>
</defs>
</svg>
