<svg width="24" height="27" viewBox="0 0 24 27" fill="none" xmlns="http://www.w3.org/2000/svg">
<path d="M11.4262 6.03428C13.0925 6.03428 14.4433 4.68346 14.4433 3.01714C14.4433 1.35082 13.0925 0 11.4262 0C9.75988 0 8.40906 1.35082 8.40906 3.01714C8.40906 4.68346 9.75988 6.03428 11.4262 6.03428Z" fill="url(#paint0_linear_1_98)"/>
<path d="M14.6452 6.98193H8.21134C6.48507 6.98193 5.07639 8.38548 5.07639 10.1118V10.8238C7.93473 11.0799 10.1886 13.4926 10.1886 16.4175C10.1886 18.1489 9.39976 19.701 8.16524 20.7358V24.7211C8.16524 25.4741 8.77994 26.0888 9.53294 26.0888C9.90176 26.0888 10.2501 25.9453 10.5062 25.6892C10.7623 25.4331 10.9058 25.0796 10.9058 24.7211V17.1808C10.9058 16.8939 11.1363 16.6685 11.418 16.6685C11.7049 16.6685 11.9303 16.8939 11.9303 17.1808V24.7159C11.9354 25.4741 12.5552 26.0888 13.3133 26.0888C13.677 26.0888 14.0254 25.9453 14.2866 25.6841C14.5478 25.4228 14.6913 25.0796 14.6913 24.7108V12.0276C14.6913 11.7407 14.9218 11.5153 15.2035 11.5153C15.4853 11.5153 15.7158 11.7407 15.7158 12.0276V14.8757C15.7158 15.4443 16.1768 15.9053 16.7403 15.9053C17.0118 15.9053 17.2781 15.7926 17.4728 15.6031C17.6674 15.4084 17.775 15.1472 17.775 14.8757V10.1118C17.775 8.38548 16.3715 6.98193 14.6452 6.98193Z" fill="url(#paint1_linear_1_98)"/>
<path d="M22.6321 0.68795H20.2138C19.9311 0.68795 19.7016 0.917437 19.7016 1.2002C19.7016 1.48296 19.9311 1.71245 20.2138 1.71245H22.1199V4.29161H20.2138C19.9311 4.29161 19.7016 4.5211 19.7016 4.80386C19.7016 5.08662 19.9311 5.31611 20.2138 5.31611H22.1199V7.89528H20.2138C19.9311 7.89528 19.7016 8.12476 19.7016 8.40753C19.7016 8.69029 19.9311 8.91977 20.2138 8.91977H22.1199V11.4989H20.2138C19.9311 11.4989 19.7016 11.7284 19.7016 12.0112C19.7016 12.294 19.9311 12.5234 20.2138 12.5234H22.1199V15.1026H20.2138C19.9311 15.1026 19.7016 15.3321 19.7016 15.6149C19.7016 15.8976 19.9311 16.1271 20.2138 16.1271H22.1199V25.5468C22.1199 25.8296 22.3494 26.0591 22.6321 26.0591C22.9149 26.0591 23.1444 25.8296 23.1444 25.5468V1.2002C23.1444 0.917437 22.9149 0.68795 22.6321 0.68795Z" fill="url(#paint2_linear_1_98)"/>
<path d="M7.78104 16.9298C7.49931 16.9298 7.2688 16.6993 7.2688 16.4175C7.2688 16.1358 7.49931 15.9053 7.78104 15.9053H9.13338C8.89774 13.7743 7.20733 12.0839 5.07638 11.8534V13.2058C5.07638 13.4875 4.85099 13.718 4.56413 13.718C4.28239 13.718 4.05188 13.4875 4.05188 13.2058V11.8534C1.92605 12.0839 0.235634 13.7743 0 15.9053H1.35233C1.63407 15.9053 1.86458 16.1358 1.86458 16.4175C1.86458 16.6993 1.63407 16.9298 1.35233 16.9298H0C0.251001 19.2298 2.20267 21.0175 4.56413 21.0175C6.93071 21.0175 8.88238 19.2298 9.13338 16.9298H7.78104ZM5.3325 17.9338H3.80088C3.51402 17.9338 3.28863 17.7084 3.28863 17.4215C3.28863 17.1398 3.51402 16.9093 3.80088 16.9093H4.05188V15.2957C4.05188 15.014 4.28239 14.7835 4.56413 14.7835C4.85099 14.7835 5.07638 15.014 5.07638 15.2957V16.9093H5.3325C5.61424 16.9093 5.84475 17.1398 5.84475 17.4215C5.84475 17.7084 5.61424 17.9338 5.3325 17.9338Z" fill="url(#paint3_linear_1_98)"/>
<defs>
<linearGradient id="paint0_linear_1_98" x1="8.40906" y1="3.01714" x2="14.4433" y2="3.01714" gradientUnits="userSpaceOnUse">
<stop stop-color="#2A77B5"/>
<stop offset="1" stop-color="#5AC09C"/>
</linearGradient>
<linearGradient id="paint1_linear_1_98" x1="5.07639" y1="16.5353" x2="17.775" y2="16.5353" gradientUnits="userSpaceOnUse">
<stop stop-color="#2A77B5"/>
<stop offset="1" stop-color="#5AC09C"/>
</linearGradient>
<linearGradient id="paint2_linear_1_98" x1="19.7016" y1="13.3735" x2="23.1444" y2="13.3735" gradientUnits="userSpaceOnUse">
<stop stop-color="#2A77B5"/>
<stop offset="1" stop-color="#5AC09C"/>
</linearGradient>
<linearGradient id="paint3_linear_1_98" x1="0" y1="16.4355" x2="9.13338" y2="16.4355" gradientUnits="userSpaceOnUse">
<stop stop-color="#2A77B5"/>
<stop offset="1" stop-color="#5AC09C"/>
</linearGradient>
</defs>
</svg>
