<svg width="20" height="26" viewBox="0 0 20 26" fill="none" xmlns="http://www.w3.org/2000/svg">
<path d="M14.0115 0H5.15243C4.18212 0 3.39128 0.790781 3.39128 1.76109V6.30717C3.39128 7.27748 4.18212 8.06343 5.15243 8.06343H14.0115C14.9818 8.06343 15.7727 7.27754 15.7727 6.30717V1.76109C15.7727 0.790718 14.9818 0 14.0115 0ZM15.045 6.30711C15.045 6.87469 14.5792 7.33559 14.0115 7.33559H11.7798C11.6585 6.31194 10.8483 5.50171 9.81975 5.39491V2.47908C9.81975 2.27533 9.65967 2.11519 9.45586 2.11519C9.25694 2.11519 9.09197 2.27533 9.09197 2.47908V5.42892C8.18472 5.6375 7.50062 6.39923 7.38905 7.33559H5.15243C4.58479 7.33559 4.11906 6.87469 4.11906 6.30711V1.76109C4.11906 1.19351 4.58486 0.727717 5.15243 0.727717H14.0115C14.5792 0.727717 15.045 1.19345 15.045 1.76109V6.30711Z" fill="url(#paint0_linear_1_68)"/>
<path d="M6.98638 18.7079C6.32173 19.9257 6.671 21.0415 6.671 21.8712C6.671 23.9914 5.42415 25.7137 3.89103 25.7137C2.35308 25.7137 1.10133 23.9914 1.10133 21.8712C1.10133 21.0125 1.46033 19.9451 0.790845 18.7079C0.271711 17.7618 1.90735e-06 16.6266 1.90735e-06 15.4282C1.90735e-06 12.4444 1.74177 10.0137 3.8862 10.0137C6.0258 10.0137 7.7724 12.4444 7.7724 15.4282C7.77233 16.6266 7.50062 17.7618 6.98638 18.7079Z" fill="url(#paint1_linear_1_68)"/>
<path d="M18.3732 18.7079C17.7134 19.9257 18.0627 21.0415 18.0627 21.8712C18.0627 23.9914 16.8159 25.7137 15.2778 25.7137C13.7447 25.7137 12.493 23.9914 12.493 21.8712C12.493 21.027 12.8471 19.9403 12.1825 18.7079C11.6634 17.7618 11.3917 16.6266 11.3917 15.4282C11.3917 12.4444 13.1334 10.0137 15.273 10.0137C17.4174 10.0137 19.164 12.4444 19.164 15.4282C19.164 16.6266 18.8923 17.7618 18.3732 18.7079Z" fill="url(#paint2_linear_1_68)"/>
<defs>
<linearGradient id="paint0_linear_1_68" x1="3.39128" y1="4.03172" x2="15.7727" y2="4.03172" gradientUnits="userSpaceOnUse">
<stop stop-color="#2A77B5"/>
<stop offset="1" stop-color="#5AC09C"/>
</linearGradient>
<linearGradient id="paint1_linear_1_68" x1="1.90735e-06" y1="17.8637" x2="7.7724" y2="17.8637" gradientUnits="userSpaceOnUse">
<stop stop-color="#2A77B5"/>
<stop offset="1" stop-color="#5AC09C"/>
</linearGradient>
<linearGradient id="paint2_linear_1_68" x1="11.3917" y1="17.8637" x2="19.164" y2="17.8637" gradientUnits="userSpaceOnUse">
<stop stop-color="#2A77B5"/>
<stop offset="1" stop-color="#5AC09C"/>
</linearGradient>
</defs>
</svg>
