<svg width="18" height="27" viewBox="0 0 18 27" fill="none" xmlns="http://www.w3.org/2000/svg">
<path d="M15.2934 2.01468C16.0932 2.91835 17.0927 4.27046 17.0927 4.94787C17.0927 5.94015 16.2857 6.7471 15.2934 6.7471C14.3012 6.7471 13.4942 5.94015 13.4942 4.94787C13.4942 4.27181 14.4937 2.91924 15.2934 2.01468ZM8.54633 0C9.29031 0 9.89575 0.806953 9.89575 1.79923C9.89575 2.7915 9.29031 3.59845 8.54633 3.59845C7.80235 3.59845 7.19691 2.7915 7.19691 1.79923C7.19691 0.806953 7.80235 0 8.54633 0ZM0 6.7471C0 6.26446 0.706196 5.15973 1.34942 4.31949C1.99264 5.15973 2.69884 6.26446 2.69884 6.7471C2.69884 7.49108 2.0934 8.09652 1.34942 8.09652C0.60544 8.09652 0 7.49108 0 6.7471ZM11.6999 15.6767L10.3505 24.6728C10.3312 24.8023 10.3689 24.9341 10.4544 25.0331C10.5399 25.132 10.6645 25.1892 10.7954 25.1892H11.695C11.9428 25.1892 12.1448 25.3911 12.1448 25.639C12.1448 25.8868 11.9428 26.0888 11.695 26.0888H8.99613V15.2934H8.09652V26.0888H5.39768C5.14984 26.0888 4.94787 25.8868 4.94787 25.639C4.94787 25.3911 5.14984 25.1892 5.39768 25.1892H6.29729C6.42819 25.1892 6.55278 25.132 6.63825 25.0326C6.72371 24.9337 6.76149 24.8019 6.74215 24.6723L5.39273 15.6762C5.38329 15.611 5.35135 15.5372 5.31491 15.4823C4.78054 14.6812 4.49807 13.7488 4.49807 12.7853C4.49807 12.1227 4.63031 11.4786 4.8912 10.87L5.81105 8.72355C5.83534 8.66777 5.84749 8.60705 5.84749 8.54632V7.19691H4.94787V8.45411L4.06445 10.5156C3.75543 11.2366 3.59845 12.0004 3.59845 12.7853C3.59845 13.2936 3.66772 13.7938 3.79817 14.2782C3.69786 14.3502 3.57866 14.3938 3.45227 14.3938C3.19543 14.3938 2.96827 14.2301 2.88731 13.9863C2.46404 12.716 2.24903 11.3927 2.24903 10.0536C2.24903 9.59887 2.31111 9.14727 2.42761 8.70826C3.12166 8.32502 3.59845 7.59453 3.59845 6.7471C3.59845 6.68862 3.59171 6.627 3.58316 6.56448C4.73017 5.25239 6.36881 4.49807 8.11946 4.49807H8.97319C10.3433 4.49807 11.6761 4.97126 12.7444 5.82679C12.9774 6.50015 13.4686 7.05207 14.1001 7.36513C14.5854 8.17883 14.8436 9.10498 14.8436 10.0536C14.8436 11.3927 14.6286 12.7156 14.2053 13.9863C14.1239 14.2301 13.8972 14.3938 13.6404 14.3938C13.5144 14.3938 13.3952 14.3506 13.2949 14.2787C13.4245 13.7947 13.4942 13.294 13.4942 12.7853C13.4942 12.0004 13.3372 11.2366 13.0282 10.5156L12.1448 8.45411V7.19691H11.2452V8.54632C11.2452 8.60705 11.2573 8.66777 11.2816 8.72355L12.2015 10.87C12.4623 11.4786 12.5946 12.1232 12.5946 12.7853C12.5946 13.7488 12.3121 14.6812 11.7705 15.4936C11.7337 15.5485 11.7098 15.6114 11.6999 15.6767Z" fill="url(#paint0_linear_1_84)"/>
<path d="M15.7432 19.3417C15.2471 19.3417 14.8436 18.9382 14.8436 18.4421C14.8436 18.1555 15.266 17.4862 15.7432 16.8898C16.2214 17.4894 16.6428 18.1636 16.6428 18.4421C16.6428 18.9382 16.2394 19.3417 15.7432 19.3417Z" fill="url(#paint1_linear_1_84)"/>
<path d="M1.79923 23.3899C1.30309 23.3899 0.899612 22.9865 0.899612 22.4903C0.899612 22.2038 1.32198 21.5345 1.79923 20.938C2.27737 21.5376 2.69884 22.2119 2.69884 22.4903C2.69884 22.9865 2.29536 23.3899 1.79923 23.3899Z" fill="url(#paint2_linear_1_84)"/>
<defs>
<linearGradient id="paint0_linear_1_84" x1="0" y1="13.0444" x2="17.0927" y2="13.0444" gradientUnits="userSpaceOnUse">
<stop stop-color="#2A77B5"/>
<stop offset="1" stop-color="#5AC09C"/>
</linearGradient>
<linearGradient id="paint1_linear_1_84" x1="14.8436" y1="18.1157" x2="16.6428" y2="18.1157" gradientUnits="userSpaceOnUse">
<stop stop-color="#2A77B5"/>
<stop offset="1" stop-color="#5AC09C"/>
</linearGradient>
<linearGradient id="paint2_linear_1_84" x1="0.899612" y1="22.164" x2="2.69884" y2="22.164" gradientUnits="userSpaceOnUse">
<stop stop-color="#2A77B5"/>
<stop offset="1" stop-color="#5AC09C"/>
</linearGradient>
</defs>
</svg>
