<svg width="27" height="27" viewBox="0 0 27 27" fill="none" xmlns="http://www.w3.org/2000/svg">
<path fill-rule="evenodd" clip-rule="evenodd" d="M19.3135 17.2389C18.7054 17.9868 17.9831 18.493 17.2128 19.1979C16.3043 20.056 15.4594 20.9822 14.6851 21.9688C14.7085 22.4729 14.6913 22.9782 14.6339 23.4794C14.6018 23.7429 14.5566 24.0046 14.4986 24.2634C15.7958 24.3376 17.0911 24.086 18.2718 23.5307C19.2241 23.0415 20.0562 22.3382 20.7059 21.4733C21.388 20.5171 21.9041 18.9253 22.4392 17.7954C22.7286 17.1773 23.0869 16.5956 23.5069 16.0619C23.8084 15.6223 24.177 15.2352 24.5986 14.9156C25.0128 14.6322 25.4756 14.4918 25.7515 14.3074C25.8927 14.2333 26.0009 14.1065 26.0536 13.9531C26.1063 13.7998 26.0996 13.6315 26.0349 13.4831C25.9943 13.3878 25.7318 13.2819 25.4633 13.1757C24.5036 12.7935 23.4979 12.5457 22.4735 12.439C21.2227 12.3279 19.9628 12.4732 18.7673 12.8664C17.6869 13.2376 16.8496 13.8882 16.0028 14.5843C15.0292 15.3886 14.2246 16.3865 13.6375 17.5179C14.1758 18.5673 14.5066 19.7153 14.6109 20.896C15.8916 19.3317 17.4986 18.082 19.3135 17.2389ZM11.3741 0H14.7224C14.9552 0.000403612 15.1784 0.0953558 15.3431 0.264054C15.5077 0.432751 15.6004 0.661439 15.6008 0.900013V3.88581H18.5159C18.749 3.88605 18.9724 3.98106 19.1373 4.14997C19.3021 4.31889 19.3947 4.5479 19.3949 4.78674V8.21766C19.3945 8.45623 19.3018 8.68492 19.1371 8.85362C18.9725 9.02232 18.7493 9.11727 18.5164 9.11767H15.6008V12.1044C15.6004 12.343 15.5077 12.5716 15.3431 12.7403C15.1784 12.909 14.9552 13.004 14.7224 13.0044H11.3741C11.1412 13.004 10.918 12.9091 10.7533 12.7404C10.5886 12.5717 10.4958 12.343 10.4954 12.1044V9.11767H7.58061C7.34763 9.11743 7.12425 9.02256 6.95942 8.85385C6.79459 8.68515 6.70177 8.45637 6.7013 8.21766V4.78674C6.70154 4.54787 6.79425 4.31886 6.9591 4.14995C7.12396 3.98105 7.34748 3.88605 7.58061 3.88581H10.4954V0.900013C10.4958 0.661411 10.5886 0.432724 10.7533 0.264035C10.918 0.0953459 11.1412 0.000403373 11.3741 0ZM5.60387 16.7602C6.26568 17.8521 7.05188 18.8595 7.94592 19.7612C9.48524 21.2202 10.9319 22.5922 12.6554 26.0888C11.6634 25.8977 10.6292 25.6666 9.68965 25.3881C7.97393 24.8833 6.32977 24.1515 4.79875 23.2111C3.67651 22.5549 2.69377 21.6753 1.90843 20.624C0.603545 18.8143 -0.0670208 16.6063 0.00529183 14.3575C0.0170702 12.8683 0.289562 11.3933 0.809814 10.0027C1.08722 9.24132 1.71475 7.81925 2.04371 7.44312C2.07652 7.40179 2.12127 7.37218 2.17154 7.35855C2.38671 7.2911 2.61886 7.30992 2.82101 7.41121C3.02315 7.5125 3.18018 7.68869 3.26033 7.90412C3.44805 8.29581 3.55174 8.92106 3.83035 9.48677C4.15507 10.0717 4.56913 10.5995 5.0568 11.0502C6.25732 12.2753 6.97543 12.6945 8.53591 13.6165C9.51504 14.1951 10.5323 14.7785 11.2889 15.5032C11.9319 16.1538 12.4776 16.8981 12.9083 17.7121C13.59 19.0076 13.9491 20.4555 13.9536 21.9273C14.0261 23.2202 13.7952 24.512 13.2802 25.6946C11.5111 22.123 10.0237 20.7128 8.44145 19.2117C7.63186 18.4454 6.82049 17.7319 5.60387 16.7602Z" fill="url(#paint0_linear_1_225)"/>
<defs>
<linearGradient id="paint0_linear_1_225" x1="0" y1="13.0444" x2="26.0888" y2="13.0444" gradientUnits="userSpaceOnUse">
<stop stop-color="#2A77B5"/>
<stop offset="1" stop-color="#5AC09C"/>
</linearGradient>
</defs>
</svg>
