<svg width="30" height="25" viewBox="0 0 30 25" fill="none" xmlns="http://www.w3.org/2000/svg">
<path d="M26.1785 13.8991C25.5209 13.8991 24.7852 13.4983 24.4271 12.9467L22.8664 10.5332L20.8296 15.6728C20.5524 16.3713 20.0557 16.4299 19.8567 16.4094C19.6567 16.3983 19.1712 16.2941 18.9741 15.5686L17.2701 9.27663L14.9952 18.3393C14.8064 19.0936 14.3144 19.1866 14.1125 19.1922C14.1051 19.1922 14.0986 19.1932 14.093 19.1932C13.8791 19.1932 13.4066 19.1057 13.1862 18.3868L10.8303 10.7192L9.41003 12.9421C9.05567 13.4964 8.31998 13.8991 7.66055 13.8991H6.60956C6.31286 14.6758 5.56694 15.2291 4.68615 15.2291C3.54587 15.2291 2.6223 14.3056 2.6223 13.1644C2.6223 12.0241 3.54587 11.1005 4.68615 11.1005C5.56694 11.1005 6.31286 11.6539 6.60956 12.4296H7.65962C7.81215 12.4296 8.08839 12.278 8.17023 12.1497L10.0509 9.20873C10.4257 8.62092 10.9186 8.61999 11.1121 8.64511C11.3065 8.67208 11.7799 8.80601 11.9845 9.47288L14.0316 16.1369L16.3522 6.89748C16.5428 6.13575 17.0367 6.04925 17.2395 6.04646C17.4115 6.04274 17.9379 6.1218 18.1435 6.87981L20.0074 13.7587L21.7569 9.34825C21.9317 8.90367 22.2665 8.62743 22.6749 8.58651C23.0804 8.54559 23.4673 8.75392 23.7268 9.15386L25.6632 12.1487C25.7469 12.2771 26.0269 12.4296 26.1794 12.4296H29.1947C29.4086 11.7906 29.5723 11.1321 29.6653 10.4523C30.4578 4.68854 26.1757 0 22.0433 0C17.9119 0 14.8817 3.51757 14.8817 3.51757C14.8817 3.51757 11.8506 0 7.71728 0C3.58493 0 -0.696233 4.68854 0.0952665 10.4523C1.19834 18.4789 11.392 23.6957 14.8817 24.9792C17.8431 23.8901 25.6297 19.9661 28.5939 13.8991H26.1785Z" fill="url(#paint0_linear_4_255)"/>
<path d="M4.68615 14.1559C5.23373 14.1559 5.67762 13.712 5.67762 13.1644C5.67762 12.6168 5.23373 12.1729 4.68615 12.1729C4.13858 12.1729 3.69469 12.6168 3.69469 13.1644C3.69469 13.712 4.13858 14.1559 4.68615 14.1559Z" fill="url(#paint1_linear_4_255)"/>
<defs>
<linearGradient id="paint0_linear_4_255" x1="0" y1="12.4896" x2="29.7608" y2="12.4896" gradientUnits="userSpaceOnUse">
<stop stop-color="#2A77B5"/>
<stop offset="1" stop-color="#5AC09C"/>
</linearGradient>
<linearGradient id="paint1_linear_4_255" x1="3.69469" y1="13.1644" x2="5.67762" y2="13.1644" gradientUnits="userSpaceOnUse">
<stop stop-color="#2A77B5"/>
<stop offset="1" stop-color="#5AC09C"/>
</linearGradient>
</defs>
</svg>
