<svg width="25" height="25" viewBox="0 0 25 25" fill="none" xmlns="http://www.w3.org/2000/svg">
<path d="M24.5542 2.6308V8.55011H17.7667L15.5218 5.00729C15.1973 4.50744 14.3642 4.50744 14.0397 5.00729L9.77784 11.7334L8.01521 8.95349C7.83982 8.69041 7.55043 8.54134 7.26104 8.55011H3.05176e-05V2.6308C3.05176e-05 1.18386 1.18389 0 2.63083 0H21.9234C23.3703 0 24.5542 1.18386 24.5542 2.6308Z" fill="url(#paint0_linear_1_242)"/>
<path d="M24.5541 10.304V17.1002H0V10.304H6.78747L9.03242 13.8468C9.19904 14.1011 9.47089 14.2502 9.77781 14.2502C10.076 14.2502 10.3566 14.1011 10.5144 13.8468L14.7763 7.1207L16.539 9.90058C16.7144 10.1637 17.0213 10.304 17.2931 10.304H24.5541Z" fill="url(#paint1_linear_1_242)"/>
<path d="M0 18.8541V21.9233C0 23.3703 1.18386 24.5541 2.6308 24.5541H21.9233C23.3703 24.5541 24.5541 23.3703 24.5541 21.9233V18.8541H0ZM8.76934 21.7041H4.38467C3.90236 21.7041 3.50774 21.3095 3.50774 20.8272C3.50774 20.3449 3.90236 19.9502 4.38467 19.9502H8.76934C9.25165 19.9502 9.64627 20.3449 9.64627 20.8272C9.64627 21.3095 9.25165 21.7041 8.76934 21.7041ZM12.2946 21.7041C11.8123 21.7041 11.4177 21.3095 11.4177 20.8272C11.4177 20.3449 11.8035 19.9502 12.2858 19.9502H12.2946C12.7769 19.9502 13.1715 20.3449 13.1715 20.8272C13.1715 21.3095 12.7769 21.7041 12.2946 21.7041ZM20.1695 21.7041H15.7848C15.3025 21.7041 14.9079 21.3095 14.9079 20.8272C14.9079 20.3449 15.3025 19.9502 15.7848 19.9502H20.1695C20.6518 19.9502 21.0464 20.3449 21.0464 20.8272C21.0464 21.3095 20.6518 21.7041 20.1695 21.7041Z" fill="url(#paint2_linear_1_242)"/>
<defs>
<linearGradient id="paint0_linear_1_242" x1="3.05176e-05" y1="5.86669" x2="24.5542" y2="5.86669" gradientUnits="userSpaceOnUse">
<stop stop-color="#2A77B5"/>
<stop offset="1" stop-color="#5AC09C"/>
</linearGradient>
<linearGradient id="paint1_linear_1_242" x1="0" y1="12.1105" x2="24.5541" y2="12.1105" gradientUnits="userSpaceOnUse">
<stop stop-color="#2A77B5"/>
<stop offset="1" stop-color="#5AC09C"/>
</linearGradient>
<linearGradient id="paint2_linear_1_242" x1="0" y1="21.7041" x2="24.5541" y2="21.7041" gradientUnits="userSpaceOnUse">
<stop stop-color="#2A77B5"/>
<stop offset="1" stop-color="#5AC09C"/>
</linearGradient>
</defs>
</svg>
