<svg width="18" height="18" viewBox="0 0 18 18" fill="none" xmlns="http://www.w3.org/2000/svg">
<path d="M3.44648 9.73635C3.44648 9.19224 3.57477 8.68012 3.80078 8.23268C3.59094 7.55536 3.48163 6.86398 3.48163 6.18631C3.48163 5.11744 3.75333 4.01271 4.26053 2.97968C3.07777 2.78179 1.87146 2.90165 0.827891 3.37722C0.712252 3.42994 0.61981 3.52238 0.567087 3.63802C0.013844 4.85101 -0.138351 6.14695 0.127023 7.38559C0.388531 8.60666 1.05882 9.78415 2.06583 10.7912C2.47954 11.2049 2.94596 11.5581 3.44648 11.847V9.73635Z" fill="#209D79"/>
<path d="M17.4329 3.63802C17.3802 3.52238 17.2877 3.42994 17.1721 3.37722C16.1285 2.90165 14.9222 2.78179 13.7395 2.97968C14.2467 4.01271 14.5184 5.11744 14.5184 6.18631C14.5184 6.86398 14.4091 7.55536 14.1992 8.23268C14.4252 8.68012 14.5535 9.19224 14.5535 9.73635V11.847C15.054 11.5581 15.5205 11.2049 15.9342 10.7912C16.9412 9.78415 17.6115 8.60666 17.873 7.38559C18.1384 6.14695 17.9862 4.85101 17.4329 3.63802Z" fill="#209D79"/>
<path d="M5.98072 6.60353C6.05699 5.00391 7.3821 3.7259 9.00001 3.7259C10.6179 3.7259 11.943 5.00391 12.0193 6.60353C12.5205 6.67875 12.982 6.89 13.3694 7.20177C13.4319 6.86188 13.4639 6.52164 13.4639 6.18632C13.4639 4.92658 13.0147 3.59831 12.1993 2.44613C11.401 1.31855 10.3304 0.461623 9.18454 0.0335098C9.06538 -0.0111292 8.93463 -0.0111292 8.81548 0.0335098C7.66962 0.461623 6.59899 1.31855 5.80076 2.44613C4.9853 3.59831 4.5361 4.92658 4.5361 6.18632C4.5361 6.52164 4.56809 6.86188 4.63065 7.20177C5.01799 6.89 5.4795 6.67875 5.98072 6.60353Z" fill="#209D79"/>
<path d="M5.94205 12.4077V11.2478C5.94205 10.9567 6.17825 10.7205 6.46928 10.7205C6.76031 10.7205 6.99652 10.9567 6.99652 11.2478V12.4077H11.0035V11.2478C11.0035 10.9567 11.2397 10.7205 11.5307 10.7205C11.8217 10.7205 12.058 10.9567 12.058 11.2478V12.4077C12.058 12.9891 11.5848 13.4622 11.0035 13.4622H9.52723V14.7275H11.6112C12.6537 14.7275 13.4991 13.7834 13.4991 12.6186V9.73638C13.4991 8.72093 12.8569 7.87349 12.0014 7.67279C11.8221 9.16978 10.5444 10.3339 9 10.3339C7.45556 10.3339 6.1779 9.16978 5.99864 7.67279C5.14312 7.87349 4.50095 8.72093 4.50095 9.73638V12.6186C4.50095 13.7834 5.34628 14.7275 6.38879 14.7275H8.47277V13.4622H6.99652C6.41515 13.4622 5.94205 12.9891 5.94205 12.4077Z" fill="#209D79"/>
<path d="M2.81381 16.8892C2.81381 17.4997 3.29149 17.9964 3.87882 17.9964H8.47278V15.782H3.87882C3.29149 15.782 2.81381 16.2786 2.81381 16.8892Z" fill="#209D79"/>
<path d="M14.1212 15.782H9.52722V17.9964H14.1212C14.7085 17.9964 15.1862 17.4997 15.1862 16.8892C15.1862 16.2786 14.7085 15.782 14.1212 15.782Z" fill="#209D79"/>
<path d="M8.99998 4.78033C7.9129 4.78033 7.03165 5.66159 7.03165 6.74867V7.31105C7.03165 8.39814 7.9129 9.27939 8.99998 9.27939C10.0871 9.27939 10.9683 8.39814 10.9683 7.31105V6.74867C10.9683 5.66159 10.0871 4.78033 8.99998 4.78033Z" fill="#209D79"/>
</svg>
