<svg width="14" height="19" viewBox="0 0 14 19" fill="none" xmlns="http://www.w3.org/2000/svg">
<path d="M3.3412 7.70064C4.44363 6.89687 5.31746 5.82025 5.81152 4.54822C6.37564 3.09921 6.55262 1.63914 6.60792 0.816932C6.6411 0.333929 7.05774 -0.0310887 7.53706 0.00209469C8.00162 0.0315911 8.35927 0.418731 8.35558 0.883298C8.33714 4.51872 6.63742 7.32088 6.63742 7.32088L13.8198 17.3386C14.1295 17.7737 14.0299 18.3783 13.5986 18.688C13.1819 18.9867 12.6031 18.9093 12.2823 18.5074L7.75091 12.8883L5.19947 14.8646L4.21134 18.1719C4.08598 18.5922 3.69884 18.8798 3.26008 18.8798C2.71071 18.8798 2.26827 18.4336 2.26827 17.8843C2.26827 17.8142 2.27564 17.7478 2.29039 17.6815C3.13841 13.5962 4.89713 12.291 4.89713 12.291L3.58086 10.7941C2.97618 12.4827 2.79552 14.0645 2.7439 14.9199C2.72178 15.307 2.42312 15.6204 2.03967 15.6647C1.60091 15.7163 1.20271 15.4029 1.15109 14.9641C1.14741 14.942 1.14741 14.9162 1.14741 14.8904C1.01467 10.1009 2.48212 8.32744 3.3412 7.70064Z" fill="#209D79"/>
<path d="M3.87254 6.33821C4.48536 5.62168 4.36365 4.51183 3.60069 3.8593C2.83773 3.20677 1.72244 3.25865 1.10962 3.97519C0.496792 4.69172 0.618502 5.80156 1.38146 6.4541C2.14442 7.10663 3.25972 7.05475 3.87254 6.33821Z" fill="#209D79"/>
</svg>
