<svg width="16" height="19" viewBox="0 0 16 19" fill="none" xmlns="http://www.w3.org/2000/svg">
<path d="M6.32474 6.20806C6.42743 6.53442 6.61123 6.82493 6.85206 7.05664C6.96717 6.76095 7.12616 6.48717 7.32137 6.24333C7.1413 6.19047 6.95109 6.16161 6.75418 6.16161C6.60681 6.16157 6.46324 6.1779 6.32474 6.20806Z" fill="#209D79"/>
<path d="M7.82007 7.57465C7.95853 7.60482 8.10214 7.62111 8.24951 7.62111C8.39689 7.62111 8.54046 7.60478 8.67896 7.57465C8.59065 7.29392 8.44251 7.03948 8.24951 6.82631C8.05652 7.03948 7.90838 7.29392 7.82007 7.57465Z" fill="#209D79"/>
<path d="M9.17764 6.2433C9.37281 6.48717 9.53181 6.76092 9.64692 7.0566C9.88775 6.82486 10.0716 6.53439 10.1742 6.20803C10.0358 6.17787 9.8922 6.16158 9.74479 6.16158C9.54789 6.16158 9.35768 6.19043 9.17764 6.2433Z" fill="#209D79"/>
<path d="M7.789 8.67307C7.87102 8.99739 8.03161 9.29073 8.24952 9.53138C8.46739 9.29073 8.62801 8.99739 8.71003 8.67307C8.55972 8.69552 8.40601 8.70743 8.24952 8.70743C8.09302 8.70743 7.93934 8.69552 7.789 8.67307Z" fill="#209D79"/>
<path d="M8.2495 5.4603C8.69332 5.21519 9.20297 5.07528 9.74481 5.07528C9.90127 5.07528 10.055 5.08719 10.2053 5.10964C9.9843 4.23551 9.19135 3.58659 8.2495 3.58659C7.30765 3.58659 6.51469 4.23551 6.29367 5.10964C6.44398 5.08719 6.59769 5.07528 6.75418 5.07528C7.29603 5.07528 7.80568 5.21523 8.2495 5.4603Z" fill="#209D79"/>
<path d="M5.35677 6.72607C4.97513 7.09331 4.73694 7.60865 4.73694 8.17884C4.73694 9.29116 5.64185 10.1961 6.75418 10.1961C6.95108 10.1961 7.14129 10.1673 7.32136 10.1144C6.91183 9.60267 6.66104 8.95923 6.64327 8.25854C6.06217 7.90564 5.60629 7.36702 5.35677 6.72607Z" fill="#209D79"/>
<path d="M9.85574 8.25854C9.83792 8.95923 9.58717 9.60267 9.17764 10.1144C9.35771 10.1673 9.54792 10.1961 9.74483 10.1961C10.8572 10.1961 11.7621 9.29116 11.7621 8.17884C11.7621 7.60865 11.5239 7.09331 11.1422 6.72607C10.8927 7.36702 10.4368 7.90564 9.85574 8.25854Z" fill="#209D79"/>
<path d="M8.32522 0C4.34216 0 1.10169 3.24047 1.10169 7.22353V8.17244L0.0233647 11.7385C-0.0610037 12.0175 0.0899903 12.3134 0.365473 12.4089L2.20326 13.0456V15.5989C2.20326 15.8988 2.44644 16.142 2.7464 16.142H5.50796V17.9962C5.50796 18.2961 5.75115 18.5393 6.05111 18.5393H12.6604C12.9604 18.5393 13.2036 18.2961 13.2036 17.9962V12.5505C14.6971 11.1823 15.5488 9.25514 15.5488 7.22353C15.5487 3.24047 12.3083 0 8.32522 0ZM9.74481 11.2824C9.20297 11.2824 8.69332 11.1425 8.2495 10.8974C7.80568 11.1425 7.29603 11.2824 6.75419 11.2824C5.04289 11.2824 3.65066 9.89015 3.65066 8.17885C3.65066 7.05504 4.25109 6.06888 5.14797 5.52418C5.19051 3.84966 6.56492 2.50031 8.2495 2.50031C9.93408 2.50031 11.3085 3.8497 11.351 5.52418C12.2479 6.06888 12.8483 7.05504 12.8483 8.17885C12.8483 9.89015 11.4561 11.2824 9.74481 11.2824Z" fill="#209D79"/>
</svg>
