<svg width="20" height="19" viewBox="0 0 20 19" fill="none" xmlns="http://www.w3.org/2000/svg">
<path fill-rule="evenodd" clip-rule="evenodd" d="M5.23928 2.53928C5.39473 2.53928 5.52079 2.41531 5.52079 2.26236C5.52079 2.1094 5.39477 1.98543 5.23928 1.98543H5.23349C5.07805 1.98543 4.95199 2.1094 4.95199 2.26236C4.95199 2.41531 5.078 2.53928 5.23349 2.53928H5.23928ZM2.72138 2.53928C2.87683 2.53928 3.00289 2.41531 3.00289 2.26236C3.00289 2.1094 2.87687 1.98543 2.72138 1.98543H2.71559C2.56015 1.98543 2.43409 2.1094 2.43409 2.26236C2.43409 2.41531 2.56011 2.53928 2.71559 2.53928H2.72138ZM4.22748 14.828C4.38293 14.828 4.50899 14.704 4.50899 14.551C4.50899 14.3981 4.38297 14.2741 4.22748 14.2741H4.22169C4.06625 14.2741 3.94018 14.3981 3.94018 14.551C3.94018 14.704 4.0662 14.828 4.22169 14.828H4.22748ZM1.70958 14.828C1.86503 14.828 1.99109 14.704 1.99109 14.551C1.99109 14.3981 1.86507 14.2741 1.70958 14.2741H1.70379C1.54835 14.2741 1.42229 14.3981 1.42229 14.551C1.42229 14.704 1.54831 14.828 1.70379 14.828H1.70958ZM9.21768 9.20014C9.37313 9.20014 9.49919 9.07617 9.49919 8.92322C9.49919 8.77026 9.37317 8.6463 9.21768 8.6463H9.21189C9.05645 8.6463 8.93039 8.77026 8.93039 8.92322C8.93039 9.07617 9.05641 9.20014 9.21189 9.20014H9.21768ZM6.69978 9.20014C6.85523 9.20014 6.98129 9.07617 6.98129 8.92322C6.98129 8.77026 6.85527 8.6463 6.69978 8.6463H6.69399C6.53855 8.6463 6.41249 8.77026 6.41249 8.92322C6.41249 9.07617 6.53851 9.20014 6.69399 9.20014H6.69978ZM5.85874 7.51526C6.39542 6.98737 7.13682 6.66082 7.95582 6.66082C8.77481 6.66082 9.51622 6.98737 10.0529 7.51526C10.5895 8.04321 10.9215 8.77254 10.9215 9.57821C10.9215 10.3839 10.5895 11.1132 10.0529 11.6411C9.51622 12.169 8.77481 12.4956 7.95582 12.4956C7.13682 12.4956 6.39542 12.169 5.85874 11.6411C5.32211 11.1132 4.99016 10.3838 4.99016 9.57821C4.99016 8.77258 5.32211 8.04321 5.85874 7.51526ZM9.06288 10.91C9.21833 10.91 9.34439 10.786 9.34439 10.6331C9.34439 10.4801 9.21837 10.3562 9.06288 10.3562H6.8596C6.70416 10.3562 6.5781 10.4801 6.5781 10.6331C6.5781 10.786 6.70412 10.91 6.8596 10.91H9.06288ZM0.868582 13.1431C1.40521 12.6151 2.14666 12.2886 2.96566 12.2886C3.78465 12.2886 4.52606 12.6151 5.06269 13.1431C5.59937 13.671 5.93132 14.4004 5.93132 15.206C5.93132 16.0116 5.59937 16.741 5.06269 17.2689C4.52606 17.7968 3.78461 18.1234 2.96566 18.1234C2.1467 18.1234 1.40526 17.7968 0.868582 17.2689C0.331905 16.741 0 16.0116 0 15.206C0 14.4004 0.331949 13.671 0.868582 13.1431ZM4.49397 16.4484C4.60996 16.3474 4.62077 16.1731 4.51817 16.059C4.41552 15.9449 4.23833 15.9343 4.12235 16.0352C3.74121 16.3679 3.35757 16.5342 2.97153 16.5342C2.58087 16.5342 2.17261 16.365 1.74673 16.0265C1.6259 15.9309 1.44914 15.9498 1.35198 16.0687C1.25483 16.1876 1.27405 16.3614 1.39488 16.457C1.92418 16.8777 2.44974 17.088 2.97153 17.088C3.49792 17.088 4.00542 16.8748 4.49397 16.4484ZM1.88034 0.854444C2.41702 0.326545 3.15842 0 3.97742 0C4.79641 0 5.53782 0.326545 6.07449 0.854444C6.61112 1.38234 6.94307 2.11172 6.94307 2.91739C6.94307 3.72305 6.61112 4.45239 6.07449 4.98033C5.53782 5.50823 4.79641 5.83477 3.97742 5.83477C3.15842 5.83477 2.41702 5.50823 1.88034 4.98033C1.34371 4.45239 1.01176 3.72305 1.01176 2.91739C1.01176 2.11172 1.34371 1.38238 1.88034 0.854444ZM5.50582 4.15973C5.6218 4.0588 5.63261 3.88445 5.53001 3.77035C5.42737 3.65626 5.25018 3.64563 5.13419 3.74656C4.75305 4.07926 4.36941 4.24559 3.98338 4.24559C3.59271 4.24559 3.18445 4.07635 2.75857 3.73786C2.63774 3.64229 2.46098 3.6612 2.36383 3.78006C2.26667 3.89892 2.28589 4.07281 2.40672 4.16838C2.93602 4.58906 3.46159 4.7994 3.98338 4.7994C4.50976 4.7994 5.01727 4.58615 5.50582 4.15973ZM7.50098 2.73013C7.94445 2.38814 8.45899 2.1024 9.04259 1.88501C9.65412 1.6572 10.3435 1.50369 11.1088 1.43833C13.1081 1.26719 14.744 1.49551 15.9737 2.2494C17.1929 2.99688 18.0283 4.27521 18.4409 6.21124C18.5477 6.71192 18.5378 7.0034 18.5269 7.32286C18.52 7.5221 18.5129 7.7313 18.5288 7.99755C18.5498 8.35038 19.0677 9.02271 19.4843 9.56344C19.6604 9.79209 19.817 9.99539 19.8954 10.1188C20.1533 10.5247 19.8863 10.6912 19.6137 10.8613C19.4511 10.9627 19.2871 11.065 19.1528 11.2081C19.0695 11.297 19.0177 11.3952 18.9889 11.4943C18.9557 11.6088 18.9539 11.7222 18.9695 11.8218C18.9769 11.8696 18.9886 11.9128 18.9998 11.9549C19.0099 11.9925 19.0194 12.0277 19.0145 12.0445C19.0136 12.0476 18.9594 12.0946 18.9048 12.1464C18.809 12.2374 18.7154 12.3264 18.6704 12.4415C18.5778 12.6782 18.678 12.787 18.7898 12.9084C18.8036 12.9233 18.8181 12.9391 18.822 12.9464L18.8194 12.9701C18.8157 13.0059 18.8016 13.0524 18.7843 13.1001C18.775 13.1257 18.7602 13.1523 18.7443 13.181C18.6826 13.2923 18.6108 13.4218 18.5859 13.6512C18.5717 13.7811 18.5658 13.9183 18.5598 14.0561C18.54 14.512 18.5198 14.978 18.089 15.1845C17.8052 15.3204 17.4617 15.3616 17.1209 15.4025C16.5514 15.4707 15.9881 15.5382 15.5387 15.9933C15.0967 16.4409 14.8442 16.99 14.7107 17.5725C14.6034 18.0406 14.5735 18.5285 14.5832 19H6.39078C6.91146 17.9553 7.27211 16.9601 7.44273 15.9693C7.61199 14.9866 7.59474 14.0111 7.36222 13.0004C7.55524 13.0326 7.75358 13.0494 7.95595 13.0494C8.9303 13.0494 9.81248 12.6609 10.4511 12.0327C11.0896 11.4045 11.4846 10.5367 11.4846 9.57821C11.4846 8.61971 11.0897 7.75189 10.4511 7.1237C9.81248 6.49554 8.93034 6.10697 7.95595 6.10697C6.99493 6.10697 6.1236 6.48495 5.48724 7.09804C5.48553 7.00015 5.48613 6.90306 5.48892 6.8069C5.49677 6.53938 5.52173 6.2763 5.56368 6.01891C5.90133 5.85148 6.20793 5.63228 6.47267 5.3719C7.11121 4.74374 7.50621 3.87593 7.50621 2.91739C7.50621 2.85456 7.50433 2.79215 7.50098 2.73013Z" fill="#209D79"/>
</svg>
