<svg width="25" height="25" viewBox="0 0 25 25" fill="none" xmlns="http://www.w3.org/2000/svg">
<path d="M18.7387 0H5.81546C2.60573 0.00498129 0.00498129 2.60573 0 5.81546V18.7387C0.00498129 21.9484 2.60573 24.5492 5.81546 24.5541H18.7387C21.9484 24.5492 24.5492 21.9484 24.5541 18.7387V5.81546C24.5492 2.60573 21.9484 0.00498129 18.7387 0ZM19.7467 12.9232H16.3091L14.138 17.2008C14.0308 17.4163 13.8101 17.5517 13.5694 17.5498H13.5306C13.2745 17.5409 13.0494 17.3772 12.962 17.1362L10.3515 10.4032L9.20134 12.5743C9.09656 12.792 8.87426 12.9284 8.63272 12.9232H4.80744C4.45058 12.9232 4.16128 12.6339 4.16128 12.2771C4.16128 11.9202 4.45058 11.6309 4.80744 11.6309H8.24502L9.87335 8.55518C9.98641 8.32654 10.2263 8.18874 10.4807 8.20626C10.7353 8.21989 10.958 8.38187 11.0494 8.6198L13.6469 15.327L15.3399 11.9798C15.4569 11.7675 15.679 11.6342 15.9214 11.6309H19.7467C20.1036 11.6309 20.3929 11.9202 20.3929 12.2771C20.3929 12.6339 20.1036 12.9232 19.7467 12.9232Z" fill="url(#paint0_linear_1_250)"/>
<defs>
<linearGradient id="paint0_linear_1_250" x1="0" y1="12.2771" x2="24.5541" y2="12.2771" gradientUnits="userSpaceOnUse">
<stop stop-color="#2A77B5"/>
<stop offset="1" stop-color="#5AC09C"/>
</linearGradient>
</defs>
</svg>
