<svg width="21" height="19" viewBox="0 0 21 19" fill="none" xmlns="http://www.w3.org/2000/svg">
<path d="M7.03049 9.33331L8.46505 6.61451C8.58223 6.39241 8.82271 6.26382 9.07253 6.28966C9.32232 6.3155 9.53137 6.4906 9.60061 6.73202L10.9167 11.3206L12.089 9.60192C12.2036 9.43388 12.3939 9.33339 12.5973 9.33339H20.2127C20.7227 8.40956 21 7.36226 21 6.29036C21 2.82183 18.1781 0 14.7096 0C13.1512 0 11.6495 0.582668 10.5 1.61671C9.35058 0.582668 7.84879 0 6.29036 0C2.82188 0 0 2.82183 0 6.29036C0 7.3623 0.277266 8.40956 0.787377 9.33331H7.03049Z" fill="url(#paint0_linear_1_515)"/>
<path d="M12.9223 10.5638L11.1948 13.0964C11.0791 13.266 10.8879 13.3649 10.6866 13.3649C10.6542 13.3649 10.6214 13.3624 10.5887 13.3571C10.3532 13.3192 10.1609 13.1486 10.0951 12.9193L8.8395 8.54163L7.94564 10.2357C7.83913 10.4375 7.6297 10.5639 7.40149 10.5639H1.6748C1.78629 10.6844 1.90277 10.801 2.02418 10.9131L9.35186 17.6787C9.66539 17.9681 10.0731 18.1275 10.5 18.1275C10.9476 18.1275 11.3686 17.955 11.6872 17.6413L18.9758 10.913C19.0972 10.8009 19.2137 10.6844 19.3251 10.5638H12.9223Z" fill="url(#paint1_linear_1_515)"/>
<defs>
<linearGradient id="paint0_linear_1_515" x1="0" y1="5.66028" x2="21" y2="5.66028" gradientUnits="userSpaceOnUse">
<stop stop-color="#2A77B5"/>
<stop offset="1" stop-color="#5AC09C"/>
</linearGradient>
<linearGradient id="paint1_linear_1_515" x1="1.6748" y1="13.3346" x2="19.3251" y2="13.3346" gradientUnits="userSpaceOnUse">
<stop stop-color="#2A77B5"/>
<stop offset="1" stop-color="#5AC09C"/>
</linearGradient>
</defs>
</svg>
