<svg width="20" height="20" viewBox="0 0 20 20" fill="none" xmlns="http://www.w3.org/2000/svg">
<path d="M2.93347 10.3448C3.11175 10.9876 3.41899 11.5772 3.83209 12.0783L3.97347 11.8662C4.08106 11.7048 4.13795 11.5172 4.13795 11.3234C4.13795 10.7838 3.69899 10.3448 3.15933 10.3448H2.93347Z" fill="url(#paint0_linear_4_67)"/>
<path d="M9.36925 3.50414L11.4327 3.31655C11.6179 2.95621 11.7241 2.52276 11.7241 2.06897C11.7241 0.947586 11.0924 0 10.3448 0C9.59718 0 8.96545 0.947586 8.96545 2.06897C8.96545 2.60897 9.11511 3.11724 9.36925 3.50414Z" fill="url(#paint1_linear_4_67)"/>
<path d="M15.2431 10.3448C14.5597 10.3448 13.8972 10.4883 13.2748 10.771L11.0021 11.8041C10.7938 13.3145 9.49759 14.4828 7.93103 14.4828H7.46035C4.48759 14.4828 2.06897 12.0641 2.06897 9.09138C2.06897 6.28448 4.1769 3.97621 6.97241 3.72207L8.61069 3.5731C8.39586 3.12931 8.27586 2.6069 8.27586 2.06897C8.27586 1.24483 8.54965 0.505862 8.98103 0H8.27586C3.71276 0 0 3.71276 0 8.27586C0 12.839 3.71276 16.5517 8.27586 16.5517C11.669 16.5517 13.0959 14.8431 13.1097 14.8262L13.3397 14.5431L13.6103 14.7872C14.1648 15.2917 14.4828 16.0107 14.4828 16.7607V20H20V15.1017C20 12.4786 17.8662 10.3448 15.2431 10.3448ZM19.3103 19.3103H18.6207V17.931H19.3103V19.3103ZM19.3103 15.1017V17.2414H18.6207V15.1017C18.6207 14.4572 18.4379 13.8303 18.0917 13.289L18.6731 12.9176C19.09 13.5703 19.3103 14.3255 19.3103 15.1017Z" fill="url(#paint2_linear_4_67)"/>
<path d="M8.28027 5.40793C8.65268 5.90862 9.23579 6.2069 9.86372 6.2069H10.3448V6.89655H9.86372C9.08579 6.89655 8.35751 6.55966 7.85441 5.98276L7.08751 6.49379L6.7051 5.92L7.58889 5.33069C7.60544 4.98379 7.69579 4.64828 7.83923 4.33586L7.03441 4.40897C5.58958 4.54035 4.35923 5.30379 3.59337 6.41138L4.56406 6.89655H5.51717V7.58621H4.82751V7.64517C4.82751 8.18207 5.03648 8.6869 5.41613 9.06655L4.92854 9.55414C4.41854 9.04448 4.13786 8.36655 4.13786 7.64517V7.45448L3.24096 7.00621C2.93234 7.63483 2.75854 8.34241 2.75854 9.09138C2.75854 9.28241 2.77337 9.47 2.79579 9.65517H3.15923C3.98027 9.65517 4.66061 10.2524 4.7982 11.0345H4.96337C5.85751 11.0345 6.68717 11.4786 7.18337 12.2224L6.60958 12.6048C6.24199 12.0534 5.62648 11.7241 4.96372 11.7241H4.77475C4.72889 11.9097 4.6551 12.0876 4.54751 12.2486L4.32406 12.5838C5.15682 13.3331 6.25441 13.7931 7.46027 13.7931H7.93096C9.26199 13.7931 10.3448 12.7103 10.3448 11.3793C10.3448 10.0483 9.26199 8.96552 7.93096 8.96552H7.58613V8.27586H7.93096C9.10441 8.27586 10.1279 8.93035 10.6551 9.89379C11.053 9.52138 11.5458 9.27793 12.0854 9.18793L12.4775 9.12241C12.8403 9.06207 13.1034 8.75138 13.1034 8.38379C13.1034 7.99966 13.253 7.63828 13.5248 7.3669L13.8254 7.06621L14.3606 7.2C14.4703 7.22759 14.5827 7.24138 14.6951 7.24138C15.2623 7.24138 15.7651 6.90104 15.9754 6.37448L16.0372 6.22069C16.1813 5.86 16.4468 5.55552 16.7837 5.36345L16.9554 5.26552L17.1268 5.36448C17.2992 5.46448 17.4972 5.51724 17.6985 5.51724C18.1358 5.51724 18.5289 5.27414 18.7244 4.8831L19.0972 4.13793H19.3103C19.6906 4.13793 19.9999 3.82862 19.9999 3.44828C19.9999 3.06793 19.6906 2.75862 19.3103 2.75862C19.1134 2.75862 18.9175 2.78621 18.7289 2.84L17.0568 3.31759C16.7206 3.41345 16.3685 3.40552 16.0379 3.29552L15.6365 3.16172C15.5199 3.1231 15.3989 3.10345 15.2765 3.10345C15.051 3.10345 14.8327 3.16966 14.6448 3.29448L14.2758 3.54104C14.0372 3.7 13.7603 3.79793 13.4751 3.82345L8.68165 4.25931C8.43303 4.59207 8.29061 4.99172 8.28027 5.40793ZM8.76337 10.749L9.06648 10.4459L9.55406 10.9334L9.25096 11.2366C9.06682 11.4207 8.96544 11.6659 8.96544 11.9262C8.96544 12.1452 9.05441 12.36 9.20924 12.5148L8.72165 13.0024C8.43406 12.7152 8.27579 12.3328 8.27579 11.9262C8.27579 11.4814 8.44889 11.0631 8.76337 10.749ZM8.27579 7.58621H8.01475C7.3982 7.58621 6.89648 8.08793 6.89648 8.70448C6.89648 9.0031 7.01268 9.28379 7.22406 9.49517L7.82993 10.101L7.34234 10.5886L6.73648 9.98276C6.39475 9.64104 6.20682 9.18724 6.20682 8.70448C6.20682 7.70759 7.01786 6.89655 8.01475 6.89655H8.27579V7.58621ZM14.2192 4.82759H14.4827V5.51724H14.2192C13.8751 5.51724 13.5658 5.70862 13.412 6.01621L12.7951 5.70759C13.0665 5.16483 13.6123 4.82759 14.2192 4.82759ZM11.8775 4.19586L12.2599 4.76966L11.2254 5.45931L10.843 4.88552L11.8775 4.19586ZM10.6479 8.51966C10.8972 8.27035 11.0344 7.93862 11.0344 7.58621H11.7241C11.7241 8.1231 11.5151 8.62793 11.1354 9.00724L10.9334 9.20931L10.4458 8.72172L10.6479 8.51966Z" fill="url(#paint3_linear_4_67)"/>
<defs>
<linearGradient id="paint0_linear_4_67" x1="2.93347" y1="11.2115" x2="4.13795" y2="11.2115" gradientUnits="userSpaceOnUse">
<stop stop-color="#2A77B5"/>
<stop offset="1" stop-color="#5AC09C"/>
</linearGradient>
<linearGradient id="paint1_linear_4_67" x1="8.96545" y1="1.75207" x2="11.7241" y2="1.75207" gradientUnits="userSpaceOnUse">
<stop stop-color="#2A77B5"/>
<stop offset="1" stop-color="#5AC09C"/>
</linearGradient>
<linearGradient id="paint2_linear_4_67" x1="0" y1="10" x2="20" y2="10" gradientUnits="userSpaceOnUse">
<stop stop-color="#2A77B5"/>
<stop offset="1" stop-color="#5AC09C"/>
</linearGradient>
<linearGradient id="paint3_linear_4_67" x1="2.75854" y1="8.27586" x2="19.9999" y2="8.27586" gradientUnits="userSpaceOnUse">
<stop stop-color="#2A77B5"/>
<stop offset="1" stop-color="#5AC09C"/>
</linearGradient>
</defs>
</svg>
