<svg width="18" height="18" viewBox="0 0 18 18" fill="none" xmlns="http://www.w3.org/2000/svg">
<path d="M6.42857 7.07143C6.41915 6.83515 6.36399 6.6029 6.26608 6.38761C6.11283 6.32288 5.94155 6.31483 5.78289 6.36483C5.35194 6.48984 4.88763 6.35242 4.59418 6.01295C4.28748 5.70628 4.0455 5.46426 3.53573 5.46426C3.35823 5.46426 3.2143 5.32037 3.2143 5.14283C3.2143 4.96533 3.3582 4.8214 3.53573 4.8214C4.12422 4.83138 4.6781 5.1012 5.04868 5.55845C5.19138 5.74766 5.4424 5.81906 5.66329 5.73328C5.74741 5.71626 5.83239 5.70361 5.91782 5.69545L5.91346 5.68747C5.67222 5.3326 5.51827 4.9257 5.46427 4.5C5.4309 4.21052 5.25586 3.95652 4.99722 3.82233C4.83989 3.74178 4.7771 3.5493 4.85666 3.39149C4.93622 3.23363 5.12831 3.16965 5.28662 3.24822C5.49144 3.35967 5.67193 3.51095 5.81745 3.69316C5.83875 3.67115 5.85981 3.64999 5.87988 3.62992C6.03745 3.47235 6.10713 3.39511 6.10713 3.2143C6.10713 3.03679 6.25103 2.89286 6.42857 2.89286C6.60607 2.89286 6.75 3.03676 6.75 3.2143C6.7462 3.55134 6.59419 3.86961 6.33438 4.08442C6.17681 4.24199 6.10713 4.31922 6.10713 4.50003C6.17291 4.81345 6.29831 5.11133 6.47659 5.37736C6.81254 5.88385 7.01698 6.46611 7.07143 7.07147C7.07143 7.81126 7.75171 8.77148 8.66271 9.39185C8.62003 8.73858 8.53759 8.08854 8.41584 7.44532C8.1553 6.05021 8.028 4.63352 8.0357 3.21433V3.15408C8.03595 3.06654 8.03605 2.97098 8.03261 2.87205L8.03243 2.86456C8.03071 2.81763 8.0279 2.76985 8.02406 2.72186L8.02318 2.70886C8.01921 2.66185 8.01366 2.61464 8.00687 2.5676L8.00466 2.55101C7.99763 2.50506 7.98863 2.45949 7.97811 2.41442C7.97657 2.40774 7.9752 2.40103 7.97358 2.39438C7.96275 2.35065 7.94964 2.30776 7.93477 2.26571C7.93209 2.25808 7.92946 2.25045 7.92661 2.24293C7.91132 2.20236 7.89353 2.16277 7.87342 2.12438C7.86931 2.11651 7.86502 2.1087 7.86069 2.10093C7.83991 2.06363 7.81647 2.02792 7.79056 1.99402C7.77006 1.96502 7.74763 1.93742 7.72344 1.91141C7.4519 1.68539 7.10195 1.57605 6.75004 1.60724C5.88414 1.64081 5.05248 1.95426 4.37984 2.50059C3.37092 3.25659 2.52404 4.20743 1.8894 5.29678L1.25188 6.57246C1.0164 6.97285 0.807504 7.38829 0.62659 7.81611C0.323297 8.72504 0 10.1134 0 15.1071C0 16.4415 0.673312 18 2.57143 18C2.65683 18 4.021 17.999 4.10263 17.9975C5.66111 17.9731 7.06883 17.0608 7.7278 15.6483C8.25423 14.3728 8.55601 13.0158 8.61989 11.6374C7.86916 11.873 7.04176 12.6985 6.65585 13.0844C6.559 13.1813 6.46288 13.2708 6.36704 13.3567C6.35776 13.3741 6.34686 13.3906 6.33442 13.4058C5.99312 13.9091 5.80275 14.4993 5.78574 15.1072C5.82736 15.7436 5.51099 16.3503 4.96522 16.6804C4.80649 16.7593 4.61387 16.6948 4.53463 16.5363C4.45539 16.3778 4.51937 16.185 4.67772 16.1054C5.00143 15.8808 5.17918 15.4994 5.1429 15.1072C5.15373 14.7634 5.21019 14.4226 5.31088 14.0937C4.62597 14.4618 3.80482 14.474 3.10929 14.1264C3.04812 14.1149 2.98888 14.0948 2.93333 14.0666C2.64371 14.0579 2.36303 14.1675 2.15589 14.3701C2.07496 14.4525 1.95599 14.4852 1.84433 14.4556C1.73268 14.426 1.64545 14.3388 1.61589 14.2272C1.58632 14.1155 1.61898 13.9965 1.70139 13.9156C1.897 13.7311 2.12752 13.5875 2.37938 13.4932C2.33793 13.4244 2.30414 13.3626 2.28396 13.3223C2.20507 13.1637 2.26941 12.9712 2.42782 12.8918C2.58623 12.8125 2.77893 12.8763 2.8587 13.0345C2.93723 13.1919 3.04102 13.3355 3.16596 13.4594C3.22193 13.4762 3.27663 13.4972 3.32954 13.522C3.34438 13.527 3.35879 13.5331 3.37264 13.5404C4.26252 13.9772 5.13524 13.6963 6.20139 12.6299C6.69604 12.1352 7.66993 11.1639 8.65645 10.9665C8.65733 10.9451 8.65906 10.925 8.65986 10.9035C8.28324 10.8408 7.91866 10.7199 7.5792 10.5451C7.54685 10.5694 7.51015 10.5872 7.47113 10.5977C7.44634 10.6322 7.4115 10.6925 7.3845 10.7393C7.16179 11.2457 6.66049 11.5723 6.10727 11.5714C5.59751 11.5714 5.35549 11.8134 5.04882 12.1201C4.96789 12.2025 4.84893 12.2352 4.73727 12.2056C4.62561 12.176 4.53839 12.0888 4.50882 11.9772C4.47926 11.8655 4.51192 11.7465 4.59432 11.6656C4.74079 11.5123 4.90082 11.3725 5.07248 11.248C5.01736 11.2074 4.96628 11.1668 4.92012 11.1292C4.74968 10.9901 4.66745 10.9286 4.50014 10.9286C4.32264 10.9286 4.17871 10.7847 4.17871 10.6072C4.17871 10.4296 4.3226 10.2857 4.50014 10.2857C4.80952 10.2915 5.10507 10.415 5.32663 10.631C5.53426 10.8342 5.81706 10.942 6.10727 10.9286C6.53291 10.9286 6.67638 10.6806 6.82766 10.4178C6.86813 10.3452 6.91291 10.275 6.96178 10.2077C6.80017 10.111 6.64119 10.0124 6.48742 9.91592C6.13522 9.67296 5.75821 9.4681 5.36273 9.30477C4.98125 9.16087 4.56437 9.1396 4.17023 9.24388C3.96626 9.29018 3.75813 9.31584 3.54899 9.32045L3.54621 9.32108C3.38875 9.44486 3.26324 9.60461 3.18023 9.7869C3.10047 9.94507 2.90774 10.0089 2.74936 9.92953C2.59098 9.85022 2.52661 9.65767 2.6055 9.49904C2.66133 9.38918 2.72503 9.28346 2.79612 9.18278C2.62958 9.11935 2.47637 9.02542 2.34436 8.90578C2.22079 8.77995 2.2217 8.57805 2.3464 8.45332C2.4711 8.32862 2.673 8.3277 2.79886 8.45128C3.00983 8.61201 3.27104 8.69256 3.53591 8.67853C3.70719 8.67427 3.87759 8.65241 4.04441 8.61324C4.54838 8.48703 5.07867 8.51558 5.56618 8.69516C6.01126 8.87259 6.43493 9.09949 6.82931 9.3716C7.38696 9.7722 8.01158 10.0702 8.67386 10.2516C8.67424 10.2188 8.67526 10.187 8.67551 10.1541C7.40194 9.44441 6.42857 8.12457 6.42857 7.07143Z" fill="url(#paint0_linear_1_540)"/>
<path d="M17.3738 7.816C17.1949 7.39293 16.9883 6.9821 16.7554 6.58617L16.1053 5.28662C15.4712 4.20134 14.6263 3.25399 13.6202 2.50048C12.9476 1.95419 12.1159 1.64074 11.25 1.60713C10.8981 1.57595 10.5482 1.68528 10.2766 1.91127C10.2524 1.93728 10.23 1.96488 10.2095 1.99388C10.1836 2.02774 10.1602 2.06346 10.1394 2.10072C10.1351 2.10856 10.1307 2.11644 10.1266 2.12442C10.1065 2.16274 10.0888 2.20222 10.0735 2.24272C10.0707 2.25038 10.068 2.25808 10.0653 2.26582C10.0504 2.30779 10.0373 2.35061 10.0265 2.39431C10.0249 2.40096 10.0235 2.40767 10.022 2.41435C10.0114 2.45942 10.0024 2.50498 9.99542 2.55093L9.9932 2.56753C9.98642 2.61453 9.98086 2.66175 9.97689 2.70871L9.97598 2.72253C9.97218 2.7701 9.96937 2.81752 9.96764 2.86407L9.96733 2.87725C9.96406 2.97429 9.96409 3.06812 9.96434 3.15407V3.21433C9.97204 4.63352 9.84477 6.05025 9.5842 7.44532C9.46241 8.08854 9.37997 8.73861 9.33733 9.39185C10.2484 8.77148 10.9286 7.81126 10.9286 7.07147C10.9831 6.46611 11.1875 5.88389 11.5235 5.37736C11.7017 5.11129 11.8271 4.81345 11.8929 4.50003C11.8929 4.31922 11.8232 4.24198 11.6657 4.08441C11.4059 3.86964 11.2538 3.55138 11.25 3.2143C11.25 3.03679 11.3939 2.89286 11.5715 2.89286C11.749 2.89286 11.8929 3.03676 11.8929 3.2143C11.8929 3.39511 11.9626 3.47231 12.1202 3.62988C12.1402 3.64995 12.1613 3.67112 12.1826 3.69313C12.3281 3.51091 12.5086 3.35963 12.7134 3.24819C12.8721 3.1693 13.0648 3.23377 13.144 3.39229C13.2233 3.55081 13.1593 3.74361 13.0009 3.82324C12.7432 3.95768 12.5689 4.21119 12.5357 4.5C12.4817 4.9257 12.3278 5.3326 12.0865 5.68747L12.0822 5.69545C12.1677 5.70364 12.2526 5.71626 12.3368 5.73328C12.5577 5.81899 12.8086 5.74759 12.9514 5.55845C13.3219 5.1012 13.8759 4.83138 14.4643 4.82139C14.6418 4.82139 14.7857 4.96529 14.7857 5.14283C14.7857 5.32033 14.6418 5.46426 14.4643 5.46426C13.9545 5.46426 13.7125 5.70628 13.4059 6.01295C13.1125 6.35266 12.6481 6.49016 12.2172 6.36483C12.0585 6.31483 11.8872 6.32288 11.7339 6.38761C11.6361 6.60287 11.5809 6.83511 11.5714 7.07139C11.5714 8.12454 10.5981 9.44437 9.32471 10.1541C9.32495 10.187 9.32601 10.2188 9.32636 10.2516C9.9886 10.0702 10.6132 9.7722 11.1709 9.3716C11.5653 9.09949 11.989 8.87259 12.434 8.69516C12.9215 8.51558 13.4518 8.487 13.9558 8.61324C14.1226 8.65241 14.293 8.67427 14.4643 8.67853C14.731 8.69287 14.9939 8.61089 15.2051 8.44748C15.3334 8.3269 15.5346 8.33108 15.6577 8.4569C15.7801 8.58181 15.7793 8.78189 15.6558 8.90578C15.5238 9.02542 15.3706 9.11939 15.2041 9.18277C15.2751 9.28346 15.3388 9.38918 15.3947 9.49904C15.4736 9.65767 15.4092 9.85018 15.2508 9.92953C15.0924 10.0088 14.8997 9.94507 14.8199 9.7869C14.7373 9.60335 14.6106 9.44311 14.451 9.32045C14.2419 9.31584 14.0339 9.29018 13.8299 9.24388C13.4358 9.13943 13.0189 9.16073 12.6374 9.30477C12.2419 9.4681 11.8649 9.67296 11.5127 9.91592C11.359 10.0124 11.2 10.111 11.0384 10.2077C11.0872 10.275 11.132 10.3452 11.1725 10.4178C11.3238 10.6806 11.4672 10.9286 11.8929 10.9286C12.1831 10.942 12.4659 10.8342 12.6735 10.631C12.8951 10.415 13.1906 10.2915 13.5 10.2857C13.6775 10.2857 13.8214 10.4296 13.8214 10.6072C13.8214 10.7847 13.6775 10.9286 13.5 10.9286C13.3327 10.9286 13.2505 10.9901 13.08 11.1292C13.0338 11.1669 12.9828 11.2074 12.9276 11.2481C13.0993 11.3726 13.2593 11.5123 13.4058 11.6656C13.5294 11.7915 13.5285 11.9934 13.4038 12.1181C13.2791 12.2428 13.0772 12.2437 12.9513 12.1201C12.6447 11.8135 12.4026 11.5715 11.8929 11.5715C11.3397 11.5724 10.8383 11.2458 10.6156 10.7394C10.5886 10.6926 10.5538 10.6323 10.529 10.5978C10.49 10.5873 10.4533 10.5694 10.4209 10.5452C10.0814 10.7199 9.71684 10.8408 9.34025 10.9036C9.34106 10.925 9.34278 10.9452 9.34366 10.9666C10.3301 11.164 11.304 12.1353 11.7987 12.63C12.871 13.7022 13.7477 13.9822 14.642 13.534C14.6452 13.5323 14.6483 13.5315 14.6516 13.53L14.6575 13.5275C14.7146 13.5 14.7739 13.4771 14.8346 13.4591C14.9592 13.3352 15.0628 13.1918 15.1414 13.0346C15.2212 12.8764 15.4139 12.8126 15.5723 12.8919C15.7307 12.9712 15.795 13.1638 15.7161 13.3224C15.696 13.3626 15.6624 13.4242 15.6211 13.4926C15.8729 13.587 16.1034 13.7309 16.2987 13.9157C16.4223 14.0415 16.4214 14.2434 16.2967 14.3681C16.172 14.4928 15.9701 14.4938 15.8442 14.3702C15.638 14.1673 15.358 14.0574 15.0688 14.0658C15.0127 14.0944 14.9527 14.1148 14.8908 14.1265C14.1952 14.4741 13.3741 14.4619 12.6892 14.0938C12.7717 14.3715 12.825 14.657 12.8482 14.9457C13.0504 15.0492 13.2738 15.1045 13.501 15.1072C13.6785 15.1075 13.8222 15.2516 13.8219 15.4291C13.8216 15.6066 13.6775 15.7502 13.5 15.75C13.322 15.7462 13.1451 15.7224 12.9724 15.6791C13.0447 15.8542 13.168 16.0035 13.3264 16.1075C13.4816 16.1908 13.5416 16.383 13.4614 16.5397C13.382 16.6958 13.1915 16.7586 13.0348 16.6804C12.4891 16.3503 12.1726 15.7436 12.2143 15.1071C12.1973 14.4993 12.0069 13.909 11.6656 13.4058C11.6532 13.3905 11.6423 13.3741 11.633 13.3567C11.5372 13.2707 11.441 13.1812 11.3442 13.0844C10.9583 12.6985 10.1309 11.873 9.38015 11.6373C9.44399 13.0158 9.74581 14.3727 10.2722 15.6483C10.9313 17.0609 12.3393 17.9732 13.898 17.9975C13.979 17.999 15.3432 18 15.4286 18C17.3267 18 18 16.4415 18 15.1071C18 10.1134 17.6767 8.72504 17.3738 7.816Z" fill="url(#paint1_linear_1_540)"/>
<path d="M9.3318 2.72682C9.33464 2.682 9.33837 2.63693 9.34315 2.5907C9.34568 2.56605 9.34885 2.54159 9.35205 2.51655C9.35799 2.47061 9.36548 2.42462 9.37399 2.378C9.37891 2.3509 9.38393 2.32418 9.38984 2.29693C9.39933 2.25359 9.41122 2.21045 9.42356 2.16707C9.4322 2.13645 9.44018 2.106 9.45038 2.07552C9.4623 2.04033 9.47745 2.00584 9.49165 1.97104C9.53184 1.86848 9.5825 1.77036 9.64279 1.67818V0.321434C9.64268 0.143965 9.49882 0.000105469 9.32136 0H8.67849C8.50102 0.000105469 8.35716 0.143965 8.35706 0.321434V1.67825C8.41735 1.77043 8.46801 1.86855 8.50819 1.97111C8.52243 2.00591 8.53755 2.0404 8.54947 2.07559C8.55966 2.10607 8.56764 2.13652 8.57629 2.16714C8.58866 2.21048 8.60051 2.25362 8.61 2.297C8.61595 2.32425 8.62094 2.35097 8.62586 2.37807C8.63437 2.42466 8.64189 2.47068 8.6478 2.51662C8.65103 2.54162 8.65416 2.56609 8.65669 2.59077C8.66147 2.63696 8.6652 2.68207 8.66805 2.72689C8.66959 2.7508 8.67142 2.77439 8.67251 2.79773C8.67452 2.84136 8.67564 2.88306 8.67649 2.92465C8.67691 2.94652 8.67779 2.96863 8.678 2.98969C8.67852 3.04344 8.67852 3.0947 8.67842 3.14346L8.67845 3.15091V3.21434C8.67845 3.41887 8.68109 3.61294 8.68524 3.80088C8.6857 3.82219 8.68594 3.84427 8.68647 3.86536C8.69076 4.04139 8.69705 4.20943 8.70454 4.37214C8.70584 4.4003 8.70707 4.42877 8.70844 4.45655C8.71632 4.61289 8.72542 4.76367 8.73576 4.90887C8.73776 4.93675 8.7398 4.96424 8.74188 4.99169C8.75263 5.13453 8.76438 5.27298 8.77717 5.40598C8.77942 5.42967 8.78192 5.45259 8.78424 5.47601C8.79763 5.60992 8.81173 5.74035 8.82678 5.86547C8.82864 5.88087 8.83061 5.89549 8.83247 5.91079C8.84675 6.02722 8.86162 6.14004 8.87695 6.24997C8.87972 6.26984 8.8824 6.29033 8.88517 6.31005C8.90082 6.42023 8.91699 6.52683 8.93323 6.63156C8.93773 6.66039 8.9422 6.68953 8.9467 6.71801C8.96192 6.81367 8.97721 6.90761 8.99254 6.99989L8.99999 7.04355L9.00731 6.99982C9.0227 6.90761 9.038 6.81353 9.05322 6.71762C9.05765 6.68981 9.06197 6.66134 9.06637 6.63318C9.08275 6.52792 9.09892 6.42076 9.11467 6.30998C9.11745 6.2903 9.12016 6.2698 9.1229 6.2499C9.13819 6.13997 9.1531 6.02719 9.16734 5.91071C9.1692 5.89546 9.1712 5.88083 9.17303 5.8654C9.18808 5.74028 9.20218 5.60981 9.21557 5.47594C9.21789 5.45249 9.22035 5.4296 9.22264 5.40591C9.23543 5.27291 9.24718 5.13446 9.25793 4.99162C9.26001 4.96417 9.26205 4.93664 9.26405 4.9088C9.27449 4.76346 9.28363 4.61236 9.29144 4.45542C9.29277 4.42825 9.294 4.40044 9.29527 4.37291C9.30279 4.20996 9.30905 4.0416 9.31338 3.86529C9.3139 3.8442 9.31415 3.82212 9.31461 3.80081C9.31872 3.61287 9.32139 3.4188 9.32139 3.21427V3.15084L9.32143 3.14339C9.32132 3.09459 9.32132 3.04337 9.32185 2.98962C9.32206 2.96852 9.32294 2.94645 9.32336 2.92458C9.32417 2.88302 9.32533 2.84129 9.32733 2.79766C9.32842 2.77432 9.33029 2.75073 9.3318 2.72682Z" fill="url(#paint2_linear_1_540)"/>
<defs>
<linearGradient id="paint0_linear_1_540" x1="0" y1="9.80101" x2="8.67551" y2="9.80101" gradientUnits="userSpaceOnUse">
<stop stop-color="#2A77B5"/>
<stop offset="1" stop-color="#5AC09C"/>
</linearGradient>
<linearGradient id="paint1_linear_1_540" x1="9.32471" y1="9.80093" x2="18" y2="9.80093" gradientUnits="userSpaceOnUse">
<stop stop-color="#2A77B5"/>
<stop offset="1" stop-color="#5AC09C"/>
</linearGradient>
<linearGradient id="paint2_linear_1_540" x1="8.35706" y1="3.52178" x2="9.64279" y2="3.52178" gradientUnits="userSpaceOnUse">
<stop stop-color="#2A77B5"/>
<stop offset="1" stop-color="#5AC09C"/>
</linearGradient>
</defs>
</svg>
