<svg width="21" height="21" viewBox="0 0 21 21" fill="none" xmlns="http://www.w3.org/2000/svg">
<path fill-rule="evenodd" clip-rule="evenodd" d="M14.3294 8.41758V9.99369C11.7921 10.5087 9.88239 12.752 9.88239 15.4413C9.88239 18.5114 12.3712 21.0001 15.4412 21.0001C18.5113 21.0001 21 18.5114 21 15.4413C21 12.84 19.2133 10.6561 16.8 10.0498V8.41758L17.4089 9.02645C17.8913 9.50886 18.6735 9.50886 19.1559 9.02645C19.6383 8.54402 19.6383 7.76188 19.1559 7.27948L16.9623 5.08591C16.1905 4.31405 14.939 4.31405 14.1672 5.08591L11.9736 7.27948C11.4912 7.76188 11.4912 8.54402 11.9736 9.02645C12.456 9.50886 13.2382 9.50886 13.7206 9.02645L14.3294 8.41758ZM15.5647 12.3691C15.4986 12.3691 15.4338 12.3639 15.3705 12.3539C13.6976 12.3914 12.353 13.7594 12.353 15.4413C12.353 17.1469 13.7356 18.5295 15.4412 18.5295C17.1468 18.5295 18.5294 17.1469 18.5294 15.4413C18.5294 13.8191 17.2788 12.4891 15.6891 12.3629C15.6482 12.367 15.6067 12.3691 15.5647 12.3691Z" fill="url(#paint0_linear_4_93)"/>
<path fill-rule="evenodd" clip-rule="evenodd" d="M11.1176 5.55882C11.1176 8.2278 9.23666 10.4575 6.728 10.9945V12.9133H7.77343C8.45566 12.9133 9.00873 13.4663 9.00873 14.1486C9.00873 14.8308 8.45566 15.3839 7.77343 15.3839H6.728V16.2221C6.728 16.9043 6.17494 17.4573 5.49271 17.4573C4.81048 17.4573 4.25742 16.9043 4.25742 16.2221V15.3839H3.21167C2.52944 15.3839 1.97637 14.8308 1.97637 14.1486C1.97637 13.4663 2.52944 12.9133 3.21167 12.9133H4.25742V10.9645C1.81519 10.3786 0 8.18071 0 5.55882C0 2.48877 2.48877 0 5.55882 0C8.62887 0 11.1176 2.48877 11.1176 5.55882ZM5.55882 8.64706C7.26442 8.64706 8.64706 7.26442 8.64706 5.55882C8.64706 3.85323 7.26442 2.47059 5.55882 2.47059C3.85323 2.47059 2.47059 3.85323 2.47059 5.55882C2.47059 7.26442 3.85323 8.64706 5.55882 8.64706Z" fill="url(#paint1_linear_4_93)"/>
<defs>
<linearGradient id="paint0_linear_4_93" x1="9.88239" y1="12.7536" x2="21" y2="12.7536" gradientUnits="userSpaceOnUse">
<stop stop-color="#2A77B5"/>
<stop offset="1" stop-color="#5AC09C"/>
</linearGradient>
<linearGradient id="paint1_linear_4_93" x1="0" y1="8.72867" x2="11.1176" y2="8.72867" gradientUnits="userSpaceOnUse">
<stop stop-color="#2A77B5"/>
<stop offset="1" stop-color="#5AC09C"/>
</linearGradient>
</defs>
</svg>
