<svg width="22" height="24" viewBox="0 0 22 24" fill="none" xmlns="http://www.w3.org/2000/svg">
<path d="M21.4657 23.9983H20.5899C20.4268 23.9982 20.2771 23.9103 20.2009 23.7699C19.5186 22.5396 19.1632 21.1626 19.1671 19.7643V19.7129C19.1671 17.9559 19.1671 17.0722 18.264 14.435C18.2131 14.2859 18.0826 14.1759 17.9238 14.1483C17.765 14.1207 17.6034 14.1799 17.5026 14.3026C17.4261 14.3968 15.6212 16.6518 16.5344 20.6625C16.7228 21.7151 16.552 22.7988 16.0481 23.748C15.9681 23.8941 15.8153 23.9886 15.6454 23.997L6.35413 24C6.18157 24.0001 6.0245 23.903 5.951 23.751C5.44542 22.801 5.27382 21.7158 5.4625 20.6617C6.37966 16.6518 4.57526 14.399 4.49869 14.3026C4.41503 14.2008 4.28838 14.1417 4.15453 14.1419C4.12869 14.1418 4.10291 14.1441 4.07751 14.1487C3.91884 14.1763 3.78833 14.2861 3.73732 14.435C2.83424 17.0722 2.83424 17.9559 2.83424 19.7129V19.7617C2.80115 21.1543 2.44869 22.522 1.80266 23.7647C1.72839 23.9082 1.57731 23.9986 1.41229 23.9983H0.53562C0.30876 23.9994 0.118207 23.8324 0.0955236 23.6126C-0.0576601 21.9053 -0.0265365 20.187 0.188384 18.486C0.424926 16.9041 0.573602 15.3109 0.633761 13.7133C0.662109 13.0638 0.854051 12.4309 1.19268 11.8706C1.48447 11.3024 1.78593 10.7135 1.46774 10.0947C1.15367 9.34576 1.15636 8.50625 1.47522 7.7592C1.89904 6.76284 2.84788 6.01975 4.29184 5.5505L5.13682 5.27795C8.32928 4.24945 8.99339 4.03518 8.99339 2.14404C8.99666 1.60529 8.90924 1.06966 8.73461 0.558441C8.69046 0.427664 8.714 0.284169 8.7978 0.173299C8.8816 0.0624283 9.01531 -0.00211917 9.15666 5.31339e-05H10.5606V2.14275C10.5606 4.36687 9.18615 4.89526 6.07687 5.87919L4.57218 6.36044C3.39712 6.74313 2.63576 7.31137 2.30569 8.04803C2.07414 8.57605 2.05575 9.16969 2.25419 9.71034C2.76911 10.7088 2.2982 11.6332 1.97077 12.2739C1.69946 12.71 1.54201 13.2042 1.51219 13.7133C1.47143 15.1054 1.3539 16.4943 1.16012 17.874V17.8787L1.0721 18.513C1.05801 18.5987 1.05361 18.6501 1.05229 18.6523C0.943916 19.5448 0.885883 20.4426 0.878455 21.3413C0.876502 21.5779 1.0717 21.7712 1.31459 21.7733H1.31855C1.56024 21.7733 1.75671 21.5835 1.75865 21.3482C1.76608 20.4818 1.82235 19.6164 1.9272 18.756C1.93028 18.7311 1.93248 18.7131 1.93292 18.7007V18.7062L1.94965 18.6017C1.94965 18.5957 1.94965 18.5897 1.95229 18.5837L1.96065 18.5267C1.97914 18.3981 2.00466 18.2117 2.03239 17.9884C2.23118 16.5707 2.35135 15.1436 2.39239 13.7133C2.43149 13.3271 2.5621 12.9549 2.77395 12.6261C3.1159 11.9555 3.75272 10.7067 3.05297 9.35165C2.96162 9.03378 2.9827 8.69523 3.11282 8.39043C3.33859 7.88519 3.92304 7.4755 4.84944 7.17381L6.34929 6.69427C8.16513 6.1196 9.66893 5.64092 10.5606 4.67714V11.5706C10.5606 12.3197 10.0765 12.8331 9.11969 13.1027C8.80604 12.2931 7.92313 11.8368 7.05879 12.0377C6.19445 12.2386 5.61832 13.0339 5.71397 13.8942C5.80962 14.7544 6.54722 15.4113 7.43568 15.4274C8.32415 15.4435 9.08632 14.8138 9.21476 13.9576C9.70212 13.8459 10.1604 13.6369 10.5606 13.3439V19.2843C10.5571 19.9259 10.1276 20.4915 9.49862 20.6827C9.11452 19.906 8.19778 19.5278 7.3576 19.7996C6.51741 20.0713 6.01521 20.9084 6.18472 21.7545C6.35422 22.6007 7.1427 23.1926 8.02618 23.1369C8.90966 23.0813 9.61324 22.3954 9.66938 21.535C10.811 21.1176 11.4408 20.3313 11.4408 19.2843V18.0622C11.7112 18.263 12.0118 18.422 12.332 18.5335C12.3881 19.3939 13.0917 20.0798 13.9752 20.1354C14.8586 20.1911 15.6471 19.5992 15.8166 18.7531C15.9861 17.9069 15.4839 17.0699 14.6437 16.7981C13.8035 16.5263 12.8868 16.9045 12.5027 17.6812C11.8744 17.4902 11.445 16.9255 11.4408 16.2846V10.3441C11.8409 10.6371 12.2992 10.8461 12.7866 10.9578C12.9162 11.8084 13.6747 12.4326 14.5576 12.4155C15.4404 12.3984 16.1728 11.7452 16.2676 10.8904C16.3624 10.0355 15.7902 9.2451 14.9314 9.04483C14.0727 8.84457 13.1948 9.29677 12.8816 10.1007C11.9249 9.83333 11.4408 9.31994 11.4408 8.57085V4.67714C12.3324 5.64092 13.8362 6.1196 15.652 6.69427L17.1484 7.17295C18.0765 7.4755 18.661 7.88519 18.8867 8.39086C19.0115 8.68749 19.0366 9.01498 18.9585 9.32637C18.2473 10.7076 18.8837 11.9559 19.2415 12.6578C19.4465 12.9771 19.5723 13.3385 19.6089 13.7133C19.6497 15.1419 19.7698 16.5673 19.9685 17.9833C19.9953 18.2117 20.0222 18.3986 20.0407 18.5267L20.049 18.5837V18.5953L20.0653 18.6664C20.0653 18.684 20.0706 18.7388 20.0728 18.756C20.1781 19.6166 20.2348 20.4823 20.2427 21.3491C20.2446 21.5844 20.4411 21.7742 20.6828 21.7742H20.6867C20.8035 21.7731 20.9151 21.727 20.9969 21.6458C21.0787 21.5646 21.1241 21.4551 21.1229 21.3413C21.1159 20.4472 21.0572 19.5541 20.9468 18.6664C20.944 18.6146 20.9378 18.5631 20.9284 18.5121L20.8403 17.8787C20.6469 16.4974 20.5296 15.1069 20.4891 13.7133C20.4569 13.1936 20.2943 12.6895 20.0156 12.2452C19.7036 11.6332 19.2322 10.7088 19.7568 9.68977C19.9462 9.15436 19.9244 8.56952 19.6956 8.04889C19.3669 7.31137 18.6042 6.74313 17.4278 6.35958L15.9245 5.87919C12.8152 4.89526 11.4408 4.36687 11.4408 2.14275V0.00390999H12.8438C12.9843 0.00285492 13.1167 0.0676392 13.1997 0.178018C13.2828 0.288396 13.3062 0.430906 13.2628 0.561012C13.0892 1.07111 13.0024 1.60539 13.0057 2.14275C13.0057 4.03604 13.6698 4.24988 16.8623 5.27666L17.7073 5.54922C19.1534 6.02061 20.1023 6.76155 20.5261 7.75791C20.845 8.50497 20.8477 9.34447 20.5336 10.0935C20.2154 10.7135 20.5169 11.3011 20.8086 11.8693C21.1473 12.4297 21.3392 13.0625 21.3676 13.712C21.4272 15.3101 21.5754 16.9039 21.8116 18.4864C22.0265 20.1876 22.0577 21.906 21.9045 23.6135C21.8814 23.8324 21.6918 23.9988 21.4657 23.9983ZM8.36009 13.7133C8.36009 14.1867 7.96601 14.5704 7.4799 14.5704C6.99378 14.5704 6.5997 14.1867 6.5997 13.7133C6.5997 13.24 6.99378 12.8562 7.4799 12.8562C7.96601 12.8562 8.36009 13.24 8.36009 13.7133ZM8.80019 21.427C8.80019 21.9004 8.40611 22.2841 7.91999 22.2841C7.43388 22.2841 7.0398 21.9004 7.0398 21.427C7.0398 20.9537 7.43388 20.57 7.91999 20.57C8.40611 20.57 8.80019 20.9537 8.80019 21.427ZM14.0813 17.5702C14.5675 17.5702 14.9615 17.9539 14.9615 18.4273C14.9615 18.9006 14.5675 19.2843 14.0813 19.2843C13.5952 19.2843 13.2011 18.9006 13.2011 18.4273C13.2011 17.9539 13.5952 17.5702 14.0813 17.5702ZM13.6412 10.7135C13.6412 10.2402 14.0353 9.85647 14.5214 9.85647C15.0076 9.85647 15.4016 10.2402 15.4016 10.7135C15.4016 11.1869 15.0076 11.5706 14.5214 11.5706C14.0353 11.5706 13.6412 11.1869 13.6412 10.7135Z" fill="url(#paint0_linear_4_53)"/>
<defs>
<linearGradient id="paint0_linear_4_53" x1="0" y1="12" x2="22" y2="12" gradientUnits="userSpaceOnUse">
<stop stop-color="#2A77B5"/>
<stop offset="1" stop-color="#5AC09C"/>
</linearGradient>
</defs>
</svg>
