<svg width="21" height="19" viewBox="0 0 21 19" fill="none" xmlns="http://www.w3.org/2000/svg">
<path d="M7.88861 12.1974C7.59532 12.4533 7.17723 12.134 7.35478 11.7853C7.7502 11.0095 8.08047 10.1962 7.68696 9.34931C7.35549 8.63578 6.63529 8.19693 5.85208 8.20314C4.99323 8.20982 4.31001 8.80188 3.80458 9.44333C3.4051 9.95043 2.93117 10.9026 3.6151 11.3997C3.62966 11.4102 3.63801 11.4254 3.6509 11.4374C3.69051 11.4541 3.72846 11.4756 3.75208 11.5049C3.78573 11.5467 3.82176 11.5865 3.86066 11.6238C3.87904 11.6414 3.89813 11.6584 3.91746 11.6746C3.9177 11.6748 3.91865 11.6755 3.91913 11.676C3.98785 11.7247 4.06207 11.7636 4.1382 11.7989C4.21742 11.8285 4.29904 11.85 4.3828 11.8643C4.46298 11.8712 4.54316 11.875 4.62358 11.8664C4.71164 11.8571 4.8016 11.9087 4.86389 11.966C4.93071 12.0273 4.95958 12.1184 4.9634 12.2063C4.96722 12.291 4.92283 12.3876 4.86389 12.4466C4.79564 12.5148 4.71617 12.5363 4.62358 12.5461C4.2105 12.5898 3.77499 12.4351 3.45689 12.1609C2.30427 13.3143 1.15214 14.4676 0 15.6209C0.430739 16.1741 0.861716 16.7275 1.29293 17.2806C1.62702 17.7097 1.96135 18.139 2.29544 18.5681C2.31979 18.5993 2.34747 18.6311 2.37324 18.6623C2.61569 18.3664 2.94454 18.1025 3.15215 17.9397C3.738 17.4799 4.40308 17.0816 5.06554 16.7427C5.99574 16.2669 6.96675 16.0328 8.01007 16.1166C8.83886 16.1831 9.61896 16.2753 10.3685 15.8128C10.821 15.5336 11.2624 15.0358 11.5564 14.5993C11.9733 13.981 11.9733 13.2584 11.5252 12.6532C10.7513 11.6078 8.88372 11.3295 7.88861 12.1974Z" fill="url(#paint0_linear_3_13)"/>
<path d="M3.9157 11.6741C3.9167 11.6748 3.91771 11.6751 3.91871 11.6758C3.90439 11.6653 3.89359 11.6583 3.9157 11.6741Z" fill="url(#paint1_linear_3_13)"/>
<path d="M14.1183 5.95494C14.4488 5.96281 14.7629 6.04991 15.0531 6.19118C17.0354 4.81282 19.0175 3.4347 20.9999 2.05657C20.6768 1.37097 20.3534 0.685364 20.0301 0C18.8567 0.557693 17.7972 1.31417 16.6737 1.9635C15.5547 2.60997 14.3668 3.07435 13.0772 3.22732C11.7009 3.39079 10.3035 2.96888 8.94112 3.20274C7.81141 3.39651 6.74232 4.23484 7.0955 5.49198C7.40478 6.59138 8.54952 7.81797 9.78756 7.61942C10.0603 7.57575 10.3438 7.8435 10.1715 8.11889C9.91857 8.52314 10.1546 9.10088 10.2732 9.52016C10.4164 10.0249 10.613 10.5222 11.0158 10.8773C11.6955 11.4767 12.7066 11.5674 13.538 11.2732C15.3399 10.6351 16.0298 8.39666 14.8853 6.86056C14.8199 6.82142 14.7526 6.78587 14.6832 6.75413C14.6627 6.74649 14.6424 6.73838 14.6219 6.73122C14.5813 6.7169 14.5402 6.70378 14.4985 6.69232C14.4283 6.67275 14.3567 6.65963 14.2849 6.64794C14.2295 6.64197 14.1739 6.63624 14.1181 6.63481C13.9274 6.63028 13.7866 6.4828 13.7783 6.29499C13.7704 6.11434 13.9403 5.95064 14.1183 5.95494Z" fill="url(#paint2_linear_3_13)"/>
<path d="M1.62966 5.11947C1.59196 5.28556 1.68002 5.50391 1.86711 5.53756C2.53362 5.65759 3.18963 5.8275 3.83061 6.04562C3.99909 6.10289 4.2098 5.97975 4.2487 5.80817C4.29165 5.61965 4.19167 5.45141 4.0115 5.39008C3.37052 5.17173 2.71427 5.00206 2.04776 4.88203C1.87355 4.85076 1.67286 4.92951 1.62966 5.11947Z" fill="url(#paint3_linear_3_13)"/>
<path d="M5.19988 4.49854C5.36645 4.45272 5.49984 4.25394 5.43732 4.08045C5.1469 3.27553 5.10323 2.41142 5.32635 1.58431C5.44042 1.16121 4.78441 0.980798 4.67058 1.40366C4.4181 2.34007 4.45223 3.34807 4.78179 4.26133C4.84407 4.43387 5.01302 4.54985 5.19988 4.49854Z" fill="url(#paint4_linear_3_13)"/>
<path d="M1.16838 2.46417C1.8232 2.85506 2.4637 3.26957 3.08893 3.70651C3.23521 3.80865 3.47313 3.73801 3.55403 3.58457C3.64591 3.4106 3.58816 3.22852 3.43209 3.11947C2.8071 2.68252 2.16636 2.26801 1.5113 1.87712C1.35858 1.78597 1.13139 1.83775 1.0462 1.99907C0.959576 2.16325 1.00492 2.36681 1.16838 2.46417Z" fill="url(#paint5_linear_3_13)"/>
<defs>
<linearGradient id="paint0_linear_3_13" x1="0" y1="13.4327" x2="11.8653" y2="13.4327" gradientUnits="userSpaceOnUse">
<stop stop-color="#2A77B5"/>
<stop offset="1" stop-color="#5AC09C"/>
</linearGradient>
<linearGradient id="paint1_linear_3_13" x1="3.90308" y1="11.6703" x2="3.91871" y2="11.6703" gradientUnits="userSpaceOnUse">
<stop stop-color="#2A77B5"/>
<stop offset="1" stop-color="#5AC09C"/>
</linearGradient>
<linearGradient id="paint2_linear_3_13" x1="7.02686" y1="5.71777" x2="20.9999" y2="5.71777" gradientUnits="userSpaceOnUse">
<stop stop-color="#2A77B5"/>
<stop offset="1" stop-color="#5AC09C"/>
</linearGradient>
<linearGradient id="paint3_linear_3_13" x1="1.62109" y1="5.4676" x2="4.25861" y2="5.4676" gradientUnits="userSpaceOnUse">
<stop stop-color="#2A77B5"/>
<stop offset="1" stop-color="#5AC09C"/>
</linearGradient>
<linearGradient id="paint4_linear_3_13" x1="4.50452" y1="2.83674" x2="5.45302" y2="2.83674" gradientUnits="userSpaceOnUse">
<stop stop-color="#2A77B5"/>
<stop offset="1" stop-color="#5AC09C"/>
</linearGradient>
<linearGradient id="paint5_linear_3_13" x1="1.00305" y1="2.79341" x2="3.59796" y2="2.79341" gradientUnits="userSpaceOnUse">
<stop stop-color="#2A77B5"/>
<stop offset="1" stop-color="#5AC09C"/>
</linearGradient>
</defs>
</svg>
