<svg width="24" height="26" viewBox="0 0 24 26" fill="none" xmlns="http://www.w3.org/2000/svg">
<path d="M7.21478 14.9312C8.60565 14.9312 9.87224 15.4994 10.7837 16.4108C11.7011 17.3282 12.2634 18.5889 12.2634 19.9857C12.2634 21.3766 11.7011 22.6431 10.7837 23.5546C9.87224 24.472 8.60565 25.0343 7.21478 25.0343C5.81798 25.0343 4.55732 24.472 3.63993 23.5546C2.72847 22.6431 2.16028 21.3766 2.16028 19.9857C2.16028 18.5889 2.72847 17.3282 3.63993 16.4108C4.55732 15.4994 5.81798 14.9312 7.21478 14.9312ZM6.30923 19.382C6.47495 19.382 6.61108 19.2459 6.61108 19.0801V16.979H7.81848V19.0801C7.81848 19.2459 7.95461 19.382 8.12033 19.382H10.2155V20.5894H8.12033C7.95461 20.5894 7.81848 20.7255 7.81848 20.8912V22.9864H6.61108V20.8912C6.61108 20.7255 6.47495 20.5894 6.30923 20.5894H4.21404V19.382H6.30923ZM10.8192 20.8912V19.0801C10.8192 18.9144 10.6831 18.7783 10.5174 18.7783H8.42218V16.6831C8.42218 16.5174 8.28605 16.3812 8.12033 16.3812H6.30923C6.14351 16.3812 6.00738 16.5174 6.00738 16.6831V18.7783H3.91219C3.74647 18.7783 3.61034 18.9144 3.61034 19.0801V20.8912C3.61034 21.057 3.74647 21.1931 3.91219 21.1931H6.00738V23.2883C6.00738 23.454 6.14351 23.5901 6.30923 23.5901H8.12033C8.28605 23.5901 8.42218 23.454 8.42218 23.2883V21.1931H10.5174C10.6831 21.1931 10.8192 21.057 10.8192 20.8912Z" fill="url(#paint0_linear_4_102)"/>
<path fill-rule="evenodd" clip-rule="evenodd" d="M18.6259 14.2328C18.5253 14.582 18.2945 14.8661 17.9985 15.0377C17.6967 15.2094 17.3297 15.2686 16.9687 15.1739C16.6017 15.0792 16.3176 14.8424 16.1401 14.5406C16.0158 14.3216 15.9507 14.0671 15.9566 13.8067L14.761 13.4871C14.5539 14.0138 14.2106 14.4577 13.7726 14.7714L14.3941 15.8486C14.6427 15.7716 14.9031 15.7657 15.1457 15.8367C15.4831 15.9255 15.785 16.1445 15.9744 16.47C16.1578 16.7956 16.1993 17.1625 16.1105 17.4999C16.0217 17.8313 15.8027 18.1332 15.4772 18.3226C15.4713 18.3285 15.4654 18.3285 15.4594 18.3344C15.1339 18.512 14.7729 18.5475 14.4473 18.4587C14.11 18.3699 13.8081 18.1509 13.6187 17.8254C13.4353 17.4999 13.3938 17.1329 13.4826 16.7956C13.5477 16.5529 13.6838 16.328 13.8732 16.1504L13.2518 15.0732C12.6777 15.3277 12.0089 15.3988 11.3519 15.2212C10.5884 15.02 9.98471 14.5228 9.61776 13.8895C9.61184 13.8836 9.61184 13.8777 9.60592 13.8718C9.41652 13.5344 9.29223 13.1556 9.2508 12.7591H8.00789C7.94871 13.0136 7.8185 13.2444 7.64094 13.4219C7.39827 13.6705 7.05499 13.8185 6.68212 13.8185C6.30925 13.8185 5.96597 13.6705 5.7233 13.4219C5.47472 13.1734 5.32084 12.836 5.32084 12.4631C5.32084 12.0843 5.47472 11.747 5.7233 11.4984C5.96597 11.2557 6.30925 11.1018 6.68212 11.1018C7.05499 11.1018 7.39827 11.2557 7.64094 11.4984C7.8185 11.676 7.94871 11.9068 8.00789 12.1613H9.2508C9.26264 12.0133 9.29223 11.8654 9.33366 11.7233C9.4402 11.3208 9.62367 10.9657 9.87226 10.6639L8.99038 9.78792C8.77139 9.92404 8.51689 9.99507 8.26831 9.99507C7.91911 9.99507 7.56991 9.86486 7.30358 9.59852C7.03724 9.33218 6.90703 8.98298 6.90703 8.63379C6.90703 8.29051 7.03724 7.94131 7.30358 7.67497C7.56991 7.40863 7.91911 7.27842 8.26831 7.27842C8.61159 7.27842 8.96079 7.40863 9.22713 7.67497C9.49346 7.94131 9.62367 8.29051 9.62367 8.63379C9.62367 8.88829 9.55857 9.14279 9.41652 9.36178L10.2925 10.2377C10.4109 10.143 10.5351 10.0602 10.6654 9.98915C11.0086 9.78792 11.3874 9.66362 11.7899 9.61628V8.37928C11.5354 8.3201 11.3105 8.18989 11.1329 8.01233C10.8843 7.76375 10.7305 7.42639 10.7305 7.05351C10.7305 6.67472 10.8843 6.33736 11.1329 6.08878C11.3756 5.84612 11.7189 5.69223 12.0917 5.69223C12.4646 5.69223 12.8079 5.84612 13.0506 6.08878C13.2991 6.33736 13.453 6.67472 13.453 7.05351C13.453 7.42639 13.2991 7.76375 13.0506 8.01233C13.0446 8.01825 13.0387 8.02417 13.0328 8.03009C12.8612 8.19581 12.6363 8.3201 12.3936 8.37928V9.61628C12.5356 9.63403 12.6836 9.66362 12.8316 9.69914C13.5951 9.90629 14.1988 10.3975 14.5657 11.0308C14.5716 11.0367 14.5716 11.0427 14.5776 11.0486C14.8853 11.599 15.0215 12.2501 14.9149 12.907L16.1164 13.2266C16.2348 12.9958 16.4182 12.8123 16.6372 12.688C16.9332 12.5164 17.2942 12.4513 17.6493 12.546C17.6612 12.546 17.673 12.5519 17.6908 12.5519C18.0399 12.6525 18.324 12.8834 18.4957 13.1793C18.4957 13.1911 18.5016 13.197 18.5016 13.203C18.6673 13.493 18.7206 13.8481 18.6318 14.1973C18.6318 14.2091 18.6259 14.221 18.6259 14.2328ZM17.6967 14.5169C17.8624 14.4222 17.9926 14.2624 18.0518 14.0612V14.0552C18.1051 13.8599 18.0755 13.6587 17.9808 13.493L17.9748 13.4811C17.8801 13.3154 17.7144 13.1852 17.5132 13.1319C17.312 13.0727 17.1048 13.1083 16.9391 13.203C16.7674 13.3036 16.6372 13.4634 16.584 13.6646C16.5307 13.8658 16.5662 14.073 16.6609 14.2387C16.7556 14.4104 16.9154 14.5406 17.1226 14.5938C17.3238 14.6471 17.5309 14.6175 17.6967 14.5169ZM14.6012 17.8787C14.7847 17.926 14.9859 17.9083 15.1635 17.8136L15.1753 17.8017C15.3588 17.7011 15.4772 17.5295 15.5305 17.3401C15.5778 17.1566 15.56 16.9494 15.4535 16.766C15.347 16.5825 15.1813 16.4641 14.9919 16.4168C14.8143 16.3635 14.6131 16.3813 14.4355 16.476C14.4237 16.4878 14.4118 16.4937 14.4 16.4996C14.2284 16.6062 14.1159 16.766 14.0626 16.9494C14.0153 17.1329 14.033 17.3342 14.1337 17.5117L14.1514 17.5472C14.258 17.7189 14.4178 17.8313 14.6012 17.8787ZM6.14353 11.9245C6.0074 12.0607 5.92454 12.2501 5.92454 12.4631C5.92454 12.6703 6.0074 12.8597 6.14353 12.9958C6.27965 13.1319 6.46905 13.2207 6.68212 13.2207C6.88927 13.2207 7.07867 13.1319 7.22072 12.9958C7.35684 12.8597 7.4397 12.6703 7.4397 12.4631C7.4397 12.2501 7.35684 12.0607 7.22072 11.9245C7.07867 11.7884 6.88927 11.7055 6.68212 11.7055C6.47497 11.7055 6.28557 11.7884 6.14353 11.9245ZM8.26831 7.8762C8.073 7.8762 7.87768 7.95314 7.72972 8.10111C7.58175 8.24907 7.51073 8.44439 7.51073 8.63379C7.51073 8.8291 7.58175 9.02441 7.72972 9.17238C7.87768 9.32034 8.073 9.39137 8.26831 9.39137C8.45771 9.39137 8.65302 9.32034 8.80099 9.17238C8.94895 9.02441 9.02589 8.8291 9.02589 8.63379C9.02589 8.44439 8.94895 8.24907 8.80099 8.10111C8.65302 7.95314 8.45771 7.8762 8.26831 7.8762ZM12.6303 6.51492C12.4883 6.37879 12.2989 6.29593 12.0917 6.29593C11.8846 6.29593 11.6952 6.37879 11.5531 6.51492C11.417 6.65105 11.3342 6.84044 11.3342 7.05351C11.3342 7.26067 11.417 7.45006 11.5531 7.58619C11.6952 7.72232 11.8846 7.8111 12.0917 7.8111C12.293 7.8111 12.4764 7.72824 12.6126 7.59803C12.6185 7.59803 12.6244 7.59211 12.6303 7.58619C12.7665 7.45006 12.8493 7.26067 12.8493 7.05351C12.8493 6.84044 12.7665 6.65105 12.6303 6.51492ZM13.2222 14.4163C13.7194 14.1263 14.11 13.6469 14.2698 13.0432C14.4296 12.4513 14.3408 11.8417 14.0567 11.3445C14.0508 11.3445 14.0508 11.3386 14.0449 11.3327C13.7608 10.8296 13.2814 10.439 12.6777 10.2792C12.4883 10.2318 12.2989 10.2022 12.1154 10.2022C12.1095 10.2022 12.0977 10.2022 12.0917 10.2022C12.0858 10.2022 12.074 10.2022 12.0681 10.2022C11.6774 10.2081 11.2927 10.3147 10.9613 10.5041C10.8015 10.5988 10.6476 10.7112 10.5115 10.8473C10.5115 10.8533 10.4996 10.8592 10.4937 10.8651C10.4878 10.871 10.4819 10.8769 10.476 10.8829C10.2155 11.1492 10.0143 11.4866 9.91369 11.8772C9.86042 12.0666 9.83674 12.2501 9.83083 12.4395C9.83674 12.4454 9.83674 12.4513 9.83674 12.4631C9.83674 12.4691 9.83674 12.475 9.83083 12.4868C9.83674 12.8715 9.94328 13.2503 10.1268 13.5758C10.1327 13.5818 10.1327 13.5877 10.1386 13.5877C10.4227 14.0908 10.908 14.4814 11.5058 14.6412C12.1036 14.801 12.7073 14.7063 13.2044 14.4281C13.2104 14.4222 13.2163 14.4222 13.2222 14.4163ZM4.37978 14.9785C4.01282 14.1499 3.69914 13.2385 3.45055 12.2382C3.11911 10.8592 2.9238 9.32034 2.9238 7.59803C2.9238 7.43822 3.04809 7.3021 3.20789 7.29618C3.42096 7.27842 7.71196 6.87004 11.8017 3.20641C11.9142 3.1058 12.0917 3.1058 12.2042 3.21233C16.3887 6.95882 20.7862 7.29618 20.798 7.29618C20.9578 7.30801 21.0762 7.44414 21.0762 7.59803C21.0762 17.9083 14.11 21.6192 12.4528 22.3591C12.1746 22.9805 11.7781 23.5546 11.2809 24.0518C10.9731 24.3596 10.6298 24.6318 10.2688 24.8567C11.2513 25.4072 11.8964 25.638 11.8964 25.638C11.9615 25.6617 12.0326 25.6617 12.1036 25.638C12.1391 25.6202 24 21.3588 24 5.85203C24 5.69815 23.8816 5.56794 23.7277 5.55018C23.71 5.55018 17.8091 5.10037 12.2042 0.0754624C12.0917 -0.0251541 11.9142 -0.0251541 11.8017 0.0754624C6.30333 4.99975 0.526757 5.53243 0.284094 5.55018C0.124291 5.56202 0 5.69223 0 5.85203C0 8.19581 0.272256 10.2851 0.733909 12.1376C1.16597 13.8718 1.75783 15.4047 2.45623 16.7482C2.65746 16.4523 2.88829 16.1741 3.14871 15.9196C3.51566 15.5467 3.92996 15.233 4.37978 14.9785ZM12.7487 21.5541C14.8972 20.4414 20.366 16.7482 20.4725 7.86436C19.4308 7.72232 15.6547 7.00617 11.997 3.82787C8.34525 7.00617 4.56325 7.72232 3.5275 7.86436C3.54525 9.4328 3.72873 10.8414 4.0365 12.0962C4.26732 13.0491 4.56917 13.9191 4.91837 14.7122C5.63452 14.3985 6.41578 14.2328 7.2148 14.2328C8.7418 14.2328 10.1978 14.8365 11.2809 15.9196C12.364 16.9968 12.9677 18.4528 12.9677 19.9857C12.9677 20.5184 12.8908 21.0451 12.7487 21.5541Z" fill="url(#paint1_linear_4_102)"/>
<defs>
<linearGradient id="paint0_linear_4_102" x1="2.16028" y1="19.9827" x2="12.2634" y2="19.9827" gradientUnits="userSpaceOnUse">
<stop stop-color="#2A77B5"/>
<stop offset="1" stop-color="#5AC09C"/>
</linearGradient>
<linearGradient id="paint1_linear_4_102" x1="0" y1="12.8279" x2="24" y2="12.8279" gradientUnits="userSpaceOnUse">
<stop stop-color="#2A77B5"/>
<stop offset="1" stop-color="#5AC09C"/>
</linearGradient>
</defs>
</svg>
