<svg width="22" height="21" viewBox="0 0 22 21" fill="none" xmlns="http://www.w3.org/2000/svg">
<path fill-rule="evenodd" clip-rule="evenodd" d="M3.21366 11.859C3.06062 13.4526 3.16727 15.0088 3.61421 16.1184C3.94373 16.9362 4.45858 17.5212 5.16306 17.7646C5.89121 18.0164 6.85109 17.9059 8.06851 17.2127C8.24044 17.1146 8.30046 16.8953 8.20266 16.7234C8.10461 16.5515 7.88533 16.4912 7.7134 16.5893C6.73822 17.1445 5.98065 17.2882 5.39741 17.0867C4.87778 16.9071 4.52243 16.4534 4.27971 15.8503C3.86816 14.8288 3.78686 13.3945 3.92771 11.9276C3.9466 11.7303 3.80216 11.5551 3.60488 11.5362C3.40784 11.5173 3.23255 11.662 3.21366 11.859Z" fill="url(#paint0_linear_4_84)"/>
<path fill-rule="evenodd" clip-rule="evenodd" d="M18.1728 11.9276C18.3137 13.3945 18.2324 14.8288 17.8208 15.8503C17.5779 16.4534 17.2225 16.9071 16.7031 17.0867C16.1199 17.2882 15.3623 17.1445 14.3871 16.5893C14.2149 16.4912 13.9959 16.5515 13.8979 16.7234C13.7998 16.8953 13.8601 17.1146 14.032 17.2127C15.2494 17.9059 16.2091 18.0164 16.9375 17.7646C17.6419 17.5212 18.1568 16.9362 18.4863 16.1184C18.9332 15.0088 19.0399 13.4526 18.8869 11.859C18.868 11.662 18.6924 11.5173 18.4954 11.5362C18.2984 11.5551 18.1537 11.7303 18.1728 11.9276Z" fill="url(#paint1_linear_4_84)"/>
<path fill-rule="evenodd" clip-rule="evenodd" d="M11.3587 11.0907V0H12.9369V1.77651C12.9369 2.72968 13.4157 3.61925 14.211 4.14439L15.6652 5.10426C15.6363 5.63776 15.7257 6.15787 15.9134 6.6347C15.6984 6.85159 15.5093 7.09646 15.3529 7.36525L12.9369 5.77024V11.2442C12.4144 11.1194 11.8879 11.0952 11.3587 11.0907ZM10.6413 11.0907C10.1121 11.0952 9.58551 11.1194 9.06301 11.2442V5.77024L6.64707 7.36525C6.49044 7.09646 6.30152 6.85135 6.0863 6.63446C6.27426 6.15787 6.3637 5.63776 6.33476 5.10426L7.78892 4.14439C8.58427 3.61925 9.06301 2.72968 9.06301 1.77651C9.06301 0.911329 9.06301 0 9.06301 0H10.6413V11.0907Z" fill="url(#paint2_linear_4_84)"/>
<path fill-rule="evenodd" clip-rule="evenodd" d="M4.08099 12.0783C2.49412 12.4045 0.915131 11.2552 0.213519 7.84209C-0.451505 4.60831 0.509086 2.75002 2.09596 2.42361C3.6826 2.09743 5.23576 3.12092 5.56217 4.70755C5.71689 5.46106 5.56767 6.20691 5.19821 6.81717C5.77859 7.2323 6.20998 7.85859 6.36494 8.61209C6.69111 10.1987 5.66763 11.7519 4.08099 12.0783Z" fill="url(#paint3_linear_4_84)"/>
<path fill-rule="evenodd" clip-rule="evenodd" d="M17.919 12.0783C19.5059 12.4045 21.0849 11.2552 21.7865 7.84209C22.4515 4.60831 21.4909 2.75002 19.904 2.42361C18.3174 2.09743 16.7642 3.12092 16.4378 4.70755C16.2831 5.46106 16.4323 6.20691 16.8018 6.81717C16.2214 7.2323 15.79 7.85859 15.6351 8.61209C15.3089 10.1987 16.3324 11.7519 17.919 12.0783Z" fill="url(#paint4_linear_4_84)"/>
<path fill-rule="evenodd" clip-rule="evenodd" d="M7.60599 12.8794C8.70767 11.7727 9.85383 11.8069 11 11.8069C12.1461 11.8069 13.2923 11.7727 14.394 12.8794C15.2427 13.7319 15.2427 15.4367 14.394 17.1414C13.8 18.4198 12.2726 19.6985 11 20.551C9.72709 19.6985 8.19975 18.4198 7.60599 17.1414C6.75731 15.4367 6.75731 13.7319 7.60599 12.8794Z" fill="url(#paint5_linear_4_84)"/>
<defs>
<linearGradient id="paint0_linear_4_84" x1="3.14795" y1="14.7112" x2="8.24958" y2="14.7112" gradientUnits="userSpaceOnUse">
<stop stop-color="#2A77B5"/>
<stop offset="1" stop-color="#5AC09C"/>
</linearGradient>
<linearGradient id="paint1_linear_4_84" x1="13.8508" y1="14.7112" x2="18.9526" y2="14.7112" gradientUnits="userSpaceOnUse">
<stop stop-color="#2A77B5"/>
<stop offset="1" stop-color="#5AC09C"/>
</linearGradient>
<linearGradient id="paint2_linear_4_84" x1="6.0863" y1="5.6221" x2="15.9134" y2="5.6221" gradientUnits="userSpaceOnUse">
<stop stop-color="#2A77B5"/>
<stop offset="1" stop-color="#5AC09C"/>
</linearGradient>
<linearGradient id="paint3_linear_4_84" x1="0" y1="7.24719" x2="6.42552" y2="7.24719" gradientUnits="userSpaceOnUse">
<stop stop-color="#2A77B5"/>
<stop offset="1" stop-color="#5AC09C"/>
</linearGradient>
<linearGradient id="paint4_linear_4_84" x1="15.5745" y1="7.24719" x2="22" y2="7.24719" gradientUnits="userSpaceOnUse">
<stop stop-color="#2A77B5"/>
<stop offset="1" stop-color="#5AC09C"/>
</linearGradient>
<linearGradient id="paint5_linear_4_84" x1="6.96948" y1="16.1789" x2="15.0305" y2="16.1789" gradientUnits="userSpaceOnUse">
<stop stop-color="#2A77B5"/>
<stop offset="1" stop-color="#5AC09C"/>
</linearGradient>
</defs>
</svg>
