<svg width="19" height="22" viewBox="0 0 19 22" fill="none" xmlns="http://www.w3.org/2000/svg">
<path d="M13.123 11.6239C12.7215 11.6293 12.3235 11.5484 11.9559 11.3866C12.0411 12.0596 11.9892 12.7428 11.8033 13.3951C11.6174 14.0474 11.3013 14.6553 10.8742 15.1822C10.2384 15.965 9.60264 16.0267 9.80666 16.6814C9.84622 16.8127 9.93183 16.9253 10.0478 16.9985C10.1637 17.0717 10.3021 17.1007 10.4377 17.08C13.3175 17.08 15.7277 14.7694 16.4109 11.4104C14.6412 10.6987 14.6744 11.6239 13.123 11.6239ZM12.2975 15.8369C12.2548 15.9371 12.179 16.0196 12.0828 16.0705C11.9865 16.1214 11.8757 16.1376 11.7688 16.1165C11.662 16.0953 11.5657 16.0381 11.4961 15.9544C11.4265 15.8706 11.3878 15.7655 11.3866 15.6566C11.3866 14.9165 12.5916 15.13 12.2975 15.8369ZM13.1467 13.6213C13.0752 13.6937 12.9823 13.7413 12.8817 13.7569C12.7811 13.7725 12.6781 13.7553 12.588 13.7079C12.4979 13.6605 12.4255 13.5853 12.3814 13.4935C12.3373 13.4018 12.3239 13.2983 12.3431 13.1983C12.3624 13.0983 12.4133 13.0072 12.4884 12.9384C12.5634 12.8696 12.6586 12.8267 12.7598 12.8162C12.8611 12.8056 12.9631 12.8279 13.0507 12.8798C13.1383 12.9316 13.2069 13.0103 13.2464 13.1041C13.2827 13.1905 13.2926 13.2858 13.2749 13.3778C13.2572 13.4698 13.2126 13.5546 13.1467 13.6213ZM14.0956 15.0446C14.0351 15.1056 13.9591 15.1489 13.8758 15.1701C13.7926 15.1912 13.7051 15.1894 13.6228 15.1647C13.5405 15.14 13.4665 15.0935 13.4086 15.03C13.3507 14.9666 13.3111 14.8886 13.294 14.8044C13.277 14.7202 13.2831 14.6329 13.3118 14.5519C13.3404 14.4709 13.3906 14.3993 13.4568 14.3445C13.523 14.2898 13.6028 14.2541 13.6878 14.2412C13.7727 14.2283 13.8596 14.2387 13.9391 14.2713C14.0113 14.3009 14.075 14.3478 14.1247 14.408C14.1745 14.4681 14.2086 14.5396 14.224 14.6161C14.2395 14.6926 14.2359 14.7717 14.2135 14.8464C14.1911 14.9212 14.1506 14.9892 14.0956 15.0446ZM15.1821 12.9049C15.1678 12.9734 15.1386 13.0379 15.0965 13.0938C15.0543 13.1497 15.0004 13.1956 14.9384 13.2282C14.8764 13.2607 14.8081 13.2792 14.7381 13.2822C14.6682 13.2853 14.5985 13.2728 14.5339 13.2457C14.4694 13.2186 14.4116 13.1775 14.3648 13.1255C14.318 13.0734 14.2833 13.0117 14.2632 12.9447C14.2431 12.8776 14.238 12.8069 14.2484 12.7377C14.2588 12.6685 14.2844 12.6025 14.3234 12.5443C14.3846 12.4528 14.4757 12.3855 14.5812 12.3538C14.6866 12.3222 14.7998 12.3282 14.9013 12.3708C15.0028 12.4134 15.0863 12.49 15.1375 12.5874C15.1888 12.6849 15.2045 12.7971 15.1821 12.9049Z" fill="url(#paint0_linear_3_29)"/>
<path d="M11.8611 1.89777C11.0001 1.89292 10.1485 2.07588 9.36551 2.43389C8.85645 1.7217 8.56924 0.874933 8.53998 0H5.69332C5.69332 0 5.69332 2.97476 7.59109 4.68276C7.42504 5.63164 7.66226 6.90789 8.53998 8.53998C11.1304 13.2844 8.53998 15.1822 5.69332 14.2333C5.36121 14.1242 5.01961 14.0245 4.68276 13.9391C4.12469 13.805 3.54346 13.7991 2.98281 13.922C2.42215 14.0449 1.89668 14.2934 1.44591 14.6487C0.995145 15.004 0.630834 15.4569 0.380387 15.9734C0.129941 16.4898 -0.000116593 17.0563 7.84274e-08 17.6303V21.8244H2.84666V17.5971C2.84848 17.4017 2.90774 17.2111 3.01704 17.0491C3.12634 16.8871 3.28087 16.7609 3.46139 16.686C3.64191 16.6112 3.84046 16.5911 4.03232 16.6282C4.22417 16.6654 4.40087 16.7581 4.54042 16.8949C6.1013 18.4782 8.21515 19.3949 10.4378 19.4522C20.4248 19.4522 22.6499 1.89777 11.8611 1.89777ZM10.4378 18.0288C10.1024 18.0362 9.77344 17.9359 9.49917 17.7428C9.22489 17.5496 9.01968 17.2737 8.9136 16.9554C8.80751 16.6372 8.80613 16.2933 8.90965 15.9742C9.01317 15.6551 9.21616 15.3776 9.48887 15.1822C10.6086 14.3756 11.3012 12.9049 10.9122 10.8221C10.8977 10.7466 10.9019 10.6687 10.9242 10.5951C10.9465 10.5216 10.9863 10.4545 11.0403 10.3998C11.3202 10.1104 11.8231 10.3381 12.1932 10.4994C13.9771 11.2633 14.3946 9.55054 16.6292 10.4994C16.7651 10.5627 16.9064 10.6135 17.0515 10.6513C17.1691 10.6775 17.2723 10.7475 17.3401 10.8471C17.408 10.9467 17.4354 11.0683 17.4168 11.1874C16.7763 15.2059 13.9059 18.0288 10.4378 18.0288Z" fill="url(#paint1_linear_3_29)"/>
<defs>
<linearGradient id="paint0_linear_3_29" x1="9.76782" y1="14.1139" x2="16.4109" y2="14.1139" gradientUnits="userSpaceOnUse">
<stop stop-color="#2A77B5"/>
<stop offset="1" stop-color="#5AC09C"/>
</linearGradient>
<linearGradient id="paint1_linear_3_29" x1="0" y1="10.9122" x2="19" y2="10.9122" gradientUnits="userSpaceOnUse">
<stop stop-color="#2A77B5"/>
<stop offset="1" stop-color="#5AC09C"/>
</linearGradient>
</defs>
</svg>
