<svg width="19" height="20" viewBox="0 0 19 20" fill="none" xmlns="http://www.w3.org/2000/svg">
<path fill-rule="evenodd" clip-rule="evenodd" d="M3.17275 16.1333C3.14091 16.1659 3.10328 16.1916 3.062 16.2089C3.02073 16.2262 2.97663 16.2347 2.93221 16.2341C2.8878 16.2334 2.84394 16.2236 2.80314 16.2051C2.76234 16.1866 2.7254 16.1598 2.69443 16.1263C2.63188 16.0586 2.59743 15.9676 2.59868 15.8731C2.59992 15.7787 2.63674 15.6887 2.70105 15.6228C3.03149 15.2897 3.44321 15.0596 3.89044 14.9581C4.34297 14.8521 4.81404 14.8734 5.25625 15.0199C5.69109 15.1619 6.07893 15.4304 6.37503 15.7944C6.66301 16.1483 6.83666 16.5894 6.87088 17.0539C6.87443 17.1009 6.8691 17.1481 6.85522 17.1929C6.84133 17.2376 6.81916 17.279 6.78998 17.3147C6.7608 17.3504 6.7252 17.3797 6.68522 17.4008C6.64524 17.422 6.60168 17.4345 6.55706 17.4379C6.51243 17.4412 6.46762 17.4352 6.42522 17.4201C6.38282 17.4051 6.34366 17.3814 6.31001 17.3504C6.27636 17.3194 6.24888 17.2816 6.22916 17.2394C6.20944 17.1971 6.19787 17.1511 6.19512 17.1041C6.17122 16.7905 6.05326 16.4931 5.85828 16.2547C5.64457 15.9937 5.36513 15.8016 5.05219 15.7005C4.72338 15.5909 4.37296 15.5744 4.03617 15.6526C3.71168 15.7258 3.4128 15.8921 3.17275 16.1333ZM7.00589 11.7628C7.09549 11.7635 7.18115 11.8017 7.24402 11.8689C7.30689 11.9361 7.34181 12.0269 7.34111 12.1212C7.34042 12.2155 7.30415 12.3057 7.24029 12.3719C7.17644 12.4381 7.09022 12.4748 7.00062 12.4741C6.43514 12.467 5.87616 12.6014 5.3697 12.8663C4.88899 13.1152 4.47776 13.4911 4.17611 13.9571C4.1258 14.0345 4.04851 14.0879 3.96102 14.1056C3.87354 14.1234 3.78294 14.1041 3.70892 14.0519C3.63489 13.9997 3.58343 13.9188 3.56572 13.8269C3.548 13.735 3.56547 13.6395 3.61431 13.561C3.98135 12.9927 4.48205 12.5342 5.06759 12.2302C5.66939 11.9149 6.33373 11.7548 7.00589 11.7628ZM2.96442 10.1243C2.92005 10.1205 2.87683 10.1075 2.83724 10.086C2.79765 10.0646 2.76245 10.0352 2.73366 9.99944C2.70487 9.96369 2.68306 9.92233 2.66945 9.87771C2.65585 9.83309 2.65073 9.78608 2.65439 9.73938C2.66177 9.64505 2.70444 9.55768 2.77302 9.49648C2.80698 9.46618 2.84628 9.44321 2.88867 9.42889C2.93106 9.41457 2.97571 9.40918 3.02008 9.41303C3.63788 9.46881 4.09993 9.42962 4.40623 9.29545C4.54248 9.24277 4.65764 9.14285 4.73279 9.01213C4.35252 8.78727 4.02799 8.47119 3.78553 8.08955C3.49507 7.63314 3.35074 7.09097 3.37362 6.54213C3.37749 6.4478 3.4168 6.35896 3.4829 6.29514C3.549 6.23131 3.63647 6.19775 3.72609 6.20182C3.8157 6.20589 3.9001 6.24727 3.96073 6.31685C4.02136 6.38643 4.05325 6.47851 4.04938 6.57283C4.03328 6.97146 4.1386 7.36508 4.34997 7.69627C4.576 8.0484 4.89231 8.32578 5.26215 8.49619C5.27117 8.4999 5.27993 8.50401 5.2885 8.50846C5.68261 8.68735 6.11401 8.75574 6.54068 8.70698C6.96503 8.6619 7.37006 8.49754 7.71334 8.23112C7.74884 8.20309 7.78923 8.1827 7.83221 8.17111C7.8752 8.15952 7.91993 8.15695 7.96385 8.16356C8.00778 8.17016 8.05004 8.18581 8.08822 8.20961C8.1264 8.2334 8.15975 8.26488 8.18637 8.30225C8.213 8.33961 8.23237 8.38213 8.24338 8.42738C8.25439 8.47262 8.25683 8.51971 8.25055 8.56595C8.24428 8.61218 8.22941 8.65667 8.20681 8.69686C8.1842 8.73705 8.15429 8.77215 8.1188 8.80018C7.67811 9.14383 7.15771 9.35636 6.61216 9.41549C6.19216 9.46304 5.76738 9.4221 5.36257 9.29506C5.23224 9.58787 5 9.80748 4.66584 9.95389C4.2568 10.1332 3.68971 10.1899 2.96442 10.1243ZM9.15968 17.803V1.8058C9.08483 1.29948 8.81756 0.854905 8.43233 0.534085C8.00153 0.183118 7.47102 -0.00497718 6.92629 0.000100158C6.51509 -0.001717 6.10996 0.104471 5.74758 0.309045C5.55896 0.416028 5.38593 0.551003 5.2338 0.709827C5.46385 0.780232 5.68401 0.88241 5.88856 1.01369C6.2878 1.26652 6.60977 1.63457 6.81629 2.0742C6.85483 2.15922 6.8598 2.25684 6.83013 2.34571C6.80045 2.43457 6.73855 2.50745 6.65796 2.54839C6.57737 2.58933 6.48465 2.59501 6.40009 2.56417C6.31554 2.53333 6.24603 2.4685 6.20677 2.38385C6.05707 2.06759 5.82438 1.80312 5.53628 1.62178C5.22644 1.42438 4.87337 1.31467 4.51136 1.3033C4.1469 1.28924 3.78511 1.37377 3.46053 1.54881C3.15724 1.70999 2.90326 1.95791 2.72773 2.26412C2.56592 2.54977 2.49281 2.88145 2.51858 3.21291C2.53938 3.46478 2.61582 3.70805 2.7418 3.9233C2.83252 3.89231 2.92452 3.86522 3.01782 3.84201C3.63392 3.68929 4.27746 3.71114 4.88293 3.90533C5.47733 4.09159 6.00927 4.45166 6.41689 4.94366C6.81009 5.4185 7.04881 6.0132 7.09821 6.64096C7.10489 6.73529 7.0757 6.82854 7.01706 6.90022C6.95841 6.97189 6.87512 7.0161 6.78551 7.02313C6.6959 7.03016 6.60731 6.99943 6.53922 6.9377C6.47113 6.87597 6.42913 6.7883 6.42245 6.69397C6.38402 6.21756 6.20199 5.76655 5.90292 5.4067C5.57957 5.01747 5.15789 4.73286 4.68692 4.58596C4.19484 4.42887 3.672 4.41184 3.17163 4.53658C2.68842 4.65268 2.24571 4.90879 1.89359 5.27596C1.56791 5.61447 1.35214 6.05262 1.27709 6.52787C1.20812 6.99318 1.28589 7.46945 1.49848 7.88381C1.54065 7.96704 1.54968 8.06449 1.52359 8.15473C1.4975 8.24496 1.43842 8.32059 1.35936 8.36498C1.35194 8.36923 1.34431 8.37313 1.33646 8.3767C1.02132 8.52027 0.747188 8.74807 0.539986 9.03631C0.348295 9.30429 0.233669 9.62454 0.209712 9.95905C0.188215 10.2897 0.258673 10.6198 0.412478 10.909C0.465967 11.0104 0.528281 11.1063 0.598619 11.1956C0.600585 11.198 0.602552 11.2003 0.604482 11.2027C0.60708 11.2059 0.609566 11.2092 0.611904 11.2125C0.753693 11.3874 0.922129 11.5363 1.11032 11.6531C1.42154 11.8458 1.77233 11.9567 2.13294 11.9763C2.4964 11.9981 2.85958 11.9285 3.19238 11.7731C3.23292 11.7541 3.27663 11.7436 3.32101 11.7424C3.36539 11.7411 3.40957 11.749 3.45103 11.7658C3.4925 11.7825 3.53043 11.8076 3.56266 11.8397C3.5949 11.8719 3.6208 11.9104 3.6389 11.953C3.65699 11.9957 3.66693 12.0417 3.66813 12.0884C3.66934 12.1352 3.66179 12.1817 3.64592 12.2253C3.63005 12.269 3.60617 12.3089 3.57564 12.3428C3.54511 12.3768 3.50853 12.404 3.46799 12.4231C3.03708 12.6248 2.56669 12.7155 2.09583 12.6876C1.62672 12.6621 1.1704 12.5177 0.765611 12.2669C0.615147 12.1729 0.473714 12.0638 0.343306 11.9411C0.298265 11.9991 0.25698 12.0603 0.219732 12.1242C0.131326 12.2757 0.0679373 12.4419 0.0322553 12.6157C0.0184878 12.683 0.0364858 12.5874 0.0272456 12.6352C-0.0119666 12.8457 -0.00882142 13.0624 0.0364782 13.2715C0.0817779 13.4806 0.168225 13.6773 0.29024 13.8491C0.537314 14.2067 0.927222 14.4791 1.40545 14.5878C1.46509 14.6013 1.39213 14.5863 1.43261 14.5949C1.48772 14.6065 1.53921 14.6324 1.58241 14.6703C1.62561 14.7081 1.65916 14.7567 1.68002 14.8116C1.70088 14.8666 1.7084 14.9261 1.70189 14.9849C1.69537 15.0437 1.67504 15.0998 1.64273 15.1482C1.43027 15.4601 1.33617 15.8445 1.37773 16.2258C1.42539 16.6151 1.60487 16.9733 1.88323 17.2346C2.18948 17.5231 2.57426 17.7028 2.98297 17.7481C3.40015 17.8002 3.8225 17.717 4.19355 17.5096C4.24224 17.4821 4.29658 17.4675 4.35184 17.4672C4.4071 17.4668 4.4616 17.4807 4.51059 17.5077C4.55957 17.5346 4.60155 17.5737 4.63286 17.6217C4.66418 17.6696 4.68387 17.7249 4.69022 17.7826C4.76073 18.2973 5.03007 18.7494 5.4205 19.0745C5.85358 19.4209 6.38254 19.6085 6.92647 19.6085C7.47041 19.6085 7.99937 19.4209 8.43244 19.0745C8.81775 18.7537 9.0849 18.3093 9.15968 17.803ZM12.5752 6.69397C12.5685 6.7883 12.5265 6.87597 12.4585 6.9377C12.3904 6.99943 12.3018 7.03016 12.2122 7.02313C12.1226 7.0161 12.0393 6.97189 11.9806 6.90022C11.922 6.82854 11.8928 6.73529 11.8995 6.64096C11.9489 6.0132 12.1876 5.4185 12.5808 4.94366C12.9884 4.45166 13.5203 4.09159 14.1147 3.90533C14.7202 3.71114 15.3638 3.68929 15.9799 3.84201C16.073 3.86517 16.165 3.89226 16.2559 3.9233C16.3819 3.70805 16.4583 3.46479 16.4791 3.21291C16.5049 2.88144 16.4318 2.54977 16.2699 2.26412C16.0944 1.95791 15.8404 1.70998 15.5371 1.54881C15.2126 1.37378 14.8508 1.28926 14.4864 1.3033C14.1244 1.31471 13.7714 1.42442 13.4617 1.62178C13.1736 1.80312 12.9409 2.06759 12.7912 2.38385C12.7519 2.4685 12.6824 2.53333 12.5978 2.56417C12.5133 2.59501 12.4206 2.58933 12.34 2.54839C12.2594 2.50745 12.1975 2.43457 12.1678 2.34571C12.1381 2.25684 12.1431 2.15922 12.1816 2.0742C12.3882 1.63457 12.7101 1.26652 13.1094 1.01369C13.3139 0.882397 13.5341 0.780206 13.7641 0.709788C13.612 0.550967 13.439 0.416004 13.2504 0.309045C12.8879 0.104433 12.4827 -0.00175602 12.0714 0.000100158C11.5267 -0.00494132 10.9963 0.183151 10.5655 0.534085C10.1801 0.854905 9.91289 1.29948 9.83811 1.8058V17.803C9.91296 18.3093 10.1802 18.7538 10.5655 19.0747C10.9985 19.4211 11.5275 19.6087 12.0714 19.6087C12.6154 19.6087 13.1443 19.4211 13.5774 19.0747C13.9699 18.7479 14.2398 18.2928 14.3088 17.7748C14.3163 17.7179 14.3368 17.6637 14.3685 17.6169C14.4002 17.5701 14.4422 17.5321 14.4908 17.5061C14.5395 17.48 14.5934 17.4668 14.648 17.4674C14.7026 17.4681 14.7562 17.4826 14.8043 17.5098C15.1754 17.7172 15.5977 17.8004 16.0149 17.7483C16.4236 17.703 16.8084 17.5233 17.1147 17.2348C17.393 16.9735 17.5725 16.6153 17.6202 16.226C17.6617 15.8447 17.5671 15.4607 17.3546 15.1488C17.322 15.0999 17.3016 15.0432 17.2952 14.9839C17.2888 14.9246 17.2967 14.8645 17.3181 14.8092C17.3395 14.7539 17.3738 14.7051 17.4178 14.6674C17.4618 14.6297 17.5141 14.6042 17.5698 14.5933L17.5924 14.588C18.0706 14.4793 18.4605 14.2069 18.7076 13.8493C18.8296 13.6775 18.9161 13.4808 18.9614 13.2717C19.0067 13.0626 19.0098 12.8459 18.9706 12.6354C18.9612 12.5865 18.9792 12.6821 18.9656 12.6159C18.9299 12.442 18.8664 12.2758 18.7779 12.1242C18.7407 12.0603 18.6994 11.9992 18.6544 11.9411C18.524 12.0639 18.3825 12.173 18.2321 12.2669C17.8273 12.5178 17.371 12.6622 16.9018 12.6877C16.431 12.7156 15.9606 12.6249 15.5297 12.4231C15.4891 12.4041 15.4526 12.3768 15.422 12.3429C15.3915 12.309 15.3676 12.269 15.3518 12.2254C15.3359 12.1818 15.3283 12.1352 15.3295 12.0885C15.3307 12.0418 15.3407 11.9958 15.3588 11.9531C15.3769 11.9105 15.4028 11.8719 15.435 11.8398C15.4672 11.8077 15.5052 11.7825 15.5466 11.7658C15.5881 11.7491 15.6323 11.7412 15.6767 11.7424C15.721 11.7437 15.7648 11.7542 15.8053 11.7732C16.1381 11.9286 16.5013 11.9982 16.8647 11.9763C17.2254 11.9568 17.5763 11.846 17.8876 11.6532C18.0757 11.5365 18.2441 11.3876 18.3858 11.2128C18.3883 11.2094 18.3909 11.2061 18.3935 11.2028C18.3955 11.2004 18.3975 11.198 18.3995 11.1956C18.4698 11.1063 18.5321 11.0104 18.5855 10.9091C18.7393 10.6199 18.8098 10.2898 18.7883 9.95916C18.7643 9.62466 18.6497 9.30441 18.458 9.03643C18.2508 8.74818 17.9763 8.52125 17.6612 8.37768C17.6535 8.37412 17.6462 8.36936 17.6387 8.3651C17.5995 8.34314 17.5648 8.31326 17.5366 8.27719C17.5084 8.24111 17.4873 8.19954 17.4744 8.15486C17.4615 8.11017 17.457 8.06324 17.4614 8.01675C17.4657 7.97027 17.4787 7.92513 17.4996 7.88393C17.7121 7.46956 17.7899 6.99329 17.7209 6.52799C17.6459 6.05273 17.4301 5.61458 17.1044 5.27608C16.7523 4.90891 16.3096 4.6528 15.8264 4.5367C15.326 4.41195 14.8032 4.42899 14.3111 4.58608C13.8401 4.73298 13.4184 5.01759 13.0951 5.40682C12.796 5.76666 12.6137 6.21756 12.5752 6.69397ZM16.2967 15.6228C16.361 15.6887 16.3978 15.7787 16.399 15.8731C16.4003 15.9676 16.3658 16.0586 16.3033 16.1263C16.2407 16.194 16.1552 16.2328 16.0655 16.2341C15.9758 16.2354 15.8893 16.1991 15.825 16.1333C15.5849 15.8921 15.286 15.7258 14.9615 15.6526C14.6247 15.5744 14.2743 15.5909 13.9455 15.7005C13.6325 15.8016 13.353 15.9937 13.1393 16.2547C12.9443 16.4931 12.8263 16.7905 12.8024 17.1041C12.7997 17.1511 12.7881 17.1971 12.7684 17.2394C12.7487 17.2816 12.7212 17.3194 12.6876 17.3504C12.6539 17.3814 12.6147 17.4051 12.5723 17.4201C12.5299 17.4352 12.4851 17.4412 12.4405 17.4379C12.3959 17.4345 12.3523 17.422 12.3123 17.4008C12.2724 17.3797 12.2368 17.3504 12.2076 17.3147C12.1784 17.279 12.1562 17.2376 12.1423 17.1929C12.1285 17.1481 12.1231 17.1009 12.1267 17.0539C12.1609 16.5894 12.3346 16.1483 12.6225 15.7944C12.9186 15.4304 13.3065 15.1619 13.7413 15.0199C14.1835 14.8734 14.6546 14.8521 15.1072 14.9581C15.5544 15.0596 15.9662 15.2897 16.2967 15.6228ZM11.9971 12.4741C11.9075 12.4748 11.8213 12.4381 11.7574 12.3719C11.6936 12.3057 11.6573 12.2155 11.6566 12.1212C11.6559 12.0269 11.6908 11.9361 11.7537 11.8689C11.8166 11.8017 11.9022 11.7635 11.9918 11.7628C12.664 11.7548 13.3283 11.915 13.9301 12.2302C14.5157 12.5341 15.0164 12.9926 15.3834 13.5609C15.4322 13.6393 15.4497 13.7349 15.432 13.8268C15.4143 13.9187 15.3628 13.9996 15.2888 14.0517C15.2148 14.1039 15.1242 14.1233 15.0367 14.1055C14.9492 14.0878 14.8719 14.0344 14.8216 13.957C14.52 13.4909 14.1087 13.1151 13.628 12.8662C13.1216 12.6013 12.5626 12.467 11.9971 12.4741ZM15.9776 9.41303C16.0672 9.40526 16.1561 9.43528 16.2247 9.49648C16.2933 9.55768 16.3359 9.64505 16.3433 9.73938C16.3507 9.8337 16.3222 9.92725 16.2641 9.99944C16.2059 10.0716 16.1229 10.1165 16.0333 10.1243C15.308 10.1898 14.7409 10.133 14.3318 9.95373C13.9977 9.80733 13.7654 9.58773 13.6351 9.29494C13.2303 9.42198 12.8055 9.4629 12.3855 9.41533C11.8399 9.35618 11.3195 9.14365 10.8788 8.80002C10.8072 8.74343 10.7598 8.65917 10.7471 8.56579C10.7344 8.47241 10.7575 8.37755 10.8113 8.30209C10.865 8.22663 10.9451 8.17674 11.0338 8.1634C11.1225 8.15006 11.2126 8.17436 11.2843 8.23096C11.6276 8.49739 12.0326 8.66175 12.457 8.70682C12.8836 8.75558 13.315 8.68719 13.7091 8.5083C13.7177 8.50385 13.7265 8.49976 13.7355 8.49604C14.1053 8.32561 14.4216 8.04823 14.6477 7.69612C14.859 7.36491 14.9643 6.9713 14.9483 6.57268C14.9462 6.52591 14.953 6.47919 14.9682 6.43518C14.9833 6.39117 15.0066 6.35074 15.0366 6.31621C15.0666 6.28168 15.1028 6.25372 15.1432 6.23393C15.1835 6.21414 15.2271 6.20292 15.2715 6.2009C15.3159 6.19888 15.3603 6.20611 15.4021 6.22217C15.4439 6.23822 15.4822 6.26279 15.515 6.29448C15.5477 6.32616 15.5742 6.36433 15.5929 6.4068C15.6116 6.44927 15.6222 6.4952 15.624 6.54198C15.6469 7.09081 15.5025 7.63299 15.2121 8.0894C14.9696 8.4711 14.645 8.78724 14.2647 9.01213C14.3399 9.14285 14.4551 9.24277 14.5913 9.29545C14.8977 9.42964 15.3598 9.46884 15.9776 9.41303Z" fill="url(#paint0_linear_8_612)"/>
<defs>
<linearGradient id="paint0_linear_8_612" x1="0" y1="9.80435" x2="18.9979" y2="9.80435" gradientUnits="userSpaceOnUse">
<stop stop-color="#2A77B5"/>
<stop offset="1" stop-color="#5AC09C"/>
</linearGradient>
</defs>
</svg>
