<?xml version="1.0" encoding="UTF-8"?>
<svg version="1.1" xmlns="http://www.w3.org/2000/svg" width="512" height="512">
<path d="M0 0 C1.19372978 -0.01007584 1.19372978 -0.01007584 2.41157532 -0.02035522 C5.03584078 -0.03931223 7.65985006 -0.04325856 10.28417969 -0.04541016 C12.11635441 -0.05184081 13.9485281 -0.05856937 15.78070068 -0.06558228 C19.62058897 -0.07755011 23.46038735 -0.08126372 27.30029297 -0.08007812 C32.20388982 -0.07987522 37.10690524 -0.1071496 42.01036453 -0.14162254 C45.79551809 -0.16394044 49.58053295 -0.16791413 53.36574554 -0.16685867 C55.17253366 -0.16920834 56.97932597 -0.17799588 58.78604889 -0.19352341 C78.31619831 -0.34562578 78.31619831 -0.34562578 86.26074219 6.18505859 C86.77894531 6.81798828 87.29714844 7.45091797 87.83105469 8.10302734 C88.36472656 8.72822266 88.89839844 9.35341797 89.44824219 9.99755859 C93.80741433 16.62666235 94.4231728 22.12122757 94.42480469 29.90380859 C94.43241821 30.91340134 94.44003174 31.92299408 94.44787598 32.96318054 C94.45864459 35.09204648 94.46154331 37.22096512 94.45703125 39.34985352 C94.45606072 42.58294207 94.4976844 45.81364126 94.54199219 49.04638672 C94.54720141 51.12385578 94.54988734 53.201333 94.54980469 55.27880859 C94.56619995 56.23330399 94.58259521 57.18779938 94.5994873 58.17121887 C94.50940111 67.05479973 91.57191961 73.98633716 85.20605469 80.22802734 C76.72810911 87.72916615 65.32035865 86.73422113 54.76855469 86.68896484 C53.09903842 86.69098956 51.42952303 86.6939043 49.76000977 86.69766235 C46.27351398 86.70206701 42.78724994 86.69571496 39.30078125 86.68164062 C34.85247853 86.66454977 30.404719 86.67440098 25.95643616 86.69235802 C22.51269507 86.70324636 19.0690808 86.69972647 15.62533569 86.69197464 C13.98603245 86.68998656 12.34671735 86.69238245 10.70742798 86.6994133 C-0.1497514 86.7357706 -10.27684672 86.69385505 -19.04394531 79.29052734 C-24.45379294 72.40757566 -26.18761514 67.80686829 -26.10644531 59.04052734 C-26.09742188 57.77724609 -26.08839844 56.51396484 -26.07910156 55.21240234 C-26.06169922 53.76607422 -26.06169922 53.76607422 -26.04394531 52.29052734 C-31.24069435 52.33468372 -36.43622877 52.40451909 -41.63232422 52.49804688 C-43.39947842 52.52625132 -45.16675865 52.54746853 -46.93408203 52.56152344 C-49.47656753 52.58296092 -52.01753869 52.62961237 -54.55957031 52.68115234 C-55.74259735 52.6829953 -55.74259735 52.6829953 -56.94952393 52.68487549 C-60.29237521 52.77389574 -62.65200172 53.05339533 -65.53613281 54.79833984 C-67.69078274 58.35965242 -67.64701802 61.72934808 -67.65332031 65.77490234 C-67.66985657 66.59049622 -67.68639282 67.40609009 -67.70343018 68.24639893 C-67.75191114 70.84451832 -67.77328054 73.44205244 -67.79394531 76.04052734 C-67.82210504 77.80487971 -67.85203247 79.56920481 -67.88378906 81.33349609 C-67.95766973 85.65245832 -68.00724343 89.97109563 -68.04394531 94.29052734 C-67.140383 94.28277786 -67.140383 94.28277786 -66.21856689 94.27487183 C-65.4200531 94.27085358 -64.62153931 94.26683533 -63.79882812 94.26269531 C-63.01082825 94.25752899 -62.22282837 94.25236267 -61.41094971 94.24703979 C-27.87561566 94.86316433 6.59135221 112.19766875 30.95605469 134.29052734 C31.84808594 135.06267578 32.74011719 135.83482422 33.65917969 136.63037109 C64.50208677 163.54695718 82.85666553 203.48219499 85.83154297 244.10400391 C88.11272776 284.16339807 77.21600638 324.68277042 51.95605469 356.29052734 C51.49618164 356.86851074 51.03630859 357.44649414 50.5625 358.04199219 C23.61229961 391.51534535 -13.67993983 411.57349714 -56.02441406 418.02880859 C-58.62393352 418.2541227 -61.12694199 418.31677114 -63.73266602 418.30688477 C-64.54073196 418.30452316 -65.34879791 418.30216156 -66.18135071 418.29972839 C-66.79600693 418.29669205 -67.41066315 418.2936557 -68.04394531 418.29052734 C-68.02299805 419.45511475 -68.00205078 420.61970215 -67.98046875 421.81958008 C-67.90761024 426.17492183 -67.86198013 430.53021063 -67.82421875 434.88598633 C-67.80420711 436.76465947 -67.77698895 438.64327114 -67.7421875 440.52172852 C-67.69320561 443.23518107 -67.67087203 445.94780431 -67.65332031 448.66162109 C-67.6223526 449.9043705 -67.6223526 449.9043705 -67.59075928 451.17222595 C-67.58791103 458.71557988 -70.08056971 464.2877176 -74.16894531 470.54052734 C-83.4142035 479.38381778 -93.21715428 478.93496822 -105.31542969 478.66772461 C-106.25708984 478.64637451 -107.19875 478.62502441 -108.16894531 478.60302734 C-110.09860388 478.57791002 -112.02829398 478.55510293 -113.95800781 478.53466797 C-118.65410749 478.47995198 -123.34867432 478.39387037 -128.04394531 478.29052734 C-128.02074219 479.30953125 -127.99753906 480.32853516 -127.97363281 481.37841797 C-127.95486309 482.73453039 -127.93666418 484.09065079 -127.91894531 485.44677734 C-127.9021875 486.11612305 -127.88542969 486.78546875 -127.86816406 487.47509766 C-127.79578912 494.87543552 -130.00163647 500.00287101 -134.98144531 505.38427734 C-140.98838824 510.93614884 -145.88972693 512.58959844 -154.07202148 512.59692383 C-154.86623505 512.60524734 -155.66044861 512.61357086 -156.47872925 512.62214661 C-159.09817448 512.64619285 -161.71737023 512.65501346 -164.33691406 512.66162109 C-166.16669283 512.67059371 -167.99647086 512.67971567 -169.82624817 512.6889801 C-173.66193419 512.70545961 -177.49753306 512.71316794 -181.33325195 512.71606445 C-186.22789692 512.72143761 -191.12171244 512.7590778 -196.01612377 512.80480862 C-199.79703188 512.83468279 -203.5777431 512.8417903 -207.35875893 512.8427906 C-209.16194762 512.84697477 -210.96513788 512.85933601 -212.76820946 512.88030815 C-232.79938556 513.09469347 -232.79938556 513.09469347 -240.93278503 505.53489685 C-247.43279453 498.73810784 -248.5107961 491.73475622 -248.51269531 482.67724609 C-248.52030884 481.66765335 -248.52792236 480.65806061 -248.5357666 479.61787415 C-248.54653521 477.4890082 -248.54943394 475.36008957 -248.54492188 473.23120117 C-248.54395134 469.99811262 -248.58557502 466.76741343 -248.62988281 463.53466797 C-248.63509204 461.45719891 -248.63777797 459.37972168 -248.63769531 457.30224609 C-248.65409058 456.3477507 -248.67048584 455.39325531 -248.68737793 454.40983582 C-248.59729174 445.52625496 -245.65981023 438.59471752 -239.29394531 432.35302734 C-230.81599973 424.85188853 -219.40824927 425.84683355 -208.85644531 425.89208984 C-207.18692905 425.89006513 -205.51741365 425.88715039 -203.84790039 425.88339233 C-200.36140461 425.87898768 -196.87514056 425.88533972 -193.38867188 425.89941406 C-188.94036915 425.91650492 -184.49260963 425.90665371 -180.04432678 425.88869667 C-176.60058569 425.87780832 -173.15697142 425.88132822 -169.71322632 425.88908005 C-168.07392308 425.89106812 -166.43460797 425.88867224 -164.7953186 425.88164139 C-153.57335548 425.84406254 -142.62683095 425.96384725 -134.04394531 434.29052734 C-129.1292873 440.68212921 -127.90687269 445.48668428 -127.98144531 453.54052734 C-127.99046875 454.80380859 -127.99949219 456.06708984 -128.00878906 457.36865234 C-128.02039063 458.33287109 -128.03199219 459.29708984 -128.04394531 460.29052734 C-122.84719627 460.24637096 -117.65166185 460.1765356 -112.45556641 460.08300781 C-110.6884122 460.05480337 -108.92113197 460.03358616 -107.15380859 460.01953125 C-104.61132309 459.99809377 -102.07035193 459.95144231 -99.52832031 459.89990234 C-98.34529327 459.89805939 -98.34529327 459.89805939 -97.1383667 459.8961792 C-93.79551541 459.80715895 -91.4358889 459.52765936 -88.55175781 457.78271484 C-86.39710789 454.22140227 -86.4408726 450.85170661 -86.43457031 446.80615234 C-86.41803406 445.99055847 -86.4014978 445.1749646 -86.38446045 444.33465576 C-86.33597948 441.73653637 -86.31461008 439.13900225 -86.29394531 436.54052734 C-86.26578559 434.77617498 -86.23585815 433.01184988 -86.20410156 431.24755859 C-86.1302209 426.92859637 -86.08064719 422.60995905 -86.04394531 418.29052734 C-86.63453735 418.29863937 -87.22512939 418.3067514 -87.83361816 418.31510925 C-92.00802048 418.34847571 -96.01415827 418.32177116 -100.13769531 417.59130859 C-101.01377441 417.43702393 -101.88985352 417.28273926 -102.79248047 417.1237793 C-103.70046387 416.95193115 -104.60844727 416.78008301 -105.54394531 416.60302734 C-106.5073584 416.42151123 -107.47077148 416.23999512 -108.46337891 416.05297852 C-137.23277648 410.44158782 -163.27856865 398.0264297 -185.04394531 378.29052734 C-185.93597656 377.51837891 -186.82800781 376.74623047 -187.74707031 375.95068359 C-218.45300381 349.15363427 -236.98042267 308.99141997 -239.91943359 268.49316406 C-242.18470716 228.42003044 -231.31608653 187.91353701 -206.04394531 156.29052734 C-205.58407227 155.71254395 -205.12419922 155.13456055 -204.65039062 154.5390625 C-177.70019024 121.06570934 -140.40795079 101.00755755 -98.06347656 94.55224609 C-95.4639571 94.32693199 -92.96094863 94.26428355 -90.35522461 94.27416992 C-89.54715866 94.27653152 -88.73909271 94.27889313 -87.90653992 94.28132629 C-86.98455559 94.28588081 -86.98455559 94.28588081 -86.04394531 94.29052734 C-86.06489258 93.12593994 -86.08583984 91.96135254 -86.10742188 90.76147461 C-86.18028038 86.40613285 -86.22591049 82.05084406 -86.26367188 77.69506836 C-86.28368351 75.81639522 -86.31090168 73.93778354 -86.34570312 72.05932617 C-86.39468501 69.34587362 -86.4170186 66.63325038 -86.43457031 63.91943359 C-86.45521545 63.09093399 -86.4758606 62.26243439 -86.49713135 61.40882874 C-86.4999796 53.86547481 -84.00732091 48.29333709 -79.91894531 42.04052734 C-70.67368713 33.1972369 -60.87073634 33.64608647 -48.77246094 33.91333008 C-47.3599707 33.94535522 -47.3599707 33.94535522 -45.91894531 33.97802734 C-43.98928674 34.00314467 -42.05959665 34.02595176 -40.12988281 34.04638672 C-35.43378313 34.10110271 -30.73921631 34.18718432 -26.04394531 34.29052734 C-26.06714844 33.27152344 -26.09035156 32.25251953 -26.11425781 31.20263672 C-26.13302753 29.8465243 -26.15122644 28.4904039 -26.16894531 27.13427734 C-26.18570313 26.46493164 -26.20246094 25.79558594 -26.21972656 25.10595703 C-26.2921015 17.70561916 -24.08625416 12.57818368 -19.10644531 7.19677734 C-13.09123728 1.63726689 -8.19397202 -0.0099823 0 0 Z " fill="#010100" transform="translate(333.0439453125,-0.29052734375)"/>
<path d="M0 0 C1.19777069 0.00555153 1.19777069 0.00555153 2.41973877 0.01121521 C3.02211365 0.01597366 3.62448853 0.02073212 4.24511719 0.02563477 C4.93129135 17.92557855 5.43803179 35.82199145 5.74767017 53.73236561 C5.89546028 62.05465683 6.09648006 70.36857365 6.43286133 78.68554688 C8.06916767 119.98424179 7.52269235 149.51822691 -21.28250122 182.00698853 C-25.90239486 187.24629426 -29.57830194 192.93518296 -33.26269531 198.86547852 C-34.38844398 200.5914307 -35.51853868 202.31455828 -36.65356445 204.03442383 C-37.18176788 204.8417395 -37.70997131 205.64905518 -38.25418091 206.48083496 C-41.18365704 210.95388012 -44.12850796 215.41680518 -47.07128906 219.88110352 C-50.31848676 224.80777379 -53.56506014 229.73480384 -56.80126953 234.66870117 C-59.05368258 238.10048614 -61.31924674 241.52315623 -63.59686279 244.93826294 C-64.40117581 246.14907641 -65.20066344 247.36311122 -65.99493408 248.58053589 C-67.05969335 250.21127393 -68.1430429 251.82983027 -69.22753906 253.44750977 C-70.11324585 254.78700684 -70.11324585 254.78700684 -71.0168457 256.15356445 C-71.87717407 257.08023926 -71.87717407 257.08023926 -72.75488281 258.02563477 C-77.64029262 258.02563477 -79.08521437 256.35452197 -82.37988281 253.15063477 C-82.90694824 252.64959229 -83.43401367 252.1485498 -83.97705078 251.63232422 C-85.05979769 250.59864488 -86.13809134 249.56028106 -87.21191406 248.51733398 C-88.59458687 247.18060442 -90.00139441 245.86894532 -91.41113281 244.56079102 C-110.66822046 226.2482757 -121.81405369 201.28298601 -128.75488281 176.02563477 C-128.93712402 175.36321777 -129.11936523 174.70080078 -129.30712891 174.01831055 C-131.91689657 163.94019282 -132.05857618 153.75213496 -132.12988281 143.40063477 C-132.14390137 142.11447266 -132.15791992 140.82831055 -132.17236328 139.50317383 C-132.12647674 130.27645024 -130.81893578 121.97607062 -128.75488281 113.02563477 C-128.45730659 111.58203585 -128.16127454 110.13811578 -127.86816406 108.69360352 C-119.68572155 73.12991436 -95.70394608 40.74689272 -64.95703125 21.37231445 C-45.58676883 9.52681916 -23.11711769 -0.13959612 0 0 Z " fill="#A3C300" transform="translate(242.7548828125,111.974365234375)"/>
<path d="M0 0 C8.47153302 5.05385312 15.07382 11.39334069 20 20 C20.40734375 20.70125 20.8146875 21.4025 21.234375 22.125 C26.3468891 31.60908413 26.3031762 41.10676084 26.30639648 51.62060547 C26.31402697 53.20160306 26.32245599 54.78259697 26.33161926 56.36358643 C26.35347986 60.64051452 26.36235142 64.91737117 26.36744571 69.19434881 C26.37109843 71.87061366 26.37734312 74.54686005 26.3844471 77.22311783 C26.40890951 86.57144232 26.42198714 95.91971155 26.42553711 105.26806641 C26.42917281 113.96370186 26.45907889 122.65898447 26.50094169 131.3545121 C26.53569267 138.83673327 26.55108636 146.31883771 26.55178314 153.801139 C26.55257413 158.26273466 26.561231 162.72397021 26.58978081 167.18548203 C26.61604521 171.3832707 26.61812049 175.58040271 26.60212517 179.77823639 C26.60031747 181.31243706 26.60693972 182.84667626 26.62294388 184.38079453 C26.71776094 194.06552016 26.16689889 202.58981188 19.15663815 209.93015862 C16.30558501 212.53361501 13.45736061 214.30368362 10 216 C9.99853344 216.6059198 9.99706688 217.2118396 9.99555588 217.83612061 C9.95845154 232.60171852 9.89938885 247.36711674 9.81609726 262.13252258 C9.77634302 269.27308513 9.74393228 276.41353805 9.72900391 283.55419922 C9.71596851 289.78038216 9.68895613 296.00632352 9.64538693 302.23237038 C9.62281389 305.52695319 9.60917194 308.82117468 9.60811615 312.11584473 C9.60574822 315.80025363 9.57867959 319.48372212 9.54589844 323.16796875 C9.55344398 324.79393227 9.55344398 324.79393227 9.56114197 326.45274353 C9.45194968 334.39746088 7.83662876 339.71548249 2.625 345.75 C-3.31461443 350.84109808 -8.5064238 353.58392813 -16.375 354.3125 C-24.87493924 353.57974662 -31.57482424 350.34552051 -37.6875 344.375 C-43.63124751 336.70491201 -43.43174624 326.87414412 -43.38095093 317.62692261 C-43.3856309 316.30911903 -43.39031087 314.99131544 -43.39513266 313.63357842 C-43.40758808 310.00023089 -43.40149745 306.36712155 -43.39217401 302.73377347 C-43.38536145 298.80599988 -43.39587555 294.87826607 -43.40411377 290.95050049 C-43.41742909 283.26622782 -43.41458342 275.58204324 -43.40587585 267.89776717 C-43.39909201 261.65188063 -43.3981856 255.40601872 -43.4014473 249.16012955 C-43.401907 248.27012791 -43.40236669 247.38012627 -43.40284032 246.46315489 C-43.40379953 244.65498207 -43.40477217 242.84680926 -43.4057581 241.03863646 C-43.41430528 224.09813766 -43.40448789 207.15768763 -43.388357 190.21719684 C-43.3749498 175.68725396 -43.37728652 161.15738299 -43.39111328 146.62744141 C-43.40717299 129.74315429 -43.41348624 112.85890986 -43.40427649 95.97461617 C-43.40332087 94.17382376 -43.40237775 92.37303134 -43.4014473 90.57223892 C-43.40098447 89.68627099 -43.40052164 88.80030306 -43.40004479 87.88748761 C-43.39745642 81.6494063 -43.40182251 75.41135211 -43.40888596 69.17327499 C-43.41730528 61.57088424 -43.41501152 53.9685864 -43.39904372 46.36620627 C-43.39116754 42.48873348 -43.38805829 38.61141553 -43.39799118 34.73394394 C-43.40860032 30.52886492 -43.39592 26.3241758 -43.38095093 22.11911011 C-43.38764309 20.89634869 -43.39433526 19.67358726 -43.40123022 18.41377246 C-43.30725703 4.82315974 -43.30725703 4.82315974 -38.68972051 -0.51467144 C-27.98367777 -10.20947693 -11.63780211 -5.72695454 0 0 Z " fill="#000000" transform="translate(486,82)"/>
<path d="M0 0 C4.04444865 0.65000068 5.70449524 1.60255379 8.5 4.5625 C9.56534042 7.65083633 9.62141062 10.54132399 9.61352539 13.79003906 C9.61344986 14.83081604 9.61337433 15.87159302 9.61329651 16.94390869 C9.60813522 18.06070007 9.60297394 19.17749146 9.59765625 20.328125 C9.5962413 21.47665955 9.59482635 22.62519409 9.59336853 23.80853271 C9.58777143 27.47654831 9.57521944 31.14450285 9.5625 34.8125 C9.55748463 37.29947829 9.55292178 39.78645753 9.54882812 42.2734375 C9.53780295 48.36981519 9.52054027 54.46614724 9.5 60.5625 C14.78 60.5625 20.06 60.5625 25.5 60.5625 C25.47381592 58.9225708 25.44763184 57.2826416 25.4206543 55.59301758 C25.33015037 49.5083582 25.27274858 43.42375831 25.2253418 37.33862305 C25.20019843 34.70505773 25.16607916 32.07156218 25.12280273 29.43823242 C25.0621479 25.65265691 25.0337873 21.86800402 25.01171875 18.08203125 C24.98591232 16.90477982 24.9601059 15.72752838 24.93351746 14.51460266 C24.93072048 6.36216067 24.93072048 6.36216067 27.81176758 2.31518555 C31.36342156 -0.00043737 33.33386771 -0.10705698 37.5 0.5625 C40.88939556 2.69929285 42.22582557 3.7399767 43.5 7.5625 C43.5878506 9.29595807 43.61764814 11.03263269 43.61352539 12.76831055 C43.61344986 13.82918381 43.61337433 14.89005707 43.61329651 15.983078 C43.60813522 17.12690445 43.60297394 18.2707309 43.59765625 19.44921875 C43.5962413 20.62136429 43.59482635 21.79350983 43.59336853 23.00117493 C43.58776388 26.75080907 43.57521056 30.50038385 43.5625 34.25 C43.5574856 36.78971268 43.55292259 39.3294263 43.54882812 41.86914062 C43.53779294 48.10028335 43.52052515 54.3313816 43.5 60.5625 C48.78 60.5625 54.06 60.5625 59.5 60.5625 C59.47381592 58.9225708 59.44763184 57.2826416 59.4206543 55.59301758 C59.33015037 49.5083582 59.27274858 43.42375831 59.2253418 37.33862305 C59.20019843 34.70505773 59.16607916 32.07156218 59.12280273 29.43823242 C59.0621479 25.65265691 59.0337873 21.86800402 59.01171875 18.08203125 C58.98591232 16.90477982 58.9601059 15.72752838 58.93351746 14.51460266 C58.93072048 6.36216067 58.93072048 6.36216067 61.81176758 2.31518555 C65.36342156 -0.00043737 67.33386771 -0.10705698 71.5 0.5625 C74.25329021 2.35812405 76.02627461 3.61504922 77.5 6.5625 C77.6142803 9.43859566 77.66786568 12.29101825 77.67700195 15.16796875 C77.68357315 16.05927994 77.69014435 16.95059113 77.69691467 17.86891174 C77.71668019 20.82927532 77.72832102 23.78958795 77.73828125 26.75 C77.74235678 27.76171265 77.7464323 28.77342529 77.75063133 29.8157959 C77.77151161 35.17651161 77.78580162 40.53720161 77.79516602 45.89794922 C77.80620015 51.42139181 77.84055984 56.94442816 77.88033772 62.46772766 C77.90656411 66.7247184 77.91486349 70.98161356 77.91844749 75.23867798 C77.92330236 77.27351609 77.93488479 79.30835025 77.95348549 81.34310913 C78.13440539 102.45641173 78.13440539 102.45641173 71.625 112.4375 C69.11235182 114.95014818 66.58013999 116.79305788 63.5 118.5625 C62.51 118.5625 61.52 118.5625 60.5 118.5625 C60.50276538 119.63556585 60.50553076 120.70863171 60.50837994 121.81421471 C60.57501277 147.93818386 60.62429353 174.06214198 60.65543652 200.18617821 C60.67089777 212.81962481 60.69197321 225.45301524 60.72631836 238.08642578 C60.7562433 249.0991824 60.77558039 260.11189832 60.78226548 271.12469447 C60.78617247 276.95453277 60.79533918 282.78425468 60.81719017 288.61405563 C60.83760411 294.10512032 60.84382384 299.59602102 60.83932304 305.08712006 C60.84014605 307.09862536 60.84608231 309.11013633 60.85761642 311.12160873 C60.99280703 335.92155268 60.99280703 335.92155268 53.30859375 344.02734375 C46.56194142 349.75398385 39.33331634 352.27486422 30.5 351.5625 C21.21369654 348.98741873 15.53726827 345.74419863 10.515625 337.46484375 C8.17875524 333.08770692 8.36916637 328.97135217 8.39561462 324.14907837 C8.39632117 323.28024627 8.39702772 322.41141417 8.39775568 321.51625383 C8.40114077 318.59365426 8.41150137 315.67111853 8.42163086 312.74853516 C8.42514576 310.65771059 8.42811324 308.56688504 8.43057251 306.47605896 C8.43625246 301.9678348 8.44426821 297.45962258 8.45359612 292.95140457 C8.46675006 285.82552802 8.46504835 278.69970574 8.45936584 271.57382202 C8.45844576 270.37213745 8.45752568 269.17045287 8.45657772 267.93235362 C8.45360624 264.23094395 8.45044117 260.52953449 8.44726562 256.828125 C8.43446004 241.47808996 8.43252313 226.12831059 8.47583008 210.77832031 C8.50728968 199.59040438 8.51067204 188.40287753 8.48107058 177.21495092 C8.46649607 171.29174877 8.46642376 165.36932472 8.50047112 159.44618607 C8.53221446 153.87591148 8.52691623 148.30691553 8.49296951 142.73666573 C8.48713906 140.69080749 8.49503584 138.64485791 8.51756096 136.59911537 C8.54628108 133.8078212 8.52596431 131.02104069 8.49327087 128.22988892 C8.52341173 127.01164679 8.52341173 127.01164679 8.55416149 125.7687937 C8.49579469 123.43950976 8.36984258 121.72734844 7.5 119.5625 C5.05470485 117.38791953 2.40172527 116.03270563 -0.5 114.5625 C-2.5234375 112.71875 -2.5234375 112.71875 -3.875 111.0625 C-4.33648438 110.5159375 -4.79796875 109.969375 -5.2734375 109.40625 C-8.77622659 104.14091098 -8.80177719 99.29395158 -8.80639648 93.16992188 C-8.81472 92.23112686 -8.82304352 91.29233185 -8.83161926 90.3250885 C-8.85568186 87.22709998 -8.86448554 84.129322 -8.87109375 81.03125 C-8.88006077 78.87560971 -8.88918263 76.71997006 -8.89845276 74.56433105 C-8.91493362 70.0485686 -8.92264162 65.53288022 -8.92553711 61.01708984 C-8.93092925 55.22969082 -8.96864798 49.442987 -9.01428127 43.65578461 C-9.04401069 39.2051132 -9.05125973 34.75461035 -9.05226326 30.30384827 C-9.05647137 28.16997584 -9.06892924 26.03610318 -9.08978081 23.90232849 C-9.11661776 20.91938896 -9.11189313 17.93807647 -9.09936523 14.95507812 C-9.12161667 13.63329308 -9.12161667 13.63329308 -9.14431763 12.2848053 C-9.09192829 7.90731042 -8.90949679 6.1014785 -6.18128967 2.51062012 C-3.5 0.5625 -3.5 0.5625 0 0 Z " fill="#000000" transform="translate(8.5,84.4375)"/>
<path d="M0 0 C6.66124919 0.75862636 13.05190387 2.41289032 19.54467773 4.05102539 C20.79415695 4.36328568 22.04363617 4.67554596 23.33097839 4.99726868 C26.7403434 5.8493956 30.14860599 6.70585698 33.55668139 7.5631249 C37.12480379 8.45985827 40.69393261 9.35256788 44.26295471 10.24571228 C51.01371721 11.93572976 57.76357225 13.62934258 64.51310545 15.32426208 C72.20045007 17.25449436 79.88880266 19.18069644 87.57724082 21.1065675 C103.38594984 25.06657464 119.19339097 29.03161872 135 33 C134.43637511 36.55320928 133.88606623 39.73288339 132.43359375 43.03125 C131.95925903 44.1126123 131.95925903 44.1126123 131.4753418 45.21582031 C131.132854 45.96959961 130.79036621 46.72337891 130.4375 47.5 C130.07889893 48.29245117 129.72029785 49.08490234 129.35083008 49.90136719 C123.38422143 62.87055371 116.15224304 74.08359393 107 85 C106.27425781 85.86882812 105.54851562 86.73765625 104.80078125 87.6328125 C100.55408163 92.55531304 96.04086205 96.90055531 91 101 C90.06542969 101.77214844 89.13085938 102.54429687 88.16796875 103.33984375 C62.01729268 124.49373291 29.07264579 135.46463579 -4.4375 135.3125 C-5.70867676 135.30831055 -6.97985352 135.30412109 -8.28955078 135.29980469 C-17.26313138 135.19164767 -25.33300117 134.42135579 -34 132 C-35.21945313 131.70996094 -36.43890625 131.41992188 -37.6953125 131.12109375 C-50.98569132 127.85990223 -63.18456166 122.92713849 -75 116 C-75 112.69039593 -74.56762649 111.972457 -72.7980957 109.30273438 C-72.0659359 108.18742844 -72.0659359 108.18742844 -71.31898499 107.04959106 C-70.77672775 106.23916351 -70.23447052 105.42873596 -69.67578125 104.59375 C-68.82837624 103.31031204 -68.82837624 103.31031204 -67.96385193 102.00094604 C-66.08692579 99.16268765 -64.19988428 96.33131263 -62.3125 93.5 C-60.99925772 91.51931923 -59.68643789 89.5383583 -58.37402344 87.55712891 C-48.03708026 71.97395567 -37.58135459 56.4708115 -27.10205078 40.9831543 C-17.92475118 27.41378732 -8.88522622 13.76253922 0 0 Z " fill="#FEDE00" transform="translate(259,266)"/>
<path d="M0 0 C34.28813615 0 66.51371747 15.4732113 91 39 C91.47147461 39.44037598 91.94294922 39.88075195 92.42871094 40.33447266 C114.29807092 60.78808682 127.9693128 87.86628774 134 117 C134.28037109 118.24656372 134.28037109 118.24656372 134.56640625 119.51831055 C136.19331637 127.33339254 136.29794067 134.9753543 136.25 142.9375 C136.25773438 144.21818359 136.26546875 145.49886719 136.2734375 146.81835938 C136.25729092 154.74229339 135.58862857 162.23508028 134 170 C128.5408723 169.61006231 123.46834295 168.6883042 118.16479492 167.33081055 C116.73005241 166.96625741 115.29526564 166.60187845 113.86044312 166.23764038 C113.08130428 166.03887173 112.30216545 165.84010307 111.49941635 165.63531113 C106.90836914 164.46834134 102.31173323 163.32365481 97.71606445 162.17504883 C95.63037377 161.65290766 93.54470649 161.13067302 91.45906067 160.60835266 C83.39464664 158.5892078 75.32994734 156.57120319 67.26521015 154.55334949 C61.15394684 153.02422115 55.04279636 151.49464471 48.93188477 149.96411133 C42.98094637 148.47366432 37.02972286 146.98436089 31.07829857 145.49585533 C28.81875538 144.93050816 26.55931565 144.36474729 24.29998207 143.798563 C21.15379216 143.0102052 18.00723928 142.22331237 14.8605957 141.43676758 C13.93123199 141.20352783 13.00186829 140.97028809 12.04434204 140.72998047 C11.18551926 140.51561844 10.32669647 140.30125641 9.44184875 140.08039856 C8.70030705 139.89478269 7.95876535 139.70916681 7.19475269 139.51792622 C4.80923138 138.95498168 2.40344674 138.48068935 0 138 C0 92.46 0 46.92 0 0 Z " fill="#F34234" transform="translate(265,112)"/>
<path d="M0 0 C8.80233515 0 14.95174476 2.40300607 22.3125 7.125 C29.38910562 14.69532229 34.24149743 23.02588812 34.26069641 33.53431702 C34.26778122 34.83111893 34.27486603 36.12792084 34.28216553 37.46401978 C34.27987205 38.88885533 34.2773624 40.31369055 34.2746582 41.73852539 C34.27900835 43.24852246 34.28419251 44.75851732 34.29014587 46.26850891 C34.30351179 50.35929293 34.30411743 54.44998443 34.30158257 58.54078603 C34.30051163 61.95794969 34.30539917 65.37509472 34.310188 68.79225439 C34.32127398 76.85280947 34.32172513 84.91331794 34.31567383 92.97387695 C34.30962839 101.28776153 34.32196154 109.60147711 34.3432439 117.91533285 C34.36085475 125.05773435 34.36686224 132.20008203 34.36360615 139.34250444 C34.36179297 143.6065728 34.36443334 147.87052048 34.37832069 152.13456917 C34.39088674 156.14260199 34.38896669 160.15037086 34.37590981 164.15839958 C34.37354212 165.62857019 34.37628561 167.09875931 34.38453293 168.56890869 C34.39498434 170.57680374 34.38510602 172.58477387 34.3742218 174.59266663 C34.37438954 175.71591371 34.37455729 176.83916079 34.37473011 177.99644566 C33.94859105 181.41205541 33.05155573 183.2575322 31 186 C22.38427198 191.74381868 10.35481638 188 0 188 C0 125.96 0 63.92 0 0 Z " fill="#6F6F6F" transform="translate(461,94)"/>
<path d="M0 0 C16.83 0 33.66 0 51 0 C51 6.93 51 13.86 51 21 C44.30685043 26.57762465 44.30685043 26.57762465 40.1875 27.125 C37.91158751 27.37686379 37.91158751 27.37686379 36 28 C34.69821159 31.90536522 34.86369481 35.609052 34.87542725 39.6791687 C34.87331202 41.02529415 34.87331202 41.02529415 34.87115407 42.39861405 C34.86749227 45.41793927 34.87084137 48.43721779 34.87402344 51.45654297 C34.87262909 53.61633338 34.87073006 55.77612352 34.86836243 57.93591309 C34.86386094 62.59309992 34.86200924 67.25027793 34.86190033 71.90746689 C34.86076182 79.26858513 34.84793736 86.62965302 34.83233643 93.99075317 C34.82976357 95.23205297 34.82719072 96.47335277 34.8245399 97.75226772 C34.81927325 100.29077534 34.81398777 102.82928292 34.80868387 105.36779046 C34.77354233 122.5096871 34.74702438 139.65152139 34.74951172 156.79345703 C34.75109854 168.35048624 34.73510629 179.90734414 34.69880509 191.46431839 C34.68031488 197.5829478 34.67102908 203.70129107 34.68328094 209.81994247 C34.69469064 215.57383012 34.68307691 221.32720489 34.65364647 227.08102417 C34.64698853 229.19459225 34.64890221 231.30820702 34.65994453 233.42175674 C34.67375577 236.30407722 34.65699188 239.18465171 34.63250732 242.06686401 C34.64954039 243.3259611 34.64954039 243.3259611 34.66691756 244.61049449 C34.59641282 248.86901965 34.36282059 250.52859337 31.67921829 254.01535225 C29 256 29 256 25.5 256.6875 C21.67656558 255.93646824 20.39301703 254.89954023 18.0309602 251.86424947 C16.1091979 248.38919356 16.32505355 244.87883925 16.38768005 240.99130249 C16.38214664 240.09470024 16.37661323 239.19809798 16.37091213 238.27432597 C16.35834979 235.27535047 16.38130757 232.27770844 16.40405273 229.27880859 C16.4021487 227.12680256 16.39799302 224.97479751 16.39175415 222.82279968 C16.38296355 218.19172271 16.3897186 213.56102041 16.40841484 208.9299736 C16.43748234 201.61082042 16.42972118 194.2919908 16.41651917 186.97280884 C16.39585149 172.76180863 16.41146302 158.55096479 16.43199158 144.33997345 C16.45713252 126.2434708 16.47004 108.14705459 16.44203526 90.05054915 C16.43206266 82.77078375 16.44225475 75.49140444 16.46794307 68.21168113 C16.4800871 63.68927699 16.47592445 59.16699433 16.46736526 54.64458656 C16.46682877 52.54347689 16.47320465 50.44235269 16.48690605 48.34128761 C16.50467098 45.47874835 16.49806637 42.6172721 16.4853363 39.75473022 C16.50209283 38.50016984 16.50209283 38.50016984 16.51918787 37.22026479 C16.47930614 33.56244191 16.34273262 31.4508527 14.09466648 28.49360085 C11.38427278 26.56095602 9.23212893 26.23336163 6 25.78515625 C4 25 4 25 0 20 C0 13.4 0 6.8 0 0 Z " fill="#6F6F6F" transform="translate(17,162)"/>
<path d="M0 0 C0.68617417 17.89994378 1.1929146 35.79635668 1.50255299 53.70673084 C1.65034309 62.02902206 1.85136287 70.34293888 2.18774414 78.65991211 C3.82405048 119.95860703 3.27757517 149.49259215 -25.52761841 181.98135376 C-30.14751204 187.22065949 -33.82341912 192.90954819 -37.5078125 198.83984375 C-38.63356117 200.56579594 -39.76365587 202.28892351 -40.89868164 204.00878906 C-41.42688507 204.81610474 -41.9550885 205.62342041 -42.4992981 206.4552002 C-45.42877423 210.92824536 -48.37362514 215.39117041 -51.31640625 219.85546875 C-54.56360394 224.78213902 -57.81017732 229.70916907 -61.04638672 234.64306641 C-63.29879977 238.07485137 -65.56436393 241.49752146 -67.84197998 244.91262817 C-68.646293 246.12344164 -69.44578063 247.33747645 -70.24005127 248.55490112 C-71.30481053 250.18563917 -72.38816009 251.80419551 -73.47265625 253.421875 C-74.35836304 254.76137207 -74.35836304 254.76137207 -75.26196289 256.12792969 C-76.12229126 257.05460449 -76.12229126 257.05460449 -77 258 C-81.58234046 258 -82.05508122 257.4819242 -85.25 254.5 C-85.95640625 253.8503125 -86.6628125 253.200625 -87.390625 252.53125 C-88.18726563 251.77328125 -88.18726563 251.77328125 -89 251 C-88.45316307 250.28853569 -88.45316307 250.28853569 -87.89527893 249.56269836 C-84.0764676 244.54036249 -80.53358567 239.39019795 -77.08984375 234.10546875 C-75.93705168 232.34754866 -74.78421777 230.58965601 -73.63134766 228.83178711 C-73.02961731 227.91219208 -72.42788696 226.99259705 -71.80792236 226.0451355 C-59.51533335 207.26449033 -47.05242115 188.60469918 -34.45678711 170.02612305 C-33.87415604 169.16573425 -33.29152496 168.30534546 -32.6912384 167.41888428 C-31.62026356 165.83777302 -30.54797124 164.25755276 -29.47392273 162.67852783 C-28.51645586 161.2651964 -27.56879125 159.84515456 -26.63294983 158.4174118 C-25.53958218 156.7987951 -24.39619756 155.21292528 -23.20728016 153.66313553 C-17.65327146 145.99261142 -17.00088154 139.84070475 -17.11352539 130.5324707 C-17.10561938 129.11212731 -17.09464643 127.69179823 -17.08087158 126.27149963 C-17.05235918 122.44954579 -17.06627424 118.62882901 -17.08831334 114.80687737 C-17.10403432 110.80029182 -17.08003718 106.7939395 -17.06040955 102.78739929 C-17.02927118 95.21568966 -17.03340413 87.64443457 -17.05048412 80.07269686 C-17.06820561 71.44615341 -17.04618843 62.81985095 -17.02097714 54.1933428 C-16.97003983 36.46213847 -16.96853861 18.7312401 -17 1 C-11.27959989 0.1679418 -5.77759884 -0.12036664 0 0 Z " fill="#8FAB00" transform="translate(247,112)"/>
<path d="M0 0 C7.84399012 3.92199506 11.73938521 11.06111181 15 19 C16.52945875 23.71703889 17.25068756 27.78426506 17.25396729 32.73722839 C17.25960693 34.05367844 17.26524658 35.37012848 17.27105713 36.72647095 C17.26716935 38.16815241 17.26307306 39.60983333 17.25878906 41.05151367 C17.26150165 42.58298407 17.26506408 44.11445316 17.26940918 45.6459198 C17.2785013 49.79030253 17.27500268 53.93458532 17.26865101 58.07896972 C17.2635773 62.41994347 17.26828602 66.76090883 17.27142334 71.10188293 C17.27505782 78.38751763 17.27027626 85.67311171 17.26074219 92.95874023 C17.24984637 101.38226384 17.25339346 109.8056907 17.264395 118.22921199 C17.27346802 125.4658822 17.27475345 132.70252329 17.26951766 139.93919736 C17.26639962 144.2596386 17.26598433 148.58003433 17.27259064 152.90047264 C17.2783641 156.95936051 17.27436723 161.0181234 17.26280212 165.07699776 C17.26015607 166.56693692 17.26091971 168.0568866 17.26532745 169.54682159 C17.27078587 171.57911811 17.26272987 173.61143758 17.25396729 175.64372253 C17.25321323 176.78134128 17.25245918 177.91896002 17.25168228 179.09105206 C17 182 17 182 15 186 C10.05 186 5.1 186 0 186 C0 124.62 0 63.24 0 0 Z " fill="#9D9D9D" transform="translate(461,95)"/>
<path d="M0 0 C1.38289038 0.01119942 2.76580466 0.01973609 4.14872742 0.02572632 C7.777623 0.04856742 11.40506324 0.10744509 15.03338623 0.1739502 C18.74015618 0.23547756 22.44716279 0.26276333 26.15429688 0.29296875 C33.41993225 0.35719706 40.68437111 0.45951422 47.94921875 0.5859375 C49.52464831 3.57175766 50.19301234 5.52038629 50.14453125 8.9140625 C50.13808594 9.71328125 50.13164062 10.5125 50.125 11.3359375 C50.09986328 12.5734375 50.09986328 12.5734375 50.07421875 13.8359375 C50.06519531 14.67640625 50.05617188 15.516875 50.046875 16.3828125 C50.02337692 18.45064354 49.98750783 20.51832745 49.94921875 22.5859375 C49.15410889 21.93616943 48.35899902 21.28640137 47.53979492 20.61694336 C43.36163825 17.84857215 39.38182941 18.02580894 34.5 18.08984375 C33.60556686 18.08838852 32.71113373 18.08693329 31.78959656 18.08543396 C29.90779344 18.0870877 28.02597606 18.09858995 26.14428711 18.11938477 C23.2603242 18.14845156 20.37818842 18.13996091 17.49414062 18.12695312 C15.66275147 18.13318768 13.83136811 18.14157641 12 18.15234375 C11.13748123 18.14940811 10.27496246 18.14647247 9.38630676 18.14344788 C8.58504868 18.15613205 7.78379059 18.16881622 6.95825195 18.18188477 C6.25465042 18.18728775 5.55104889 18.19269073 4.8261261 18.19825745 C2.33485811 18.71283528 1.45493345 19.5565382 -0.05078125 21.5859375 C-0.79819338 26.99383374 -0.79819338 26.99383374 1.43359375 31.68212891 C5.0144438 34.39209287 8.38277501 34.14134822 12.6953125 34.08203125 C13.54344009 34.08348648 14.39156769 34.08494171 15.26539612 34.08644104 C17.0566044 34.08478334 18.84782711 34.07323644 20.63891602 34.05249023 C23.37382871 34.02357379 26.10679752 34.0318758 28.84179688 34.04492188 C30.5846448 34.03868286 32.32748662 34.03029065 34.0703125 34.01953125 C34.88503525 34.02246689 35.699758 34.02540253 36.53916931 34.02842712 C41.24237875 33.95070113 44.00738549 33.39064089 47.94921875 30.5859375 C48.60921875 30.5859375 49.26921875 30.5859375 49.94921875 30.5859375 C50.00361525 32.96125144 50.04307739 35.33529633 50.07421875 37.7109375 C50.09097656 38.37609375 50.10773438 39.04125 50.125 39.7265625 C50.16803294 44.1159224 49.41886628 47.48211205 47.94921875 51.5859375 C40.08230658 51.701919 32.21559561 51.79069643 24.34804249 51.84499836 C20.69452982 51.87106445 17.04160315 51.90640526 13.38842773 51.96313477 C9.86112927 52.01756515 6.33439348 52.04738052 2.80670738 52.06032372 C0.80965473 52.07402389 -1.18717231 52.11304044 -3.18388367 52.15242004 C-13.28313917 52.15554403 -13.28313917 52.15554403 -16.3527832 49.18041992 C-20.40457795 42.98941737 -19.35206208 35.73307675 -19.40087891 28.52929688 C-19.41741548 26.74075284 -19.44467537 24.95227427 -19.48291016 23.1640625 C-19.53785159 20.58038177 -19.55957968 17.99824978 -19.57421875 15.4140625 C-19.59688812 14.62010071 -19.6195575 13.82613892 -19.64291382 13.00811768 C-19.62648151 8.66151178 -19.21385243 4.93383126 -16.0112915 1.65124512 C-11.21904376 -0.95278004 -5.30434384 -0.12596055 0 0 Z " fill="#01A6F0" transform="translate(121.05078125,443.4140625)"/>
<path d="M0 0 C1.19141098 -0.01606293 2.38282196 -0.03212585 3.6103363 -0.04867554 C9.05142071 -0.09297213 14.49237209 -0.13461447 19.93359375 -0.15722656 C23.52311222 -0.17389694 27.11171649 -0.21869684 30.70088863 -0.26959801 C33.45895977 -0.30321525 36.21681202 -0.31479751 38.97506905 -0.32045364 C40.94226451 -0.33045042 42.90928795 -0.36471444 44.87620544 -0.39926147 C46.66805016 -0.39498642 46.66805016 -0.39498642 48.49609375 -0.390625 C49.54929306 -0.39871185 50.60249237 -0.40679871 51.68760681 -0.41513062 C54.31274414 0.19287109 54.31274414 0.19287109 56.15797424 2.48007202 C57.72502473 6.16140553 57.63693662 9.58334838 57.50024414 13.50537109 C57.47994141 14.6162207 57.47994141 14.6162207 57.45922852 15.74951172 C57.42410393 17.56428184 57.37030386 19.37867397 57.31274414 21.19287109 C56.71461914 20.88349609 56.11649414 20.57412109 55.50024414 20.25537109 C48.79307164 16.9976016 41.0113963 17.8911427 33.69848633 17.84277344 C31.86144349 17.82620301 30.02446542 17.79889851 28.18774414 17.76074219 C25.53375956 17.70592749 22.88128127 17.68409573 20.22680664 17.66943359 C19.40894684 17.64676422 18.59108704 17.62409485 17.7484436 17.60073853 C13.46670972 17.61657131 11.78772994 17.83456445 8.25561523 20.49902344 C5.95933139 23.12932494 5.95933139 23.12932494 6.31274414 26.81787109 C7.29762582 30.14184675 7.68376074 31.14441753 10.31274414 33.19287109 C12.21780839 33.65653823 12.21780839 33.65653823 14.32177734 33.61279297 C15.12303543 33.62870483 15.92429352 33.6446167 16.74983215 33.66101074 C17.61235092 33.66121216 18.47486969 33.66141357 19.36352539 33.66162109 C20.25508835 33.66923462 21.14665131 33.67684814 22.06523132 33.68469238 C23.95231324 33.69549898 25.839455 33.69834421 27.7265625 33.69384766 C30.60462272 33.69287804 33.47999276 33.7344343 36.35766602 33.77880859 C38.19294693 33.78401782 40.02823709 33.78670375 41.86352539 33.78662109 C42.71997147 33.80301636 43.57641754 33.81941162 44.45881653 33.83630371 C50.46292986 33.76738822 53.10354701 32.49547324 57.31274414 28.19287109 C57.36703692 30.90147774 57.40655625 33.6089801 57.43774414 36.31787109 C57.45450195 37.07841797 57.47125977 37.83896484 57.48852539 38.62255859 C57.4949707 39.37021484 57.50141602 40.11787109 57.50805664 40.88818359 C57.51853027 41.56896973 57.52900391 42.24975586 57.53979492 42.95117188 C57.24406256 45.8709725 56.26645036 48.4261104 55.31274414 51.19287109 C47.31543647 51.33204069 39.31863661 51.43857529 31.32041645 51.50374413 C27.60624157 51.53502631 23.8928965 51.57743784 20.17919922 51.64550781 C16.59352181 51.71081812 13.00864117 51.74660057 9.42241478 51.76213455 C8.05599614 51.77320058 6.68961998 51.79481161 5.32354164 51.82725143 C-5.08033473 52.06442855 -5.08033473 52.06442855 -8.64405823 50.13154602 C-11.85200749 46.84376548 -12.28486256 43.05348436 -12.3563385 38.69517517 C-12.34308029 37.88875076 -12.32982208 37.08232635 -12.31616211 36.25146484 C-12.31857407 35.40616714 -12.32098602 34.56086945 -12.32347107 33.68995667 C-12.32249542 31.91068815 -12.30916922 30.13138821 -12.28417969 28.35229492 C-12.24981049 25.63469093 -12.26354863 22.92033141 -12.28295898 20.20263672 C-12.27606139 18.46889898 -12.26638979 16.73516959 -12.25366211 15.00146484 C-12.25862198 14.1930162 -12.26358185 13.38456757 -12.26869202 12.55162048 C-12.1640888 7.5245797 -11.47086158 4.8359012 -7.68725586 1.19287109 C-5.02986024 -0.13582672 -2.9758502 0.036365 0 0 Z " fill="#01A6F1" transform="translate(335.687255859375,16.80712890625)"/>
<path d="M0 0 C6.02174836 1.13631027 11.41077938 2.72841082 16.9375 5.375 C17.65768311 5.71877686 18.37786621 6.06255371 19.11987305 6.41674805 C32.9511972 13.25257672 45.06492206 22.17442928 56 33 C56.93199219 33.87140625 57.86398437 34.7428125 58.82421875 35.640625 C79.52658142 55.39015927 92.25963264 82.26879704 98 110 C98.18691406 110.83104248 98.37382812 111.66208496 98.56640625 112.51831055 C100.19331637 120.33339254 100.29794067 127.9753543 100.25 135.9375 C100.26160156 137.85852539 100.26160156 137.85852539 100.2734375 139.81835938 C100.25729092 147.74229339 99.58862857 155.23508028 98 163 C91.56025419 162.37679879 85.32427599 161.35991738 79 160 C79.99 159.67 80.98 159.34 82 159 C82.92454041 128.72624939 82.92454041 128.72624939 78 99 C77.76394043 98.13745605 77.52788086 97.27491211 77.28466797 96.38623047 C69.94967845 70.51277615 56.72974866 48.19872516 38 29 C37.37222656 28.31035156 36.74445313 27.62070313 36.09765625 26.91015625 C25.95747443 16.05993982 13.02591451 7.92001709 0 1 C0 0.67 0 0.34 0 0 Z " fill="#C51D1D" transform="translate(301,119)"/>
<path d="M0 0 C5.61 0 11.22 0 17 0 C17.09262684 14.64695973 17.16399414 29.29385711 17.20724869 43.94105053 C17.2278671 50.74213321 17.25597354 57.54303048 17.30175781 64.34399414 C17.34591013 70.90567422 17.36912925 77.46721213 17.37950897 84.02904701 C17.38690727 86.53413236 17.40135413 89.039207 17.42292023 91.54421043 C17.45190123 95.049482 17.45595807 98.55395433 17.45410156 102.05932617 C17.47567322 103.61731178 17.47567322 103.61731178 17.49768066 105.20677185 C17.47208576 109.66450495 17.45588182 112.25241448 15.09661865 116.12129211 C12.60058848 118.35789893 11.51669949 118.93110673 8.1875 119.375 C5 119 5 119 2.33625793 117.16609192 C-1.08485665 112.52980451 -0.66406889 108.59001331 -0.56762695 102.9675293 C-0.56835709 101.85489212 -0.56908722 100.74225494 -0.56983948 99.59590149 C-0.56635853 95.92150984 -0.52747034 92.24838872 -0.48828125 88.57421875 C-0.47895501 86.02546379 -0.47183801 83.47669987 -0.46684265 80.92793274 C-0.44970842 74.90713056 -0.4103105 68.88687302 -0.3600952 62.86628896 C-0.30415638 56.01026152 -0.27670397 49.15421203 -0.25161803 42.29801309 C-0.19939258 28.19841595 -0.1104686 14.09925026 0 0 Z " fill="#5F7B89" transform="translate(461,299)"/>
<path d="M0 0 C2.06183633 -0.08150744 4.12461349 -0.1394194 6.1875 -0.1875 C7.33605469 -0.22230469 8.48460937 -0.25710937 9.66796875 -0.29296875 C13.33289234 0.02926955 15.09664715 0.78767607 18 3 C20.58404909 6.87607363 20.32375541 10.14971734 20.3359375 14.6484375 C20.3459227 15.92275131 20.3459227 15.92275131 20.35610962 17.22280884 C20.36623306 19.01993648 20.37092673 20.81710169 20.37060547 22.61425781 C20.37497303 25.35805567 20.41127865 28.10023738 20.44921875 30.84375 C20.45508819 32.59114034 20.45905673 34.33853831 20.4609375 36.0859375 C20.47530853 36.9037973 20.48967957 37.7216571 20.50448608 38.56430054 C20.47249278 42.57173733 20.29935666 44.52912173 18.09619141 47.99462891 C14.53763195 51.39900899 12.21105808 51.10991233 7.375 51.0625 C6.18648438 51.05347656 4.99796875 51.04445312 3.7734375 51.03515625 C2.85820312 51.02355469 1.94296875 51.01195312 1 51 C1.16371094 50.17242187 1.32742188 49.34484375 1.49609375 48.4921875 C2.0464547 44.67805811 2.11089055 40.96646499 2.0625 37.125 C2.05798828 36.43664063 2.05347656 35.74828125 2.04882812 35.0390625 C2.03716336 33.35933665 2.01923271 31.67965625 2 30 C1.36642578 30.64759277 0.73285156 31.29518555 0.08007812 31.96240234 C-4.10830584 34.73318965 -7.36253642 34.61204485 -12.28125 34.6015625 C-13.17235474 34.61013275 -14.06345947 34.618703 -14.98156738 34.62753296 C-16.86088672 34.63899122 -18.74029474 34.64004082 -20.61962891 34.63134766 C-23.49144783 34.62501885 -26.35915802 34.67198895 -29.23046875 34.72265625 C-31.05989065 34.72720197 -32.8893236 34.72860935 -34.71875 34.7265625 C-35.57408325 34.74498199 -36.4294165 34.76340149 -37.31066895 34.78237915 C-43.07295155 34.6931326 -43.07295155 34.6931326 -45.68139648 32.74285889 C-48.23789774 29.8723482 -48.99158883 28.24392404 -49.125 24.375 C-47.75056145 20.25168435 -46.68562093 19.25524468 -43 17 C-40.07008037 16.42914029 -37.20457452 16.43880788 -34.2265625 16.46875 C-32.96360855 16.46300964 -32.96360855 16.46300964 -31.67514038 16.45715332 C-29.89832358 16.45443808 -28.12146655 16.46177215 -26.34472656 16.47851562 C-23.64035731 16.49987869 -20.93866058 16.47873003 -18.234375 16.453125 C-16.50259835 16.45576939 -14.77082336 16.46089668 -13.0390625 16.46875 C-12.23779938 16.46065308 -11.43653625 16.45255615 -10.61099243 16.44421387 C-4.97435012 16.53722066 -1.68694378 17.85925644 3 21 C2.88553728 18.43663746 2.75880499 15.87486555 2.625 13.3125 C2.5940625 12.59126953 2.563125 11.87003906 2.53125 11.12695312 C2.30664413 7.02789606 1.82259091 3.75631541 0 0 Z " fill="#0274B7" transform="translate(390,17)"/>
<path d="M0 0 C2.22673171 -0.16271111 4.45690853 -0.27871548 6.6875 -0.375 C7.92886719 -0.44460938 9.17023438 -0.51421875 10.44921875 -0.5859375 C14.36229519 0.05978468 15.57083838 1.04835143 17.9695282 4.13238525 C19.87630203 7.58819929 19.69245579 11.07603535 19.62890625 14.94140625 C19.63131821 15.78670395 19.63373016 16.63200165 19.63621521 17.50291443 C19.63523956 19.28218295 19.62191336 21.06148288 19.59692383 22.84057617 C19.56255463 25.55818016 19.57629278 28.27253968 19.59570312 30.99023438 C19.58880554 32.72397212 19.57913393 34.45770151 19.56640625 36.19140625 C19.57384605 37.40407921 19.57384605 37.40407921 19.58143616 38.64125061 C19.47683295 43.66829139 18.78360572 46.35696989 15 50 C10.73840618 52.13079691 4.59236298 51.04502317 0 51 C0.66 44.07 1.32 37.14 2 30 C-1.465 31.98 -1.465 31.98 -5 34 C-7.28872681 34.5146637 -7.28872681 34.5146637 -9.29541016 34.53344727 C-10.05955231 34.5492836 -10.82369446 34.56511993 -11.61099243 34.58143616 C-12.81288712 34.57399635 -12.81288712 34.57399635 -14.0390625 34.56640625 C-15.30488663 34.57570412 -15.30488663 34.57570412 -16.59628296 34.58518982 C-18.36951551 34.59225649 -20.14281485 34.58916937 -21.91601562 34.57641602 C-24.62493582 34.56250033 -27.33043077 34.59672304 -30.0390625 34.63476562 C-31.76823001 34.6357165 -33.49740183 34.63385971 -35.2265625 34.62890625 C-36.03187408 34.64216446 -36.83718567 34.65542267 -37.66690063 34.66908264 C-41.95635502 34.5981437 -43.53700326 34.37054765 -47.0090332 31.59179688 C-48.9636671 29.04729737 -49.66843039 28.07179318 -49.5625 24.9375 C-49 21 -49 21 -47.53881836 18.78710938 C-43.75092794 16.12076089 -40.34612933 16.42612704 -35.81640625 16.46875 C-34.47762672 16.46300964 -34.47762672 16.46300964 -33.11180115 16.45715332 C-31.22645946 16.45443454 -29.34108003 16.46179341 -27.45581055 16.47851562 C-24.57580022 16.49990124 -21.69829155 16.47872659 -18.81835938 16.453125 C-16.98436951 16.45576878 -15.1503812 16.46089479 -13.31640625 16.46875 C-12.45793594 16.46065308 -11.59946564 16.45255615 -10.71498108 16.44421387 C-5.53629104 16.52506985 -2.78646945 17.11663935 1 21 C1.0270203 18.24993392 1.04684883 15.50013454 1.0625 12.75 C1.07506836 11.58404297 1.07506836 11.58404297 1.08789062 10.39453125 C1.09111328 9.64042969 1.09433594 8.88632812 1.09765625 8.109375 C1.10289307 7.41811523 1.10812988 6.72685547 1.11352539 6.01464844 C0.99437971 3.90026102 0.57618237 2.03358485 0 0 Z " fill="#0274B8" transform="translate(169,444)"/>
<path d="M0 0 C5.50808397 0.59015185 10.64878069 1.56663769 16 3 C15.40118068 8.33033532 13.63177094 12.67064246 11.4375 17.5 C11.07889893 18.29245117 10.72029785 19.08490234 10.35083008 19.90136719 C4.38422143 32.87055371 -2.84775696 44.08359393 -12 55 C-12.72574219 55.86882812 -13.45148438 56.73765625 -14.19921875 57.6328125 C-18.44591837 62.55531304 -22.95913795 66.90055531 -28 71 C-28.93457031 71.77214844 -29.86914062 72.54429687 -30.83203125 73.33984375 C-44.53110343 84.42134137 -59.71293856 91.50287875 -76 98 C-76.33 97.34 -76.66 96.68 -77 96 C-75.9584375 95.42894531 -74.916875 94.85789062 -73.84375 94.26953125 C-39.22750861 74.86228428 -12.53236975 43.31092323 -1 5 C-0.64482031 3.33785191 -0.3053511 1.67201962 0 0 Z " fill="#FBBF07" transform="translate(378,296)"/>
<path d="M0 0 C11.22 0 22.44 0 34 0 C34.061875 3.320625 34.12375 6.64125 34.1875 10.0625 C34.22846802 11.61142944 34.22846802 11.61142944 34.27026367 13.19165039 C34.33596606 20.51570079 33.47104317 25.35655847 28.3125 30.875 C24.25080209 33.48061752 21.76113491 33.7537344 17 34 C16.71125 33.071875 16.4225 32.14375 16.125 31.1875 C13.70676204 27.56014306 13.08375553 27.4561391 9.0625 26.4375 C8.20785156 26.27121094 7.35320313 26.10492188 6.47265625 25.93359375 C2.93295509 24.5971189 1.84661969 23.31967033 0 20 C-0.47026344 16.54165828 -0.37696211 13.16912689 -0.25 9.6875 C-0.1675 6.490625 -0.085 3.29375 0 0 Z " fill="#9C9C9C" transform="translate(17,162)"/>
<path d="M0 0 C0.84671265 -0.00145523 1.69342529 -0.00291046 2.5657959 -0.00440979 C4.35102794 -0.00275421 6.13627476 0.00876892 7.92138672 0.02954102 C10.64742926 0.05850005 13.37152591 0.05014247 16.09765625 0.03710938 C17.83594691 0.04334731 19.57423146 0.05173868 21.3125 0.0625 C22.12408569 0.05956436 22.93567139 0.05662872 23.77185059 0.05360413 C28.37221007 0.12995147 31.41629795 0.52257745 35.15625 3.49609375 C36.72325442 6.6301026 37.00789561 10.1276447 36.15625 13.49609375 C33.27634566 16.58124259 31.02991959 17.75446822 26.90429688 18.04541016 C25.22824484 18.08513528 23.55151894 18.10122911 21.875 18.09765625 C20.98389526 18.1062265 20.09279053 18.11479675 19.17468262 18.12362671 C17.29536328 18.13508497 15.41595526 18.13613457 13.53662109 18.12744141 C10.66480217 18.1211126 7.79709198 18.1680827 4.92578125 18.21875 C3.09635935 18.22329572 1.2669264 18.2247031 -0.5625 18.22265625 C-1.41783325 18.24107574 -2.2731665 18.25949524 -3.15441895 18.2784729 C-8.91670155 18.18922635 -8.91670155 18.18922635 -11.52514648 16.23895264 C-14.08164774 13.36844195 -14.83533883 11.74001779 -14.96875 7.87109375 C-12.42568752 0.2419063 -7.07542781 -0.09793815 0 0 Z " fill="#000203" transform="translate(355.84375,33.50390625)"/>
<path d="M0 0 C1.33877953 -0.00574036 1.33877953 -0.00574036 2.7046051 -0.01159668 C4.58994679 -0.01431546 6.47532622 -0.00695659 8.3605957 0.00976562 C11.24060603 0.03115124 14.1181147 0.00997659 16.99804688 -0.015625 C18.83203674 -0.01298122 20.66602505 -0.00785521 22.5 0 C23.35847031 -0.00809692 24.21694061 -0.01619385 25.10142517 -0.02453613 C29.20168202 0.03948204 31.30952093 0.21361867 34.86157227 2.43945312 C36.81640625 4.53125 36.81640625 4.53125 37.41015625 6.53125 C37.21495068 10.6956355 37.04511816 13.54170194 33.81640625 16.53125 C27.70953549 18.56687359 20.61277461 17.8389463 14.20214844 17.88134766 C12.3651056 17.89791808 10.52812753 17.92522259 8.69140625 17.96337891 C6.03742167 18.0181936 3.38494338 18.04002536 0.73046875 18.0546875 C-0.49632095 18.08869156 -0.49632095 18.08869156 -1.74789429 18.12338257 C-6.08463713 18.10734637 -7.68502424 17.9280163 -11.20141602 15.12963867 C-13.1445472 12.58243517 -13.85188005 11.59877984 -13.74609375 8.46875 C-13.18359375 4.53125 -13.18359375 4.53125 -11.72241211 2.31835938 C-7.93452169 -0.34798911 -4.52972308 -0.04262296 0 0 Z " fill="#000203" transform="translate(133.18359375,460.46875)"/>
</svg>
