<?xml version="1.0" encoding="UTF-8"?>
<svg version="1.1" xmlns="http://www.w3.org/2000/svg" width="512" height="512">
<path d="M0 0 C9.1450532 6.55559369 15.10761201 14.58769392 18.375 25.375 C18.375 26.365 18.375 27.355 18.375 28.375 C19.08386353 28.36611755 19.79272705 28.35723511 20.52307129 28.3480835 C27.23106315 28.26765419 33.93891879 28.20689265 40.64728546 28.16775131 C44.09547132 28.14695107 47.54325594 28.11877464 50.99121094 28.07324219 C54.96284035 28.02112756 58.93431207 28.00199211 62.90625 27.984375 C64.74733337 27.95340729 64.74733337 27.95340729 66.62561035 27.92181396 C74.87471386 27.91966658 80.49085846 28.79750122 86.75 34.5625 C88.29257463 37.2323407 88.85876016 39.07727172 89.4765625 42.05078125 C89.64752441 42.86071533 89.81848633 43.67064941 89.99462891 44.50512695 C90.12015137 45.12218506 90.24567383 45.73924316 90.375 46.375 C90.97555206 46.36833817 91.57610413 46.36167633 92.19485474 46.35481262 C98.45667151 46.28833922 104.7183877 46.24314953 110.98046875 46.21020508 C113.31612216 46.19513739 115.65174737 46.17467951 117.98730469 46.14868164 C121.34837819 46.11221042 124.70907692 46.0952531 128.0703125 46.08203125 C129.11115997 46.06654739 130.15200745 46.05106354 131.22439575 46.03511047 C136.700237 46.03384509 140.67804478 46.22462589 145.375 49.375 C150.24146168 54.24146168 152.11433438 58.78335638 152.61157322 65.63468075 C152.60541461 66.76086095 152.599256 67.88704115 152.59291077 69.04734802 C152.59106781 70.34960327 152.58922485 71.65185852 152.58732605 72.99357605 C152.57534022 74.41946508 152.56323607 75.84535311 152.55102539 77.27124023 C152.54558446 78.78636356 152.54115566 80.30149081 152.53765869 81.81661987 C152.52885034 85.06977326 152.5145914 88.32284128 152.49656868 91.57595634 C152.46978586 96.72449656 152.46570865 101.87289869 152.46665955 107.02149963 C152.46673523 108.78721905 152.46680096 110.55293846 152.46685696 112.31865788 C152.46693148 113.64462032 152.46693148 113.64462032 152.46700752 114.99736989 C152.46607295 126.97604667 152.44721719 138.95436962 152.37866211 150.93286133 C152.33253165 159.02437074 152.3183715 167.11525706 152.34051126 175.20687634 C152.35088327 179.48437724 152.34482999 183.76044672 152.29936409 188.03774834 C152.25675963 192.06117758 152.25616389 196.08245436 152.28721619 200.10596848 C152.29115139 201.57814638 152.27981662 203.05046061 152.25169182 204.52237511 C151.97412647 212.77036577 151.97412647 212.77036577 155.3724041 219.98742867 C157.61521411 221.98546635 159.90159989 223.67853757 162.375 225.375 C170.85979663 235.17998352 174.88008352 247.09398064 178.375 259.375 C178.70371094 258.26125 179.03242188 257.1475 179.37109375 256 C184.22231441 240.19035855 191.09621482 226.62457264 202.375 214.375 C202.84921387 213.8584082 203.32342773 213.34181641 203.81201172 212.80957031 C212.86506022 203.05924322 226.34340892 188.9316262 240 186.8125 C243.375 187.375 243.375 187.375 246.3125 189.375 C248.60688707 192.71229029 248.93350182 194.39190119 248.94140625 198.3125 C247.50380491 203.54735177 243.33891102 206.28868303 238.9375 209 C217.02185657 223.29049256 202.15556626 242.5747325 196.375 268.375 C195.54587921 272.5642419 195.26507124 276.48141122 195.3125 280.75 C195.32603516 282.33941406 195.32603516 282.33941406 195.33984375 283.9609375 C195.35144531 284.75757813 195.36304688 285.55421875 195.375 286.375 C195.82488281 285.91609375 196.27476562 285.4571875 196.73828125 284.984375 C197.38152344 284.37078125 198.02476562 283.7571875 198.6875 283.125 C199.60982422 282.22007812 199.60982422 282.22007812 200.55078125 281.296875 C209.18734399 275.41971198 218.29122701 274.7329439 228.42504883 274.85351562 C230.54301759 274.87480417 232.65752977 274.85370362 234.77539062 274.828125 C256.31829446 274.7836068 273.77702624 282.2691434 289.4375 297 C294.83941328 302.5111277 298.63184284 308.66343216 302.375 315.375 C302.78492188 316.04917969 303.19484375 316.72335937 303.6171875 317.41796875 C312.28045832 332.62906054 311.00153792 350.80367422 310.89648438 367.68164062 C310.87377911 371.37063832 310.88717258 375.0584764 310.91025162 378.74743366 C311.10967554 416.32269365 302.944232 448.63529562 276.125 476.0625 C262.33893643 489.6838871 246.2219527 498.65767257 227.375 503.375 C226.70783966 503.54285507 226.04067932 503.71071014 225.353302 503.88365173 C218.05154609 505.54162961 210.97641995 505.66495901 203.51171875 505.640625 C201.54825249 505.64349518 201.54825249 505.64349518 199.54512024 505.64642334 C196.78759989 505.64935288 194.0302101 505.6451497 191.27270508 505.63574219 C187.77663791 505.62438276 184.28087916 505.63089861 180.78482342 505.64288712 C177.40209872 505.65194891 174.01945214 505.64555903 170.63671875 505.640625 C169.40088547 505.64467346 168.16505219 505.64872192 166.89176941 505.65289307 C159.7397479 505.61493989 153.03240688 504.99757263 146.0103302 503.60784912 C143.14328513 503.07752474 143.14328513 503.07752474 140.375 505.375 C137.89448953 505.62799966 137.89448953 505.62799966 134.8716774 505.63226891 C133.72050061 505.6387178 132.56932381 505.64516669 131.38326287 505.651811 C130.1127633 505.6487138 128.84226372 505.6456166 127.53326416 505.64242554 C126.17447715 505.64616024 124.81569228 505.65076104 123.45691085 505.65615618 C119.71465932 505.66842418 115.97249692 505.66812126 112.23022985 505.66576743 C108.19737708 505.66536021 104.16455325 505.67638939 100.13171387 505.68588257 C92.22692754 505.70251502 84.32217104 505.70799315 76.41736868 505.70910732 C69.99253335 505.71005686 63.56770788 505.71416244 57.14287567 505.72050858 C38.93467038 505.73812815 20.72648869 505.74734648 2.51827481 505.74584763 C1.53610155 505.74576772 0.55392828 505.7456878 -0.45800781 505.74560547 C-1.44137801 505.74552371 -2.42474821 505.74544195 -3.4379175 505.74535771 C-19.37302616 505.7445449 -35.30804028 505.76367935 -51.24312159 505.7918822 C-67.5979266 505.82059985 -83.95268548 505.83442307 -100.30751634 505.83269465 C-109.49236176 505.8320303 -118.67710811 505.83754224 -127.86193085 505.85905075 C-135.68301824 505.87724798 -143.50396167 505.88162202 -151.32506105 505.8680319 C-155.31582501 505.86149446 -159.30631267 505.86141273 -163.29705048 505.8787384 C-166.95143495 505.8944406 -170.6053234 505.89163519 -174.25969556 505.87417014 C-176.20590819 505.86963798 -178.15213604 505.88478014 -180.09828925 505.90064943 C-186.82957325 505.84735123 -191.19331206 505.4848394 -196.625 501.375 C-201.23202785 496.40425942 -201.75017791 492.88815927 -201.75922108 486.23185349 C-201.76274942 485.12814312 -201.76274942 485.12814312 -201.76634905 484.00213557 C-201.77304775 481.51709512 -201.77258056 479.03210684 -201.77217102 476.54705811 C-201.7754691 474.75516882 -201.77919454 472.96328027 -201.7833125 471.17139268 C-201.79334689 466.2319993 -201.7970516 461.29261807 -201.79970181 456.35321593 C-201.80360056 451.03201641 -201.81317913 445.71082655 -201.82191467 440.38963318 C-201.84169041 427.53200855 -201.85174633 414.67438311 -201.86064246 401.81674707 C-201.86502322 395.76575251 -201.87039054 389.71475882 -201.87563133 383.66376495 C-201.8926441 363.55598507 -201.90713935 343.44820574 -201.91438007 323.34041977 C-201.91629005 318.12066395 -201.91821037 312.90090814 -201.92016602 307.68115234 C-201.92089163 305.73507522 -201.92089163 305.73507522 -201.9216319 303.74968341 C-201.92993624 282.72219858 -201.95527979 261.69477057 -201.98774669 240.66731057 C-202.02078889 219.09185388 -202.03882623 197.51642609 -202.04202431 175.94094396 C-202.04419196 163.82180716 -202.05297782 151.70275323 -202.07848549 139.58364105 C-202.10015363 129.26477005 -202.10826205 118.94600204 -202.09851871 108.62711087 C-202.09396284 103.3604493 -202.09593488 98.09400041 -202.11528015 92.82736778 C-202.13283268 88.00726448 -202.13197865 83.18753024 -202.11638286 78.36742344 C-202.11399473 76.62244277 -202.11839238 74.87743706 -202.13021151 73.13249478 C-202.14527671 70.761717 -202.13569636 68.39225607 -202.11998463 66.02151108 C-202.12096144 64.70436859 -202.12193824 63.3872261 -202.12294465 62.0301702 C-201.37006765 56.50366529 -199.19766863 52.83259532 -195.0625 49 C-191.54317273 46.65378182 -188.91513242 46.25086084 -184.78637695 46.26147461 C-183.31519157 46.26158791 -183.31519157 46.26158791 -181.81428528 46.26170349 C-180.75795395 46.26686478 -179.70162262 46.27202606 -178.61328125 46.27734375 C-176.98823921 46.27946617 -176.98823921 46.27946617 -175.33036804 46.28163147 C-171.86605075 46.28723441 -168.4017978 46.29978742 -164.9375 46.3125 C-162.59049572 46.31751462 -160.24349044 46.32207759 -157.89648438 46.32617188 C-152.13930092 46.33720479 -146.38215506 46.3539458 -140.625 46.375 C-140.50600342 45.76446777 -140.38700684 45.15393555 -140.2644043 44.52490234 C-140.09851807 43.72004395 -139.93263184 42.91518555 -139.76171875 42.0859375 C-139.60147217 41.28978027 -139.44122559 40.49362305 -139.27612305 39.67333984 C-137.9176621 34.87823248 -135.09335194 32.22586912 -130.78491211 29.72924805 C-125.1975595 27.46842591 -119.17815684 28.00760812 -113.25390625 28.08203125 C-111.33770729 28.08839851 -111.33770729 28.08839851 -109.38279724 28.09489441 C-106.00751703 28.1087955 -102.63285948 28.1356885 -99.25775146 28.16900635 C-95.80535221 28.19984679 -92.3528883 28.2134294 -88.90039062 28.22851562 C-82.14175674 28.26152675 -75.38341427 28.31168339 -68.625 28.375 C-68.31578613 27.10519287 -68.00657227 25.83538574 -67.68798828 24.52709961 C-65.29368644 14.69474127 -58.95482761 6.09595678 -50.6875 0.32421875 C-34.6103421 -9.38236533 -16.16057535 -9.74062076 0 0 Z " fill="#F7E8AF" transform="translate(201.625,6.625)"/>
<path d="M0 0 C1.000811 0.00007553 2.00162201 0.00015106 3.03276062 0.00022888 C4.11096573 0.00539017 5.18917084 0.01055145 6.30004883 0.01586914 C7.40560623 0.01728409 8.51116364 0.01869904 9.65022278 0.02015686 C13.18586925 0.02576025 16.7214527 0.03831335 20.25708008 0.05102539 C22.65226146 0.05603995 25.04744383 0.06060294 27.44262695 0.06469727 C33.31832189 0.07488045 39.19388033 0.09445532 45.06958008 0.11352539 C45.06958008 11.66352539 45.06958008 23.21352539 45.06958008 35.11352539 C35.38208008 35.36352539 35.38208008 35.36352539 32.35595703 35.41137695 C28.13291446 35.57306523 25.64020735 35.75769698 21.98754883 38.03540039 C18.8138149 41.4741508 18.94321853 43.58303721 18.93815231 48.18655109 C18.9323906 50.14208392 18.9323906 50.14208392 18.92651248 52.13712245 C18.92729282 53.59770673 18.92817163 55.05829096 18.92913818 56.51887512 C18.92655611 58.05971386 18.92354339 59.60055194 18.92013478 61.14138907 C18.91204302 65.39140926 18.910274 69.64141258 18.90953732 73.89143956 C18.90769053 78.46891621 18.90014511 83.04638402 18.8934021 87.62385559 C18.87980284 97.64028116 18.87379159 107.65670273 18.86939144 117.673136 C18.86663173 123.92364414 18.86239488 130.17415073 18.85788727 136.42465782 C18.84569256 153.71955805 18.83539362 171.01445702 18.83201218 188.30936146 C18.83179261 189.41692001 18.83157304 190.52447857 18.83134682 191.66559951 C18.83112855 192.77585656 18.83091027 193.88611361 18.83068538 195.03001481 C18.83024191 197.27993826 18.82979534 199.52986171 18.8293457 201.77978516 C18.82901356 203.45385621 18.82901356 203.45385621 18.8286747 205.16174688 C18.82472548 223.25160153 18.80726855 241.34141593 18.78398618 259.43125502 C18.76029306 277.98953774 18.74781126 296.54780025 18.74664426 315.10609835 C18.74572635 325.53166468 18.73994502 335.95717857 18.72182465 346.38273048 C18.70645116 355.25935522 18.70128688 364.13591131 18.70956275 373.01254681 C18.71347903 377.5437531 18.71249217 382.07482103 18.6985054 386.60601044 C18.68582489 390.75183763 18.68691215 394.89742169 18.69909611 399.04324826 C18.70106331 400.54528864 18.69792779 402.0473459 18.68925175 403.54936252 C18.67822331 405.58720584 18.68740388 407.62512882 18.69764328 409.66297626 C18.69674765 411.36268699 18.69674765 411.36268699 18.69583392 413.0967353 C19.12005107 416.5209152 20.01147528 418.36587923 22.06958008 421.11352539 C25.17932797 423.18669065 25.84939906 423.364732 29.37430096 423.37523842 C30.25808979 423.38270391 31.14187862 423.3901694 32.05244893 423.39786112 C33.02422937 423.39592639 33.99600982 423.39399165 34.99723816 423.39199829 C36.54466586 423.40068689 36.54466586 423.40068689 38.12335473 423.40955102 C41.59659064 423.42662075 45.06969422 423.42943353 48.54296875 423.43237305 C51.02614165 423.44166641 53.50931141 423.45183418 55.99247742 423.46281433 C61.34703401 423.48451599 66.70155552 423.50010771 72.05614281 423.51018143 C79.79800077 423.52475687 87.53979195 423.55029047 95.28161076 423.57851271 C107.8416942 423.62400137 120.40178723 423.66060759 132.96191406 423.69165039 C145.16407966 423.72182745 157.36622175 423.75617382 169.56835938 423.79614258 C170.32029409 423.79860413 171.07222881 423.80106568 171.84694942 423.80360182 C175.6191237 423.81597625 179.3912977 423.82843282 183.16347158 423.84093022 C214.46547586 423.94452907 245.76750604 424.03357444 277.06958008 424.11352539 C276.39701172 423.25484863 275.72444336 422.39617187 275.03149414 421.51147461 C274.13255318 420.35552572 273.23380023 419.19943062 272.33520508 418.04321289 C271.8938623 417.48077881 271.45251953 416.91834473 270.99780273 416.33886719 C254.41351049 394.94421393 247.984516 369.79900653 247.83129883 343.11352539 C247.82518554 342.11190872 247.82518554 342.11190872 247.81894875 341.09005737 C247.79819044 337.55084559 247.78384866 334.01167131 247.77441406 330.47241211 C247.7655889 327.58059396 247.74478417 324.68926175 247.71289062 321.79760742 C247.37679995 290.62073742 247.37679995 290.62073742 252.06958008 278.11352539 C252.38306396 277.27724609 252.69654785 276.4409668 253.01953125 275.5793457 C253.86163261 273.56372805 254.78572133 271.66147639 255.81958008 269.73852539 C256.33282837 268.75057983 256.33282837 268.75057983 256.85644531 267.74267578 C259.9489018 261.97673167 263.65823528 256.94886448 268.06958008 252.11352539 C268.58649414 251.50508789 269.1034082 250.89665039 269.63598633 250.26977539 C276.70398043 242.47549618 287.98227 235.29781974 298.06958008 232.11352539 C299.05958008 232.11352539 300.04958008 232.11352539 301.06958008 232.11352539 C300.67897011 228.33418072 300.67897011 228.33418072 298.24926758 225.55883789 C297.10844727 224.9052832 297.10844727 224.9052832 295.94458008 224.23852539 C284.81903277 217.28064342 279.37139054 207.69610038 276.06958008 195.11352539 C275.25054943 190.89199016 274.95145929 186.91889112 274.97192383 182.62133789 C274.97514648 181.42250977 274.97836914 180.22368164 274.98168945 178.98852539 C274.99006836 177.75102539 274.99844727 176.51352539 275.00708008 175.23852539 C275.0115918 173.97782227 275.01610352 172.71711914 275.02075195 171.41821289 C275.03250048 168.31660153 275.04892841 165.21508814 275.06958008 162.11352539 C280.8129612 158.66749672 287.50448344 158.99348029 294.00708008 159.05102539 C295.03285156 159.05779297 295.03285156 159.05779297 296.0793457 159.06469727 C297.74279612 159.07632979 299.40620057 159.09425845 301.06958008 159.11352539 C301.03241866 143.79718229 300.97256575 128.48104442 300.88567734 113.16490555 C300.84586306 106.05337392 300.81348282 98.94195333 300.79858398 91.83032227 C300.78419124 84.97021548 300.7491076 78.11046519 300.70127106 71.25051117 C300.68640672 68.630226 300.67853619 66.00989171 300.67769623 63.38956451 C300.67534011 59.72588699 300.64836782 56.06317081 300.61547852 52.3996582 C300.62050888 51.31065216 300.62553925 50.22164612 300.63072205 49.09963989 C300.64777575 43.42599608 300.64777575 43.42599608 298.22296143 38.47064209 C295.02352222 36.45427263 292.32003311 35.97092922 288.62036133 35.79711914 C287.8563501 35.75901123 287.09233887 35.72090332 286.30517578 35.68164062 C285.3405542 35.6385376 284.37593262 35.59543457 283.38208008 35.55102539 C280.30895508 35.40665039 277.23583008 35.26227539 274.06958008 35.11352539 C274.06958008 23.56352539 274.06958008 12.01352539 274.06958008 0.11352539 C281.08085535 0.04458714 288.09095055 -0.01512858 295.10229492 -0.05126953 C297.48645008 -0.06633861 299.87057761 -0.08679751 302.25463867 -0.11279297 C305.68520945 -0.14925798 309.11541308 -0.16622013 312.54614258 -0.17944336 C314.14022446 -0.20266914 314.14022446 -0.20266914 315.76651001 -0.22636414 C321.28804216 -0.22761455 325.33936626 -0.07684886 330.06958008 3.11352539 C334.93604176 7.97998707 336.80891446 12.52188178 337.3061533 19.37320614 C337.29999469 20.49938634 337.29383608 21.62556654 337.28749084 22.78587341 C337.28564789 24.08812866 337.28380493 25.39038391 337.28190613 26.73210144 C337.2699203 28.15799047 337.25781614 29.58387851 337.24560547 31.00976562 C337.24016454 32.52488895 337.23573574 34.0400162 337.23223877 35.55514526 C337.22343042 38.80829865 337.20917147 42.06136667 337.19114876 45.31448174 C337.16436594 50.46302195 337.16028873 55.61142408 337.16123962 60.76002502 C337.16131531 62.52574444 337.16138104 64.29146385 337.16143703 66.05718327 C337.16151156 67.38314571 337.16151156 67.38314571 337.1615876 68.73589528 C337.16065303 80.71457206 337.14179727 92.69289501 337.07324219 104.67138672 C337.02711173 112.76289613 337.01295157 120.85378245 337.03509134 128.94540173 C337.04546335 133.22290263 337.03941007 137.49897211 336.99394417 141.77627373 C336.9513397 145.79970297 336.95074397 149.82097975 336.98179626 153.84449387 C336.98573146 155.31667177 336.9743967 156.788986 336.9462719 158.2609005 C336.66870654 166.50889116 336.66870654 166.50889116 340.06698418 173.72595406 C342.30979418 175.72399174 344.59617997 177.41706296 347.06958008 179.11352539 C355.55437671 188.91850891 359.5746636 200.83250603 363.06958008 213.11352539 C363.39829102 211.99977539 363.72700195 210.88602539 364.06567383 209.73852539 C368.91689449 193.92888394 375.7907949 180.36309803 387.06958008 168.11352539 C387.54379395 167.59693359 388.01800781 167.0803418 388.5065918 166.5480957 C397.5596403 156.79776861 411.037989 142.67015159 424.69458008 140.55102539 C428.06958008 141.11352539 428.06958008 141.11352539 431.00708008 143.11352539 C433.30146715 146.45081568 433.6280819 148.13042658 433.63598633 152.05102539 C432.19838499 157.28587716 428.0334911 160.02720843 423.63208008 162.73852539 C401.71643664 177.02901795 386.85014634 196.31325789 381.06958008 222.11352539 C380.24045929 226.30276729 379.95965131 230.21993661 380.00708008 234.48852539 C380.02061523 236.07793945 380.02061523 236.07793945 380.03442383 237.69946289 C380.04602539 238.49610352 380.05762695 239.29274414 380.06958008 240.11352539 C380.51946289 239.65461914 380.9693457 239.19571289 381.43286133 238.72290039 C382.07610352 238.10930664 382.7193457 237.49571289 383.38208008 236.86352539 C384.3044043 235.95860352 384.3044043 235.95860352 385.24536133 235.03540039 C393.88192406 229.15823737 402.98580709 228.47146929 413.11962891 228.59204102 C415.23759767 228.61332957 417.35210985 228.59222901 419.4699707 228.56665039 C441.01287454 228.52213219 458.47160631 236.00766879 474.13208008 250.73852539 C479.53399336 256.24965309 483.32642292 262.40195755 487.06958008 269.11352539 C487.47950195 269.78770508 487.88942383 270.46188477 488.31176758 271.15649414 C496.9750384 286.36758593 495.696118 304.54219961 495.59106445 321.42016602 C495.56835919 325.10916371 495.58175266 328.79700179 495.6048317 332.48595905 C495.80425562 370.06121904 487.63881207 402.37382101 460.81958008 429.80102539 C447.0335165 443.42241249 430.91653278 452.39619796 412.06958008 457.11352539 C411.40241974 457.28138046 410.7352594 457.44923553 410.04788208 457.62217712 C402.74612617 459.280155 395.67100003 459.40348441 388.20629883 459.37915039 C386.89732132 459.38106384 385.58834381 459.38297729 384.23970032 459.38494873 C381.48217997 459.38787827 378.72479018 459.38367509 375.96728516 459.37426758 C372.47121799 459.36290815 368.97545924 459.369424 365.4794035 459.38141251 C362.0966788 459.3904743 358.71403222 459.38408442 355.33129883 459.37915039 C354.09546555 459.38319885 352.85963226 459.38724731 351.58634949 459.39141846 C344.43432798 459.35346528 337.72698695 458.73609802 330.70491028 457.34637451 C327.83786521 456.81605013 327.83786521 456.81605013 325.06958008 459.11352539 C322.5890696 459.36652505 322.5890696 459.36652505 319.56625748 459.3707943 C318.41508068 459.37724319 317.26390389 459.38369208 316.07784295 459.39033639 C314.80734338 459.38723919 313.5368438 459.38414199 312.22784424 459.38095093 C310.86905723 459.38468563 309.51027236 459.38928643 308.15149093 459.39468157 C304.40923939 459.40694958 300.667077 459.40664665 296.92480993 459.40429282 C292.89195716 459.4038856 288.85913332 459.41491479 284.82629395 459.42440796 C276.92150762 459.44104041 269.01675111 459.44651854 261.11194876 459.44763272 C254.68711343 459.44858225 248.26228796 459.45268783 241.83745575 459.45903397 C223.62925046 459.47665354 205.42106877 459.48587187 187.21285489 459.48437302 C186.23068163 459.48429311 185.24850836 459.48421319 184.23657227 459.48413086 C183.25320207 459.4840491 182.26983187 459.48396734 181.25666258 459.4838831 C165.32155391 459.48307029 149.3865398 459.50220474 133.45145848 459.53040759 C117.09665348 459.55912525 100.7418946 459.57294846 84.38706374 459.57122004 C75.20221832 459.57055569 66.01747197 459.57606763 56.83264923 459.59757614 C49.01156184 459.61577338 41.19061841 459.62014741 33.36951903 459.60655729 C29.37875507 459.60001985 25.38826741 459.59993812 21.3975296 459.61726379 C17.74314513 459.63296599 14.08925668 459.63016058 10.43488452 459.61269553 C8.48867188 459.60816337 6.54244404 459.62330553 4.59629083 459.63917482 C-2.13499317 459.58587662 -6.49873198 459.22336479 -11.93041992 455.11352539 C-16.53744777 450.14278481 -17.05559783 446.62668466 -17.064641 439.97037888 C-17.06816934 438.86666851 -17.06816934 438.86666851 -17.07176897 437.74066097 C-17.07846767 435.25562051 -17.07800049 432.77063224 -17.07759094 430.2855835 C-17.08088902 428.49369421 -17.08461447 426.70180566 -17.08873242 424.90991807 C-17.09876681 419.97052469 -17.10247152 415.03114346 -17.10512173 410.09174132 C-17.10902048 404.7705418 -17.11859905 399.44935194 -17.12733459 394.12815857 C-17.14711033 381.27053394 -17.15716625 368.4129085 -17.16606238 355.55527246 C-17.17044314 349.5042779 -17.17581047 343.45328421 -17.18105125 337.40229034 C-17.19806402 317.29451046 -17.21255928 297.18673113 -17.2198 277.07894516 C-17.22170997 271.85918934 -17.22363029 266.63943353 -17.22558594 261.41967773 C-17.22631155 259.47360061 -17.22631155 259.47360061 -17.22705182 257.4882088 C-17.23535616 236.46072397 -17.26069971 215.43329596 -17.29316662 194.40583596 C-17.32620881 172.83037927 -17.34424615 151.25495148 -17.34744424 129.67946935 C-17.34961188 117.56033255 -17.35839774 105.44127862 -17.38390541 93.32216644 C-17.40557356 83.00329544 -17.41368197 72.68452743 -17.40393863 62.36563626 C-17.39938276 57.09897469 -17.4013548 51.8325258 -17.42070007 46.56589317 C-17.4382526 41.74578987 -17.43739857 36.92605563 -17.42180278 32.10594884 C-17.41941466 30.36096816 -17.4238123 28.61596245 -17.43563143 26.87102017 C-17.45069663 24.50024239 -17.44111629 22.13078146 -17.42540455 19.76003647 C-17.42638136 18.44289398 -17.42735817 17.12575149 -17.42836457 15.76869559 C-16.67548758 10.24219068 -14.50308856 6.57112071 -10.36791992 2.73852539 C-6.81672434 0.37106167 -4.16609603 -0.01049394 0 0 Z " fill="#E54C3C" transform="translate(16.930419921875,52.886474609375)"/>
<path d="M0 0 C1.000811 0.00007553 2.00162201 0.00015106 3.03276062 0.00022888 C4.11096573 0.00539017 5.18917084 0.01055145 6.30004883 0.01586914 C7.40560623 0.01728409 8.51116364 0.01869904 9.65022278 0.02015686 C13.18586925 0.02576025 16.7214527 0.03831335 20.25708008 0.05102539 C22.65226146 0.05603995 25.04744383 0.06060294 27.44262695 0.06469727 C33.31832189 0.07488045 39.19388033 0.09445532 45.06958008 0.11352539 C45.06958008 11.66352539 45.06958008 23.21352539 45.06958008 35.11352539 C35.38208008 35.36352539 35.38208008 35.36352539 32.35595703 35.41137695 C28.13291446 35.57306523 25.64020735 35.75769698 21.98754883 38.03540039 C18.8138149 41.4741508 18.94321853 43.58303721 18.93815231 48.18655109 C18.9323906 50.14208392 18.9323906 50.14208392 18.92651248 52.13712245 C18.92729282 53.59770673 18.92817163 55.05829096 18.92913818 56.51887512 C18.92655611 58.05971386 18.92354339 59.60055194 18.92013478 61.14138907 C18.91204302 65.39140926 18.910274 69.64141258 18.90953732 73.89143956 C18.90769053 78.46891621 18.90014511 83.04638402 18.8934021 87.62385559 C18.87980284 97.64028116 18.87379159 107.65670273 18.86939144 117.673136 C18.86663173 123.92364414 18.86239488 130.17415073 18.85788727 136.42465782 C18.84569256 153.71955805 18.83539362 171.01445702 18.83201218 188.30936146 C18.83179261 189.41692001 18.83157304 190.52447857 18.83134682 191.66559951 C18.83112855 192.77585656 18.83091027 193.88611361 18.83068538 195.03001481 C18.83024191 197.27993826 18.82979534 199.52986171 18.8293457 201.77978516 C18.82901356 203.45385621 18.82901356 203.45385621 18.8286747 205.16174688 C18.82472548 223.25160153 18.80726855 241.34141593 18.78398618 259.43125502 C18.76029306 277.98953774 18.74781126 296.54780025 18.74664426 315.10609835 C18.74572635 325.53166468 18.73994502 335.95717857 18.72182465 346.38273048 C18.70645116 355.25935522 18.70128688 364.13591131 18.70956275 373.01254681 C18.71347903 377.5437531 18.71249217 382.07482103 18.6985054 386.60601044 C18.68582489 390.75183763 18.68691215 394.89742169 18.69909611 399.04324826 C18.70106331 400.54528864 18.69792779 402.0473459 18.68925175 403.54936252 C18.67822331 405.58720584 18.68740388 407.62512882 18.69764328 409.66297626 C18.69674765 411.36268699 18.69674765 411.36268699 18.69583392 413.0967353 C19.12005107 416.5209152 20.01147528 418.36587923 22.06958008 421.11352539 C25.18557205 423.19085338 25.83792035 423.36241249 29.36757183 423.35289192 C30.69107978 423.35668977 30.69107978 423.35668977 32.04132527 423.36056435 C33.01153971 423.35317266 33.98175414 423.34578097 34.98136902 423.33816528 C36.01142651 423.33831316 37.04148401 423.33846103 38.10275537 423.33861339 C41.57118765 423.33687908 45.03941683 423.32099933 48.5078125 423.30541992 C50.98785272 423.30162338 53.46789461 423.29881374 55.94793701 423.29692078 C61.29758776 423.29146688 66.6471869 423.28050342 71.99681664 423.26565933 C80.45511325 423.24296311 88.91333834 423.24318801 97.37165833 423.24752808 C100.26560876 423.24876037 103.15955924 423.24989481 106.05350971 423.25103569 C106.77677688 423.25133342 107.50004405 423.25163115 108.24522841 423.2519379 C116.48005532 423.2551416 124.71487999 423.25488703 132.94970703 423.25219727 C133.70253758 423.25195839 134.45536813 423.25171952 135.23101173 423.25147341 C147.42457891 423.24687043 159.61801513 423.21988044 171.81153246 423.18637945 C184.33227451 423.15269397 196.85278003 423.14958981 209.37354547 423.17312515 C217.09516269 423.18654457 224.81594384 423.17521632 232.53745536 423.13199608 C238.45848343 423.10125507 244.37897005 423.11231986 250.30003357 423.13884926 C252.72681579 423.14307427 255.15366643 423.13360932 257.5803318 423.10942268 C260.8957856 423.07838061 264.20749449 423.09661144 267.52287292 423.12698364 C268.48193375 423.10620762 269.44099458 423.0854316 270.42911786 423.064026 C275.89527134 423.1750025 278.59472439 424.07712504 282.50999928 427.99354362 C283.69881777 429.36488767 284.88549511 430.73809211 286.06958008 432.11352539 C288.31563477 434.07587405 290.65760619 435.86047744 293.06958008 437.61352539 C293.70549072 438.07637939 294.34140137 438.5392334 294.99658203 439.01611328 C305.41100753 446.38266245 316.82045871 451.58726318 329.06958008 455.11352539 C326.95551769 457.63823866 325.75274716 458.9820183 322.46487111 459.61492205 C321.46772283 459.61557146 320.47057454 459.61622087 319.44320965 459.61688995 C317.71345789 459.63253644 317.71345789 459.63253644 315.94876164 459.64849901 C314.68117491 459.63957613 313.41358817 459.63065324 312.10758972 459.62145996 C310.74793543 459.62606786 309.38828611 459.63242003 308.02864724 459.64036894 C304.28854446 459.65710171 300.54884876 459.6487982 296.80874431 459.63642406 C292.77657652 459.62739165 288.74447982 459.64133446 284.71232605 459.65234375 C276.81097496 459.67015442 268.90977563 459.66627727 261.00841852 459.65469319 C254.58645916 459.64566722 248.16454239 459.64443124 241.74257851 459.64878845 C240.37261922 459.64970785 240.37261922 459.64970785 238.97498399 459.65064582 C237.11970024 459.65192471 235.26441649 459.65322156 233.40913276 459.65453619 C216.0003681 459.66594994 198.59168762 459.65281683 181.18293677 459.63133472 C166.24496251 459.61347201 151.30711262 459.61655949 136.36914062 459.63500977 C119.02820405 459.65641794 101.68734135 459.66484175 84.34639341 459.65256071 C82.4969386 459.6512865 80.64748378 459.65002902 78.79802895 459.64878845 C77.88803749 459.64817135 76.97804604 459.64755425 76.04047909 459.64691845 C69.62766268 459.64346472 63.21489312 459.64929458 56.80208397 459.65870667 C48.98466491 459.66992784 41.16740649 459.66688451 33.35000583 459.64558369 C29.36127107 459.63507343 25.37280411 459.63095075 21.38407135 459.6441803 C17.7315592 459.65611135 14.0795627 459.64953042 10.42709724 459.62827009 C8.4819405 459.62169463 6.53674788 459.63473412 4.59162873 459.64849901 C-2.13596249 459.58805459 -6.50094917 459.21945064 -11.93041992 455.11352539 C-16.53744777 450.14278481 -17.05559783 446.62668466 -17.064641 439.97037888 C-17.06816934 438.86666851 -17.06816934 438.86666851 -17.07176897 437.74066097 C-17.07846767 435.25562051 -17.07800049 432.77063224 -17.07759094 430.2855835 C-17.08088902 428.49369421 -17.08461447 426.70180566 -17.08873242 424.90991807 C-17.09876681 419.97052469 -17.10247152 415.03114346 -17.10512173 410.09174132 C-17.10902048 404.7705418 -17.11859905 399.44935194 -17.12733459 394.12815857 C-17.14711033 381.27053394 -17.15716625 368.4129085 -17.16606238 355.55527246 C-17.17044314 349.5042779 -17.17581047 343.45328421 -17.18105125 337.40229034 C-17.19806402 317.29451046 -17.21255928 297.18673113 -17.2198 277.07894516 C-17.22170997 271.85918934 -17.22363029 266.63943353 -17.22558594 261.41967773 C-17.22631155 259.47360061 -17.22631155 259.47360061 -17.22705182 257.4882088 C-17.23535616 236.46072397 -17.26069971 215.43329596 -17.29316662 194.40583596 C-17.32620881 172.83037927 -17.34424615 151.25495148 -17.34744424 129.67946935 C-17.34961188 117.56033255 -17.35839774 105.44127862 -17.38390541 93.32216644 C-17.40557356 83.00329544 -17.41368197 72.68452743 -17.40393863 62.36563626 C-17.39938276 57.09897469 -17.4013548 51.8325258 -17.42070007 46.56589317 C-17.4382526 41.74578987 -17.43739857 36.92605563 -17.42180278 32.10594884 C-17.41941466 30.36096816 -17.4238123 28.61596245 -17.43563143 26.87102017 C-17.45069663 24.50024239 -17.44111629 22.13078146 -17.42540455 19.76003647 C-17.42638136 18.44289398 -17.42735817 17.12575149 -17.42836457 15.76869559 C-16.67548758 10.24219068 -14.50308856 6.57112071 -10.36791992 2.73852539 C-6.81672434 0.37106167 -4.16609603 -0.01049394 0 0 Z " fill="#805333" transform="translate(16.930419921875,52.886474609375)"/>
<path d="M0 0 C9.1450532 6.55559369 15.10761201 14.58769392 18.375 25.375 C18.375 26.365 18.375 27.355 18.375 28.375 C19.08386353 28.36611755 19.79272705 28.35723511 20.52307129 28.3480835 C27.23106315 28.26765419 33.93891879 28.20689265 40.64728546 28.16775131 C44.09547132 28.14695107 47.54325594 28.11877464 50.99121094 28.07324219 C54.96284035 28.02112756 58.93431207 28.00199211 62.90625 27.984375 C64.74733337 27.95340729 64.74733337 27.95340729 66.62561035 27.92181396 C74.87471386 27.91966658 80.49085846 28.79750122 86.75 34.5625 C91.97555727 43.60673373 90.40686395 54.41394335 90 64.4375 C89.94165577 66.0826453 89.88435504 67.72782796 89.828125 69.37304688 C89.69104964 73.37443804 89.53256387 77.37415533 89.375 81.375 C95.645 81.375 101.915 81.375 108.375 81.375 C108.375 81.705 108.375 82.035 108.375 82.375 C102.105 82.375 95.835 82.375 89.375 82.375 C89.045 84.685 88.715 86.995 88.375 89.375 C87.17578125 91.484375 87.17578125 91.484375 85.6875 93.125 C85.20925781 93.67671875 84.73101562 94.2284375 84.23828125 94.796875 C79.21643935 99.05017506 74.38401289 99.81271167 67.99391174 99.76268005 C67.16476303 99.76806559 66.33561431 99.77345113 65.48133987 99.77899987 C62.71079638 99.79327529 59.94073094 99.78617678 57.17016602 99.77905273 C55.18066016 99.78475651 53.19115758 99.7917208 51.20166016 99.79985046 C45.80291012 99.81779593 40.40432249 99.81661087 35.00555158 99.81090808 C30.49751296 99.8078183 25.98950564 99.81390633 21.48147148 99.81994683 C10.84626377 99.83399496 0.21113638 99.83242829 -10.42407227 99.82104492 C-21.39408542 99.80956263 -32.36385413 99.82364068 -43.33383507 99.8504414 C-52.75481178 99.87259557 -62.17571174 99.87923642 -71.59671265 99.87336498 C-77.22237092 99.86999364 -82.84787248 99.87242241 -88.47350883 99.88961601 C-93.76363592 99.90507851 -99.05340075 99.90113712 -104.34351349 99.88231087 C-106.28370914 99.87862312 -108.22393159 99.88173885 -110.16410255 99.89219666 C-112.81546194 99.90539552 -115.46562013 99.89386915 -118.1169281 99.87620544 C-118.882308 99.88581045 -119.64768789 99.89541546 -120.43626112 99.90531152 C-126.45489908 99.82297054 -130.55389475 98.1180693 -135.12643331 94.03394026 C-138.87909774 90.01387953 -138.78248249 88.27262259 -139.625 82.375 C-146.225 82.375 -152.825 82.375 -159.625 82.375 C-159.625 82.045 -159.625 81.715 -159.625 81.375 C-153.025 81.375 -146.425 81.375 -139.625 81.375 C-139.73199219 78.796875 -139.83898437 76.21875 -139.94921875 73.5625 C-140.04242672 71.04390178 -140.12999814 68.5251656 -140.21704102 66.00634766 C-140.28016884 64.26621544 -140.34908403 62.52628256 -140.42407227 60.78662109 C-140.53131366 58.27472543 -140.61718557 55.76283048 -140.69921875 53.25 C-140.7552552 52.09794067 -140.7552552 52.09794067 -140.81242371 50.92260742 C-140.99372181 44.29505946 -139.41531737 39.25229577 -135.875 33.5625 C-129.38483514 27.2526175 -121.77972847 27.97492599 -113.25390625 28.08203125 C-111.33770729 28.08839851 -111.33770729 28.08839851 -109.38279724 28.09489441 C-106.00751703 28.1087955 -102.63285948 28.1356885 -99.25775146 28.16900635 C-95.80535221 28.19984679 -92.3528883 28.2134294 -88.90039062 28.22851562 C-82.14175674 28.26152675 -75.38341427 28.31168339 -68.625 28.375 C-68.31578613 27.10519287 -68.00657227 25.83538574 -67.68798828 24.52709961 C-65.29368644 14.69474127 -58.95482761 6.09595678 -50.6875 0.32421875 C-34.6103421 -9.38236533 -16.16057535 -9.74062076 0 0 Z " fill="#94A4A4" transform="translate(201.625,6.625)"/>
<path d="M0 0 C7.01127527 -0.06893825 14.02137047 -0.12865397 21.03271484 -0.16479492 C23.41687001 -0.179864 25.80099753 -0.20032291 28.18505859 -0.22631836 C31.61562937 -0.26278337 35.045833 -0.27974552 38.4765625 -0.29296875 C40.07064438 -0.31619453 40.07064438 -0.31619453 41.69692993 -0.33988953 C47.21846208 -0.34113994 51.26978618 -0.19037425 56 3 C60.86646168 7.86646168 62.73933438 12.40835638 63.23657322 19.25968075 C63.23041461 20.38586095 63.224256 21.51204115 63.21791077 22.67234802 C63.21606781 23.97460327 63.21422485 25.27685852 63.21232605 26.61857605 C63.20034022 28.04446508 63.18823607 29.47035311 63.17602539 30.89624023 C63.17058446 32.41136356 63.16615566 33.92649081 63.16265869 35.44161987 C63.15385034 38.69477326 63.1395914 41.94784128 63.12156868 45.20095634 C63.09478586 50.34949656 63.09070865 55.49789869 63.09165955 60.64649963 C63.09173523 62.41221905 63.09180096 64.17793846 63.09185696 65.94365788 C63.09190664 66.82763284 63.09195633 67.7116078 63.09200752 68.62236989 C63.09107295 80.60104667 63.07221719 92.57936962 63.00366211 104.55786133 C62.95753165 112.64937074 62.9433715 120.74025706 62.96551126 128.83187634 C62.97588327 133.10937724 62.96982999 137.38544672 62.92436409 141.66274834 C62.88175963 145.68617758 62.88116389 149.70745436 62.91221619 153.73096848 C62.91615139 155.20314638 62.90481662 156.67546061 62.87669182 158.14737511 C62.59912647 166.39536577 62.59912647 166.39536577 65.9974041 173.61242867 C68.24021411 175.61046635 70.52659989 177.30353757 73 179 C81.48479663 188.80498352 85.50508352 200.71898064 89 213 C89.32871094 211.88625 89.65742188 210.7725 89.99609375 209.625 C94.84731441 193.81535855 101.72121482 180.24957264 113 168 C113.47421387 167.4834082 113.94842773 166.96681641 114.43701172 166.43457031 C123.49006022 156.68424322 136.96840892 142.5566262 150.625 140.4375 C154 141 154 141 156.9375 143 C159.23188707 146.33729029 159.55850182 148.01690119 159.56640625 151.9375 C158.12880491 157.17235177 153.96391102 159.91368303 149.5625 162.625 C129.03493199 176.01037281 114.09836659 194.05528767 107.7265625 218.07421875 C106.64648424 223.91012547 106.16770831 229.79250648 105.85791016 235.7175293 C105.48891579 241.33649936 104.47422674 244.39863863 101 249 C99.92341813 251.71668875 99.92341813 251.71668875 99.25 254.375 C98.88648438 255.68597656 98.88648438 255.68597656 98.515625 257.0234375 C98.34546875 257.67570312 98.1753125 258.32796875 98 259 C96.86259605 256.76257156 95.7790674 254.51504269 94.73828125 252.23046875 C89.7061476 241.49065474 84.18291234 235.35090802 73 231 C68.83184416 229.93291871 64.97054136 229.94057521 60.6796875 230.04296875 C59.24220162 230.06537804 57.80470058 230.08683111 56.3671875 230.10742188 C54.12912867 230.14426737 51.89186751 230.18704938 49.65429688 230.24682617 C36.65256504 230.57706093 25.94836928 229.04954331 16 220 C15.32066406 219.39800781 14.64132812 218.79601562 13.94140625 218.17578125 C5.66430287 209.96126467 1.30157466 197.39350382 0.88647461 185.84033203 C0.89171143 184.74060059 0.89694824 183.64086914 0.90234375 182.5078125 C0.90556641 181.30898437 0.90878906 180.11015625 0.91210938 178.875 C0.92048828 177.6375 0.92886719 176.4 0.9375 175.125 C0.94201172 173.86429688 0.94652344 172.60359375 0.95117188 171.3046875 C0.9629204 168.20307614 0.97934833 165.10156275 1 162 C6.74338112 158.55397133 13.43490337 158.8799549 19.9375 158.9375 C20.96327148 158.94426758 20.96327148 158.94426758 22.00976562 158.95117188 C23.67321604 158.9628044 25.3366205 158.98073306 27 159 C26.96283858 143.6836569 26.90298567 128.36751903 26.81609726 113.05138016 C26.77628298 105.93984853 26.74390274 98.82842794 26.72900391 91.71679688 C26.71461117 84.85669009 26.67952752 77.9969398 26.63169098 71.13698578 C26.61682664 68.5167006 26.60895611 65.89636632 26.60811615 63.27603912 C26.60576003 59.6123616 26.57878774 55.94964542 26.54589844 52.28613281 C26.5509288 51.19712677 26.55595917 50.10812073 26.56114197 48.9861145 C26.57819567 43.31247069 26.57819567 43.31247069 24.15338135 38.3571167 C20.95394214 36.34074724 18.25045303 35.85740383 14.55078125 35.68359375 C13.78677002 35.64548584 13.02275879 35.60737793 12.2355957 35.56811523 C11.27097412 35.52501221 10.30635254 35.48190918 9.3125 35.4375 C6.239375 35.293125 3.16625 35.14875 0 35 C0 23.45 0 11.9 0 0 Z " fill="#4C8056" transform="translate(291,53)"/>
<path d="M0 0 C6.28725687 2.14034276 10.30568151 6.45303679 15 11 C15.76957031 11.7321875 16.53914062 12.464375 17.33203125 13.21875 C22.05502327 18.04927074 25.57512196 23.23666224 28.8125 29.125 C29.17351807 29.76244141 29.53453613 30.39988281 29.90649414 31.05664062 C38.32166261 47.18685432 37.6312121 64.629446 37.52148438 82.30664062 C37.49877911 85.99563832 37.51217258 89.6834764 37.53525162 93.37243366 C37.73467554 130.94769365 29.569232 163.26029562 2.75 190.6875 C-11.03606357 204.3088871 -27.1530473 213.28267257 -46 218 C-46.66675247 218.1674472 -47.33350494 218.33489441 -48.02046204 218.50741577 C-55.33023753 220.16487018 -62.42533869 220.30625177 -69.8984375 220.30078125 C-71.20978668 220.30506638 -72.52113586 220.3093515 -73.8722229 220.31376648 C-76.63393222 220.32117866 -79.39551359 220.32097422 -82.15722656 220.31567383 C-85.6624594 220.30988677 -89.16716252 220.32681573 -92.67230797 220.3500185 C-96.06020454 220.36846004 -99.44799131 220.36456729 -102.8359375 220.36328125 C-104.07693207 220.372491 -105.31792664 220.38170074 -106.5965271 220.39118958 C-114.48882646 220.34981242 -121.44874381 219.27015966 -129 217 C-130.50015152 216.5652813 -130.50015152 216.5652813 -132.03060913 216.1217804 C-145.75168761 212.03843955 -158.02493996 205.13287358 -169 196 C-169.89589844 195.25621094 -170.79179687 194.51242187 -171.71484375 193.74609375 C-177.21756267 188.9881037 -181.77486243 183.9179907 -186 178 C-185.505 177.01 -185.505 177.01 -185 176 C-184.40574219 176.37511719 -183.81148438 176.75023437 -183.19921875 177.13671875 C-169.66461595 185.4932309 -154.23941013 192.0536686 -138.07080078 192.16113281 C-136.89832794 192.17074036 -135.7258551 192.1803479 -134.51785278 192.19024658 C-132.62569534 192.1966214 -132.62569534 192.1966214 -130.6953125 192.203125 C-128.72834915 192.21167511 -128.72834915 192.21167511 -126.72164917 192.22039795 C-123.94268408 192.2308874 -121.1637477 192.23674156 -118.38476562 192.24023438 C-114.86738652 192.2456744 -111.35040331 192.26961308 -107.83314705 192.29820633 C-105.09261068 192.31708151 -102.35216425 192.32205158 -99.61156845 192.32357025 C-97.69820374 192.32797448 -95.78488767 192.34650724 -93.87161255 192.36553955 C-69.61071714 192.3050664 -48.77515888 183.00981109 -30 168 C-29.2059375 167.37351562 -28.411875 166.74703125 -27.59375 166.1015625 C-7.74561236 149.53815186 3.6109537 123.90853662 8 99 C8.26148834 97.60328064 8.26148834 97.60328064 8.52825928 96.17834473 C9.00573577 92.96135538 9.14060727 89.91680148 9.16113281 86.66601562 C9.17074036 85.43032837 9.1803479 84.19464111 9.19024658 82.92150879 C9.19509828 81.5830911 9.19937619 80.24467123 9.203125 78.90625 C9.20595238 78.22314255 9.20877975 77.5400351 9.21169281 76.83622742 C9.22664451 73.21503317 9.23589705 69.59387828 9.24023438 65.97265625 C9.24568708 62.27249334 9.26965807 58.57270435 9.29820633 54.87265778 C9.31704163 51.99319489 9.32204943 49.11381793 9.32357025 46.23429871 C9.32798634 44.2195099 9.34653408 42.20476748 9.36553955 40.19006348 C9.33869897 28.91305699 7.9750495 17.8966405 2.8125 7.75 C0 2.13868613 0 2.13868613 0 0 Z " fill="#C03A2B" transform="translate(475,292)"/>
<path d="M0 0 C7.01127527 -0.06893825 14.02137047 -0.12865397 21.03271484 -0.16479492 C23.41687001 -0.179864 25.80099753 -0.20032291 28.18505859 -0.22631836 C31.61562937 -0.26278337 35.045833 -0.27974552 38.4765625 -0.29296875 C40.07064438 -0.31619453 40.07064438 -0.31619453 41.69692993 -0.33988953 C47.21846208 -0.34113994 51.26978618 -0.19037425 56 3 C60.87076682 7.87076682 62.72978859 12.41350343 63.24609566 19.26640987 C63.24333028 20.96020448 63.24333028 20.96020448 63.24050903 22.68821716 C63.24325836 23.99361954 63.24600769 25.29902191 63.24884033 26.64398193 C63.24176382 28.07312105 63.23449423 29.50225923 63.22705078 30.93139648 C63.2264861 32.44965101 63.22680434 33.96790607 63.22793579 35.48616028 C63.22850808 39.59310105 63.21677388 43.69992427 63.20278788 47.8068378 C63.19025983 52.10429709 63.18910838 56.40175927 63.18673706 60.69923401 C63.18052838 68.83053288 63.16412586 76.96177778 63.14403808 85.09305292 C63.12166001 94.3530073 63.11068085 103.61296429 63.10064721 112.87293899 C63.07975909 131.91532322 63.04459503 150.95765727 63 170 C59.85950866 169.26958634 57.39955132 168.23280789 54.5625 166.6875 C47.21454551 162.94849661 39.50600989 160.31260073 31.28930664 159.45019531 C30.08196617 159.32176239 30.08196617 159.32176239 28.85023499 159.19073486 C28.23965744 159.12779236 27.6290799 159.06484985 27 159 C26.99853344 158.39554676 26.99706688 157.79109352 26.99555588 157.16832352 C26.95850876 142.46254405 26.89952201 127.75696591 26.81609726 113.05138016 C26.77628298 105.93984853 26.74390274 98.82842794 26.72900391 91.71679688 C26.71461117 84.85669009 26.67952752 77.9969398 26.63169098 71.13698578 C26.61682664 68.5167006 26.60895611 65.89636632 26.60811615 63.27603912 C26.60576003 59.6123616 26.57878774 55.94964542 26.54589844 52.28613281 C26.5509288 51.19712677 26.55595917 50.10812073 26.56114197 48.9861145 C26.57819567 43.31247069 26.57819567 43.31247069 24.15338135 38.3571167 C20.95394214 36.34074724 18.25045303 35.85740383 14.55078125 35.68359375 C13.78677002 35.64548584 13.02275879 35.60737793 12.2355957 35.56811523 C11.27097412 35.52501221 10.30635254 35.48190918 9.3125 35.4375 C6.239375 35.293125 3.16625 35.14875 0 35 C0 23.45 0 11.9 0 0 Z " fill="#805333" transform="translate(291,53)"/>
<path d="M0 0 C1.13758003 -0.00855011 1.13758003 -0.00855011 2.29814148 -0.01727295 C3.90276702 -0.02671356 5.50741187 -0.03325321 7.11206055 -0.03710938 C9.5548733 -0.04679827 11.99683836 -0.0778224 14.43945312 -0.109375 C16.00129711 -0.11590727 17.56314709 -0.12115686 19.125 -0.125 C19.8502034 -0.1373468 20.5754068 -0.1496936 21.32258606 -0.16241455 C27.47228397 -0.1356898 31.33398686 1.54437896 35.94921875 5.515625 C40.35907265 10.64059034 41.73294566 15.20526084 41.765625 21.875 C41.7756102 22.59745911 41.7855954 23.31991821 41.79588318 24.06427002 C41.81100187 25.58705971 41.81811091 27.10994784 41.81762695 28.6328125 C41.82416444 30.93400701 41.87862755 33.23082225 41.93554688 35.53125 C42.03973475 44.23677818 41.53290697 51.56182822 35.26171875 58.203125 C29.18514821 63.92784404 19.89083116 62.80819636 12.08911133 62.72460938 C9.70095639 62.70314062 7.31579834 62.72448283 4.92773438 62.75 C3.39192053 62.747357 1.85610852 62.74223259 0.3203125 62.734375 C-0.38404434 62.74247192 -1.08840118 62.75056885 -1.81410217 62.75891113 C-7.87013596 62.64568297 -11.98805065 60.66969953 -16.48046875 56.640625 C-20.72981154 51.24835553 -20.90801652 47.11111221 -20.9765625 40.40234375 C-20.98463425 39.64774368 -20.99270599 38.89314362 -21.00102234 38.11567688 C-21.01482496 36.52123283 -21.02556413 34.9267597 -21.03344727 33.33227539 C-21.04496575 31.70979083 -21.06541576 30.08734413 -21.0949707 28.46508789 C-21.13783218 26.11058014 -21.15384029 23.75719411 -21.1640625 21.40234375 C-21.18157059 20.68543869 -21.19907867 19.96853363 -21.21711731 19.22990417 C-21.19099484 13.09310211 -19.27721529 8.97174256 -15.140625 4.4609375 C-10.02977472 0.50854662 -6.28050053 0.0364997 0 0 Z " fill="#394C60" transform="translate(82.73828125,299.796875)"/>
<path d="M0 0 C0.75222839 -0.00902847 1.50445679 -0.01805695 2.27947998 -0.02735901 C3.86971065 -0.04184242 5.46000065 -0.05074351 7.05029297 -0.05444336 C9.46295904 -0.066301 11.87303257 -0.11546509 14.28515625 -0.16601562 C28.25786893 -0.31376458 28.25786893 -0.31376458 33.8215332 3.98754883 C39.54351325 9.59087713 41.38825084 13.7861492 41.47265625 21.8203125 C41.480728 22.5517598 41.48879974 23.28320709 41.49711609 24.03681946 C41.51093863 25.5859644 41.52166897 27.13513956 41.52954102 28.68432617 C41.54103232 30.25831106 41.56143904 31.83225785 41.59106445 33.40600586 C41.89960327 49.80337878 41.89960327 49.80337878 37.234375 56.37109375 C35.41796875 58.2109375 35.41796875 58.2109375 33.671875 59.30859375 C33.09308594 59.68886719 32.51429687 60.06914062 31.91796875 60.4609375 C27.86660099 62.65112007 23.96902423 62.54822391 19.49609375 62.57421875 C18.73770706 62.57991882 17.97932037 62.5856189 17.19795227 62.5914917 C15.59332673 62.60093231 13.98868188 62.60747196 12.3840332 62.61132812 C9.94122045 62.62101702 7.49925539 62.65204115 5.05664062 62.68359375 C3.49479664 62.69012602 1.93294666 62.69537561 0.37109375 62.69921875 C-0.71671135 62.71773895 -0.71671135 62.71773895 -1.82649231 62.7366333 C-7.40634324 62.71238493 -11.46547084 61.44943011 -15.62890625 57.6875 C-16.10714844 57.10871094 -16.58539063 56.52992188 -17.078125 55.93359375 C-17.56925781 55.35738281 -18.06039062 54.78117187 -18.56640625 54.1875 C-21.29433596 50.05561949 -20.95488095 45.36854298 -21.00390625 40.5703125 C-21.011978 39.81571243 -21.02004974 39.06111237 -21.02836609 38.28364563 C-21.04216871 36.68920158 -21.05290788 35.09472845 -21.06079102 33.50024414 C-21.0723095 31.87775958 -21.09275951 30.25531288 -21.12231445 28.63305664 C-21.16517593 26.27854889 -21.18118404 23.92516286 -21.19140625 21.5703125 C-21.20891434 20.85340744 -21.22642242 20.13650238 -21.24446106 19.39787292 C-21.22083583 13.84773423 -19.80605397 10.84268188 -16.765625 6.37109375 C-11.37626531 1.38593604 -7.26350408 0.05411198 0 0 Z " fill="#394C60" transform="translate(82.765625,140.62890625)"/>
<path d="M0 0 C1.1588269 -0.00218285 1.1588269 -0.00218285 2.34106445 -0.00440979 C3.96471959 -0.00275932 5.58839177 0.00870592 7.21191406 0.02954102 C9.68102247 0.05851773 12.14798158 0.05012847 14.6171875 0.03710938 C16.20313531 0.04334767 17.78907642 0.05173932 19.375 0.0625 C20.10436768 0.05956436 20.83373535 0.05662872 21.58520508 0.05360413 C27.15930103 0.15495206 31.99527952 1.24128209 36.39453125 4.92578125 C40.74142322 10.60899691 42.00376526 15.0573503 42.05859375 22.140625 C42.07213646 23.2335511 42.07213646 23.2335511 42.08595276 24.34855652 C42.10041262 25.88573121 42.10933137 27.42296685 42.11303711 28.96020508 C42.12491345 31.29160303 42.17411567 33.62033326 42.22460938 35.95117188 C42.38379199 50.5903716 42.38379199 50.5903716 36.6875 56.49609375 C29.72576445 62.96056248 21.60376417 61.81933086 12.6652832 61.90112305 C10.89718039 61.92266355 9.12918308 61.95671991 7.36157227 62.00366211 C-10.30422083 62.46807299 -10.30422083 62.46807299 -15.94848633 57.47680664 C-19.7881018 51.9012204 -20.77939514 46.90668098 -20.78125 40.21875 C-20.79267029 39.06348061 -20.79267029 39.06348061 -20.80432129 37.88487244 C-20.81506533 36.26548483 -20.81799872 34.64602826 -20.81347656 33.02661133 C-20.81250372 30.56798316 -20.8541947 28.112476 -20.8984375 25.65429688 C-21.01180482 11.55280158 -21.01180482 11.55280158 -17.07226562 6.00170898 C-11.52506678 1.25565248 -7.1163839 -0.10960906 0 0 Z " fill="#364A5E" transform="translate(82.3125,220.50390625)"/>
<path d="M0 0 C0.79711899 -0.00145523 1.59423798 -0.00291046 2.41551208 -0.00440979 C4.09044066 -0.00275907 5.76538572 0.00870897 7.44018555 0.02954102 C9.9926843 0.058555 12.54310935 0.05012154 15.09570312 0.03710938 C16.73047876 0.04334634 18.3652479 0.05173696 20 0.0625 C21.13460411 0.05809654 21.13460411 0.05809654 22.29212952 0.05360413 C27.74513444 0.14997428 31.95397489 1.2391591 36.04296875 4.9609375 C40.35515748 10.52838665 41.74708113 14.00257026 41.76953125 21.04296875 C41.77618805 21.7730011 41.78284485 22.50303345 41.78970337 23.25518799 C41.79981055 24.798355 41.80452099 26.34156555 41.80419922 27.88476562 C41.80855395 30.22470904 41.84483826 32.56273611 41.8828125 34.90234375 C42.00399039 50.76921275 42.00399039 50.76921275 35.95043945 57.0300293 C29.27181724 62.96532055 21.23258263 61.78717449 12.83862305 61.84619141 C11.11908392 61.86270831 9.39961224 61.88994204 7.68041992 61.92822266 C-10.20884607 62.32404095 -10.20884607 62.32404095 -15.02618408 58.14047241 C-19.88450949 52.95360599 -21.18025228 47.01792262 -21.1328125 40.12109375 C-21.13901108 39.3523291 -21.14520966 38.58356445 -21.15159607 37.79150391 C-21.15864971 36.17807266 -21.15559876 34.56456795 -21.14282227 32.95117188 C-21.12893534 30.50122659 -21.16311134 28.05509386 -21.20117188 25.60546875 C-21.27609235 11.5869363 -21.27609235 11.5869363 -17.32397461 6.00390625 C-11.69125769 1.17161569 -7.2286372 -0.10764669 0 0 Z " fill="#364A5E" transform="translate(82.56640625,379.50390625)"/>
<path d="M0 0 C1.10052704 -0.01272446 2.20105408 -0.02544891 3.33493042 -0.03855896 C4.53764084 -0.03203308 5.74035126 -0.0255072 6.97950745 -0.01878357 C8.24977783 -0.02739914 9.52004822 -0.03601471 10.82881165 -0.04489136 C14.3103409 -0.06739256 17.79141571 -0.0644441 21.27298999 -0.05556989 C24.18058483 -0.0504592 27.08809434 -0.05775323 29.99568039 -0.06504196 C36.85576244 -0.08204351 43.71562206 -0.078473 50.57569885 -0.06175232 C57.65024666 -0.04483172 64.72417743 -0.06066346 71.79865783 -0.0929752 C77.87524587 -0.11967657 83.95164189 -0.12694567 90.0282827 -0.11846012 C93.6564297 -0.11353223 97.28420547 -0.1157383 100.91230583 -0.13624763 C104.9585353 -0.15802558 109.00359601 -0.13920039 113.04981995 -0.11643982 C114.85084923 -0.13397812 114.85084923 -0.13397812 116.68826294 -0.15187073 C124.77731288 -0.05909979 124.77731288 -0.05909979 128.82339478 2.83535767 C131.16104877 6.40222045 131.32684785 8.32873714 130.57936096 12.5146637 C128.82339478 15.19396973 128.82339478 15.19396973 125.57936096 17.5146637 C121.40854878 18.26823552 117.27824443 18.18694332 113.04981995 18.14576721 C111.14178589 18.15650017 111.14178589 18.15650017 109.19520569 18.16744995 C105.71367288 18.18594324 102.23290718 18.17304027 98.75140643 18.15335965 C95.10575663 18.13695771 91.46015482 18.14578802 87.81448364 18.15087891 C81.6937486 18.1553976 75.57331939 18.13954285 69.45265198 18.11158752 C62.37755288 18.07952202 55.30300489 18.07955742 48.22786659 18.09680229 C41.41851421 18.11266747 34.60936377 18.10593491 27.80002022 18.08886528 C24.90333235 18.08199499 22.00680636 18.08302685 19.11012077 18.09041023 C15.06627162 18.09949603 11.02327364 18.07553768 6.97950745 18.04811096 C5.77679703 18.05463684 4.57408661 18.06116272 3.33493042 18.06788635 C2.23440338 18.0551619 1.13387634 18.04243744 0 18.02932739 C-0.95585778 18.02652047 -1.91171556 18.02371355 -2.89653873 18.02082157 C-6.16159305 17.36608018 -7.36069696 16.07559697 -9.42063904 13.5146637 C-9.95188904 11.2959137 -9.95188904 11.2959137 -9.92063904 9.0146637 C-9.93095154 8.2618512 -9.94126404 7.5090387 -9.95188904 6.7334137 C-8.68359955 1.43643996 -5.04096939 0.01480304 0 0 Z " fill="#35495E" transform="translate(151.42063903808594,167.48533630371094)"/>
<path d="M0 0 C2.91368224 1.98378365 4.63558769 3.41448681 5.4453125 6.9375 C5.65494723 10.62707123 5.42171943 12.37227938 3.3046875 15.5234375 C0.88721425 18.12119689 -1.42180143 19.76729694 -4.4375 21.625 C-24.96506801 35.01037281 -39.90163341 53.05528767 -46.2734375 77.07421875 C-47.35351576 82.91012547 -47.83229169 88.79250648 -48.14208984 94.7175293 C-48.51108421 100.33649936 -49.52577326 103.39863863 -53 108 C-54.07658187 110.71668875 -54.07658187 110.71668875 -54.75 113.375 C-54.99234375 114.24898438 -55.2346875 115.12296875 -55.484375 116.0234375 C-55.73960937 117.00183594 -55.73960937 117.00183594 -56 118 C-57.72515957 114.86650904 -58.64289183 111.86055559 -59.47265625 108.38671875 C-59.73240234 107.30326172 -59.99214844 106.21980469 -60.25976562 105.10351562 C-60.52466797 103.97623047 -60.78957031 102.84894531 -61.0625 101.6875 C-61.33126953 100.57181641 -61.60003906 99.45613281 -61.87695312 98.30664062 C-63.16615241 92.88300176 -64.36028195 87.53937673 -65 82 C-65.15275391 80.89205078 -65.15275391 80.89205078 -65.30859375 79.76171875 C-66.40382995 62.13837266 -54.60945823 42.53849512 -43.49609375 29.7109375 C-42.67238281 28.81632812 -41.84867187 27.92171875 -41 27 C-40.52578613 26.4834082 -40.05157227 25.96681641 -39.56298828 25.43457031 C-13.81022742 -2.30170457 -13.81022742 -2.30170457 0 0 Z " fill="#59474D" transform="translate(445,194)"/>
<path d="M0 0 C1.18263428 -0.01036789 2.36526855 -0.02073578 3.58374023 -0.03141785 C6.81954245 -0.05385229 10.05433151 -0.05377593 13.29016113 -0.04171729 C15.99402891 -0.03457726 18.69775467 -0.04309096 21.40161133 -0.05162269 C27.78089225 -0.07156293 34.15979831 -0.06601906 40.5390625 -0.04394531 C47.11559236 -0.02157535 53.69114094 -0.03918901 60.26757812 -0.0769946 C65.91959096 -0.10824219 71.57130024 -0.11614078 77.22338867 -0.10504085 C80.5967276 -0.09855808 83.96950021 -0.10053414 87.34277344 -0.12436485 C91.10423712 -0.14429105 94.86363228 -0.12598694 98.625 -0.09765625 C99.7399585 -0.11137268 100.85491699 -0.12508911 102.00366211 -0.13922119 C109.33500435 -0.02867115 109.33500435 -0.02867115 112.12011719 1.94161034 C114.29100737 4.41616913 115.28105908 6.5087813 115.9375 9.7253418 C115.04657966 13.91266738 113.77441539 15.11268267 110.3125 17.6628418 C106.38603278 18.41342744 102.50460861 18.33535292 98.51733398 18.29394531 C97.32333984 18.30110062 96.1293457 18.30825592 94.89916992 18.31562805 C91.63241095 18.32962345 88.36667989 18.32122365 85.09997821 18.30153775 C81.67854563 18.28512986 78.257164 18.29396693 74.83570862 18.29905701 C69.09159299 18.30357501 63.34780331 18.28772525 57.60375977 18.25976562 C50.96490205 18.22769939 44.32663166 18.22773605 37.68773216 18.24498039 C31.296981 18.2608479 24.90644496 18.25411161 18.5157032 18.23704338 C15.79764128 18.23017479 13.07975191 18.23120317 10.36169243 18.23858833 C6.56684596 18.24402562 2.77300362 18.22371117 -1.02172852 18.19628906 C-2.14963303 18.20281494 -3.27753754 18.20934082 -4.43962097 18.21606445 C-5.98944168 18.19697777 -5.98944168 18.19697777 -7.5705719 18.17750549 C-8.46743493 18.17469857 -9.36429796 18.17189165 -10.28833866 18.16899967 C-13.50215238 17.49097227 -14.69643116 16.23262995 -16.6875 13.6628418 C-17.63630268 7.02122303 -17.63630268 7.02122303 -14.87866211 3.07316589 C-10.10976639 -0.52883986 -5.8298338 -0.04470635 0 0 Z " fill="#547580" transform="translate(149.6875,61.337158203125)"/>
<path d="M0 0 C0.99731644 -0.0071553 1.99463287 -0.01431061 3.02217102 -0.02168274 C6.31537833 -0.0385769 9.60722577 -0.01916194 12.90039062 0.00219727 C15.1905529 0.00136864 17.48071513 -0.0010905 19.77087402 -0.00511169 C24.56927402 -0.00797021 29.36720738 0.0067374 34.16552734 0.03417969 C40.3160989 0.06826192 46.46583596 0.06224441 52.61644745 0.04351711 C57.34510248 0.03294844 62.07356334 0.04188387 66.80220032 0.05690193 C69.07000655 0.06208514 71.33783304 0.06160028 73.6056366 0.05535698 C76.775295 0.04990661 79.94375893 0.07027553 83.11328125 0.09765625 C84.05057571 0.09113037 84.98787018 0.08460449 85.9535675 0.07788086 C90.18200439 0.13998894 92.45760689 0.2573947 96.11560059 2.53944397 C98.61562597 5.23346463 99.00595901 6.24737128 99.49414062 9.94360352 C99.05664062 13.63110352 99.05664062 13.63110352 96.65785217 16.32113647 C92.42987396 19.58381425 88.15829669 19.33399396 82.99975586 19.27807617 C82.0022934 19.28683777 81.00483093 19.29559937 79.97714233 19.30462646 C76.68939353 19.32658238 73.40299617 19.31208151 70.11523438 19.29516602 C67.82649986 19.29853495 65.53776709 19.30338822 63.2490387 19.30966187 C58.45662369 19.31702785 53.66467517 19.30633491 48.87231445 19.28295898 C42.72950636 19.25445596 36.58778978 19.27088763 30.44502163 19.3008213 C25.72064485 19.3188875 20.99652697 19.31313948 16.27214241 19.30018234 C14.00712009 19.29684733 11.74207425 19.30093872 9.47707939 19.31258011 C6.31212951 19.32527877 3.14894893 19.3059245 -0.01586914 19.27807617 C-1.41945427 19.2932579 -1.41945427 19.2932579 -2.85139465 19.30874634 C-7.41056486 19.23442185 -9.32703382 19.11382666 -13.02232361 16.21957397 C-14.87778807 13.71945657 -15.62984799 12.68093869 -15.56835938 9.63110352 C-15.58125 8.99172852 -15.59414062 8.35235352 -15.60742188 7.69360352 C-13.09808066 -0.10011507 -6.91649999 -0.08627929 0 0 Z " fill="#394C5F" transform="translate(156.943359375,246.368896484375)"/>
<path d="M0 0 C0.8119986 -0.00394272 1.62399719 -0.00788544 2.46060181 -0.01194763 C5.13712835 -0.01864503 7.81193802 0.01047724 10.48828125 0.04077148 C12.35245432 0.0450234 14.21663269 0.04735036 16.08081055 0.0478363 C19.98478244 0.05399813 23.88817978 0.07668003 27.79199219 0.11230469 C32.79226125 0.15757671 37.79201012 0.17233098 42.79246521 0.1760416 C46.64096187 0.180474 50.48934971 0.1957846 54.33779907 0.21491814 C56.18135688 0.22378783 58.02492624 0.23052389 59.86849976 0.23507881 C62.44638492 0.24413889 65.02380411 0.26654504 67.6015625 0.29296875 C68.74100815 0.29396576 68.74100815 0.29396576 69.9034729 0.29498291 C73.94735113 0.35208388 77.22998086 0.62452548 80.80078125 2.59936523 C83.24872867 6.27128637 83.51514012 9.33042551 82.80078125 13.59936523 C80.59337444 16.5679468 79.31480752 17.42802314 75.80078125 18.59936523 C73.16544534 18.70577665 70.55616501 18.75660825 67.92041016 18.76049805 C67.11845718 18.76546295 66.31650421 18.77042786 65.49024963 18.77554321 C62.83593896 18.79015424 60.18168804 18.79696483 57.52734375 18.80249023 C55.68272907 18.80824226 53.8381144 18.81399999 51.99349976 18.81976318 C48.12489544 18.83026995 44.25631189 18.83611484 40.38769531 18.83959961 C35.43220004 18.84508573 30.47697934 18.86911764 25.52157021 18.89757156 C21.71085814 18.91620038 17.90021222 18.92140366 14.08945847 18.92293549 C12.26262281 18.92596165 10.43578831 18.93398895 8.60899734 18.94712067 C6.05243307 18.96418744 3.49653964 18.96229958 0.93994141 18.95581055 C-0.19019127 18.96963272 -0.19019127 18.96963272 -1.34315491 18.98373413 C-5.79889835 18.94833069 -8.66055612 18.36082505 -12.19921875 15.59936523 C-13.77819928 12.44140417 -14.01850046 8.99265888 -13.19921875 5.59936523 C-9.29901039 0.58373853 -6.07494356 -0.11863331 0 0 Z " fill="#384C5F" transform="translate(155.19921875,405.400634765625)"/>
<path d="M0 0 C0.84125931 -0.00890762 1.68251862 -0.01781525 2.54927063 -0.0269928 C5.3233554 -0.04826105 8.0951133 -0.02597809 10.86914062 -0.0012207 C12.80058021 -0.00272334 14.73201918 -0.00615389 16.66345215 -0.01142883 C20.70872371 -0.01575943 24.75319786 0.00107123 28.79833984 0.03320312 C33.98058258 0.07298435 39.16133014 0.06368414 44.3436203 0.03896809 C48.33115876 0.02477778 52.31834863 0.03487744 56.30586243 0.0524807 C58.21640693 0.05832611 60.12698717 0.05703462 62.03752136 0.04845619 C64.70941284 0.04045442 67.37912188 0.06473005 70.05078125 0.09765625 C71.23230522 0.08483109 71.23230522 0.08483109 72.43769836 0.07174683 C76.43348083 0.15663593 78.32355522 0.60374071 81.51599121 3.08317566 C83.52539062 5.76049805 83.52539062 5.76049805 84.15039062 9.26049805 C83.34781207 13.75493793 82.11244951 14.97787769 78.52539062 17.76049805 C75.50404761 18.25001847 73.05040877 18.43627388 70.03491211 18.39160156 C69.19204651 18.39875687 68.34918091 18.40591217 67.48077393 18.4132843 C64.70212163 18.43015669 61.92508592 18.41077957 59.14648438 18.3894043 C57.21265021 18.39023305 55.27881612 18.39269269 53.34498596 18.39671326 C49.29561109 18.39957015 45.24678968 18.38487919 41.19750977 18.35742188 C36.00636949 18.32331652 30.81621734 18.32936592 25.62502956 18.34808445 C21.63328306 18.35865043 17.64176668 18.34972065 13.65004158 18.33469963 C11.73587795 18.32951594 9.8216903 18.33000188 7.90752983 18.33624458 C5.23331847 18.34169285 2.56052447 18.32133575 -0.11352539 18.29394531 C-1.30044228 18.30373413 -1.30044228 18.30373413 -2.51133728 18.3137207 C-6.01946646 18.25259681 -8.07558363 18.05656396 -10.93077087 15.93809509 C-13.17031297 12.77920234 -13.5412257 10.62424482 -13.47460938 6.76049805 C-9.82922196 0.8905013 -6.88171505 -0.11983578 0 0 Z " fill="#35495E" transform="translate(154.474609375,326.239501953125)"/>
<path d="M0 0 C3.10703392 2.35381357 3.00664752 4.04653265 3.5625 7.9375 C3.40768564 11.42727373 3.09599937 11.89661607 0.5625 14.625 C-1.30379145 15.95743503 -3.22711409 17.13683523 -5.19140625 18.3203125 C-13.46771671 23.44574335 -17.60724544 29.91771041 -21 39 C-21.58819456 42.38191013 -21.79768911 45.79076359 -21.99609375 49.21484375 C-22.33773969 53.0165635 -22.93942777 54.92267592 -25.31640625 57.95703125 C-27.91293292 59.9337175 -28.88422615 60.66991681 -32.0625 60.5625 C-36 60 -36 60 -38.22265625 58.41015625 C-42.31496727 52.86080262 -40.41205758 42.51850115 -39.4375 35.9375 C-36.05674285 21.82753439 -27.27863492 9.82304265 -15.04296875 2.15625 C-14.36878906 1.7746875 -13.69460938 1.393125 -13 1 C-12.34773438 0.61585938 -11.69546875 0.23171875 -11.0234375 -0.1640625 C-7.36201146 -1.67669797 -3.75793668 -0.96083608 0 0 Z " fill="#FA7A75" transform="translate(332,310)"/>
<path d="M0 0 C8.91 0 17.82 0 27 0 C27 8.91 27 17.82 27 27 C18.09 27 9.18 27 0 27 C0 18.09 0 9.18 0 0 Z " fill="#F7F8F8" transform="translate(79,397)"/>
<path d="M0 0 C8.91 0 17.82 0 27 0 C27 8.91 27 17.82 27 27 C18.09 27 9.18 27 0 27 C0 18.09 0 9.18 0 0 Z " fill="#F7F8F8" transform="translate(79,238)"/>
<path d="M0 0 C8.58 0 17.16 0 26 0 C26 8.58 26 17.16 26 26 C17.42 26 8.84 26 0 26 C0 17.42 0 8.84 0 0 Z " fill="#FEFEFE" transform="translate(80,318)"/>
<path d="M0 0 C8.58 0 17.16 0 26 0 C26 8.58 26 17.16 26 26 C17.42 26 8.84 26 0 26 C0 17.42 0 8.84 0 0 Z " fill="#FEFEFE" transform="translate(80,159)"/>
<path d="M0 0 C1.97806641 -0.05607422 1.97806641 -0.05607422 3.99609375 -0.11328125 C7.5625 0.3125 7.5625 0.3125 10.00390625 2.05078125 C11.73485225 4.56260515 12.10385982 5.7932331 12.0625 8.8125 C12.0728125 9.5653125 12.083125 10.318125 12.09375 11.09375 C11.32091672 14.32146548 10.28619284 15.40591501 7.5625 17.3125 C4.71425098 17.89053582 1.95991095 17.87153044 -0.9375 17.8125 C-1.69675781 17.82796875 -2.45601562 17.8434375 -3.23828125 17.859375 C-6.91187764 17.83364052 -8.87097607 17.70756427 -11.94140625 15.56640625 C-13.62119304 13.0357614 -13.95136729 11.75887122 -13.875 8.75 C-13.87371094 7.98558594 -13.87242188 7.22117187 -13.87109375 6.43359375 C-13.33506987 3.81142289 -12.53469643 2.93597676 -10.4375 1.3125 C-6.91443008 0.13814336 -3.6698872 0.05277882 0 0 Z " fill="#547580" transform="translate(102.4375,61.6875)"/>
<path d="M0 0 C2.64 0.66 5.28 1.32 8 2 C5.08235 3.9451 3.37462715 4.45276317 0 5 C0 3.35 0 1.7 0 0 Z " fill="#7D5535" transform="translate(318,280)"/>
</svg>
