<?xml version="1.0" encoding="UTF-8"?>
<svg version="1.1" xmlns="http://www.w3.org/2000/svg" width="512" height="512">
<path d="M0 0 C7.39333999 5.32518625 12.78819128 11.64100564 15.78125 20.2890625 C16.12373779 21.26713867 16.46622559 22.24521484 16.8190918 23.25292969 C17.07086182 23.99188477 17.32263184 24.73083984 17.58203125 25.4921875 C18.47921875 25.5015332 19.37640625 25.51087891 20.30078125 25.52050781 C23.66351464 25.56480001 27.02502472 25.62653412 30.38720703 25.69970703 C31.83598341 25.72774786 33.28490797 25.74904561 34.73388672 25.76318359 C44.07292962 25.8597278 51.47710096 26.00895541 58.859375 32.4921875 C59.40722656 33.1521875 59.95507812 33.8121875 60.51953125 34.4921875 C61.08542969 35.1521875 61.65132812 35.8121875 62.234375 36.4921875 C63.61771811 38.54514887 64.05245662 40.10397074 64.58203125 42.4921875 C65.79673096 42.47124023 67.01143066 42.45029297 68.26293945 42.42871094 C72.81587707 42.3557232 77.36876412 42.31017613 81.92211914 42.27246094 C83.88412199 42.25247832 85.8460663 42.22528266 87.80786133 42.19042969 C102.99658962 41.92755529 115.03859445 42.4724605 126.58203125 53.4921875 C135.67632796 63.01868841 138.1926283 73.25075707 138.09960938 86.15209961 C138.11012329 87.97366577 138.11012329 87.97366577 138.12084961 89.83203125 C138.13532692 93.12721971 138.13209501 96.42175379 138.11933327 99.7169311 C138.10912734 103.17837069 138.11861834 106.63977006 138.12487793 110.10121155 C138.13212564 115.90357185 138.12263565 121.70572749 138.10351562 127.50805664 C138.08168018 134.21177957 138.08885761 140.91501707 138.11082125 147.61872858 C138.12897204 153.39055723 138.13153739 159.16223985 138.12106657 164.93408781 C138.114839 168.37480454 138.11397689 171.81529284 138.12721252 175.2559948 C138.14091278 179.08353482 138.12192683 182.91052935 138.09960938 186.73803711 C138.1077063 187.87521683 138.11580322 189.01239655 138.12414551 190.18403625 C138.11286621 191.22540741 138.10158691 192.26677856 138.08996582 193.33970642 C138.08770367 194.69543463 138.08770367 194.69543463 138.08539581 196.07855129 C137.41174711 199.30870103 136.18819939 200.52078494 133.58203125 202.4921875 C132.26203125 202.4921875 130.94203125 202.4921875 129.58203125 202.4921875 C129.58203125 209.0921875 129.58203125 215.6921875 129.58203125 222.4921875 C132.55203125 221.1721875 135.52203125 219.8521875 138.58203125 218.4921875 C148.38041284 216.81743637 156.40747501 218.97499474 164.58203125 224.4921875 C165.95379069 225.78595393 167.30080724 227.10870617 168.58203125 228.4921875 C172.42737744 226.67850948 175.7834048 224.35210156 179.265625 221.9296875 C186.05209632 217.71818422 192.76253171 217.54039112 200.58203125 218.4921875 C206.89518987 220.69928495 212.02496036 223.57140673 216.58203125 228.4921875 C219.78751083 227.06193989 222.11747585 225.28785677 224.70703125 222.9296875 C228.76642925 219.24559234 230.79067615 218.31063992 236.33203125 218.1796875 C237.358125 218.14230469 238.38421875 218.10492188 239.44140625 218.06640625 C246.63080142 219.04108793 251.45123842 225.05386077 256.33203125 229.9921875 C257.00363281 230.65605469 257.67523438 231.31992188 258.3671875 232.00390625 C259.33205078 232.97263672 259.33205078 232.97263672 260.31640625 233.9609375 C260.89616211 234.54294922 261.47591797 235.12496094 262.07324219 235.72460938 C265.96875579 240.2882855 266.12054054 244.61071929 266.03515625 250.4453125 C265.31680368 255.27561429 262.93549871 258.0896449 259.58203125 261.4921875 C258.40640625 262.7296875 258.40640625 262.7296875 257.20703125 263.9921875 C256.67078125 264.4871875 256.13453125 264.9821875 255.58203125 265.4921875 C257.31005637 269.22239556 259.59731301 272.19140431 262.14453125 275.39453125 C266.91103038 282.3499933 266.23008282 290.42394547 265.58203125 298.4921875 C263.97282668 304.52670463 259.77934004 309.01505812 255.58203125 313.4921875 C257.31005637 317.22239556 259.59731301 320.19140431 262.14453125 323.39453125 C266.91962619 330.36253664 266.20849037 338.41330562 265.58203125 346.4921875 C263.56789493 355.04888743 255.38536209 362.97221062 248.20703125 367.5546875 C241.01713006 371.71181144 231.11594637 371.78198189 223.1015625 369.9140625 C212.765189 365.22539823 204.29175731 354.33593845 196.45703125 346.4296875 C195.49112444 345.45874654 194.52497963 344.48804227 193.55859375 343.51757812 C191.23073738 341.17808248 188.9052702 338.83626698 186.58203125 336.4921875 C182.7668005 338.07777319 180.2899842 340.49340224 177.35449219 343.36572266 C176.84672241 343.86035004 176.33895264 344.35497742 175.8157959 344.86459351 C174.1434662 346.4976159 172.47915872 348.13847978 170.81640625 349.78125 C170.2463813 350.34312389 169.67635635 350.90499779 169.08905792 351.48389816 C166.07455593 354.4567531 163.06660328 357.43606664 160.06347656 360.42041016 C156.96419227 363.49753928 153.84227957 366.55060409 150.71465683 369.59888649 C148.30954718 371.95167415 145.92241178 374.32209281 143.53974152 376.69758224 C142.39657875 377.83101541 141.24667702 378.95769439 140.08995819 380.07728958 C138.47115906 381.64730148 136.87958342 383.24080522 135.29199219 384.84228516 C134.38028259 385.74226227 133.468573 386.64223938 132.52923584 387.56948853 C129.84217209 391.60269515 130.04279856 393.70944616 130.58203125 398.4921875 C132.31506772 400.8983869 133.72691518 402.51789668 135.875 404.4609375 C136.41804276 404.98554565 136.96108551 405.51015381 137.52058411 406.05065918 C139.25223624 407.71800721 141.00849305 409.35595488 142.76953125 410.9921875 C145.06550899 413.15810777 147.34990272 415.33559886 149.625 417.5234375 C150.16647675 418.04341309 150.70795349 418.56338867 151.26583862 419.09912109 C157.54466414 425.24156495 161.6324701 431.04622388 161.87524414 440.03857422 C161.98287011 451.98641944 159.08400218 457.51008172 150.96484375 466.21875 C143.21221758 473.61551792 135.95121213 474.95990445 125.54296875 474.76953125 C117.32782766 474.19430934 112.42281135 469.96791884 106.58203125 464.4921875 C102.85182319 466.22021262 99.88281444 468.50746926 96.6796875 471.0546875 C89.72422545 475.82118663 81.65027328 475.14023907 73.58203125 474.4921875 C67.54751412 472.88298293 63.05916063 468.68949629 58.58203125 464.4921875 C55.37655167 465.92243511 53.04658665 467.69651823 50.45703125 470.0546875 C46.39763325 473.73878266 44.37338635 474.67373508 38.83203125 474.8046875 C37.8059375 474.84207031 36.77984375 474.87945312 35.72265625 474.91796875 C28.53326108 473.94328707 23.71282408 467.93051423 18.83203125 462.9921875 C18.16042969 462.32832031 17.48882812 461.66445313 16.796875 460.98046875 C15.83201172 460.01173828 15.83201172 460.01173828 14.84765625 459.0234375 C14.26790039 458.44142578 13.68814453 457.85941406 13.09082031 457.25976562 C9.19530671 452.6960895 9.04352196 448.37365571 9.12890625 442.5390625 C10.11980528 435.87612078 15.00713889 432.06707986 19.58203125 427.4921875 C11.00203125 427.1621875 2.42203125 426.8321875 -6.41796875 426.4921875 C-6.74796875 428.4721875 -7.07796875 430.4521875 -7.41796875 432.4921875 C-10.83217102 434.76832235 -12.04654423 434.74646796 -16.05761719 434.75961304 C-17.23224014 434.76814301 -18.4068631 434.77667297 -19.61708069 434.78546143 C-20.9074675 434.78455505 -22.19785431 434.78364868 -23.52734375 434.78271484 C-24.89908718 434.788699 -26.27082724 434.79550429 -27.64256287 434.80307007 C-31.37236165 434.82075928 -35.10206869 434.82542696 -38.83190536 434.82670164 C-41.16525984 434.82812335 -43.49859101 434.83239355 -45.8319397 434.83769608 C-53.9818876 434.85621337 -62.13177004 434.86436548 -70.28173828 434.86279297 C-77.86102227 434.86159448 -85.44002013 434.88263468 -93.0192318 434.9142803 C-99.53662127 434.94051572 -106.05391782 434.95115707 -112.57135963 434.94988215 C-116.45901153 434.94937419 -120.34640979 434.95496328 -124.23400879 434.97623825 C-127.89818408 434.99574088 -131.56186723 434.99566415 -135.22606087 434.98120499 C-137.19560787 434.97814814 -139.16515553 434.99471323 -141.1346283 435.01208496 C-153.18489448 434.92764547 -162.61662995 431.8942217 -171.41796875 423.4921875 C-180.87983085 413.58065275 -183.0217984 403.08974751 -182.92590332 389.71533203 C-182.93052139 388.35248717 -182.93688035 386.98964731 -182.9448123 385.6268177 C-182.96140471 381.91025013 -182.95330579 378.19409701 -182.94086742 374.47752857 C-182.93177755 370.4583598 -182.94580608 366.43925986 -182.95678711 362.42010498 C-182.97453509 354.55780797 -182.97074899 346.69566406 -182.95913655 338.83336115 C-182.95008781 332.44116114 -182.94888444 326.0490039 -182.95323181 319.65679932 C-182.95384474 318.74559645 -182.95445768 317.83439358 -182.95508918 316.8955785 C-182.95636814 315.04424841 -182.95766499 313.19291833 -182.95897955 311.34158826 C-182.97037444 293.9984825 -182.95728877 276.65546145 -182.93577808 259.31236959 C-182.91790809 244.44453212 -182.92101251 229.57681959 -182.93945312 214.70898438 C-182.96087912 197.42618949 -182.96927591 180.14346877 -182.95700407 162.86066246 C-182.95572993 161.01630021 -182.95447245 159.17193795 -182.95323181 157.32757568 C-182.95261471 156.42021199 -182.95199761 155.5128483 -182.95136181 154.57798874 C-182.94791409 148.19652592 -182.95372476 141.8151103 -182.96315002 135.43365479 C-182.97439061 127.65238542 -182.97128677 119.87127737 -182.95002705 112.09002638 C-182.93954426 108.12302495 -182.93534717 104.1562921 -182.94862366 100.18929291 C-182.96061134 96.5522711 -182.95388138 92.91576483 -182.93271345 89.27878928 C-182.92618386 87.35183436 -182.93912631 85.42484317 -182.95294237 83.49792671 C-182.8462011 71.58007547 -179.72008083 62.1888554 -171.41796875 53.4921875 C-159.06235191 41.69712794 -145.84618057 41.95587803 -129.73046875 42.2421875 C-127.7571796 42.26228507 -125.78387067 42.28053007 -123.81054688 42.296875 C-119.01252601 42.3406082 -114.21546914 42.40945552 -109.41796875 42.4921875 C-108.96877075 41.32067139 -108.96877075 41.32067139 -108.51049805 40.12548828 C-107.38202849 37.40556144 -106.1396948 35.59534604 -104.23046875 33.3671875 C-103.68003906 32.70460937 -103.12960938 32.04203125 -102.5625 31.359375 C-97.57742278 27.01899811 -92.40326275 26.11428904 -85.953125 25.98046875 C-85.27495224 25.96251755 -84.59677948 25.94456635 -83.89805603 25.92607117 C-81.75892118 25.87243807 -79.62000317 25.83822706 -77.48046875 25.8046875 C-76.01885032 25.77147258 -74.55726035 25.73697913 -73.09570312 25.70117188 C-69.53666665 25.61674147 -65.97755363 25.5497078 -62.41796875 25.4921875 C-62.16619873 24.75323242 -61.91442871 24.01427734 -61.6550293 23.25292969 C-61.3125415 22.27485352 -60.97005371 21.29677734 -60.6171875 20.2890625 C-60.28291748 19.32323242 -59.94864746 18.35740234 -59.60424805 17.36230469 C-55.5763068 7.61699139 -47.01126304 0.22897106 -37.48046875 -3.9453125 C-25.20446722 -7.93371806 -10.94613541 -6.8258615 0 0 Z M129.58203125 279.4921875 C129.58203125 292.0321875 129.58203125 304.5721875 129.58203125 317.4921875 C134.88923076 313.00796166 134.88923076 313.00796166 139.890625 308.28125 C140.40947266 307.75917969 140.92832031 307.23710937 141.46289062 306.69921875 C141.97658203 306.17714844 142.49027344 305.65507812 143.01953125 305.1171875 C143.56029297 304.57191406 144.10105469 304.02664063 144.65820312 303.46484375 C145.96849848 302.14295286 147.27561409 300.81791132 148.58203125 299.4921875 C147.15847625 296.24942023 145.4273206 294.09125446 142.921875 291.6015625 C141.85549805 290.53808594 141.85549805 290.53808594 140.76757812 289.453125 C139.65479492 288.35871094 139.65479492 288.35871094 138.51953125 287.2421875 C137.77380859 286.49710937 137.02808594 285.75203125 136.25976562 284.984375 C133.32614257 281.43312088 133.32614257 281.43312088 129.58203125 279.4921875 Z " fill="#FEB64C" transform="translate(214.41796875,21.5078125)"/>
<path d="M0 0 C3.70776184 2.01133382 6.50877567 4.15501598 9.375 7.25 C13.22034619 5.43632198 16.57637355 3.10991406 20.05859375 0.6875 C26.84506507 -3.52400328 33.55550046 -3.70179638 41.375 -2.75 C47.68815862 -0.54290255 52.81792911 2.32921923 57.375 7.25 C60.58047958 5.81975239 62.9104446 4.04566927 65.5 1.6875 C69.559398 -1.99659516 71.5836449 -2.93154758 77.125 -3.0625 C78.15109375 -3.09988281 79.1771875 -3.13726562 80.234375 -3.17578125 C87.42377017 -2.20109957 92.24420717 3.81167327 97.125 8.75 C97.79660156 9.41386719 98.46820313 10.07773438 99.16015625 10.76171875 C100.12501953 11.73044922 100.12501953 11.73044922 101.109375 12.71875 C101.68913086 13.30076172 102.26888672 13.88277344 102.86621094 14.48242188 C106.76172454 19.046098 106.91350929 23.36853179 106.828125 29.203125 C106.10977243 34.03342679 103.72846746 36.8474574 100.375 40.25 C99.59125 41.075 98.8075 41.9 98 42.75 C97.195625 43.4925 97.195625 43.4925 96.375 44.25 C98.10302512 47.98020806 100.39028176 50.94921681 102.9375 54.15234375 C107.70399913 61.1078058 107.02305157 69.18175797 106.375 77.25 C104.76579543 83.28451713 100.57230879 87.77287062 96.375 92.25 C98.10302512 95.98020806 100.39028176 98.94921681 102.9375 102.15234375 C107.71259494 109.12034914 107.00145912 117.17111812 106.375 125.25 C104.36086368 133.80669993 96.17833084 141.73002312 89 146.3125 C81.81009881 150.46962394 71.90891512 150.53979439 63.89453125 148.671875 C53.55815775 143.98321073 45.08472606 133.09375095 37.25 125.1875 C36.28409319 124.21655904 35.31794838 123.24585477 34.3515625 122.27539062 C32.02370613 119.93589498 29.69823895 117.59407948 27.375 115.25 C23.55976925 116.83558569 21.08295295 119.25121474 18.14746094 122.12353516 C17.63969116 122.61816254 17.13192139 123.11278992 16.60876465 123.62240601 C14.93643495 125.2554284 13.27212747 126.89629228 11.609375 128.5390625 C10.75433758 129.38187334 10.75433758 129.38187334 9.88202667 130.24171066 C6.86752468 133.2145656 3.85957203 136.19387914 0.85644531 139.17822266 C-2.24283898 142.25535178 -5.36475168 145.30841659 -8.49237442 148.35669899 C-10.89748407 150.70948665 -13.28461947 153.07990531 -15.66728973 155.45539474 C-16.8104525 156.58882791 -17.96035423 157.71550689 -19.11707306 158.83510208 C-20.73587219 160.40511398 -22.32744783 161.99861772 -23.91503906 163.60009766 C-24.82674866 164.50007477 -25.73845825 165.40005188 -26.67779541 166.32730103 C-29.36485916 170.36050765 -29.16423269 172.46725866 -28.625 177.25 C-26.89196353 179.6561994 -25.48011607 181.27570918 -23.33203125 183.21875 C-22.78898849 183.74335815 -22.24594574 184.26796631 -21.68644714 184.80847168 C-19.95479501 186.47581971 -18.1985382 188.11376738 -16.4375 189.75 C-14.14152226 191.91592027 -11.85712853 194.09341136 -9.58203125 196.28125 C-9.0405545 196.80122559 -8.49907776 197.32120117 -7.94119263 197.85693359 C-1.66236711 203.99937745 2.42543885 209.80403638 2.66821289 218.79638672 C2.77583886 230.74423194 -0.12302907 236.26789422 -8.2421875 244.9765625 C-15.99481367 252.37333042 -23.25581912 253.71771695 -33.6640625 253.52734375 C-41.87920359 252.95212184 -46.7842199 248.72573134 -52.625 243.25 C-56.35520806 244.97802512 -59.32421681 247.26528176 -62.52734375 249.8125 C-69.4828058 254.57899913 -77.55675797 253.89805157 -85.625 253.25 C-91.65951713 251.64079543 -96.14787062 247.44730879 -100.625 243.25 C-103.83047958 244.68024761 -106.1604446 246.45433073 -108.75 248.8125 C-112.809398 252.49659516 -114.8336449 253.43154758 -120.375 253.5625 C-121.40109375 253.59988281 -122.4271875 253.63726562 -123.484375 253.67578125 C-130.67377017 252.70109957 -135.49420717 246.68832673 -140.375 241.75 C-141.04660156 241.08613281 -141.71820313 240.42226563 -142.41015625 239.73828125 C-143.37501953 238.76955078 -143.37501953 238.76955078 -144.359375 237.78125 C-144.93913086 237.19923828 -145.51888672 236.61722656 -146.11621094 236.01757812 C-150.01330065 231.45205555 -150.16653716 227.12642636 -150.07421875 221.2890625 C-149.35625098 216.43185445 -146.92137082 213.72392709 -143.625 210.25 C-142.66040849 209.08850221 -141.70145653 207.92228169 -140.75 206.75 C-140.04875 205.925 -139.3475 205.1 -138.625 204.25 C-139.31335938 203.54037109 -139.31335938 203.54037109 -140.015625 202.81640625 C-146.90475893 195.39177241 -150.50112353 188.71078153 -150.14453125 178.3828125 C-148.84472551 170.54488616 -144.75550584 163.29865187 -138.625 158.25 C-139.97918116 155.3278196 -141.55296137 152.94814496 -143.5625 150.4375 C-148.38528859 144.01104577 -150.32961259 138.49936791 -150.09765625 130.44140625 C-148.69557444 120.97445719 -143.03702667 113.07181004 -135.625 107.25 C-128.31956835 102.36342364 -121.42770406 100.29684096 -112.625 101.25 C-99.43277255 104.35899628 -90.21083565 116.52065302 -81 125.8125 C-79.98591554 126.83161754 -78.97159375 127.85049899 -77.95703125 128.86914062 C-75.51029165 131.32672412 -73.06673456 133.78744246 -70.625 136.25 C-67.5044002 134.8637057 -65.38354373 133.25708912 -62.97729492 130.84521484 C-62.27944382 130.15044037 -61.58159271 129.45566589 -60.8625946 128.73983765 C-60.11774307 127.9878006 -59.37289154 127.23576355 -58.60546875 126.4609375 C-57.82867264 125.68368317 -57.05187653 124.90642883 -56.25154114 124.10562134 C-54.60762367 122.45868327 -52.96613687 120.80931595 -51.3269043 119.15771484 C-48.83752907 116.65021134 -46.34037425 114.1506744 -43.84179688 111.65234375 C-42.24171739 110.04734353 -40.64209352 108.44188894 -39.04296875 106.8359375 C-38.30418991 106.09604584 -37.56541107 105.35615417 -36.804245 104.59384155 C-32.77533925 100.52859543 -28.90534083 96.37957898 -25.18341064 92.03079224 C-22.65129576 89.13735042 -19.92731181 86.44512228 -17.1875 83.75 C-16.64673828 83.21375 -16.10597656 82.6775 -15.54882812 82.125 C-14.24323383 80.83095964 -12.93447004 79.54011826 -11.625 78.25 C-13.0125818 75.11120619 -14.62023408 73.02745205 -17.07421875 70.640625 C-17.75806641 69.96773438 -18.44191406 69.29484375 -19.14648438 68.6015625 C-20.21866211 67.56128906 -20.21866211 67.56128906 -21.3125 66.5 C-45.40029505 43.01495793 -45.40029505 43.01495793 -46.1875 29.5625 C-45.89165732 19.2851826 -40.61267946 11.49406646 -33.359375 4.578125 C-31.625 3.25 -31.625 3.25 -29.625 3.25 C-29.625 2.59 -29.625 1.93 -29.625 1.25 C-20.14928931 -4.36523596 -9.9351706 -4.77955704 0 0 Z " fill="#010101" transform="translate(373.625,242.75)"/>
<path d="M0 0 C7.39333999 5.32518625 12.78819128 11.64100564 15.78125 20.2890625 C16.12373779 21.26713867 16.46622559 22.24521484 16.8190918 23.25292969 C17.07086182 23.99188477 17.32263184 24.73083984 17.58203125 25.4921875 C18.47921875 25.5015332 19.37640625 25.51087891 20.30078125 25.52050781 C23.66351464 25.56480001 27.02502472 25.62653412 30.38720703 25.69970703 C31.83598341 25.72774786 33.28490797 25.74904561 34.73388672 25.76318359 C44.07292962 25.8597278 51.47710096 26.00895541 58.859375 32.4921875 C59.40722656 33.1521875 59.95507812 33.8121875 60.51953125 34.4921875 C61.08542969 35.1521875 61.65132812 35.8121875 62.234375 36.4921875 C63.61771811 38.54514887 64.05245662 40.10397074 64.58203125 42.4921875 C65.79673096 42.47124023 67.01143066 42.45029297 68.26293945 42.42871094 C72.81587707 42.3557232 77.36876412 42.31017613 81.92211914 42.27246094 C83.88412199 42.25247832 85.8460663 42.22528266 87.80786133 42.19042969 C102.99658962 41.92755529 115.03859445 42.4724605 126.58203125 53.4921875 C135.67632796 63.01868841 138.1926283 73.25075707 138.09960938 86.15209961 C138.11012329 87.97366577 138.11012329 87.97366577 138.12084961 89.83203125 C138.13532692 93.12721971 138.13209501 96.42175379 138.11933327 99.7169311 C138.10912734 103.17837069 138.11861834 106.63977006 138.12487793 110.10121155 C138.13212564 115.90357185 138.12263565 121.70572749 138.10351562 127.50805664 C138.08168018 134.21177957 138.08885761 140.91501707 138.11082125 147.61872858 C138.12897204 153.39055723 138.13153739 159.16223985 138.12106657 164.93408781 C138.114839 168.37480454 138.11397689 171.81529284 138.12721252 175.2559948 C138.14091278 179.08353482 138.12192683 182.91052935 138.09960938 186.73803711 C138.1077063 187.87521683 138.11580322 189.01239655 138.12414551 190.18403625 C138.11286621 191.22540741 138.10158691 192.26677856 138.08996582 193.33970642 C138.08770367 194.69543463 138.08770367 194.69543463 138.08539581 196.07855129 C137.4149347 199.29341648 136.14320467 200.49511575 133.58203125 202.4921875 C129.82853663 202.96137433 127.54354672 203.02355131 124.20703125 201.1796875 C121.41961947 198.28506758 121.45623895 195.44980633 121.45072937 191.6295929 C121.4447171 190.1262011 121.4447171 190.1262011 121.43858337 188.59243774 C121.43911209 187.49370331 121.43964081 186.39496887 121.44018555 185.26293945 C121.43497391 183.52591515 121.43497391 183.52591515 121.42965698 181.75379944 C121.42229615 179.23454075 121.41695251 176.71527557 121.41336632 174.19600868 C121.40620814 170.20714255 121.39089863 166.21836122 121.37202454 162.22953796 C121.36568711 160.86272531 121.35936149 159.49591261 121.35304737 158.12909985 C121.34988156 157.4445697 121.34671575 156.76003955 121.343454 156.05476606 C121.30142319 146.7700064 121.26842146 137.48528788 121.25610352 128.20043945 C121.24770706 121.935796 121.22515666 115.67137249 121.18674785 109.40683907 C121.16703713 106.09439635 121.15678645 102.7823537 121.15958214 99.46984291 C121.16193668 95.76902934 121.13975406 92.06910197 121.11206055 88.3684082 C121.11866196 87.27979492 121.12526337 86.19118164 121.13206482 85.06958008 C121.0386035 77.4506332 119.72338449 72.20999525 114.6875 66.25 C114.05457031 65.71117188 113.42164063 65.17234375 112.76953125 64.6171875 C111.83173828 63.78574219 111.83173828 63.78574219 110.875 62.9375 C105.34189353 59.44985197 99.3790027 59.17583805 93.0234375 59.078125 C92.23428452 59.05875885 91.44513153 59.0393927 90.63206482 59.0194397 C88.13632678 58.96013926 85.64054136 58.913459 83.14453125 58.8671875 C81.44203829 58.82896199 79.73956373 58.78990766 78.03710938 58.75 C73.88556784 58.65447922 69.73393592 58.57026781 65.58203125 58.4921875 C65.60821533 59.07597168 65.63439941 59.65975586 65.66137695 60.26123047 C66.50776917 81.96744094 66.50776917 81.96744094 60.58203125 89.4921875 C60.13601563 90.0903125 59.69 90.6884375 59.23046875 91.3046875 C54.86828988 96.37358809 49.11449056 98.16461219 42.58271599 98.7703228 C39.05832697 98.88845618 35.54564681 98.90898591 32.01928711 98.89624023 C30.67134539 98.90195319 29.32340851 98.90892101 27.97547913 98.91703796 C24.33915662 98.93487877 20.7030766 98.93381874 17.06672359 98.92809558 C14.02248151 98.92499168 10.9782852 98.93110919 7.93404967 98.93713433 C0.75018333 98.95114699 -6.43356399 98.94964444 -13.61743164 98.93823242 C-21.01287365 98.92674349 -28.40795334 98.94084709 -35.80334765 98.9676289 C-42.17050629 98.98981818 -48.53755145 98.99641635 -54.904746 98.99055248 C-58.69997849 98.98719071 -62.49497857 98.98954624 -66.2901783 99.00680351 C-69.85842048 99.02232334 -73.42612711 99.0182622 -76.99434853 98.99949837 C-78.91788198 98.99408433 -80.84143979 99.00828661 -82.7649231 99.02319336 C-91.02838705 98.95308643 -96.49438149 97.91754145 -102.87890625 92.34375 C-103.51054688 91.60898438 -104.1421875 90.87421875 -104.79296875 90.1171875 C-105.44007812 89.38757813 -106.0871875 88.65796875 -106.75390625 87.90625 C-110.96008413 81.80432997 -110.66859324 75.74879335 -110.54296875 68.6171875 C-110.53394531 67.64265625 -110.52492188 66.668125 -110.515625 65.6640625 C-110.49218498 63.27318022 -110.45937317 60.88281489 -110.41796875 58.4921875 C-115.68387168 58.53655449 -120.94859989 58.60660989 -126.21386719 58.69970703 C-128.00218315 58.72780084 -129.79062061 58.74907264 -131.57910156 58.76318359 C-134.16143477 58.78477501 -136.74232494 58.83150459 -139.32421875 58.8828125 C-140.50908875 58.88465546 -140.50908875 58.88465546 -141.71789551 58.88653564 C-148.38987404 59.05960191 -153.61577675 61.0366081 -158.66015625 65.45703125 C-159.19898438 66.10800781 -159.7378125 66.75898437 -160.29296875 67.4296875 C-160.84726563 68.07808594 -161.4015625 68.72648437 -161.97265625 69.39453125 C-164.81986693 73.52683431 -165.66803823 77.14727112 -165.67523766 82.12669754 C-165.68168655 83.25623926 -165.68813544 84.38578099 -165.69477975 85.54955125 C-165.69168255 86.78562426 -165.68858535 88.02169728 -165.68539429 89.29522705 C-165.6899254 90.6121365 -165.69445651 91.92904594 -165.69912493 93.28586173 C-165.71136194 96.93992301 -165.71109364 100.59389277 -165.70873618 104.24796987 C-165.70832819 108.18948227 -165.71936556 112.13096527 -165.72885132 116.07246399 C-165.74546655 123.79449771 -165.75096112 131.51650089 -165.75207607 139.23855099 C-165.75302638 145.51601016 -165.75713581 151.79345924 -165.76347733 158.07091522 C-165.78109181 175.8698103 -165.79031597 193.66868126 -165.78881638 211.46758512 C-165.78873647 212.42719316 -165.78865655 213.38680121 -165.78857422 214.37548828 C-165.78849246 215.33626855 -165.7884107 216.29704882 -165.78832646 217.28694364 C-165.78751368 232.85521624 -165.80664861 248.42339206 -165.83485095 263.99163666 C-165.86358234 279.97813075 -165.87739108 295.96457764 -165.8756634 311.9510982 C-165.87499955 320.92582711 -165.88048971 329.90045457 -165.9020195 338.87516022 C-165.92023474 346.51717973 -165.92457591 354.15905183 -165.91100065 361.80108365 C-165.90447246 365.69894947 -165.90434814 369.59653253 -165.92170715 373.49437141 C-165.93745009 377.06613206 -165.93456231 380.63738605 -165.91713889 384.20913443 C-165.91262396 386.10605482 -165.92771692 388.00299101 -165.94361818 389.89985013 C-165.87831508 397.99368083 -164.76283268 404.50894 -159.453125 410.83203125 C-158.80214844 411.35925781 -158.15117187 411.88648438 -157.48046875 412.4296875 C-156.83207031 412.97496094 -156.18367188 413.52023437 -155.515625 414.08203125 C-151.32580204 416.89865339 -147.70195576 417.74220979 -142.68725586 417.75047302 C-140.97129715 417.76071503 -140.97129715 417.76071503 -139.22067261 417.77116394 C-137.35186935 417.76733452 -137.35186935 417.76733452 -135.4453125 417.76342773 C-133.42038968 417.77145069 -131.39546688 417.77947607 -129.37054443 417.78759301 C-127.19885209 417.79443982 -125.02720183 417.79644759 -122.85549927 417.79714775 C-118.32539159 417.7990914 -113.79543624 417.81715997 -109.26538086 417.83790588 C-98.01505718 417.88705068 -86.76469228 417.91798589 -75.51428223 417.93920898 C-66.76729573 417.95573324 -58.0204402 417.97854395 -49.27354145 418.02222973 C-44.77144637 418.04400033 -40.26960015 418.05206456 -35.76745605 418.04983699 C-32.30844124 418.05189598 -28.84959102 418.07325328 -25.390625 418.09155273 C-23.52182175 418.08468697 -23.52182175 418.08468697 -21.61526489 418.0776825 C-20.47129242 418.08733032 -19.32731995 418.09697815 -18.14868164 418.10691833 C-17.15687393 418.10892966 -16.16506622 418.11094099 -15.14320374 418.11301327 C-11.92570749 418.56067803 -10.0324115 419.59341798 -7.41796875 421.4921875 C-5.87209999 424.58392502 -6.12437354 427.08648302 -6.41796875 430.4921875 C-8.48592109 433.22715227 -9.68038556 434.35279525 -13.08148289 434.99555206 C-14.1032912 434.99706017 -15.12509951 434.99856827 -16.1778717 435.00012207 C-17.94186813 435.01704102 -17.94186813 435.01704102 -19.74150085 435.03430176 C-21.02829239 435.02620483 -22.31508392 435.01810791 -23.64086914 435.00976562 C-25.0127639 435.01518734 -26.38465284 435.02231028 -27.75653076 435.03100586 C-31.48226532 435.04924873 -35.20755696 435.04216484 -38.9332993 435.02948952 C-42.83993922 435.0193524 -46.74654155 435.02875849 -50.65318298 435.03503418 C-57.22125026 435.04231458 -63.78913776 435.03271902 -70.35717773 435.01367188 C-77.92912616 434.99196564 -85.50064269 434.99890707 -93.0725804 435.0209775 C-99.58576758 435.03919637 -106.0988255 435.0416564 -112.61202997 435.03122282 C-116.49628313 435.02501517 -120.38033422 435.02407508 -124.26457405 435.03736877 C-127.92470338 435.04901921 -131.58428355 435.04073641 -135.24435425 435.01779175 C-137.21147428 435.01007111 -139.17864133 435.02178632 -141.14573669 435.03430176 C-153.1853301 434.92073312 -162.62315041 431.88799707 -171.41796875 423.4921875 C-180.87983085 413.58065275 -183.0217984 403.08974751 -182.92590332 389.71533203 C-182.93052139 388.35248717 -182.93688035 386.98964731 -182.9448123 385.6268177 C-182.96140471 381.91025013 -182.95330579 378.19409701 -182.94086742 374.47752857 C-182.93177755 370.4583598 -182.94580608 366.43925986 -182.95678711 362.42010498 C-182.97453509 354.55780797 -182.97074899 346.69566406 -182.95913655 338.83336115 C-182.95008781 332.44116114 -182.94888444 326.0490039 -182.95323181 319.65679932 C-182.95384474 318.74559645 -182.95445768 317.83439358 -182.95508918 316.8955785 C-182.95636814 315.04424841 -182.95766499 313.19291833 -182.95897955 311.34158826 C-182.97037444 293.9984825 -182.95728877 276.65546145 -182.93577808 259.31236959 C-182.91790809 244.44453212 -182.92101251 229.57681959 -182.93945312 214.70898438 C-182.96087912 197.42618949 -182.96927591 180.14346877 -182.95700407 162.86066246 C-182.95572993 161.01630021 -182.95447245 159.17193795 -182.95323181 157.32757568 C-182.95261471 156.42021199 -182.95199761 155.5128483 -182.95136181 154.57798874 C-182.94791409 148.19652592 -182.95372476 141.8151103 -182.96315002 135.43365479 C-182.97439061 127.65238542 -182.97128677 119.87127737 -182.95002705 112.09002638 C-182.93954426 108.12302495 -182.93534717 104.1562921 -182.94862366 100.18929291 C-182.96061134 96.5522711 -182.95388138 92.91576483 -182.93271345 89.27878928 C-182.92618386 87.35183436 -182.93912631 85.42484317 -182.95294237 83.49792671 C-182.8462011 71.58007547 -179.72008083 62.1888554 -171.41796875 53.4921875 C-159.06235191 41.69712794 -145.84618057 41.95587803 -129.73046875 42.2421875 C-127.7571796 42.26228507 -125.78387067 42.28053007 -123.81054688 42.296875 C-119.01252601 42.3406082 -114.21546914 42.40945552 -109.41796875 42.4921875 C-108.96877075 41.32067139 -108.96877075 41.32067139 -108.51049805 40.12548828 C-107.38202849 37.40556144 -106.1396948 35.59534604 -104.23046875 33.3671875 C-103.68003906 32.70460937 -103.12960938 32.04203125 -102.5625 31.359375 C-97.57742278 27.01899811 -92.40326275 26.11428904 -85.953125 25.98046875 C-85.27495224 25.96251755 -84.59677948 25.94456635 -83.89805603 25.92607117 C-81.75892118 25.87243807 -79.62000317 25.83822706 -77.48046875 25.8046875 C-76.01885032 25.77147258 -74.55726035 25.73697913 -73.09570312 25.70117188 C-69.53666665 25.61674147 -65.97755363 25.5497078 -62.41796875 25.4921875 C-62.16619873 24.75323242 -61.91442871 24.01427734 -61.6550293 23.25292969 C-61.3125415 22.27485352 -60.97005371 21.29677734 -60.6171875 20.2890625 C-60.28291748 19.32323242 -59.94864746 18.35740234 -59.60424805 17.36230469 C-55.5763068 7.61699139 -47.01126304 0.22897106 -37.48046875 -3.9453125 C-25.20446722 -7.93371806 -10.94613541 -6.8258615 0 0 Z " fill="#000000" transform="translate(214.41796875,21.5078125)"/>
<path d="M0 0 C3.47900249 -0.08825361 6.95771117 -0.14080635 10.4375 -0.1875 C11.41138672 -0.21263672 12.38527344 -0.23777344 13.38867188 -0.26367188 C20.66226833 -0.3366511 27.13320222 0.37110994 33.26953125 4.54296875 C34.03330078 5.35701172 34.03330078 5.35701172 34.8125 6.1875 C35.59560547 6.98220703 35.59560547 6.98220703 36.39453125 7.79296875 C41.76045876 15.16948711 42.58131659 20.92767666 42.51416016 29.86035156 C42.52128525 31.02552307 42.52841034 32.19069458 42.53575134 33.39117432 C42.5549779 37.22449878 42.54676426 41.05726858 42.5390625 44.890625 C42.54897025 47.56006975 42.56062372 50.22944561 42.57479858 52.89886475 C42.60497456 59.19789515 42.61674591 65.49679959 42.62037504 71.79589629 C42.62704065 83.08568019 42.6560542 94.37537741 42.7054714 105.66505408 C42.7246066 110.26212488 42.72600036 114.8590127 42.72354126 119.45611572 C42.73011944 121.85648728 42.73712528 124.25685772 42.74462891 126.65722656 C42.74050491 127.75236572 42.73638092 128.84750488 42.73213196 129.97583008 C42.74020622 131.48128387 42.74020622 131.48128387 42.7484436 133.01715088 C42.74877909 133.88799442 42.74911457 134.75883797 42.74946022 135.65607071 C43.02525836 138.23630505 43.58882239 139.82893337 45 142 C47.53770003 143.28254644 47.53770003 143.28254644 50 144 C50.23413602 147.5196947 50.37497976 151.03737584 50.5 154.5625 C50.56703125 155.55314453 50.6340625 156.54378906 50.703125 157.56445312 C50.89787802 164.89203534 50.89787802 164.89203534 48.30444336 168.09228516 C46.90166316 169.27916607 45.45981719 170.42148513 43.98193359 171.51342773 C41.45502738 173.40876303 40.08618465 175.50477779 38.5625 178.25 C38.08941406 179.08015625 37.61632812 179.9103125 37.12890625 180.765625 C33.88652801 187.18306567 33.81203562 194.35449099 36.0234375 201.140625 C38.72290421 207.02981701 38.72290421 207.02981701 43.12548828 211.69335938 C49.63398095 217.02676249 51.56499299 222.06998022 52.55239868 230.17863464 C52.77844887 232.82929086 52.90928909 235.46635554 53 238.125 C53.04003143 239.03409119 53.08006287 239.94318237 53.12130737 240.87982178 C53.42727845 255.59245307 48.70016516 264.55728482 38.74105835 275.18600464 C30.07869284 283.96341137 20.88673406 292.60141745 11 300 C10.67 300 10.34 300 10 300 C9.67 260.73 9.34 221.46 9 181 C7.35 181.99 5.7 182.98 4 184 C1.44655609 184.38311005 1.44655609 184.38311005 -1.31311035 184.39440918 C-2.36452713 184.40575897 -3.41594391 184.41710876 -4.4992218 184.42880249 C-5.64223251 184.42587189 -6.78524323 184.42294128 -7.96289062 184.41992188 C-9.78073311 184.43262619 -9.78073311 184.43262619 -11.63529968 184.44558716 C-14.95153082 184.46495679 -18.26719886 184.47073587 -21.58344841 184.46883965 C-24.35439136 184.46871981 -27.12528187 184.47728913 -29.89621019 184.48561716 C-36.43360945 184.50483701 -42.97088102 184.50773981 -49.50830078 184.50097656 C-56.2482866 184.49433209 -62.98772566 184.51721902 -69.72760057 184.55429029 C-75.51969571 184.58499025 -81.31161494 184.59634718 -87.10378981 184.59245348 C-90.56092276 184.59038673 -94.01762991 184.59585316 -97.47468567 184.62034607 C-101.32904496 184.64675345 -105.18268778 184.63288296 -109.03710938 184.61523438 C-110.18012009 184.62849762 -111.3231308 184.64176086 -112.5007782 184.65542603 C-120.21774448 184.57315804 -120.21774448 184.57315804 -124.20861816 181.64904785 C-126 179 -126 179 -126.625 176 C-125.74154564 171.75941905 -124.51068011 170.57227271 -121 168 C-117.01719827 167.25277507 -113.07909155 167.33786335 -109.03710938 167.38476562 C-107.82521439 167.37921661 -106.6133194 167.3736676 -105.36470032 167.36795044 C-102.04807448 167.35817272 -98.73301104 167.37073882 -95.41655159 167.39423561 C-91.94221464 167.41437359 -88.46791124 167.40846353 -84.99353027 167.40612793 C-79.15944746 167.40618147 -73.32568885 167.42591917 -67.49169922 167.45800781 C-60.75182035 167.49489948 -54.01236608 167.50368309 -47.27239943 167.4967103 C-40.78235626 167.49039966 -34.29245831 167.5011699 -27.80244446 167.52067566 C-25.04337999 167.52883916 -22.28438986 167.53156115 -19.52531433 167.52998352 C-15.67101568 167.5289394 -11.81710004 167.5531423 -7.96289062 167.58007812 C-6.81987991 167.57714752 -5.6768692 167.57421692 -4.4992218 167.57119751 C-2.92209663 167.5882222 -2.92209663 167.5882222 -1.31311035 167.60559082 C-0.40242043 167.60931953 0.5082695 167.61304825 1.44655609 167.61688995 C4 168 4 168 9 171 C9 142.62 9 114.24 9 85 C7.35 85.99 5.7 86.98 4 88 C1.44655609 88.38311005 1.44655609 88.38311005 -1.31311035 88.39440918 C-2.36452713 88.40575897 -3.41594391 88.41710876 -4.4992218 88.42880249 C-5.64223251 88.42587189 -6.78524323 88.42294128 -7.96289062 88.41992188 C-9.17478561 88.42839142 -10.3866806 88.43686096 -11.63529968 88.44558716 C-14.95153082 88.46495679 -18.26719886 88.47073587 -21.58344841 88.46883965 C-24.35439136 88.46871981 -27.12528187 88.47728913 -29.89621019 88.48561716 C-36.43360945 88.50483701 -42.97088102 88.50773981 -49.50830078 88.50097656 C-56.2482866 88.49433209 -62.98772566 88.51721902 -69.72760057 88.55429029 C-75.51969571 88.58499025 -81.31161494 88.59634718 -87.10378981 88.59245348 C-90.56092276 88.59038673 -94.01762991 88.59585316 -97.47468567 88.62034607 C-101.32904496 88.64675345 -105.18268778 88.63288296 -109.03710938 88.61523438 C-110.75162544 88.63512924 -110.75162544 88.63512924 -112.5007782 88.65542603 C-120.21774448 88.57315804 -120.21774448 88.57315804 -124.20861816 85.64904785 C-126 83 -126 83 -126.625 80 C-125.74154564 75.75941905 -124.51068011 74.57227271 -121 72 C-117.01719827 71.25277507 -113.07909155 71.33786335 -109.03710938 71.38476562 C-107.82521439 71.37921661 -106.6133194 71.3736676 -105.36470032 71.36795044 C-102.04807448 71.35817272 -98.73301104 71.37073882 -95.41655159 71.39423561 C-91.94221464 71.41437359 -88.46791124 71.40846353 -84.99353027 71.40612793 C-79.15944746 71.40618147 -73.32568885 71.42591917 -67.49169922 71.45800781 C-60.75182035 71.49489948 -54.01236608 71.50368309 -47.27239943 71.4967103 C-40.78235626 71.49039966 -34.29245831 71.5011699 -27.80244446 71.52067566 C-25.04337999 71.52883916 -22.28438986 71.53156115 -19.52531433 71.52998352 C-15.67101568 71.5289394 -11.81710004 71.5531423 -7.96289062 71.58007812 C-6.81987991 71.57714752 -5.6768692 71.57421692 -4.4992218 71.57119751 C-3.44780502 71.5825473 -2.39638824 71.59389709 -1.31311035 71.60559082 C-0.40242043 71.60931953 0.5082695 71.61304825 1.44655609 71.61688995 C4.51819419 72.07774809 6.45236982 73.26625229 9 75 C9.05090046 67.33197885 9.08581765 59.66400164 9.10986328 51.99584961 C9.11989248 49.38971325 9.13351911 46.78358807 9.15087891 44.17749023 C9.1752626 40.42168411 9.18651424 36.66602737 9.1953125 32.91015625 C9.20563507 31.75354996 9.21595764 30.59694366 9.22659302 29.4052887 C9.22784885 20.25672793 8.64354826 12.64519098 3.375 4.9375 C2.74335938 3.99777344 2.11171875 3.05804688 1.4609375 2.08984375 C0.97882813 1.40019531 0.49671875 0.71054688 0 0 Z " fill="#FEA625" transform="translate(294,80)"/>
<path d="M0 0 C5.86580643 2.95400324 10.64556565 8.08319408 13.4765625 13.9921875 C14.66655355 17.65113195 15.12251152 21.33530108 15.65234375 25.13671875 C16.12166807 27.90991717 16.12166807 27.90991717 19.3125 29.5625 C22.07984057 29.76771395 24.75498249 29.86348013 27.5234375 29.87109375 C29.17708683 29.8962556 30.83073258 29.92165359 32.484375 29.94726562 C35.08690449 29.97599166 37.68937177 30.00001351 40.29199219 30.01879883 C42.80696894 30.04049611 45.32121477 30.07993952 47.8359375 30.12109375 C48.99710587 30.12126747 48.99710587 30.12126747 50.18173218 30.1214447 C54.71867547 30.20426485 57.71121916 30.73242787 61.3125 33.5625 C63.41064417 37.75878834 62.53938527 43.21284849 62.55273438 47.82885742 C62.56241423 49.85702939 62.59342532 51.88417642 62.625 53.91210938 C62.63273437 55.83700195 62.63273437 55.83700195 62.640625 57.80078125 C62.6499707 58.97680908 62.65931641 60.15283691 62.66894531 61.36450195 C62.27482939 64.90047759 61.48885611 66.76874468 59.3125 69.5625 C56.24272173 70.58575942 54.14494355 70.69310974 50.92945862 70.70294189 C49.25331985 70.71150711 49.25331985 70.71150711 47.5433197 70.72024536 C46.31674149 70.72136322 45.09016327 70.72248108 43.82641602 70.72363281 C41.88955933 70.73108017 41.88955933 70.73108017 39.91357422 70.73867798 C36.37020838 70.75179322 32.82686148 70.75824493 29.28347516 70.76268864 C27.07011933 70.76562008 24.85676868 70.76972497 22.64341545 70.77419281 C15.71933598 70.7878639 8.79526834 70.79753311 1.8711763 70.8013947 C-6.12394962 70.80587811 -14.11890481 70.82344063 -22.1139788 70.8523953 C-28.29324744 70.87399807 -34.47246798 70.88409819 -40.65177399 70.88543582 C-44.3429887 70.88648464 -48.03404283 70.89240879 -51.72521782 70.91025543 C-55.84092486 70.92976819 -59.95627337 70.9254528 -64.07202148 70.91894531 C-65.29657547 70.9281601 -66.52112946 70.93737488 -67.78279114 70.9468689 C-68.9030368 70.94129974 -70.02328247 70.93573059 -71.17747498 70.92999268 C-72.63728114 70.93219252 -72.63728114 70.93219252 -74.12657833 70.9344368 C-77.15332321 70.49484592 -78.50392524 69.67796467 -80.6875 67.5625 C-82.34435067 62.59194799 -81.99088389 57.42739453 -82.03759766 52.22070312 C-82.05415751 50.86864001 -82.08144924 49.51666446 -82.11962891 48.16503906 C-82.17457871 46.20691461 -82.193166 44.2478772 -82.2109375 42.2890625 C-82.23075684 41.11939941 -82.25057617 39.94973633 -82.27099609 38.74462891 C-81.48529728 34.45977605 -80.23026248 33.06961022 -76.6875 30.5625 C-73.68523838 30.0793796 -71.24032646 29.88614132 -68.24609375 29.92578125 C-67.44140152 29.91540329 -66.63670929 29.90502533 -65.80763245 29.89433289 C-63.24631698 29.86471754 -60.68645528 29.86801662 -58.125 29.875 C-55.56038255 29.86609758 -52.99615161 29.85011614 -50.43165588 29.8235321 C-48.83906018 29.80865549 -47.24631367 29.80479113 -45.65367126 29.81330872 C-40.32894618 29.84610818 -40.32894618 29.84610818 -35.6875 27.5625 C-34.76068375 24.50390961 -34.76068375 24.50390961 -34.3125 20.9375 C-32.45812162 11.23920022 -28.38528698 6.38515842 -20.51953125 0.69140625 C-14.57992042 -2.96860981 -6.33454858 -2.42365337 0 0 Z " fill="#EE524F" transform="translate(201.6875,33.4375)"/>
<path d="M0 0 C2.56450613 0.70397644 3.81261207 1.75239207 5.76956272 3.54573345 C6.46674978 4.1831415 7.16393684 4.82054955 7.88225079 5.47727299 C11.75485745 9.15973677 15.5575446 12.90567384 19.33155918 16.68899822 C20.66226444 18.017075 20.66226444 18.017075 22.01985264 19.37198162 C24.42827572 21.77678311 26.83446028 24.18377958 29.23947692 26.59198499 C31.76391023 29.11896704 34.29080164 31.64348925 36.81729221 34.16841412 C41.05122214 38.40053166 45.2830542 42.63473831 49.51368809 46.87015057 C54.40614814 51.76807259 59.30222865 56.66235339 64.20016378 61.55479985 C68.41361109 65.76371462 72.62511353 69.97456799 76.83498484 74.18705958 C79.34618012 76.69981414 81.85804696 79.21188734 84.37167263 81.72221088 C87.16585109 84.51297368 89.95594553 87.307797 92.74562168 90.10306072 C93.58037525 90.93579006 94.41512882 91.7685194 95.27517796 92.62648296 C96.03067936 93.38480419 96.78618076 94.14312542 97.56457615 94.92442608 C98.55420557 95.91462104 98.55420557 95.91462104 99.56382751 96.92481995 C102.22156377 99.80231867 102.60485922 102.4421585 102.56227207 106.34598064 C101.37007851 111.91606532 96.2645066 115.59021228 92.08570957 119.07254314 C88.12734073 121.05172757 86.46701128 121.52182518 82.08570957 120.57254314 C79.85857582 118.8459177 79.85857582 118.8459177 77.43191624 116.59326458 C76.54815878 115.77436623 75.66440132 114.95546787 74.75386333 114.11175442 C70.71537839 110.26843525 66.7373353 106.37167993 62.79640293 102.42850018 C61.92848118 101.56393703 61.06055943 100.69937389 60.16633701 99.80861187 C57.8199627 97.47002812 55.47581498 95.12926213 53.13301253 92.78710318 C51.66645791 91.32126467 50.19919135 89.85614262 48.73167706 88.39126492 C43.60572199 83.27451135 38.48230477 78.15523284 33.36134434 73.03348064 C28.59422373 68.26575605 23.82151531 63.50367525 19.04623979 58.74411976 C14.93293907 54.64387672 10.82348463 50.53980579 6.71702772 46.43270862 C4.26974022 43.98516622 1.82092613 41.53920062 -0.63177586 39.09708309 C-3.35661336 36.38369028 -6.0734397 33.66236447 -8.78953457 30.94021893 C-9.60244457 30.13292843 -10.41535458 29.32563793 -11.25289822 28.49388409 C-11.98868099 27.75390682 -12.72446377 27.01392956 -13.48254299 26.25152874 C-14.12494962 25.60966688 -14.76735624 24.96780502 -15.42922974 24.30649281 C-17.55484193 21.82463832 -17.91285274 19.5817084 -18.41429043 16.38504314 C-17.69351192 10.889107 -14.79292693 8.32895371 -10.91429043 4.57254314 C-10.10991543 3.74754314 -9.30554043 2.92254314 -8.47679043 2.07254314 C-5.62020874 0.40039776 -3.32432661 -0.18182314 0 0 Z " fill="#747474" transform="translate(361.9142904281616,255.42745685577393)"/>
<path d="M0 0 C2.56450613 0.70397644 3.81261207 1.75239207 5.76956272 3.54573345 C6.46674978 4.1831415 7.16393684 4.82054955 7.88225079 5.47727299 C11.75485745 9.15973677 15.5575446 12.90567384 19.33155918 16.68899822 C20.66226444 18.017075 20.66226444 18.017075 22.01985264 19.37198162 C24.42827572 21.77678311 26.83446028 24.18377958 29.23947692 26.59198499 C31.76391023 29.11896704 34.29080164 31.64348925 36.81729221 34.16841412 C41.05122214 38.40053166 45.2830542 42.63473831 49.51368809 46.87015057 C54.40614814 51.76807259 59.30222865 56.66235339 64.20016378 61.55479985 C68.41361109 65.76371462 72.62511353 69.97456799 76.83498484 74.18705958 C79.34618012 76.69981414 81.85804696 79.21188734 84.37167263 81.72221088 C87.16585109 84.51297368 89.95594553 87.307797 92.74562168 90.10306072 C93.58037525 90.93579006 94.41512882 91.7685194 95.27517796 92.62648296 C96.03067936 93.38480419 96.78618076 94.14312542 97.56457615 94.92442608 C98.55420557 95.91462104 98.55420557 95.91462104 99.56382751 96.92481995 C101.83650085 99.38541573 102.07697713 100.45683826 102.33570957 103.88504314 C101.92794466 109.89957564 99.36992832 112.44126252 95.02320957 116.32254314 C91.54483188 119.30215905 88.97645737 121.23637546 84.19004822 121.17207813 C81.22445428 120.32716787 79.66184795 118.70321917 77.41629124 116.60498333 C76.53478964 115.78439308 75.65328804 114.96380283 74.74507427 114.11834621 C70.71859786 110.26381058 66.73672477 106.37106905 62.79640293 102.42850018 C61.92848118 101.56393703 61.06055943 100.69937389 60.16633701 99.80861187 C57.8199627 97.47002812 55.47581498 95.12926213 53.13301253 92.78710318 C51.66645791 91.32126467 50.19919135 89.85614262 48.73167706 88.39126492 C43.60572199 83.27451135 38.48230477 78.15523284 33.36134434 73.03348064 C28.59422373 68.26575605 23.82151531 63.50367525 19.04623979 58.74411976 C14.93293907 54.64387672 10.82348463 50.53980579 6.71702772 46.43270862 C4.26974022 43.98516622 1.82092613 41.53920062 -0.63177586 39.09708309 C-3.35661336 36.38369028 -6.0734397 33.66236447 -8.78953457 30.94021893 C-9.60244457 30.13292843 -10.41535458 29.32563793 -11.25289822 28.49388409 C-11.98868099 27.75390682 -12.72446377 27.01392956 -13.48254299 26.25152874 C-14.12494962 25.60966688 -14.76735624 24.96780502 -15.42922974 24.30649281 C-17.55484193 21.82463832 -17.91285274 19.5817084 -18.41429043 16.38504314 C-17.69351192 10.889107 -14.79292693 8.32895371 -10.91429043 4.57254314 C-10.10991543 3.74754314 -9.30554043 2.92254314 -8.47679043 2.07254314 C-5.62020874 0.40039776 -3.32432661 -0.18182314 0 0 Z " fill="#747474" transform="translate(257.9142904281616,359.4274568557739)"/>
<path d="M0 0 C1.73618591 -0.00006042 1.73618591 -0.00006042 3.50744629 -0.00012207 C5.95179684 0.00523347 8.39614694 0.02281732 10.84033203 0.05175781 C14.58028833 0.09359939 18.31844293 0.09282635 22.05859375 0.0859375 C24.43490834 0.09643055 26.81121365 0.10936926 29.1875 0.125 C30.3053186 0.12520142 31.42313721 0.12540283 32.5748291 0.12561035 C34.14170471 0.14947815 34.14170471 0.14947815 35.74023438 0.17382812 C37.11326721 0.18645691 37.11326721 0.18645691 38.51403809 0.19934082 C41.63433226 0.676399 43.54257635 1.76301627 46.09375 3.59375 C47.34331796 6.09288591 47.23417304 7.81015175 47.25488281 10.60668945 C47.26449036 11.65149979 47.2740979 12.69631012 47.28399658 13.77278137 C47.28824646 14.90608383 47.29249634 16.03938629 47.296875 17.20703125 C47.30257507 18.36873337 47.30827515 19.53043549 47.31414795 20.7273407 C47.32360796 23.18955573 47.33013589 25.65178348 47.33398438 28.11401367 C47.3436831 31.88027073 47.37469508 35.64598065 47.40625 39.41210938 C47.41278055 41.80208009 47.41803082 44.19205471 47.421875 46.58203125 C47.4342218 47.70926102 47.4465686 48.83649078 47.45928955 49.99787903 C47.45628845 51.05214584 47.45328735 52.10641266 47.45019531 53.19262695 C47.45566376 54.57923271 47.45566376 54.57923271 47.46124268 55.99385071 C47.01274027 59.16686932 46.00648083 61.03811993 44.09375 63.59375 C41.10007982 64.59164006 39.07986991 64.731735 35.95141602 64.75488281 C34.37947227 64.76929413 34.37947227 64.76929413 32.77577209 64.78399658 C31.64449387 64.78824646 30.51321564 64.79249634 29.34765625 64.796875 C28.18499741 64.80257507 27.02233856 64.80827515 25.82444763 64.81414795 C23.36401276 64.8235985 20.90356524 64.83013215 18.44311523 64.83398438 C14.67474403 64.84370231 10.90691532 64.87473101 7.13867188 64.90625 C4.75000324 64.9127788 2.36133071 64.91802975 -0.02734375 64.921875 C-1.15659775 64.9342218 -2.28585175 64.9465686 -3.44932556 64.95928955 C-4.50044022 64.95628845 -5.55155487 64.95328735 -6.63452148 64.95019531 C-8.01993385 64.95566376 -8.01993385 64.95566376 -9.43333435 64.96124268 C-12.40517716 64.51960591 -13.75266834 63.66308457 -15.90625 61.59375 C-16.89874837 58.6162549 -17.05561356 56.57901066 -17.09912109 53.46728516 C-17.12321548 51.90018295 -17.12321548 51.90018295 -17.14779663 50.30142212 C-17.19227343 45.53363736 -17.23329304 40.76599045 -17.25634766 35.99804688 C-17.27292624 33.48200239 -17.30024082 30.96600536 -17.33837891 28.45019531 C-17.39307216 24.82331909 -17.41500922 21.19754524 -17.4296875 17.5703125 C-17.45235687 16.44621979 -17.47502625 15.32212708 -17.49838257 14.16397095 C-17.48584185 9.53919286 -17.3915723 6.46515725 -15.11767578 2.38232422 C-10.1738313 -0.37110475 -5.56894735 -0.08168084 0 0 Z " fill="#000000" transform="translate(96.90625,343.40625)"/>
<path d="M0 0 C1.73618591 -0.00006042 1.73618591 -0.00006042 3.50744629 -0.00012207 C5.95179684 0.00523347 8.39614694 0.02281732 10.84033203 0.05175781 C14.58028833 0.09359939 18.31844293 0.09282635 22.05859375 0.0859375 C24.43490834 0.09643055 26.81121365 0.10936926 29.1875 0.125 C30.3053186 0.12520142 31.42313721 0.12540283 32.5748291 0.12561035 C34.14170471 0.14947815 34.14170471 0.14947815 35.74023438 0.17382812 C37.11326721 0.18645691 37.11326721 0.18645691 38.51403809 0.19934082 C41.63433226 0.676399 43.54257635 1.76301627 46.09375 3.59375 C47.34331796 6.09288591 47.23417304 7.81015175 47.25488281 10.60668945 C47.26449036 11.65149979 47.2740979 12.69631012 47.28399658 13.77278137 C47.28824646 14.90608383 47.29249634 16.03938629 47.296875 17.20703125 C47.30257507 18.36873337 47.30827515 19.53043549 47.31414795 20.7273407 C47.32360796 23.18955573 47.33013589 25.65178348 47.33398438 28.11401367 C47.3436831 31.88027073 47.37469508 35.64598065 47.40625 39.41210938 C47.41278055 41.80208009 47.41803082 44.19205471 47.421875 46.58203125 C47.4342218 47.70926102 47.4465686 48.83649078 47.45928955 49.99787903 C47.45628845 51.05214584 47.45328735 52.10641266 47.45019531 53.19262695 C47.45566376 54.57923271 47.45566376 54.57923271 47.46124268 55.99385071 C47.01274027 59.16686932 46.00648083 61.03811993 44.09375 63.59375 C41.10007982 64.59164006 39.07986991 64.731735 35.95141602 64.75488281 C34.37947227 64.76929413 34.37947227 64.76929413 32.77577209 64.78399658 C31.64449387 64.78824646 30.51321564 64.79249634 29.34765625 64.796875 C28.18499741 64.80257507 27.02233856 64.80827515 25.82444763 64.81414795 C23.36401276 64.8235985 20.90356524 64.83013215 18.44311523 64.83398438 C14.67474403 64.84370231 10.90691532 64.87473101 7.13867188 64.90625 C4.75000324 64.9127788 2.36133071 64.91802975 -0.02734375 64.921875 C-1.15659775 64.9342218 -2.28585175 64.9465686 -3.44932556 64.95928955 C-4.50044022 64.95628845 -5.55155487 64.95328735 -6.63452148 64.95019531 C-8.01993385 64.95566376 -8.01993385 64.95566376 -9.43333435 64.96124268 C-12.40517716 64.51960591 -13.75266834 63.66308457 -15.90625 61.59375 C-16.89874837 58.6162549 -17.05561356 56.57901066 -17.09912109 53.46728516 C-17.12321548 51.90018295 -17.12321548 51.90018295 -17.14779663 50.30142212 C-17.19227343 45.53363736 -17.23329304 40.76599045 -17.25634766 35.99804688 C-17.27292624 33.48200239 -17.30024082 30.96600536 -17.33837891 28.45019531 C-17.39307216 24.82331909 -17.41500922 21.19754524 -17.4296875 17.5703125 C-17.45235687 16.44621979 -17.47502625 15.32212708 -17.49838257 14.16397095 C-17.48584185 9.53919286 -17.3915723 6.46515725 -15.11767578 2.38232422 C-10.1738313 -0.37110475 -5.56894735 -0.08168084 0 0 Z " fill="#000000" transform="translate(96.90625,247.40625)"/>
<path d="M0 0 C1.73618591 -0.00006042 1.73618591 -0.00006042 3.50744629 -0.00012207 C5.95179684 0.00523347 8.39614694 0.02281732 10.84033203 0.05175781 C14.58028833 0.09359939 18.31844293 0.09282635 22.05859375 0.0859375 C24.43490834 0.09643055 26.81121365 0.10936926 29.1875 0.125 C30.3053186 0.12520142 31.42313721 0.12540283 32.5748291 0.12561035 C34.14170471 0.14947815 34.14170471 0.14947815 35.74023438 0.17382812 C37.11326721 0.18645691 37.11326721 0.18645691 38.51403809 0.19934082 C41.63433226 0.676399 43.54257635 1.76301627 46.09375 3.59375 C47.34331796 6.09288591 47.23417304 7.81015175 47.25488281 10.60668945 C47.26449036 11.65149979 47.2740979 12.69631012 47.28399658 13.77278137 C47.28824646 14.90608383 47.29249634 16.03938629 47.296875 17.20703125 C47.30257507 18.36873337 47.30827515 19.53043549 47.31414795 20.7273407 C47.32360796 23.18955573 47.33013589 25.65178348 47.33398438 28.11401367 C47.3436831 31.88027073 47.37469508 35.64598065 47.40625 39.41210938 C47.41278055 41.80208009 47.41803082 44.19205471 47.421875 46.58203125 C47.4342218 47.70926102 47.4465686 48.83649078 47.45928955 49.99787903 C47.45628845 51.05214584 47.45328735 52.10641266 47.45019531 53.19262695 C47.45566376 54.57923271 47.45566376 54.57923271 47.46124268 55.99385071 C47.01274027 59.16686932 46.00648083 61.03811993 44.09375 63.59375 C41.10007982 64.59164006 39.07986991 64.731735 35.95141602 64.75488281 C34.37947227 64.76929413 34.37947227 64.76929413 32.77577209 64.78399658 C31.64449387 64.78824646 30.51321564 64.79249634 29.34765625 64.796875 C28.18499741 64.80257507 27.02233856 64.80827515 25.82444763 64.81414795 C23.36401276 64.8235985 20.90356524 64.83013215 18.44311523 64.83398438 C14.67474403 64.84370231 10.90691532 64.87473101 7.13867188 64.90625 C4.75000324 64.9127788 2.36133071 64.91802975 -0.02734375 64.921875 C-1.15659775 64.9342218 -2.28585175 64.9465686 -3.44932556 64.95928955 C-4.50044022 64.95628845 -5.55155487 64.95328735 -6.63452148 64.95019531 C-8.01993385 64.95566376 -8.01993385 64.95566376 -9.43333435 64.96124268 C-12.40517716 64.51960591 -13.75266834 63.66308457 -15.90625 61.59375 C-16.89874837 58.6162549 -17.05561356 56.57901066 -17.09912109 53.46728516 C-17.12321548 51.90018295 -17.12321548 51.90018295 -17.14779663 50.30142212 C-17.19227343 45.53363736 -17.23329304 40.76599045 -17.25634766 35.99804688 C-17.27292624 33.48200239 -17.30024082 30.96600536 -17.33837891 28.45019531 C-17.39307216 24.82331909 -17.41500922 21.19754524 -17.4296875 17.5703125 C-17.45235687 16.44621979 -17.47502625 15.32212708 -17.49838257 14.16397095 C-17.48584185 9.53919286 -17.3915723 6.46515725 -15.11767578 2.38232422 C-10.1738313 -0.37110475 -5.56894735 -0.08168084 0 0 Z " fill="#000000" transform="translate(96.90625,151.40625)"/>
<path d="M0 0 C0.72445312 0.48210937 1.44890625 0.96421875 2.1953125 1.4609375 C3.16210938 2.09257812 4.12890625 2.72421875 5.125 3.375 C6.07632813 4.00148438 7.02765625 4.62796875 8.0078125 5.2734375 C13.24060957 8.29288437 17.7433708 9.24996858 23.75778198 9.2784729 C24.41219336 9.2842653 25.06660473 9.2900577 25.74084675 9.29602563 C27.91956721 9.31294381 30.09807479 9.31589498 32.27685547 9.31884766 C33.84422825 9.3281515 35.41159611 9.33832086 36.97895813 9.34928894 C41.22432475 9.37655157 45.46965826 9.39172726 49.71508932 9.40471697 C54.15540451 9.42036386 58.59565223 9.44714912 63.03591919 9.4727478 C71.43990301 9.51950798 79.84389956 9.55626546 88.24794686 9.58942068 C97.81747406 9.62766157 107.38693347 9.67706658 116.95640349 9.72740483 C136.63755225 9.83068363 156.31874393 9.91995721 176 10 C176.48459371 11.99356079 176.96918742 13.98712158 177.45378113 15.98068237 C178.14147836 18.52303162 179.1232826 20.77755457 180.3125 23.125 C180.70050781 23.91132813 181.08851563 24.69765625 181.48828125 25.5078125 C183.36409701 28.73975326 183.36409701 28.73975326 188 34 C178.76 34 169.52 34 160 34 C159.01 32.02 158.02 30.04 157 28 C153.90323293 26.96774431 151.7760597 26.87282158 148.52998352 26.86869812 C147.39309586 26.86468994 146.25620819 26.86068176 145.08486938 26.85655212 C143.83652313 26.85708084 142.58817688 26.85760956 141.30200195 26.8581543 C139.28480521 26.8528208 137.26760847 26.84748134 135.25041234 26.84191763 C133.08050325 26.83671929 130.91060022 26.83380654 128.74068642 26.83133507 C124.21414508 26.82542045 119.68768219 26.80887468 115.16117859 26.78999329 C113.61065011 26.78365581 112.06012158 26.77733019 110.50959301 26.77101612 C109.73304092 26.76785031 108.95648883 26.7646845 108.15640485 26.76142275 C97.61901373 26.71937611 87.08165886 26.6863856 76.54418945 26.67407227 C69.43575553 26.66568053 62.32751569 26.64314752 55.21917886 26.6047166 C51.45963768 26.5849906 47.70038639 26.5725397 43.94079018 26.57755089 C40.40049965 26.58221217 36.86075765 26.56831236 33.32057762 26.54053879 C31.41133395 26.53038232 29.50201699 26.53985473 27.59277344 26.55003357 C19.36280232 26.46088536 13.89798906 25.40300632 7.5390625 19.8515625 C1.87046044 13.25747439 -0.35529672 8.8824181 0 0 Z " fill="#FEA625" transform="translate(48,414)"/>
<path d="M0 0 C1.89510699 -0.08160748 3.79124504 -0.13946459 5.6875 -0.1875 C6.74324219 -0.22230469 7.79898438 -0.25710937 8.88671875 -0.29296875 C12.39065615 0.03676187 14.19698511 0.91415288 17 3 C19.09814417 7.19628834 18.22688527 12.65034849 18.24023438 17.26635742 C18.24991423 19.29452939 18.28092532 21.32167642 18.3125 23.34960938 C18.32023437 25.27450195 18.32023437 25.27450195 18.328125 27.23828125 C18.3374707 28.41430908 18.34681641 29.59033691 18.35644531 30.80200195 C17.96232939 34.33797759 17.17635611 36.20624468 15 39 C11.93022173 40.02325942 9.83244355 40.13060974 6.61695862 40.14044189 C5.49953278 40.14615204 4.38210693 40.15186218 3.2308197 40.15774536 C2.00424149 40.15886322 0.77766327 40.15998108 -0.48608398 40.16113281 C-2.42294067 40.16858017 -2.42294067 40.16858017 -4.39892578 40.17617798 C-7.94229162 40.18929322 -11.48563852 40.19574493 -15.02902484 40.20018864 C-17.24238067 40.20312008 -19.45573132 40.20722497 -21.66908455 40.21169281 C-28.59316402 40.2253639 -35.51723166 40.23503311 -42.4413237 40.2388947 C-50.43644962 40.24337811 -58.43140481 40.26094063 -66.4264788 40.2898953 C-72.60574744 40.31149807 -78.78496798 40.32159819 -84.96427399 40.32293582 C-88.6554887 40.32398464 -92.34654283 40.32990879 -96.03771782 40.34775543 C-100.15342486 40.36726819 -104.26877337 40.3629528 -108.38452148 40.35644531 C-109.60907547 40.3656601 -110.83362946 40.37487488 -112.09529114 40.3843689 C-113.77565964 40.37601517 -113.77565964 40.37601517 -115.48997498 40.36749268 C-116.94978114 40.36969252 -116.94978114 40.36969252 -118.43907833 40.3719368 C-121.46582321 39.93234592 -122.81642524 39.11546467 -125 37 C-126.09506492 33.71480525 -126.09960608 31.26336585 -126.0625 27.8125 C-126.04896484 26.18248047 -126.04896484 26.18248047 -126.03515625 24.51953125 C-126.02355469 23.68808594 -126.01195313 22.85664062 -126 22 C-125.27256025 22.16210339 -124.54512051 22.32420677 -123.79563713 22.49122238 C-121.21061704 22.96166983 -118.8907519 23.13066553 -116.26980591 23.14044189 C-114.88633469 23.14900711 -114.88633469 23.14900711 -113.47491455 23.15774536 C-112.47530701 23.15886322 -111.47569946 23.15998108 -110.44580078 23.16113281 C-108.85223251 23.16858017 -108.85223251 23.16858017 -107.22647095 23.17617798 C-103.71607819 23.19076927 -100.20573059 23.19759598 -96.6953125 23.203125 C-94.25300088 23.2088782 -91.81068928 23.21463592 -89.36837769 23.22039795 C-84.24900095 23.23089879 -79.12963989 23.23674771 -74.01025391 23.24023438 C-67.45425045 23.24572227 -60.89845434 23.26976072 -54.34251595 23.29820633 C-49.29816076 23.3168381 -44.25385553 23.32203857 -39.20946884 23.32357025 C-36.79257954 23.32659522 -34.37569109 23.33461845 -31.9588356 23.34775543 C-28.57672615 23.36482945 -25.19512347 23.36293227 -21.81298828 23.35644531 C-20.31964966 23.37026749 -20.31964966 23.37026749 -18.79614258 23.3843689 C-11.96936034 23.34339768 -6.94471723 22.55725444 -1.625 17.9375 C1.50223758 12.28441668 1.44800267 6.18993506 0 0 Z " fill="#E43834" transform="translate(246,64)"/>
<path d="M0 0 C1.21189499 -0.00554901 2.42378998 -0.01109802 3.67240906 -0.01681519 C6.98903489 -0.0265929 10.30409834 -0.01402681 13.62055779 0.00946999 C17.09489473 0.02960797 20.56919813 0.02369791 24.0435791 0.0213623 C29.87766191 0.02141585 35.71142052 0.04115355 41.54541016 0.07324219 C48.28528902 0.11013385 55.0247433 0.11891746 61.76470995 0.11194468 C68.25475312 0.10563404 74.74465106 0.11640428 81.23466492 0.13591003 C83.99372938 0.14407354 86.75271952 0.14679553 89.51179504 0.1452179 C93.3660937 0.14417378 97.22000933 0.16837667 101.07421875 0.1953125 C102.21722946 0.1923819 103.36024017 0.18945129 104.53788757 0.18643188 C106.11501274 0.20345657 106.11501274 0.20345657 107.72399902 0.2208252 C108.63468895 0.22455391 109.54537888 0.22828262 110.48366547 0.23212433 C113.59447653 0.69885985 115.49506771 1.79130185 118.03710938 3.61523438 C119.44168674 6.42438911 119.28606095 8.50333972 119.03710938 11.61523438 C117.25726533 14.75115008 116.51402731 15.45626173 113.03710938 16.61523438 C111.34843891 16.71551059 109.65612165 16.75880484 107.96450806 16.76913452 C106.91584061 16.77773499 105.86717316 16.78633545 104.78672791 16.79519653 C103.06142601 16.80158646 103.06142601 16.80158646 101.30126953 16.80810547 C100.0896666 16.81628296 98.87806366 16.82446045 97.62974548 16.83288574 C93.61189097 16.85774208 89.59407404 16.87440688 85.57617188 16.88867188 C84.19225432 16.89403262 82.80833683 16.89941013 81.4244194 16.90480423 C75.66823796 16.92642502 69.9120593 16.9451623 64.15584755 16.95642662 C55.90908434 16.97267193 47.66279179 17.00587217 39.416206 17.06282747 C33.61569067 17.10152278 27.81530126 17.12105862 22.01466024 17.12634718 C18.55074417 17.13000054 15.08733051 17.14201914 11.62355423 17.17444992 C7.75947481 17.21011182 3.89598698 17.2061607 0.03173828 17.19873047 C-1.11441452 17.2151358 -2.26056732 17.23154114 -3.44145203 17.2484436 C-11.18087486 17.18737957 -11.18087486 17.18737957 -15.17349243 14.26626587 C-16.96289062 11.61523438 -16.96289062 11.61523438 -17.58789062 8.61523438 C-15.62891684 -0.78783981 -7.85308355 -0.09112545 0 0 Z " fill="#010000" transform="translate(184.962890625,247.384765625)"/>
<path d="M0 0 C1.21189499 -0.00554901 2.42378998 -0.01109802 3.67240906 -0.01681519 C6.98903489 -0.0265929 10.30409834 -0.01402681 13.62055779 0.00946999 C17.09489473 0.02960797 20.56919813 0.02369791 24.0435791 0.0213623 C29.87766191 0.02141585 35.71142052 0.04115355 41.54541016 0.07324219 C48.28528902 0.11013385 55.0247433 0.11891746 61.76470995 0.11194468 C68.25475312 0.10563404 74.74465106 0.11640428 81.23466492 0.13591003 C83.99372938 0.14407354 86.75271952 0.14679553 89.51179504 0.1452179 C93.3660937 0.14417378 97.22000933 0.16837667 101.07421875 0.1953125 C102.21722946 0.1923819 103.36024017 0.18945129 104.53788757 0.18643188 C106.11501274 0.20345657 106.11501274 0.20345657 107.72399902 0.2208252 C108.63468895 0.22455391 109.54537888 0.22828262 110.48366547 0.23212433 C113.59447653 0.69885985 115.49506771 1.79130185 118.03710938 3.61523438 C119.44168674 6.42438911 119.28606095 8.50333972 119.03710938 11.61523438 C117.25726533 14.75115008 116.51402731 15.45626173 113.03710938 16.61523438 C111.34843891 16.71551059 109.65612165 16.75880484 107.96450806 16.76913452 C106.91584061 16.77773499 105.86717316 16.78633545 104.78672791 16.79519653 C103.06142601 16.80158646 103.06142601 16.80158646 101.30126953 16.80810547 C100.0896666 16.81628296 98.87806366 16.82446045 97.62974548 16.83288574 C93.61189097 16.85774208 89.59407404 16.87440688 85.57617188 16.88867188 C84.19225432 16.89403262 82.80833683 16.89941013 81.4244194 16.90480423 C75.66823796 16.92642502 69.9120593 16.9451623 64.15584755 16.95642662 C55.90908434 16.97267193 47.66279179 17.00587217 39.416206 17.06282747 C33.61569067 17.10152278 27.81530126 17.12105862 22.01466024 17.12634718 C18.55074417 17.13000054 15.08733051 17.14201914 11.62355423 17.17444992 C7.75947481 17.21011182 3.89598698 17.2061607 0.03173828 17.19873047 C-1.11441452 17.2151358 -2.26056732 17.23154114 -3.44145203 17.2484436 C-11.18087486 17.18737957 -11.18087486 17.18737957 -15.17349243 14.26626587 C-16.96289062 11.61523438 -16.96289062 11.61523438 -17.58789062 8.61523438 C-15.62891684 -0.78783981 -7.85308355 -0.09112545 0 0 Z " fill="#010000" transform="translate(184.962890625,151.384765625)"/>
<path d="M0 0 C3.63303084 1.69586126 5.94549046 3.73800488 8.75 6.625 C9.54921875 7.44226563 10.3484375 8.25953125 11.171875 9.1015625 C11.77515625 9.72804688 12.3784375 10.35453125 13 11 C11.39140496 15.01571255 8.56359635 17.70479614 5.54052734 20.68652344 C4.98428177 21.24306107 4.42803619 21.79959869 3.85493469 22.3730011 C2.01997095 24.20657442 0.17803069 26.03296672 -1.6640625 27.859375 C-2.93959389 29.13117525 -4.21468367 30.40341853 -5.48934937 31.67608643 C-8.84195395 35.02106258 -12.20052173 38.35998851 -15.56036377 41.69769287 C-18.98917456 45.10602831 -22.41231573 48.52004745 -25.8359375 51.93359375 C-32.55175272 58.62797297 -39.27388094 65.31597466 -46 72 C-49.63303084 70.30413874 -51.94549046 68.26199512 -54.75 65.375 C-55.54921875 64.55773437 -56.3484375 63.74046875 -57.171875 62.8984375 C-57.77515625 62.27195312 -58.3784375 61.64546875 -59 61 C-57.39140496 56.98428745 -54.56359635 54.29520386 -51.54052734 51.31347656 C-50.98428177 50.75693893 -50.42803619 50.20040131 -49.85493469 49.6269989 C-48.01997095 47.79342558 -46.17803069 45.96703328 -44.3359375 44.140625 C-43.06040611 42.86882475 -41.78531633 41.59658147 -40.51065063 40.32391357 C-37.15804605 36.97893742 -33.79947827 33.64001149 -30.43963623 30.30230713 C-27.01082544 26.89397169 -23.58768427 23.47995255 -20.1640625 20.06640625 C-13.44824728 13.37202703 -6.72611906 6.68402534 0 0 Z " fill="#DFDFDF" transform="translate(375,332)"/>
<path d="M0 0 C4.01571255 1.60859504 6.70479614 4.43640365 9.68652344 7.45947266 C10.24306107 8.01571823 10.79959869 8.57196381 11.3730011 9.14506531 C13.20657442 10.98002905 15.03296672 12.82196931 16.859375 14.6640625 C18.13117525 15.93959389 19.40341853 17.21468367 20.67608643 18.48934937 C24.02106258 21.84195395 27.35998851 25.20052173 30.69769287 28.56036377 C34.10602831 31.98917456 37.52004745 35.41231573 40.93359375 38.8359375 C47.62797297 45.55175272 54.31597466 52.27388094 61 59 C59.0338775 63.34185387 56.28764485 65.85617758 52 68 C49.08839607 68.60658415 47.79674425 68.79461475 45 68 C42.77027893 66.31271362 42.77027893 66.31271362 40.36938477 64.06982422 C39.48864288 63.24996033 38.607901 62.43009644 37.70046997 61.58538818 C33.45300075 57.51892684 29.25055109 53.41302136 25.08984375 49.2578125 C24.19632706 48.36762421 23.30281036 47.47743591 22.38221741 46.56027222 C20.51465934 44.69773543 18.64841543 42.83388007 16.78344727 40.96875 C14.39452118 38.57972108 11.99871135 36.19772047 9.60121822 33.81729317 C7.30128601 31.53111235 5.00850304 29.23778408 2.71484375 26.9453125 C1.85455063 26.0922049 0.99425751 25.23909729 0.1078949 24.36013794 C-0.68060349 23.56856293 -1.46910187 22.77698792 -2.28149414 21.96142578 C-2.97747208 21.26687286 -3.67345001 20.57231995 -4.39051819 19.85671997 C-6.60127724 17.30635845 -6.98122658 15.11968056 -7.5 11.8125 C-6.78869176 6.38877469 -3.80447555 3.73653849 0 0 Z " fill="#606060" transform="translate(247,412)"/>
<path d="M0 0 C4.12429836 2.47017655 7.49943355 5.25048414 10.88793945 8.64501953 C11.80521317 9.55921661 12.72248688 10.4734137 13.66755676 11.41531372 C14.64964693 12.40429928 15.63155076 13.3934699 16.61328125 14.3828125 C17.63327602 15.40400091 18.65364242 16.42481824 19.67436218 17.44528198 C21.80303375 19.57551119 23.92832257 21.70903823 26.05102539 23.84521484 C28.77409725 26.58535125 31.50378157 29.31878279 34.23577595 32.05002022 C36.33868015 34.15319591 38.43897166 36.25896403 40.53838158 38.36562729 C41.54452709 39.37495645 42.55128071 40.38367979 43.55864906 41.39178848 C44.96129956 42.79660144 46.36025922 44.20509667 47.7590332 45.61376953 C48.55590042 46.41444855 49.35276764 47.21512756 50.17378235 48.04006958 C52.64648681 50.69382156 52.97165421 51.6244183 53.25 55.3125 C52.85378568 61.15666122 50.17829062 64.10986735 46 68 C41.98428745 66.39140496 39.29520386 63.56359635 36.31347656 60.54052734 C35.75693893 59.98428177 35.20040131 59.42803619 34.6269989 58.85493469 C32.79342558 57.01997095 30.96703328 55.17803069 29.140625 53.3359375 C27.86882475 52.06040611 26.59658147 50.78531633 25.32391357 49.51065063 C21.97893742 46.15804605 18.64001149 42.79947827 15.30230713 39.43963623 C11.89397169 36.01082544 8.47995255 32.58768427 5.06640625 29.1640625 C-1.62797297 22.44824728 -8.31597466 15.72611906 -15 9 C-11.89754754 2.18334388 -7.56784615 -1.21626099 0 0 Z " fill="#606060" transform="translate(411,256)"/>
<path d="M0 0 C0.7437236 -0.00554901 1.4874472 -0.01109802 2.25370789 -0.01681519 C4.70300491 -0.02859027 7.15044281 -0.00436063 9.59960938 0.02148438 C11.30684322 0.02319615 13.01407969 0.02312912 14.72131348 0.0213623 C18.29574806 0.02301432 21.86955455 0.04168994 25.44384766 0.07324219 C30.02049387 0.11291968 34.59631776 0.11728675 39.17310333 0.10977936 C42.6973623 0.10670656 46.22143716 0.11884115 49.74565125 0.13591003 C51.43290553 0.14293026 53.12018067 0.14606575 54.80744934 0.1452179 C57.16758777 0.14702014 59.52674969 0.16843711 61.88671875 0.1953125 C62.58089401 0.1923819 63.27506927 0.18945129 63.99028015 0.18643188 C68.29005316 0.26179669 71.01585249 0.99361097 74.44335938 3.61523438 C75.84793674 6.42438911 75.69231095 8.50333972 75.44335938 11.61523438 C73.66351533 14.75115008 72.92027731 15.45626173 69.44335938 16.61523438 C66.99135519 16.73133432 64.56661451 16.7932074 62.11376953 16.80810547 C61.37033798 16.81628296 60.62690643 16.82446045 59.86094666 16.83288574 C57.40144654 16.85769286 54.94200387 16.87424193 52.48242188 16.88867188 C51.64190655 16.89399555 50.80139122 16.89931923 49.93540573 16.90480423 C45.48819644 16.93151295 41.04101502 16.9508968 36.59375 16.96533203 C32.91348481 16.97868314 29.23377253 17.00655985 25.55371094 17.04736328 C21.10870856 17.09664655 16.66420849 17.12144728 12.21894455 17.12855911 C10.52604055 17.13527539 8.83314793 17.15050737 7.14039993 17.17444992 C4.77025092 17.20606647 2.40204275 17.20614481 0.03173828 17.19873047 C-1.01423775 17.22333847 -1.01423775 17.22333847 -2.0813446 17.2484436 C-5.90405448 17.19955402 -7.46824976 16.68597115 -10.49185181 14.26626587 C-12.55664062 11.61523438 -12.55664062 11.61523438 -13.18164062 8.61523438 C-11.69131941 1.46169254 -6.60431081 -0.12618512 0 0 Z " fill="#010100" transform="translate(180.556640625,295.384765625)"/>
<path d="M0 0 C0.7437236 -0.00554901 1.4874472 -0.01109802 2.25370789 -0.01681519 C4.70300491 -0.02859027 7.15044281 -0.00436063 9.59960938 0.02148438 C11.30684322 0.02319615 13.01407969 0.02312912 14.72131348 0.0213623 C18.29574806 0.02301432 21.86955455 0.04168994 25.44384766 0.07324219 C30.02049387 0.11291968 34.59631776 0.11728675 39.17310333 0.10977936 C42.6973623 0.10670656 46.22143716 0.11884115 49.74565125 0.13591003 C51.43290553 0.14293026 53.12018067 0.14606575 54.80744934 0.1452179 C57.16758777 0.14702014 59.52674969 0.16843711 61.88671875 0.1953125 C62.58089401 0.1923819 63.27506927 0.18945129 63.99028015 0.18643188 C68.29005316 0.26179669 71.01585249 0.99361097 74.44335938 3.61523438 C75.84793674 6.42438911 75.69231095 8.50333972 75.44335938 11.61523438 C73.66351533 14.75115008 72.92027731 15.45626173 69.44335938 16.61523438 C66.99135519 16.73133432 64.56661451 16.7932074 62.11376953 16.80810547 C61.37033798 16.81628296 60.62690643 16.82446045 59.86094666 16.83288574 C57.40144654 16.85769286 54.94200387 16.87424193 52.48242188 16.88867188 C51.64190655 16.89399555 50.80139122 16.89931923 49.93540573 16.90480423 C45.48819644 16.93151295 41.04101502 16.9508968 36.59375 16.96533203 C32.91348481 16.97868314 29.23377253 17.00655985 25.55371094 17.04736328 C21.10870856 17.09664655 16.66420849 17.12144728 12.21894455 17.12855911 C10.52604055 17.13527539 8.83314793 17.15050737 7.14039993 17.17444992 C4.77025092 17.20606647 2.40204275 17.20614481 0.03173828 17.19873047 C-1.01423775 17.22333847 -1.01423775 17.22333847 -2.0813446 17.2484436 C-5.90405448 17.19955402 -7.46824976 16.68597115 -10.49185181 14.26626587 C-12.55664062 11.61523438 -12.55664062 11.61523438 -13.18164062 8.61523438 C-11.69131941 1.46169254 -6.60431081 -0.12618512 0 0 Z " fill="#010100" transform="translate(180.556640625,199.384765625)"/>
<path d="M0 0 C10.56 0 21.12 0 32 0 C32 10.56 32 21.12 32 32 C21.44 32 10.88 32 0 32 C0 21.44 0 10.88 0 0 Z " fill="#E53935" transform="translate(96,360)"/>
<path d="M0 0 C10.56 0 21.12 0 32 0 C32 10.56 32 21.12 32 32 C21.44 32 10.88 32 0 32 C0 21.44 0 10.88 0 0 Z " fill="#E53935" transform="translate(96,264)"/>
<path d="M0 0 C10.56 0 21.12 0 32 0 C32 10.56 32 21.12 32 32 C21.44 32 10.88 32 0 32 C0 21.44 0 10.88 0 0 Z " fill="#E53935" transform="translate(96,168)"/>
<path d="M0 0 C2.46800047 1.15173355 4.04783565 2.04783565 6 4 C5.89087544 8.3036069 2.57815951 10.8577883 -0.2824707 13.70239258 C-0.83214508 14.2605365 -1.38181946 14.81868042 -1.94815063 15.39373779 C-3.76625207 17.23522795 -5.59533638 19.06531546 -7.42578125 20.89453125 C-8.69302035 22.16886899 -9.95995868 23.44350588 -11.22660828 24.71842957 C-13.88214356 27.38741271 -16.54354688 30.05037949 -19.20874023 32.7097168 C-22.62899225 36.12406199 -26.03061567 39.55632807 -29.42765522 42.99374866 C-32.03809335 45.62998584 -34.65986349 48.25471861 -37.28505516 50.87625694 C-38.54454697 52.13744623 -39.80004009 53.40264164 -41.05147743 54.6718235 C-42.79913791 56.44152653 -44.56183015 58.19473872 -46.3293457 59.94458008 C-46.84638565 60.47488327 -47.3634256 61.00518646 -47.89613342 61.55155945 C-49.36177063 62.98323059 -49.36177063 62.98323059 -52 65 C-54.81474456 64.89170012 -55.65810276 64.30526539 -57.75 62.4375 C-58.1625 61.963125 -58.575 61.48875 -59 61 C-57.39140496 56.98428745 -54.56359635 54.29520386 -51.54052734 51.31347656 C-50.98428177 50.75693893 -50.42803619 50.20040131 -49.85493469 49.6269989 C-48.01997095 47.79342558 -46.17803069 45.96703328 -44.3359375 44.140625 C-43.06040611 42.86882475 -41.78531633 41.59658147 -40.51065063 40.32391357 C-37.15804605 36.97893742 -33.79947827 33.64001149 -30.43963623 30.30230713 C-27.01082544 26.89397169 -23.58768427 23.47995255 -20.1640625 20.06640625 C-13.44824728 13.37202703 -6.72611906 6.68402534 0 0 Z " fill="#ECECEC" transform="translate(375,332)"/>
<path d="M0 0 C1.26972656 0.00257813 2.53945312 0.00515625 3.84765625 0.0078125 C5.16636719 0.03617187 6.48507813 0.06453125 7.84375 0.09375 C9.16246094 0.09117187 10.48117188 0.08859375 11.83984375 0.0859375 C22.77449158 0.19694915 22.77449158 0.19694915 27.34375 3.59375 C28.74832737 6.40290474 28.59270157 8.48185534 28.34375 11.59375 C26.56390595 14.7296657 25.82066793 15.43477736 22.34375 16.59375 C18.23251683 16.86499388 14.12143728 16.90688817 10.00195312 16.94384766 C8.64989001 16.96040751 7.29791446 16.98769924 5.94628906 17.02587891 C3.98816461 17.08082871 2.0291272 17.099416 0.0703125 17.1171875 C-1.09935059 17.13700684 -2.26901367 17.15682617 -3.47412109 17.17724609 C-7.60762496 16.41929963 -9.07026796 14.83412437 -11.65625 11.59375 C-12.28125 8.59375 -12.28125 8.59375 -11.65625 5.59375 C-8.02251354 1.05742951 -5.77097589 -0.03536531 0 0 Z " fill="#030201" transform="translate(179.65625,391.40625)"/>
<path d="M0 0 C1.26972656 0.00257813 2.53945312 0.00515625 3.84765625 0.0078125 C5.16636719 0.03617187 6.48507813 0.06453125 7.84375 0.09375 C9.16246094 0.09117187 10.48117188 0.08859375 11.83984375 0.0859375 C22.77449158 0.19694915 22.77449158 0.19694915 27.34375 3.59375 C28.74832737 6.40290474 28.59270157 8.48185534 28.34375 11.59375 C26.56390595 14.7296657 25.82066793 15.43477736 22.34375 16.59375 C18.23251683 16.86499388 14.12143728 16.90688817 10.00195312 16.94384766 C8.64989001 16.96040751 7.29791446 16.98769924 5.94628906 17.02587891 C3.98816461 17.08082871 2.0291272 17.099416 0.0703125 17.1171875 C-1.09935059 17.13700684 -2.26901367 17.15682617 -3.47412109 17.17724609 C-7.60762496 16.41929963 -9.07026796 14.83412437 -11.65625 11.59375 C-12.28125 8.59375 -12.28125 8.59375 -11.65625 5.59375 C-8.02251354 1.05742951 -5.77097589 -0.03536531 0 0 Z " fill="#030201" transform="translate(179.65625,343.40625)"/>
<path d="M0 0 C9.78659371 8.04377565 9.78659371 8.04377565 10.375 13.4375 C9.65732753 20.25538845 5.81856195 23.28205121 0.83984375 27.546875 C-1.91591552 29.72339824 -4.283123 30.62137024 -7.84765625 30.62890625 C-12.78972188 29.18485441 -16.55430042 24.66755549 -20 21 C-20 20.67 -20 20.34 -20 20 C-19.01 19.814375 -18.02 19.62875 -17 19.4375 C-10.74412736 17.64829505 -6.4585522 12.86993872 -2.5625 7.875 C-1.0836988 5.15400579 -0.35974307 3.05781612 0 0 Z " fill="#5F5F5F" transform="translate(350,450)"/>
<path d="M0 0 C7.45365426 -0.50155431 13.69198246 -0.32812882 20 4 C24.40841846 8.07398671 28.24774707 12.16209199 30 18 C30 19.98 30 21.96 30 24 C24.72 24 19.44 24 14 24 C13.443125 21.0609375 13.443125 21.0609375 12.875 18.0625 C11.47022894 11.99945507 9.61504565 6.38110324 5 2 C2.3941621 1.21728906 2.3941621 1.21728906 0 1 C0 0.67 0 0.34 0 0 Z " fill="#E03834" transform="translate(186,32)"/>
<path d="M0 0 C1.12894876 0.93274109 2.25300876 1.87140122 3.375 2.8125 C4.00148438 3.33457031 4.62796875 3.85664063 5.2734375 4.39453125 C8.041714 6.96865261 8.96204867 8.59012564 9.3125 12.375 C8.81362575 18.16194131 6.14940894 21.13675719 2 25 C-1.45201639 23.52278578 -3.64961936 21.56205999 -6.25 18.875 C-6.95640625 18.15054687 -7.6628125 17.42609375 -8.390625 16.6796875 C-8.92171875 16.12539063 -9.4528125 15.57109375 -10 15 C-9.61328125 14.50371094 -9.2265625 14.00742187 -8.828125 13.49609375 C-5.49729049 9.15116853 -2.60742538 4.81370839 0 0 Z " fill="#4B4B4B" transform="translate(455,299)"/>
<path d="M0 0 C3.80635497 3.20760251 7.54563567 6.40746109 11 10 C9.27592413 14.38855677 6.17026127 16.91486937 2 19 C-1.0625 19.5625 -1.0625 19.5625 -5 19 C-8.28892469 16.61422447 -11.15295301 13.89223821 -14 11 C-13 9 -13 9 -10.375 7.75 C-6.36526119 5.67087617 -3.31522196 3.03077984 0 0 Z " fill="#4B4B4B" transform="translate(297,461)"/>
<path d="M0 0 C3.68069887 1.53643852 5.98775204 3.78150945 8.75 6.625 C9.54921875 7.44226563 10.3484375 8.25953125 11.171875 9.1015625 C11.77515625 9.72804688 12.3784375 10.35453125 13 11 C11.28418916 15.63268926 9.34849752 16.37625207 5 20 C1.04 16.04 -2.92 12.08 -7 8 C-1.125 1.125 -1.125 1.125 0 0 Z " fill="#E8E8E8" transform="translate(247,460)"/>
<path d="M0 0 C4.89978413 3.95751795 9.00520914 8.12830382 13 13 C10.69 15.31 8.38 17.62 6 20 C2.15718264 18.07859132 0.19568073 16.4073184 -2.75 13.375 C-3.54921875 12.55773437 -4.3484375 11.74046875 -5.171875 10.8984375 C-5.77515625 10.27195312 -6.3784375 9.64546875 -7 9 C-5.27845212 5.23511958 -3.00765886 2.84936103 0 0 Z " fill="#E8E8E8" transform="translate(451,256)"/>
<path d="M0 0 C4.62 0 9.24 0 14 0 C12.99978012 4.00087953 12.27784786 5.18112241 9.625 8.125 C9.01914063 8.80820312 8.41328125 9.49140625 7.7890625 10.1953125 C6 12 6 12 3 14 C2.01 14 1.02 14 0 14 C0 9.38 0 4.76 0 0 Z " fill="#EE524F" transform="translate(96,360)"/>
<path d="M0 0 C4.62 0 9.24 0 14 0 C12.99978012 4.00087953 12.27784786 5.18112241 9.625 8.125 C9.01914063 8.80820312 8.41328125 9.49140625 7.7890625 10.1953125 C6 12 6 12 3 14 C2.01 14 1.02 14 0 14 C0 9.38 0 4.76 0 0 Z " fill="#EE524F" transform="translate(96,264)"/>
<path d="M0 0 C4.62 0 9.24 0 14 0 C12.99978012 4.00087953 12.27784786 5.18112241 9.625 8.125 C9.01914063 8.80820313 8.41328125 9.49140625 7.7890625 10.1953125 C6 12 6 12 3 14 C2.01 14 1.02 14 0 14 C0 9.38 0 4.76 0 0 Z " fill="#EE524F" transform="translate(96,168)"/>
<path d="M0 0 C1.98 1.65 3.96 3.3 6 5 C4.4169423 9.2742558 1.49431596 11.26531794 -2 14 C-3.98 11.69 -5.96 9.38 -8 7 C-5.36 4.69 -2.72 2.38 0 0 Z " fill="#DADADA" transform="translate(254,466)"/>
<path d="M0 0 C2.31 1.98 4.62 3.96 7 6 C2.703125 11.46875 2.703125 11.46875 1 13 C-0.32 13 -1.64 13 -3 13 C-5.25 10.5 -5.25 10.5 -7 8 C-4.69 5.36 -2.38 2.72 0 0 Z " fill="#DADADA" transform="translate(457,262)"/>
<path d="M0 0 C0.33 0 0.66 0 1 0 C1 2.64 1 5.28 1 8 C-0.32 7.01 -1.64 6.02 -3 5 C-1.125 1.125 -1.125 1.125 0 0 Z " fill="#FAA325" transform="translate(343,412)"/>
</svg>
