<?xml version="1.0" encoding="UTF-8"?>
<svg version="1.1" xmlns="http://www.w3.org/2000/svg" width="512" height="512">
<path d="M0 0 C3.625 0.0625 3.625 0.0625 7 1 C7.39074707 1.50539307 7.78149414 2.01078613 8.18408203 2.53149414 C11.18114624 4.9551754 14.73636843 4.44714598 18.4296875 4.43359375 C19.257034 4.4388356 20.08438049 4.44407745 20.9367981 4.44947815 C22.68685789 4.45590014 24.43696085 4.45455903 26.18701172 4.44604492 C28.85853511 4.43755234 31.52790763 4.46626315 34.19921875 4.49804688 C35.90104103 4.49965949 37.60286708 4.4990802 39.3046875 4.49609375 C40.10067352 4.50732773 40.89665955 4.51856171 41.71676636 4.53013611 C46.86983766 4.46574432 49.06495121 3.54207198 53 0 C56.625 0.0625 56.625 0.0625 60 1 C60.39074707 1.50539307 60.78149414 2.01078613 61.18408203 2.53149414 C64.18114624 4.9551754 67.73636843 4.44714598 71.4296875 4.43359375 C72.257034 4.4388356 73.08438049 4.44407745 73.9367981 4.44947815 C75.68685789 4.45590014 77.43696085 4.45455903 79.18701172 4.44604492 C81.85853511 4.43755234 84.52790763 4.46626315 87.19921875 4.49804688 C88.90104103 4.49965949 90.60286708 4.4990802 92.3046875 4.49609375 C93.10067352 4.50732773 93.89665955 4.51856171 94.71676636 4.53013611 C99.86983766 4.46574432 102.06495121 3.54207198 106 0 C109.625 0.0625 109.625 0.0625 113 1 C113.39074707 1.50539307 113.78149414 2.01078613 114.18408203 2.53149414 C117.18114624 4.9551754 120.73636843 4.44714598 124.4296875 4.43359375 C125.257034 4.4388356 126.08438049 4.44407745 126.9367981 4.44947815 C128.68685789 4.45590014 130.43696085 4.45455903 132.18701172 4.44604492 C134.85853511 4.43755234 137.52790763 4.46626315 140.19921875 4.49804688 C141.90104103 4.49965949 143.60286708 4.4990802 145.3046875 4.49609375 C146.10067352 4.50732773 146.89665955 4.51856171 147.71676636 4.53013611 C152.86983766 4.46574432 155.06495121 3.54207198 159 0 C162.625 0.0625 162.625 0.0625 166 1 C166.68763428 1.76111084 166.68763428 1.76111084 167.38916016 2.53759766 C169.63996907 4.58099647 171.14611616 4.35442145 174.1484375 4.3359375 C175.15390625 4.34882813 176.159375 4.36171875 177.1953125 4.375 C179.30730612 4.375 181.41931461 4.36724519 183.53125 4.3515625 C184.53929687 4.36703125 185.54734375 4.3825 186.5859375 4.3984375 C187.5042334 4.39505371 188.4225293 4.39166992 189.36865234 4.38818359 C193.19958099 5.27891538 194.56458096 6.93961645 197 10 C197.49475984 12.98648978 197.68574168 15.40141675 197.64697266 18.3828125 C197.66011505 19.63007111 197.66011505 19.63007111 197.67352295 20.90252686 C197.69548239 23.6438862 197.68097711 26.38362502 197.6640625 29.125 C197.66743164 31.03402007 197.67228508 32.94303805 197.67855835 34.85205078 C197.68592498 38.85014295 197.67523094 42.84767602 197.65185547 46.84570312 C197.62336778 51.96738181 197.63977288 57.08775047 197.66971779 62.2093811 C197.68779644 66.15057219 197.68203014 70.09145332 197.66907883 74.03265381 C197.66574638 75.92087967 197.66982622 77.8091338 197.68147659 79.69732666 C197.69419484 82.33803705 197.67479623 84.9766343 197.64697266 87.6171875 C197.65709381 88.39551941 197.66721497 89.17385132 197.67764282 89.97576904 C197.5989224 94.01401416 197.15937934 95.80215497 194.59257507 98.9884491 C191.95821755 101.03241855 191.0378178 101.61213045 187.79296875 101.48828125 C187.04208984 101.47216797 186.29121094 101.45605469 185.51757812 101.43945312 C184.74865234 101.39755859 183.97972656 101.35566406 183.1875 101.3125 C182.39923828 101.28994141 181.61097656 101.26738281 180.79882812 101.24414062 C178.86506071 101.18554161 176.93227833 101.09586827 175 101 C180.05125533 123.23681116 188.45240106 141.54738927 207.625 155.0625 C215.96369247 160.97539102 221.10284767 167.10792054 224 177 C224.52236011 180.84518747 224.54163685 184.62307154 224.50793457 188.49938965 C224.51417453 189.61568803 224.5204145 190.73198642 224.52684355 191.88211203 C224.54272326 195.6006631 224.5301883 199.31855412 224.51757812 203.03710938 C224.52300147 205.71199947 224.5299813 208.38684499 224.53881836 211.0617218 C224.55655681 217.55956571 224.55278458 224.05722427 224.5411678 230.55507529 C224.53211526 235.83842396 224.53091732 241.12172087 224.53526306 246.40507507 C224.53587599 247.15850656 224.53648893 247.91193805 224.53712043 248.6882008 C224.5383994 250.21902916 224.53969625 251.74985751 224.5410108 253.28068584 C224.5524029 267.61790718 224.53932445 281.95502602 224.51780933 296.29223055 C224.49993957 308.58045109 224.50304407 320.86852046 224.52148438 333.15673828 C224.54291535 347.44445803 224.55130439 361.73208807 224.53903532 376.01982164 C224.53776119 377.54485606 224.53650371 379.06989049 224.53526306 380.59492493 C224.53464596 381.34517003 224.53402886 382.09541514 224.53339306 382.86839494 C224.52994683 388.14224033 224.53575277 393.41602857 224.54518127 398.68986511 C224.55642744 405.12147293 224.55330649 411.5528856 224.5320583 417.9844712 C224.52158275 421.26278833 224.51953762 424.54071545 224.53065491 427.8190403 C224.54161542 431.37988566 224.52783891 434.93982258 224.50793457 438.50061035 C224.51685746 439.52688962 224.52578034 440.5531689 224.53497362 441.61054754 C224.43413307 450.93679029 221.62471904 460.15725223 215 467 C206.42428943 473.84764836 197.88645774 477.14587785 186.86550903 477.10438538 C185.65718414 477.10261292 184.44885925 477.10084045 183.20391846 477.09901428 C181.89155212 477.09220139 180.57918579 477.08538849 179.22705078 477.07836914 C177.82044599 477.07484981 176.41383972 477.07188375 175.00723267 477.06942749 C171.98545557 477.06376863 168.96369665 477.05576355 165.94192886 477.04640388 C161.15892514 477.03318862 156.37600161 477.03496771 151.59298706 477.04063416 C150.78444373 477.04155424 149.9759004 477.04247432 149.14285576 477.04342228 C146.65383074 477.0463928 144.16480602 477.04955741 141.67578125 477.05273438 C131.38282584 477.0655234 121.09025188 477.06749427 110.79736328 477.02416992 C103.28119842 476.99263956 95.76561261 476.98939306 88.24943149 477.01892942 C84.27608996 477.03345396 80.30390722 477.03373272 76.33066177 476.99952888 C72.59209987 476.96761907 68.85543644 476.97323962 65.11690903 477.00703049 C63.10025446 477.01557871 61.08355205 476.98462456 59.06713867 476.95228577 C52.7478746 477.04580897 48.90994757 477.31999347 44.3276062 481.91209412 C43.2145748 483.27160332 42.10496857 484.63392949 41 486 C26.97693094 497.33668552 9.69173889 501.6008956 -8 500 C-17.74539712 498.6444976 -26.01446127 495.41419879 -34.42578125 490.390625 C-36.95227646 488.76235319 -36.95227646 488.76235319 -40 489 C-41.72389584 489.8775818 -43.4448062 490.76223465 -45.14038086 491.69335938 C-60.96171956 500.34273524 -77.38401588 501.98338419 -94.86962891 497.625 C-110.91939702 492.91638135 -124.41404601 481.69210104 -132.58203125 467.19140625 C-135.53508149 461.55115214 -137.83636725 456.02180445 -139.45703125 449.86328125 C-139.83721871 448.00243317 -139.83721871 448.00243317 -141 447 C-141.680625 447.928125 -142.36125 448.85625 -143.0625 449.8125 C-145.60403559 453.27823034 -148.95337373 454.83612787 -153 456 C-156.92649055 456.43420047 -160.82774522 456.4203001 -164.77514648 456.40405273 C-166.52767731 456.41434761 -166.52767731 456.41434761 -168.31561279 456.42485046 C-172.16756432 456.44311222 -176.01910833 456.43928168 -179.87109375 456.43359375 C-181.87614463 456.43700214 -183.8811957 456.44041866 -185.88624436 456.44494683 C-192.18600775 456.45896834 -198.48563547 456.45745067 -204.78540039 456.44604492 C-211.2685523 456.434566 -217.75129042 456.44864056 -224.23438781 456.4754414 C-229.81595363 456.4976451 -235.39739 456.50422532 -240.97899681 456.49836498 C-244.30591737 456.49500528 -247.63251523 456.49906802 -250.95940971 456.51461601 C-254.67173774 456.52952149 -258.383159 456.51885059 -262.09545898 456.50170898 C-263.18713882 456.51137695 -264.27881866 456.52104492 -265.40357971 456.53100586 C-272.45708749 456.46293365 -278.29344055 455.53454307 -283.55481625 450.51734066 C-287.13212536 446.42994296 -288.12327062 443.30520286 -288.13701439 437.99922657 C-288.1446262 436.44058942 -288.1446262 436.44058942 -288.15239179 434.85046464 C-288.15288955 433.70515753 -288.15338731 432.55985042 -288.15390015 431.37983704 C-288.1582824 430.16601968 -288.16266465 428.95220233 -288.1671797 427.70160264 C-288.17825014 424.32614498 -288.18479394 420.9507337 -288.18936086 417.57526457 C-288.19531643 413.93708396 -288.20692637 410.29892043 -288.21765137 406.66075134 C-288.24217609 397.87138662 -288.25680247 389.08201625 -288.26971143 380.29262784 C-288.27342326 377.81030135 -288.2773965 375.32797542 -288.2814641 372.84564948 C-288.30670011 357.43209785 -288.32875412 342.01854534 -288.34119225 326.60497761 C-288.34412196 323.03458465 -288.34708362 319.46419172 -288.35009766 315.89379883 C-288.35084371 315.00639061 -288.35158976 314.1189824 -288.35235842 313.20468303 C-288.3650125 298.82866294 -288.39823627 284.45276653 -288.43989949 270.07680426 C-288.48231972 255.31870787 -288.50588736 240.56067479 -288.51111281 225.80251759 C-288.51452679 217.51577053 -288.52628036 209.22921674 -288.55921555 200.94252968 C-288.58721846 193.88525045 -288.59821439 186.82820412 -288.58702008 179.77087364 C-288.58183399 176.17077684 -288.58471605 172.57116774 -288.60948563 168.97114182 C-288.63613274 165.06559038 -288.62391584 161.16070331 -288.60800171 157.25508118 C-288.6218838 156.12092768 -288.63576588 154.98677417 -288.65006864 153.81825238 C-288.5814348 146.98774394 -287.59435893 142.21661353 -283 137 C-278.05104061 133.06103232 -274.29886531 131.88112128 -268.09307861 131.85955811 C-267.10627106 131.85384796 -266.1194635 131.84813782 -265.10275269 131.84225464 C-264.026315 131.84113678 -262.94987732 131.84001892 -261.84082031 131.83886719 C-260.70216522 131.83390228 -259.56351013 131.82893738 -258.39035034 131.82382202 C-254.61960243 131.80920512 -250.8488966 131.80239897 -247.078125 131.796875 C-244.45741779 131.79112295 -241.8367106 131.78536522 -239.21600342 131.77960205 C-234.4208719 131.77003498 -229.62574945 131.76413564 -224.83060956 131.7611053 C-217.78638202 131.75662846 -210.74234889 131.73909525 -203.69818044 131.7101047 C-197.58568917 131.6858271 -191.47327777 131.67815823 -185.36074066 131.67642975 C-182.76604911 131.67340536 -180.17135834 131.66538407 -177.5766983 131.65224457 C-173.94323573 131.63515873 -170.31024445 131.63707094 -166.67675781 131.64355469 C-165.60841705 131.6343399 -164.54007629 131.62512512 -163.43936157 131.6156311 C-153.66005283 131.67019796 -147.04768325 133.95231675 -140 141 C-139.01 139.6078125 -139.01 139.6078125 -138 138.1875 C-135.31856663 134.41673432 -131.31351795 133.16483219 -127 132 C-123.44993317 131.58052136 -119.9333842 131.56230055 -116.36132812 131.56762695 C-115.32628143 131.5574353 -114.29123474 131.54724365 -113.224823 131.53674316 C-109.82690955 131.50671369 -106.42927849 131.49736239 -103.03125 131.48828125 C-100.66612824 131.47142716 -98.3010154 131.45327594 -95.93591309 131.43388367 C-89.72834052 131.38645713 -83.52080413 131.35660007 -77.31311035 131.33044434 C-70.97168843 131.30060187 -64.63039102 131.25408415 -58.2890625 131.20898438 C-45.85944023 131.12303472 -33.42979227 131.05565222 -21 131 C-20.02710637 128.76946625 -19.05813029 126.53736352 -18.09130859 124.30419922 C-17.81737778 123.67724655 -17.54344696 123.05029388 -17.26121521 122.40434265 C-15.23409754 117.71021736 -13.70967084 113.11050543 -12.625 108.125 C-12.46128906 107.42503906 -12.29757812 106.72507812 -12.12890625 106.00390625 C-11.74108985 104.33857702 -11.36863085 102.6696809 -11 101 C-12.18078125 101.03480469 -13.3615625 101.06960937 -14.578125 101.10546875 C-16.13540242 101.13361232 -17.69269525 101.16091187 -19.25 101.1875 C-20.02730469 101.21263672 -20.80460937 101.23777344 -21.60546875 101.26367188 C-25.08409859 101.30826969 -27.37281244 101.3343028 -30.484375 99.67578125 C-33.76180882 96.05202066 -33.15443959 91.61920128 -33.16113281 87.02783203 C-33.16609772 86.21612549 -33.17106262 85.40441895 -33.17617798 84.56811523 C-33.19078984 81.88133905 -33.19759973 79.1946219 -33.203125 76.5078125 C-33.20887695 74.64077757 -33.21463468 72.77374266 -33.22039795 70.90670776 C-33.23090495 66.99102503 -33.23674969 63.07536282 -33.24023438 59.15966797 C-33.24572059 54.14363999 -33.26975261 49.12788326 -33.29820633 44.11194038 C-33.31683427 40.25490528 -33.32203838 36.39793551 -33.32357025 32.54085922 C-33.3265966 30.69169506 -33.33462455 28.84253204 -33.34775543 26.99341202 C-33.36482037 24.40571724 -33.36293477 21.81868534 -33.35644531 19.23095703 C-33.3656601 18.46818451 -33.37487488 17.70541199 -33.3843689 16.91952515 C-33.34921472 12.44204049 -32.78147197 9.55435022 -30 6 C-27.5008956 4.7504478 -25.74335816 4.85818337 -22.94921875 4.82421875 C-21.94052734 4.80037109 -20.93183594 4.77652344 -19.89257812 4.75195312 C-17.76777795 4.70922405 -15.64271713 4.67784397 -13.51757812 4.65820312 C-7.62234109 4.496844 -4.38407223 4.28969886 0 0 Z " fill="#B3F1D8" transform="translate(288,6)"/>
<path d="M0 0 C3.625 0.0625 3.625 0.0625 7 1 C7.39074707 1.50539307 7.78149414 2.01078613 8.18408203 2.53149414 C11.18114624 4.9551754 14.73636843 4.44714598 18.4296875 4.43359375 C19.257034 4.4388356 20.08438049 4.44407745 20.9367981 4.44947815 C22.68685789 4.45590014 24.43696085 4.45455903 26.18701172 4.44604492 C28.85853511 4.43755234 31.52790763 4.46626315 34.19921875 4.49804688 C35.90104103 4.49965949 37.60286708 4.4990802 39.3046875 4.49609375 C40.10067352 4.50732773 40.89665955 4.51856171 41.71676636 4.53013611 C46.86983766 4.46574432 49.06495121 3.54207198 53 0 C56.625 0.0625 56.625 0.0625 60 1 C60.39074707 1.50539307 60.78149414 2.01078613 61.18408203 2.53149414 C64.18114624 4.9551754 67.73636843 4.44714598 71.4296875 4.43359375 C72.257034 4.4388356 73.08438049 4.44407745 73.9367981 4.44947815 C75.68685789 4.45590014 77.43696085 4.45455903 79.18701172 4.44604492 C81.85853511 4.43755234 84.52790763 4.46626315 87.19921875 4.49804688 C88.90104103 4.49965949 90.60286708 4.4990802 92.3046875 4.49609375 C93.10067352 4.50732773 93.89665955 4.51856171 94.71676636 4.53013611 C99.86983766 4.46574432 102.06495121 3.54207198 106 0 C109.625 0.0625 109.625 0.0625 113 1 C113.39074707 1.50539307 113.78149414 2.01078613 114.18408203 2.53149414 C117.18114624 4.9551754 120.73636843 4.44714598 124.4296875 4.43359375 C125.257034 4.4388356 126.08438049 4.44407745 126.9367981 4.44947815 C128.68685789 4.45590014 130.43696085 4.45455903 132.18701172 4.44604492 C134.85853511 4.43755234 137.52790763 4.46626315 140.19921875 4.49804688 C141.90104103 4.49965949 143.60286708 4.4990802 145.3046875 4.49609375 C146.10067352 4.50732773 146.89665955 4.51856171 147.71676636 4.53013611 C152.86983766 4.46574432 155.06495121 3.54207198 159 0 C162.625 0.0625 162.625 0.0625 166 1 C166.45842285 1.50740723 166.9168457 2.01481445 167.38916016 2.53759766 C169.63996907 4.58099647 171.14611616 4.35442145 174.1484375 4.3359375 C175.65664063 4.35527344 175.65664063 4.35527344 177.1953125 4.375 C179.30730612 4.375 181.41931461 4.36724519 183.53125 4.3515625 C184.53929687 4.36703125 185.54734375 4.3825 186.5859375 4.3984375 C187.5042334 4.39505371 188.4225293 4.39166992 189.36865234 4.38818359 C193.19958099 5.27891538 194.56458096 6.93961645 197 10 C197.49475984 12.98648978 197.68574168 15.40141675 197.64697266 18.3828125 C197.65573425 19.21431824 197.66449585 20.04582397 197.67352295 20.90252686 C197.69548239 23.6438862 197.68097711 26.38362502 197.6640625 29.125 C197.66743164 31.03402007 197.67228508 32.94303805 197.67855835 34.85205078 C197.68592498 38.85014295 197.67523094 42.84767602 197.65185547 46.84570312 C197.62336778 51.96738181 197.63977288 57.08775047 197.66971779 62.2093811 C197.68779644 66.15057219 197.68203014 70.09145332 197.66907883 74.03265381 C197.66574638 75.92087967 197.66982622 77.8091338 197.68147659 79.69732666 C197.69419484 82.33803705 197.67479623 84.9766343 197.64697266 87.6171875 C197.65709381 88.39551941 197.66721497 89.17385132 197.67764282 89.97576904 C197.5989224 94.01401416 197.15937934 95.80215497 194.59257507 98.9884491 C191.95821755 101.03241855 191.0378178 101.61213045 187.79296875 101.48828125 C187.04208984 101.47216797 186.29121094 101.45605469 185.51757812 101.43945312 C184.74865234 101.39755859 183.97972656 101.35566406 183.1875 101.3125 C182.39923828 101.28994141 181.61097656 101.26738281 180.79882812 101.24414062 C178.86506071 101.18554161 176.93227833 101.09586827 175 101 C180.05125533 123.23681116 188.45240106 141.54738927 207.625 155.0625 C215.96369247 160.97539102 221.10284767 167.10792054 224 177 C224.52236011 180.84518747 224.54163685 184.62307154 224.50793457 188.49938965 C224.51729451 190.17383723 224.51729451 190.17383723 224.52684355 191.88211203 C224.54272326 195.6006631 224.5301883 199.31855412 224.51757812 203.03710938 C224.52300147 205.71199947 224.5299813 208.38684499 224.53881836 211.0617218 C224.55655681 217.55956571 224.55278458 224.05722427 224.5411678 230.55507529 C224.53211526 235.83842396 224.53091732 241.12172087 224.53526306 246.40507507 C224.53587599 247.15850656 224.53648893 247.91193805 224.53712043 248.6882008 C224.5383994 250.21902916 224.53969625 251.74985751 224.5410108 253.28068584 C224.5524029 267.61790718 224.53932445 281.95502602 224.51780933 296.29223055 C224.49993957 308.58045109 224.50304407 320.86852046 224.52148438 333.15673828 C224.54291535 347.44445803 224.55130439 361.73208807 224.53903532 376.01982164 C224.53776119 377.54485606 224.53650371 379.06989049 224.53526306 380.59492493 C224.53433741 381.72029258 224.53433741 381.72029258 224.53339306 382.86839494 C224.52994683 388.14224033 224.53575277 393.41602857 224.54518127 398.68986511 C224.55642744 405.12147293 224.55330649 411.5528856 224.5320583 417.9844712 C224.52158275 421.26278833 224.51953762 424.54071545 224.53065491 427.8190403 C224.54161542 431.37988566 224.52783891 434.93982258 224.50793457 438.50061035 C224.5213189 440.04002926 224.5213189 440.04002926 224.53497362 441.61054754 C224.43413307 450.93679029 221.62471904 460.15725223 215 467 C206.39910969 473.86775422 197.85818556 477.1298937 186.81167603 477.12025452 C185.59178986 477.12162918 184.37190369 477.12300385 183.11505127 477.12442017 C181.77673315 477.12088178 180.43841528 477.11724698 179.10009766 477.11352539 C177.6805115 477.1132431 176.26092519 477.11340208 174.84133911 477.1139679 C170.99882888 477.11425422 167.15635002 477.10838413 163.31384706 477.10139394 C159.29398032 477.09513296 155.27411281 477.09455443 151.25424194 477.09336853 C143.64708507 477.09026331 136.0399426 477.08206082 128.43279207 477.07201904 C119.7701837 477.06083279 111.10757463 477.05534112 102.44496083 477.05032361 C84.62996573 477.03987753 66.81498402 477.02229375 49 477 C50.24607307 474.48929166 51.52602427 472.00825997 52.83984375 469.53125 C61.36288457 453.30189239 65.55792763 436.11027552 60.375 417.9375 C58.51086367 412.75934354 56.04943325 407.98561522 53.26953125 403.2421875 C52 401 52 401 51 398 C56.61 397.67 62.22 397.34 68 397 C66.535625 395.040625 65.07125 393.08125 63.5625 391.0625 C62.87136108 390.13642944 62.87136108 390.13642944 62.16625977 389.19165039 C59.61196961 385.27142711 59.61196961 385.27142711 55.63671875 383.60546875 C54.66347656 383.46753906 53.69023437 383.32960938 52.6875 383.1875 C49.31949329 382.58388321 47.22964952 382.14419854 44.3125 380.3125 C43 378 43 378 43.25 374.5625 C43.38626068 371.11589524 43.38626068 371.11589524 41.69140625 369.61328125 C36.46193554 366.16683174 30.51756651 364.14070151 24.66015625 362.015625 C22 361 22 361 21 360 C20.85806663 356.99668982 20.95763622 354.00782866 21 351 C16.05 351 11.1 351 6 351 C5.99945523 349.95693475 5.99891047 348.9138695 5.99834919 347.83919621 C5.98394872 322.44984674 5.94091104 297.06066862 5.86790943 271.67141819 C5.83326805 259.39331135 5.80790501 247.11531669 5.80444336 234.8371582 C5.8014023 224.13451957 5.78089254 213.43208076 5.73947543 202.72951931 C5.71815687 197.06344461 5.7055391 191.39765392 5.71384621 185.73153877 C5.72139335 180.39542022 5.70553592 175.05987681 5.67193985 169.7238636 C5.66371469 167.76840408 5.66394704 165.81288728 5.67340279 163.85743332 C6.12849483 149.99670869 6.12849483 149.99670869 0 138 C-5.96202523 132.95364417 -13.43662101 132.15816952 -21 132 C-20.29423828 130.27716797 -20.29423828 130.27716797 -19.57421875 128.51953125 C-15.90903939 119.42674625 -12.7937686 110.66926691 -11 101 C-12.18078125 101.03480469 -13.3615625 101.06960937 -14.578125 101.10546875 C-16.13540242 101.13361232 -17.69269525 101.16091187 -19.25 101.1875 C-20.02730469 101.21263672 -20.80460937 101.23777344 -21.60546875 101.26367188 C-25.08409859 101.30826969 -27.37281244 101.3343028 -30.484375 99.67578125 C-33.76180882 96.05202066 -33.15443959 91.61920128 -33.16113281 87.02783203 C-33.16609772 86.21612549 -33.17106262 85.40441895 -33.17617798 84.56811523 C-33.19078984 81.88133905 -33.19759973 79.1946219 -33.203125 76.5078125 C-33.20887695 74.64077757 -33.21463468 72.77374266 -33.22039795 70.90670776 C-33.23090495 66.99102503 -33.23674969 63.07536282 -33.24023438 59.15966797 C-33.24572059 54.14363999 -33.26975261 49.12788326 -33.29820633 44.11194038 C-33.31683427 40.25490528 -33.32203838 36.39793551 -33.32357025 32.54085922 C-33.3265966 30.69169506 -33.33462455 28.84253204 -33.34775543 26.99341202 C-33.36482037 24.40571724 -33.36293477 21.81868534 -33.35644531 19.23095703 C-33.3656601 18.46818451 -33.37487488 17.70541199 -33.3843689 16.91952515 C-33.34921472 12.44204049 -32.78147197 9.55435022 -30 6 C-27.5008956 4.7504478 -25.74335816 4.85818337 -22.94921875 4.82421875 C-21.43618164 4.78844727 -21.43618164 4.78844727 -19.89257812 4.75195312 C-17.76777795 4.70922405 -15.64271713 4.67784397 -13.51757812 4.65820312 C-7.62234109 4.496844 -4.38407223 4.28969886 0 0 Z " fill="#FEEADB" transform="translate(288,6)"/>
<path d="M0 0 C7.39253256 -0.44355195 13.96780383 -0.80341547 20 4 C25.15881193 9.67469313 26.14833843 14.53673643 26.12025452 22.10539246 C26.12153615 23.35880439 26.12153615 23.35880439 26.12284368 24.63753778 C26.12449544 27.44742631 26.11898204 30.25725561 26.11352539 33.06713867 C26.11324343 35.07740782 26.11340143 37.08767708 26.1139679 39.09794617 C26.11425551 44.5645453 26.1083645 50.03112262 26.10139394 55.49771667 C26.09515451 61.20724233 26.09455613 66.91676845 26.09336853 72.626297 C26.09025696 83.44223834 26.0820459 94.25816961 26.07201904 105.07410651 C26.06085251 117.38591147 26.05534609 129.6977169 26.05032361 142.00952566 C26.03986316 167.33968936 26.02226707 192.66984412 26 218 C30.95 218 35.9 218 41 218 C41.33 220.97 41.66 223.94 42 227 C43.16917969 227.44730469 44.33835937 227.89460937 45.54296875 228.35546875 C47.0914151 228.96546276 48.6395774 229.57617815 50.1875 230.1875 C50.95642578 230.47947266 51.72535156 230.77144531 52.51757812 231.07226562 C57.29601223 232.97953761 60.71172823 234.87161089 64 239 C64.125 242.125 64.125 242.125 64 245 C65.65485224 247.32678889 66.62425858 247.93119385 69.453125 248.44921875 C70.37609375 248.52785156 71.2990625 248.60648438 72.25 248.6875 C77.73289352 249.55665089 80.08735269 251.32631456 83.46484375 255.63671875 C85.43990537 258.67720802 87.20116664 261.85204162 89 265 C83.06 265 77.12 265 71 265 C71.9075 266.464375 72.815 267.92875 73.75 269.4375 C83.20352621 285.24540113 85.8004202 301.92406981 81.4375 319.9375 C76.38621664 336.35863317 66.60434275 351.01063253 51.31787109 359.25585938 C34.79719867 367.6975914 17.6634582 369.50933281 -0.1484375 364.35546875 C-5.26750755 362.68654349 -9.81783274 360.14267455 -14.42578125 357.390625 C-16.95227646 355.76235319 -16.95227646 355.76235319 -20 356 C-21.72389584 356.8775818 -23.4448062 357.76223465 -25.14038086 358.69335938 C-40.96171956 367.34273524 -57.38401588 368.98338419 -74.86962891 364.625 C-90.91939702 359.91638135 -104.41404601 348.69210104 -112.58203125 334.19140625 C-115.53508149 328.55115214 -117.83636725 323.02180445 -119.45703125 316.86328125 C-119.83721871 315.00243317 -119.83721871 315.00243317 -121 314 C-121.7425 314.94875 -122.485 315.8975 -123.25 316.875 C-125.2889554 319.31713867 -126.91232563 320.97077521 -130 322 C-130.99 322 -131.98 322 -133 322 C-134.76447218 315.93462689 -135.13123127 310.42109782 -135.0625 304.15234375 C-135.05798828 303.36661987 -135.05347656 302.580896 -135.04882812 301.7713623 C-135.03712872 299.84754159 -135.01919628 297.92376051 -135 296 C-136.18128479 296.01110306 -137.36256958 296.02220612 -138.57965088 296.03364563 C-149.70372529 296.13493593 -160.82770633 296.20992435 -171.95213699 296.25906086 C-177.67157436 296.28517168 -183.39063992 296.32059754 -189.10986328 296.37719727 C-194.62767956 296.431463 -200.14513788 296.46140934 -205.66320038 296.47438622 C-207.7700133 296.4836358 -209.87680628 296.50169794 -211.9834671 296.52865028 C-214.93114287 296.56486783 -217.8773334 296.56994834 -220.82519531 296.56762695 C-221.69913437 296.58560333 -222.57307343 296.60357971 -223.47349548 296.62210083 C-229.38002791 296.57165934 -229.38002791 296.57165934 -232.54217529 293.65592957 C-234.32353753 290.41056501 -234.62092487 288.64793363 -234 285 C-232.55938721 282.8447876 -232.55938721 282.8447876 -230 281 C-226.8510216 280.4175216 -223.74375313 280.49497499 -220.54980469 280.54589844 C-219.59337067 280.54531433 -218.63693665 280.54473022 -217.65151978 280.54412842 C-214.49126856 280.54691437 -211.33196138 280.57803115 -208.171875 280.609375 C-205.98041296 280.61683555 -203.78894424 280.62252936 -201.59747314 280.62652588 C-195.8302162 280.64179671 -190.06336235 280.68109144 -184.29626465 280.7253418 C-178.4111069 280.766263 -172.52588401 280.78453019 -166.640625 280.8046875 C-155.09357292 280.84758393 -143.54681998 280.91585313 -132 281 C-131.79920837 280.3137001 -131.59841675 279.62740021 -131.39154053 278.92030334 C-131.12536926 278.01984787 -130.859198 277.1193924 -130.58496094 276.19165039 C-130.32229431 275.29910049 -130.05962769 274.4065506 -129.78900146 273.48695374 C-124.05043914 255.39885168 -108.25588991 240.82397818 -92 232 C-83.24675855 227.77287515 -74.66124003 225.01697263 -65 224 C-67.5957607 221.86231472 -70.17267665 219.88847966 -73 218.0625 C-76.08314478 215.94283796 -78.45686255 213.73876341 -81 211 C-81.825 210.113125 -82.65 209.22625 -83.5 208.3125 C-90.37652184 199.91269801 -92.18406607 191.28294594 -92.25 180.75 C-92.2809375 179.53763672 -92.2809375 179.53763672 -92.3125 178.30078125 C-92.37716144 168.19743125 -88.87001438 161.02602503 -83 153 C-82.4225 152.13375 -81.845 151.2675 -81.25 150.375 C-72.05374908 140.66784625 -60.966804 136.44640662 -47.81640625 135.90234375 C-34.43113844 136.24485316 -23.19574382 141.33766453 -14 151 C-6.13508007 160.75395382 -1.85374871 172.3912358 -3 185 C-5.20932746 198.72566429 -10.46467578 209.36920938 -21.75 217.6875 C-26.56053232 220.93351269 -31.52401822 223.12418496 -37 225 C-33.70735693 227.19509538 -30.31812477 228.72577269 -26.6875 230.25 C-26.03587891 230.54390625 -25.38425781 230.8378125 -24.71289062 231.140625 C-21.37895769 232.5289294 -19.38466905 233.08516658 -15.82421875 232.296875 C-14.89222656 231.86890625 -13.96023437 231.4409375 -13 231 C-12.17757812 230.67 -11.35515625 230.34 -10.5078125 230 C-9.72148437 229.67 -8.93515625 229.34 -8.125 229 C-1.30372209 226.25921667 4.57560586 224.89330212 12 225 C11.9628318 197.62710148 11.90296861 170.25433397 11.81609726 142.88154602 C11.77629022 130.17184233 11.74390613 117.46220071 11.72900391 104.75244141 C11.71599609 93.67444366 11.68905348 82.59658239 11.64538693 71.5186615 C11.62275277 65.65312742 11.60709051 59.7877618 11.60811615 53.92218018 C11.60886159 48.3998191 11.59095693 42.87783069 11.55883217 37.35556602 C11.55032283 35.33034655 11.54859024 33.30508532 11.55419731 31.27985573 C11.56084304 28.51027359 11.54290281 25.74187512 11.51898193 22.97241211 C11.52674235 22.17472475 11.53450277 21.37703739 11.54249835 20.55517769 C11.45693187 14.94229324 10.0579162 10.72617781 7 6 C5.20157171 4.14265696 5.20157171 4.14265696 3.25 3.0625 C2.1775 2.381875 1.105 1.70125 0 1 C0 0.67 0 0.34 0 0 Z " fill="#22CFA2" transform="translate(268,139)"/>
<path d="M0 0 C3.625 0.0625 3.625 0.0625 7 1 C7.39074707 1.50539307 7.78149414 2.01078613 8.18408203 2.53149414 C11.18114624 4.9551754 14.73636843 4.44714598 18.4296875 4.43359375 C19.257034 4.4388356 20.08438049 4.44407745 20.9367981 4.44947815 C22.68685789 4.45590014 24.43696085 4.45455903 26.18701172 4.44604492 C28.85853511 4.43755234 31.52790763 4.46626315 34.19921875 4.49804688 C35.90104103 4.49965949 37.60286708 4.4990802 39.3046875 4.49609375 C40.10067352 4.50732773 40.89665955 4.51856171 41.71676636 4.53013611 C46.86983766 4.46574432 49.06495121 3.54207198 53 0 C56.625 0.0625 56.625 0.0625 60 1 C60.39074707 1.50539307 60.78149414 2.01078613 61.18408203 2.53149414 C64.18114624 4.9551754 67.73636843 4.44714598 71.4296875 4.43359375 C72.257034 4.4388356 73.08438049 4.44407745 73.9367981 4.44947815 C75.68685789 4.45590014 77.43696085 4.45455903 79.18701172 4.44604492 C81.85853511 4.43755234 84.52790763 4.46626315 87.19921875 4.49804688 C88.90104103 4.49965949 90.60286708 4.4990802 92.3046875 4.49609375 C93.10067352 4.50732773 93.89665955 4.51856171 94.71676636 4.53013611 C99.86983766 4.46574432 102.06495121 3.54207198 106 0 C109.625 0.0625 109.625 0.0625 113 1 C113.39074707 1.50539307 113.78149414 2.01078613 114.18408203 2.53149414 C117.18114624 4.9551754 120.73636843 4.44714598 124.4296875 4.43359375 C125.257034 4.4388356 126.08438049 4.44407745 126.9367981 4.44947815 C128.68685789 4.45590014 130.43696085 4.45455903 132.18701172 4.44604492 C134.85853511 4.43755234 137.52790763 4.46626315 140.19921875 4.49804688 C141.90104103 4.49965949 143.60286708 4.4990802 145.3046875 4.49609375 C146.10067352 4.50732773 146.89665955 4.51856171 147.71676636 4.53013611 C152.86983766 4.46574432 155.06495121 3.54207198 159 0 C162.625 0.0625 162.625 0.0625 166 1 C166.45842285 1.50740723 166.9168457 2.01481445 167.38916016 2.53759766 C169.63996907 4.58099647 171.14611616 4.35442145 174.1484375 4.3359375 C175.65664063 4.35527344 175.65664063 4.35527344 177.1953125 4.375 C179.30730612 4.375 181.41931461 4.36724519 183.53125 4.3515625 C184.53929687 4.36703125 185.54734375 4.3825 186.5859375 4.3984375 C187.5042334 4.39505371 188.4225293 4.39166992 189.36865234 4.38818359 C193.19958099 5.27891538 194.56458096 6.93961645 197 10 C197.49475984 12.98648978 197.68574168 15.40141675 197.64697266 18.3828125 C197.65573425 19.21431824 197.66449585 20.04582397 197.67352295 20.90252686 C197.69548239 23.6438862 197.68097711 26.38362502 197.6640625 29.125 C197.66743164 31.03402007 197.67228508 32.94303805 197.67855835 34.85205078 C197.68592498 38.85014295 197.67523094 42.84767602 197.65185547 46.84570312 C197.62336778 51.96738181 197.63977288 57.08775047 197.66971779 62.2093811 C197.68779644 66.15057219 197.68203014 70.09145332 197.66907883 74.03265381 C197.66574638 75.92087967 197.66982622 77.8091338 197.68147659 79.69732666 C197.69419484 82.33803705 197.67479623 84.9766343 197.64697266 87.6171875 C197.65709381 88.39551941 197.66721497 89.17385132 197.67764282 89.97576904 C197.599346 93.99228398 197.15528305 95.80482086 194.62303162 98.9876709 C191.63363926 101.28106347 190.33490682 101.59687087 186.62109375 101.53125 C185.11579102 101.54091797 185.11579102 101.54091797 183.58007812 101.55078125 C182.54302734 101.53402344 181.50597656 101.51726562 180.4375 101.5 C174.69391461 101.38283363 174.69391461 101.38283363 169 102 C166.42279076 104.32115231 166.42279076 104.32115231 165 107 C162.0625 107.625 162.0625 107.625 159 107 C158.29045166 106.17580566 157.58090332 105.35161133 156.84985352 104.50244141 C152.98815506 101.11150427 150.31543858 101.27242129 145.33984375 101.3359375 C144.51295547 101.33115387 143.6860672 101.32637024 142.8341217 101.32144165 C141.09178761 101.31804912 139.34938931 101.32720642 137.60717773 101.34814453 C134.94175447 101.3749572 132.28052845 101.34836127 129.61523438 101.31640625 C127.91926155 101.3197098 126.22329134 101.32611491 124.52734375 101.3359375 C123.73247055 101.32581635 122.93759735 101.31569519 122.11863708 101.30526733 C119.58122944 101.30473721 119.58122944 101.30473721 116 102 C113.62454433 104.38894367 113.62454433 104.38894367 112 107 C109.0625 107.625 109.0625 107.625 106 107 C105.29045166 106.17580566 104.58090332 105.35161133 103.84985352 104.50244141 C99.98815506 101.11150427 97.31543858 101.27242129 92.33984375 101.3359375 C91.51295547 101.33115387 90.6860672 101.32637024 89.8341217 101.32144165 C88.09178761 101.31804912 86.34938931 101.32720642 84.60717773 101.34814453 C81.94175447 101.3749572 79.28052845 101.34836127 76.61523438 101.31640625 C74.91926155 101.3197098 73.22329134 101.32611491 71.52734375 101.3359375 C70.73247055 101.32581635 69.93759735 101.31569519 69.11863708 101.30526733 C66.58122944 101.30473721 66.58122944 101.30473721 63 102 C60.62454433 104.38894367 60.62454433 104.38894367 59 107 C56.0625 107.625 56.0625 107.625 53 107 C52.29045166 106.17580566 51.58090332 105.35161133 50.84985352 104.50244141 C46.98815506 101.11150427 44.31543858 101.27242129 39.33984375 101.3359375 C38.51295547 101.33115387 37.6860672 101.32637024 36.8341217 101.32144165 C35.09178761 101.31804912 33.34938931 101.32720642 31.60717773 101.34814453 C28.94175447 101.3749572 26.28052845 101.34836127 23.61523438 101.31640625 C21.91926155 101.3197098 20.22329134 101.32611491 18.52734375 101.3359375 C17.73247055 101.32581635 16.93759735 101.31569519 16.11863708 101.30526733 C13.58122944 101.30473721 13.58122944 101.30473721 10 102 C7.63130142 104.39741856 7.63130142 104.39741856 6 107 C2.49968658 107.58338557 0.73205231 107.40455522 -2.375 105.6875 C-4 104 -4 104 -4 101 C-4.70608398 101.01571045 -5.41216797 101.0314209 -6.13964844 101.04760742 C-9.34301729 101.11002097 -12.54625812 101.14901111 -15.75 101.1875 C-16.86117188 101.21263672 -17.97234375 101.23777344 -19.1171875 101.26367188 C-20.18710937 101.27333984 -21.25703125 101.28300781 -22.359375 101.29296875 C-23.34389648 101.3086792 -24.32841797 101.32438965 -25.34277344 101.34057617 C-28.45003097 100.94231962 -29.77336984 100.17353946 -32 98 C-33.23212643 94.30362071 -33.15552039 90.87780074 -33.16113281 87.02783203 C-33.16609772 86.21612549 -33.17106262 85.40441895 -33.17617798 84.56811523 C-33.19078984 81.88133905 -33.19759973 79.1946219 -33.203125 76.5078125 C-33.20887695 74.64077757 -33.21463468 72.77374266 -33.22039795 70.90670776 C-33.23090495 66.99102503 -33.23674969 63.07536282 -33.24023438 59.15966797 C-33.24572059 54.14363999 -33.26975261 49.12788326 -33.29820633 44.11194038 C-33.31683427 40.25490528 -33.32203838 36.39793551 -33.32357025 32.54085922 C-33.3265966 30.69169506 -33.33462455 28.84253204 -33.34775543 26.99341202 C-33.36482037 24.40571724 -33.36293477 21.81868534 -33.35644531 19.23095703 C-33.3656601 18.46818451 -33.37487488 17.70541199 -33.3843689 16.91952515 C-33.34921472 12.44204049 -32.78147197 9.55435022 -30 6 C-27.5008956 4.7504478 -25.74335816 4.85818337 -22.94921875 4.82421875 C-21.43618164 4.78844727 -21.43618164 4.78844727 -19.89257812 4.75195312 C-17.76777795 4.70922405 -15.64271713 4.67784397 -13.51757812 4.65820312 C-7.62234109 4.496844 -4.38407223 4.28969886 0 0 Z " fill="#21CFA2" transform="translate(288,6)"/>
<path d="M0 0 C57.75 0 115.5 0 175 0 C175 39.93 175 79.86 175 121 C117.25 121 59.5 121 0 121 C0 81.07 0 41.14 0 0 Z " fill="#FE407E" transform="translate(294,236)"/>
<path d="M0 0 C2.31 0 4.62 0 7 0 C7.33 0.99 7.66 1.98 8 3 C11.49565336 5.33043558 12.8865729 5.58763244 17 5 C17.5472876 4.17967285 18.0945752 3.3593457 18.65844727 2.51416016 C21 0 21 0 24.86303711 -0.64697266 C26.41746801 -0.67988613 27.97269046 -0.68385797 29.52734375 -0.6640625 C30.3532753 -0.66884613 31.17920685 -0.67362976 32.03016663 -0.67855835 C33.77428088 -0.68195567 35.51845895 -0.67276472 37.26245117 -0.65185547 C39.92576935 -0.62511777 42.58486074 -0.65158726 45.24804688 -0.68359375 C46.94532177 -0.68028895 48.64259404 -0.67388126 50.33984375 -0.6640625 C51.5291172 -0.67924423 51.5291172 -0.67924423 52.74241638 -0.69473267 C57.02668848 -0.60440015 58.5025478 -0.43681016 61.84985352 2.50244141 C62.91417603 3.73873291 62.91417603 3.73873291 64 5 C67.04340127 5.83349951 67.04340127 5.83349951 70 5 C70.81706421 3.7637085 70.81706421 3.7637085 71.65063477 2.50244141 C74 0 74 0 77.86303711 -0.64697266 C79.41746801 -0.67988613 80.97269046 -0.68385797 82.52734375 -0.6640625 C83.3532753 -0.66884613 84.17920685 -0.67362976 85.03016663 -0.67855835 C86.77428088 -0.68195567 88.51845895 -0.67276472 90.26245117 -0.65185547 C92.92576935 -0.62511777 95.58486074 -0.65158726 98.24804688 -0.68359375 C99.94532177 -0.68028895 101.64259404 -0.67388126 103.33984375 -0.6640625 C104.5291172 -0.67924423 104.5291172 -0.67924423 105.74241638 -0.69473267 C110.02668848 -0.60440015 111.5025478 -0.43681016 114.84985352 2.50244141 C115.91417603 3.73873291 115.91417603 3.73873291 117 5 C120.04340127 5.83349951 120.04340127 5.83349951 123 5 C123.81706421 3.7637085 123.81706421 3.7637085 124.65063477 2.50244141 C127 0 127 0 130.86303711 -0.64697266 C132.41746801 -0.67988613 133.97269046 -0.68385797 135.52734375 -0.6640625 C136.3532753 -0.66884613 137.17920685 -0.67362976 138.03016663 -0.67855835 C139.77428088 -0.68195567 141.51845895 -0.67276472 143.26245117 -0.65185547 C145.92576935 -0.62511777 148.58486074 -0.65158726 151.24804688 -0.68359375 C152.94532177 -0.68028895 154.64259404 -0.67388126 156.33984375 -0.6640625 C157.5291172 -0.67924423 157.5291172 -0.67924423 158.74241638 -0.69473267 C163.02668848 -0.60440015 164.5025478 -0.43681016 167.84985352 2.50244141 C168.55940186 3.32663574 169.2689502 4.15083008 170 5 C173.04340127 5.83349951 173.04340127 5.83349951 176 5 C176.66 4.175 177.32 3.35 178 2.5 C178.66 1.675 179.32 0.85 180 0 C183.125 -0.15625 183.125 -0.15625 186 0 C186.34611328 1.52367188 186.34611328 1.52367188 186.69921875 3.078125 C191.62330793 24.15014109 200.57316649 41.33743703 218.625 54.0625 C226.96369247 59.97539102 232.10284767 66.10792054 235 76 C235.52236011 79.84518747 235.54163685 83.62307154 235.50793457 87.49938965 C235.51417453 88.61568803 235.5204145 89.73198642 235.52684355 90.88211203 C235.54272326 94.6006631 235.5301883 98.31855412 235.51757812 102.03710938 C235.52300147 104.71199947 235.5299813 107.38684499 235.53881836 110.0617218 C235.55655681 116.55956571 235.55278458 123.05722427 235.5411678 129.55507529 C235.53211526 134.83842396 235.53091732 140.12172087 235.53526306 145.40507507 C235.53587599 146.15850656 235.53648893 146.91193805 235.53712043 147.6882008 C235.5383994 149.21902916 235.53969625 150.74985751 235.5410108 152.28068584 C235.5524029 166.61790718 235.53932445 180.95502602 235.51780933 195.29223055 C235.49993957 207.58045109 235.50304407 219.86852046 235.52148438 232.15673828 C235.54291535 246.44445803 235.55130439 260.73208807 235.53903532 275.01982164 C235.53776119 276.54485606 235.53650371 278.06989049 235.53526306 279.59492493 C235.53433741 280.72029258 235.53433741 280.72029258 235.53339306 281.86839494 C235.52994683 287.14224033 235.53575277 292.41602857 235.54518127 297.68986511 C235.55642744 304.12147293 235.55330649 310.5528856 235.5320583 316.9844712 C235.52158275 320.26278833 235.51953762 323.54071545 235.53065491 326.8190403 C235.54161542 330.37988566 235.52783891 333.93982258 235.50793457 337.50061035 C235.51685746 338.52688962 235.52578034 339.5531689 235.53497362 340.61054754 C235.43413307 349.93679029 232.62471904 359.15725223 226 366 C219.51617901 371.17728832 212.53743676 375.62469049 204 375 C204.38671875 374.52691406 204.7734375 374.05382812 205.171875 373.56640625 C210.84231903 366.36606519 215.11701191 358.68888145 215.13142776 349.34749317 C215.13526891 348.41152925 215.13911005 347.47556533 215.1430676 346.51123887 C215.14220112 345.48625517 215.14133463 344.46127147 215.14044189 343.40522766 C215.14341302 342.31376802 215.14638414 341.22230838 215.1494453 340.09777421 C215.15814129 336.42756118 215.15964131 332.75738073 215.16113281 329.0871582 C215.16576036 326.46080963 215.17078494 323.83446173 215.17617798 321.20811462 C215.1897561 314.06334866 215.19578534 306.9185883 215.20018864 299.77381158 C215.20295221 295.31125981 215.2071898 290.8487102 215.21169281 286.3861599 C215.22388531 274.02717506 215.23418433 261.66819196 215.2375679 249.30920124 C215.23778747 248.51828597 215.23800703 247.7273707 215.23823325 246.91248829 C215.23845153 246.11969377 215.23866981 245.32689924 215.2388947 244.51008064 C215.23933816 242.9036117 215.23978473 241.29714276 215.24023438 239.69067383 C215.2404558 238.89381187 215.24067723 238.09694991 215.24090537 237.27594062 C215.24485202 224.36859557 215.26230205 211.46130702 215.2855939 198.55398379 C215.30932216 185.29763597 215.32177044 172.04131649 215.32293582 158.7849471 C215.32385181 151.34387236 215.32958475 143.90287122 215.34775543 136.46181679 C215.36317641 130.12450266 215.36826517 123.78728489 215.36001733 117.44995556 C215.35611771 114.21842933 215.3586476 110.98713703 215.37107468 107.75562668 C215.38377584 104.24681482 215.37792673 100.73849903 215.36749268 97.22969055 C215.37554908 96.21586046 215.38360548 95.20203037 215.39190602 94.15747815 C215.32292402 84.22338783 212.67549506 75.52097364 206 68 C201.81792634 64.44765944 197.43697309 61.22486766 193 58 C184.1477609 51.40165204 178.55890112 42.5246437 173.5625 32.8125 C173.22033447 32.15975098 172.87816895 31.50700195 172.52563477 30.83447266 C172.20908936 30.19429199 171.89254395 29.55411133 171.56640625 28.89453125 C171.28740479 28.33612549 171.00840332 27.77771973 170.72094727 27.20239258 C169.64800254 23.92469724 169.42777595 20.4222076 169 17 C116.53 17.33 64.06 17.66 10 18 C12.97 19.65 15.94 21.3 19 23 C19.66 23.66 20.32 24.32 21 25 C23.68400835 25.19136815 26.26579308 25.2591093 28.95043945 25.23950195 C29.77175354 25.24151611 30.59306763 25.24353027 31.43927002 25.24560547 C33.22627233 25.24915621 35.01328719 25.24837745 36.80028725 25.24382973 C39.62898417 25.23825028 42.45726891 25.24737299 45.28593445 25.2610321 C53.329557 25.29821594 61.37304204 25.31670142 69.41674805 25.30541992 C74.33407042 25.29956798 79.25081554 25.31783655 84.16802025 25.35130882 C86.04227269 25.3592653 87.916588 25.35798247 89.7908268 25.34728432 C92.41498094 25.33295372 95.03732281 25.34923137 97.66137695 25.37231445 C98.43507126 25.36054672 99.20876556 25.34877899 100.00590515 25.33665466 C103.97791419 25.40512319 105.82845246 25.86851224 109.01725769 28.31266785 C111 31 111 31 111.0625 34.625 C109.86821897 38.41859858 109.40328449 39.13587795 106 41 C103.46802851 41.27444665 101.18868529 41.38026285 98.66113281 41.34057617 C97.56297997 41.34123329 97.56297997 41.34123329 96.44264221 41.34190369 C94.02919601 41.33981808 91.61644944 41.31649855 89.203125 41.29296875 C87.52732727 41.28737197 85.85152462 41.28310226 84.17572021 41.28010559 C79.76973873 41.26866325 75.36405496 41.23920143 70.95819092 41.20599365 C66.4604495 41.17527955 61.96265987 41.16159739 57.46484375 41.14648438 C48.64309852 41.11433107 39.82157404 41.06314215 31 41 C31.16265854 41.65804123 31.32531708 42.31608246 31.49290466 42.99406433 C32.11948335 46.70826771 32.13152718 50.34154955 32.11352539 54.0949707 C32.11364593 54.9083726 32.11376646 55.7217745 32.11389065 56.55982494 C32.11314676 59.1818386 32.10554245 61.80378038 32.09765625 64.42578125 C32.09618521 66.04894985 32.0951655 67.67211892 32.09460449 69.29528809 C32.08937042 75.30103264 32.07540917 81.30676703 32.0625 87.3125 C32.0315625 107.4528125 32.0315625 107.4528125 32 128 C84.8 128 137.6 128 192 128 C192 128.33 192 128.66 192 129 C134.25 129 76.5 129 17 129 C16.67 101.61 16.34 74.22 16 46 C10.48444912 35.97089608 10.48444912 35.97089608 1 32 C-2.67359437 31.38309589 -6.2775809 31.07784527 -10 31 C-9.52949219 29.85144531 -9.05898438 28.70289063 -8.57421875 27.51953125 C-4.90903939 18.42674625 -1.7937686 9.66926691 0 0 Z " fill="#FEDAB1" transform="translate(277,107)"/>
<path d="M0 0 C0.99837891 -0.00773437 1.99675781 -0.01546875 3.02539062 -0.0234375 C16.91891451 0.01310037 29.5242887 4.8255728 40.5625 13.25 C41.30113281 13.80042969 42.03976563 14.35085938 42.80078125 14.91796875 C54.73341543 24.58360852 62.9337937 40.00852623 64.5625 55.25 C65.19964139 65.00297372 64.94594742 73.97847525 61.5625 83.25 C61.29566406 84.07628906 61.02882813 84.90257812 60.75390625 85.75390625 C57.53561228 94.89386112 51.65172223 102.70610255 44.5625 109.25 C43.92054688 110.02537109 43.92054688 110.02537109 43.265625 110.81640625 C33.19377706 122.41979808 17.69816226 125.89080583 3.12109375 127.5234375 C-12.58208243 128.29816725 -28.70678412 122.35906893 -40.51611328 112.16625977 C-53.86794905 99.93796812 -61.72754121 85.05771193 -62.6015625 66.828125 C-62.78912669 58.47299291 -62.02980851 51.19525724 -59.4375 43.25 C-59.17066406 42.39921875 -58.90382812 41.5484375 -58.62890625 40.671875 C-56.14318054 33.64555698 -52.01574071 28.07116153 -47.4375 22.25 C-46.80714844 21.40953125 -46.17679688 20.5690625 -45.52734375 19.703125 C-34.22227011 6.43287034 -17.00908808 -0.13125984 0 0 Z " fill="#A2E8FA" transform="translate(210.4375,378.75)"/>
<path d="M0 0 C11.85061594 10.16044612 21.3792962 24.62911714 22.9050293 40.51489258 C23.90669497 60.5130962 19.33395605 78.93054092 5.6875 94.25 C-5.43370158 106.40183018 -21.84420704 112.9158111 -38.10229492 113.64819336 C-52.64154413 113.93073037 -64.99743383 109.75712938 -77.3125 102.25 C-77.3125 98.25 -77.3125 98.25 -75.4375 96 C-73.3125 94.25 -73.3125 94.25 -71.3125 94.25 C-71.04050781 93.66476562 -70.76851563 93.07953125 -70.48828125 92.4765625 C-69.33283513 90.28850838 -68.05003986 88.54721302 -66.5 86.625 C-56.29375252 73.20751856 -53.02139399 57.80219017 -54.3125 41.25 C-56.45085288 25.75302634 -63.71784241 11.27994835 -75.8125 1.125 C-76.6375 0.50625 -77.4625 -0.1125 -78.3125 -0.75 C-58.41258354 -22.42920311 -20.96023004 -15.8257861 0 0 Z " fill="#6BBDFE" transform="translate(328.3125,392.75)"/>
<path d="M0 0 C52.8 0 105.6 0 160 0 C160 15.18 160 30.36 160 46 C145.56982805 46.29408845 131.1416561 46.53241182 116.70916176 46.67355824 C110.00699809 46.74044102 103.30683551 46.83151687 96.60595703 46.98071289 C90.134809 47.12231329 83.66573521 47.19976414 77.1931572 47.23340416 C74.72818724 47.25736485 72.26332683 47.3041599 69.79924393 47.37449074 C49.42571278 47.93269681 49.42571278 47.93269681 44.23846436 43.05453491 C41.59433421 39.95504781 39.7569385 36.66280639 38 33 C36.31581982 31.31581982 33.98991671 31.51380277 31.6875 31.1875 C28.31949329 30.58388321 26.22964952 30.14419854 23.3125 28.3125 C22 26 22 26 22.25 22.5625 C22.38626068 19.11589524 22.38626068 19.11589524 20.69140625 17.61328125 C15.46193554 14.16683174 9.51756651 12.14070151 3.66015625 10.015625 C1 9 1 9 0 8 C0 5.36 0 2.72 0 0 Z " fill="#B5F0D8" transform="translate(309,358)"/>
<path d="M0 0 C0.66644531 0.41378906 1.33289063 0.82757813 2.01953125 1.25390625 C2.71691406 1.67800781 3.41429687 2.10210937 4.1328125 2.5390625 C11.25538679 7.35451292 15.75787292 13.97829281 18.01953125 22.25390625 C18.87208301 30.7100301 18.53963892 37.9511073 14.01953125 45.25390625 C13.60703125 45.95128906 13.19453125 46.64867187 12.76953125 47.3671875 C8.13385098 54.36021654 0.91868242 58.65627806 -6.98046875 61.25390625 C-15.42553164 62.13105046 -22.69104899 61.76573279 -29.98046875 57.25390625 C-31.02654297 56.63515625 -31.02654297 56.63515625 -32.09375 56.00390625 C-39.08677904 51.36822598 -43.38284056 44.15305742 -45.98046875 36.25390625 C-46.85679527 27.816716 -46.50054283 20.53390095 -41.98046875 13.25390625 C-41.55636719 12.55652344 -41.13226563 11.85914063 -40.6953125 11.140625 C-31.89709877 -1.87288891 -14.32298642 -7.62652524 0 0 Z " fill="#FBAD45" transform="translate(233.98046875,290.74609375)"/>
<path d="M0 0 C8.34478337 6.46676418 14.82488168 13.40596545 16.23046875 24.2265625 C16.68966713 34.4437265 14.37104077 41.82751025 8.1015625 49.89453125 C2.90330848 55.53493561 -4.03999861 59.49874579 -11.76953125 59.94140625 C-13.17049924 59.96263304 -14.57156478 59.9780543 -15.97265625 59.98828125 C-16.66359375 60.00890625 -17.35453125 60.02953125 -18.06640625 60.05078125 C-26.27255007 60.11248158 -33.02595635 56.68757744 -39.01171875 51.0546875 C-45.38287432 44.31752938 -48.38400273 37.53486663 -48.72265625 28.23828125 C-48.33095906 18.11350239 -44.78282444 11.19878011 -37.7578125 3.9453125 C-27.67099173 -4.83597214 -11.85576642 -6.73007479 0 0 Z " fill="#FCAD44" transform="translate(236.22265625,192.26171875)"/>
<path d="M0 0 C8.01446038 4.1675194 14.08277852 11.52154964 17 20 C17.44311779 22.95054971 17.52526567 25.83178277 17.5 28.8125 C17.49355469 29.60640137 17.48710938 30.40030273 17.48046875 31.21826172 C17.2062835 40.03728588 14.2459218 45.75225743 8.4375 52.3125 C1.87446164 58.37163466 -5.73963203 61.23806371 -14.625 61.5625 C-24.61104788 61.08640713 -31.62445873 57.53300368 -38.79296875 50.6015625 C-45.36813512 42.85101241 -46.80043065 34.44860622 -46.4140625 24.484375 C-45.40123837 15.9613644 -41.2313908 9.77728135 -35 4 C-24.12849428 -4.14329516 -12.60112767 -5.2126967 0 0 Z " fill="#FCAD44" transform="translate(88,291)"/>
<path d="M0 0 C7.91658722 4.70001467 13.17394686 11.45543432 16.10546875 20.25 C16.87926224 31.42560758 16.52845309 40.89048723 9.35546875 50.0625 C3.68524803 56.13364541 -3.3474196 59.79814267 -11.62890625 60.62109375 C-20.18214773 60.88012269 -26.64578315 60.26729792 -33.89453125 55.25 C-34.76658203 54.67378906 -34.76658203 54.67378906 -35.65625 54.0859375 C-41.57486643 49.7028815 -44.98149442 43.21952183 -46.89453125 36.25 C-47.86173111 26.51691512 -47.56041517 18.56764936 -41.89453125 10.25 C-41.31703125 9.3425 -40.73953125 8.435 -40.14453125 7.5 C-29.48545386 -3.15907739 -13.84695166 -6.67993648 0 0 Z " fill="#FCAD44" transform="translate(88.89453125,191.75)"/>
<path d="M0 0 C2.18742466 1.52162266 2.18742466 1.52162266 4 4 C4.3906948 6.84768629 4.53649054 9.30771883 4.50120544 12.15403748 C4.50673984 12.98288848 4.51227424 13.81173947 4.51797634 14.66570717 C4.53160611 17.44728223 4.51660117 20.22796361 4.50170898 23.00952148 C4.50549135 25.00197735 4.5109907 26.9944306 4.51808167 28.98687744 C4.53206522 34.40220426 4.52084567 39.81721439 4.50437045 45.23252368 C4.49053803 50.8956648 4.49697804 56.55878718 4.50050354 62.22193909 C4.50320731 71.73403029 4.48971641 81.24599543 4.46655273 90.75805664 C4.43994964 101.75871291 4.43819288 112.75915826 4.4499411 123.75983566 C4.4607174 134.33605808 4.45453245 144.91220413 4.44038582 155.48842049 C4.43462399 159.99191147 4.43471029 164.49534661 4.43945122 168.99883842 C4.44422066 174.30203136 4.4341205 179.60499313 4.41249657 184.90814209 C4.40692783 186.85561913 4.40646419 188.80311838 4.41144943 190.750597 C4.41739697 193.40698156 4.40490733 196.06265814 4.38768005 198.71897888 C4.3936901 199.4915487 4.39970014 200.26411852 4.40589231 201.06009954 C4.35300585 205.53804632 3.78330652 208.44440849 1 212 C-1.84083641 213.42041821 -3.85477278 213.31452272 -7 213 C-9.16356659 211.49526215 -9.16356659 211.49526215 -11 209 C-11.39279652 206.12632884 -11.54066098 203.63607982 -11.50793457 200.76330566 C-11.51417453 199.92558199 -11.5204145 199.08785832 -11.52684355 198.22474909 C-11.54281863 195.41321964 -11.53015179 192.60255175 -11.51757812 189.79101562 C-11.52299724 187.77723178 -11.53011871 185.76345191 -11.53881836 183.74967957 C-11.55707964 178.27658335 -11.54997253 172.80378817 -11.53730202 167.33068657 C-11.52718891 161.6083481 -11.53656299 155.88603575 -11.54284668 150.16369629 C-11.550128 140.55325686 -11.54052261 130.94294031 -11.52148438 121.33251953 C-11.49971477 110.21479079 -11.5067658 99.09735544 -11.52879 87.97963381 C-11.54693013 78.44153977 -11.54950909 68.90353416 -11.53903532 59.36542845 C-11.53279278 53.66551115 -11.53198569 47.96573185 -11.54518127 42.26582336 C-11.55671893 36.90759327 -11.54875204 31.54974218 -11.52560425 26.19155312 C-11.52030602 24.22269127 -11.52184988 22.25379764 -11.53065491 20.28494835 C-11.54155005 17.60176346 -11.52792026 14.91980086 -11.50793457 12.23669434 C-11.51685746 11.45342978 -11.52578034 10.67016522 -11.53497362 9.86316538 C-11.48445793 6.37828411 -11.26781072 4.36686213 -9.18700409 1.5164566 C-5.9783138 -0.70843159 -3.80858428 -0.54408347 0 0 Z " fill="#20CFA2" transform="translate(151,163)"/>
<path d="M0 0 C8.63269752 6.72354326 13.5709172 15.71275161 17 26 C18.39397732 39.5762804 16.92491049 51.61468658 8.6875 62.875 C-1.02989757 74.3381638 -11.29795923 79.32450799 -26.19140625 81.2890625 C-37.98281774 81.83063046 -48.76402999 76.68193817 -57.625 69.375 C-66.70973965 60.94143924 -71.9331011 50.81400251 -72.40039062 38.51000977 C-72.61815332 24.51445877 -68.60781772 14.06032732 -58.8984375 3.7734375 C-42.18303094 -11.9969284 -18.88291537 -13.06835911 0 0 Z M-54 17 C-59.62400678 24.95118199 -59.90835915 33.55684972 -59 43 C-57.00348737 50.75431244 -53.56957819 57.27141685 -47 62 C-37.52380228 67.52417614 -28.68984205 69.98268217 -17.7578125 67.1640625 C-8.2549171 63.56118358 -1.10363162 57.44454431 3.1484375 48.1015625 C5.45721172 39.6925408 5.6533066 29.40233355 2 21.375 C-2.8763041 13.4304596 -9.06464831 7.83942056 -18 5 C-32.23101165 1.64882629 -44.73150489 5.44164139 -54 17 Z " fill="#23CFA1" transform="translate(101,284)"/>
<path d="M0 0 C13.18553722 -0.47024027 25.11380657 3.5489419 34.92578125 12.4296875 C44.68238003 22.77262034 48.30657942 35.09865334 48.0234375 48.99609375 C47.42135786 59.11254156 42.54180915 69.36372358 35.4140625 76.5546875 C31.98205205 79.4974386 28.49859598 81.94529772 24.55078125 84.15234375 C23.70128906 84.64089844 22.85179688 85.12945312 21.9765625 85.6328125 C12.11535225 90.54278748 0.45865928 91.01695695 -10.125 88.16015625 C-15.28868671 86.08953717 -20.01537863 83.50475945 -24.44921875 80.15234375 C-25.27421875 79.57484375 -26.09921875 78.99734375 -26.94921875 78.40234375 C-35.7784737 70.4560143 -40.86488767 59.33857194 -41.6171875 47.51171875 C-41.71961191 33.82781732 -38.21515079 22.15079798 -28.44921875 12.15234375 C-20.24282603 4.84940711 -10.94355652 0.68069969 0 0 Z M-15.44921875 18.15234375 C-16.52171875 18.87421875 -17.59421875 19.59609375 -18.69921875 20.33984375 C-26.09612081 27.90485722 -28.74518394 35.53654166 -28.76611328 45.88842773 C-28.61194107 54.3479141 -26.10310253 61.28421343 -20.296875 67.55078125 C-11.3890888 75.27211812 -2.8026171 76.85656578 8.5859375 76.33154297 C16.10612853 75.64568062 22.57240874 71.68951317 27.55078125 66.15234375 C34.37509658 57.07745635 35.98086127 47.27079196 34.55078125 36.15234375 C33.38874591 32.39733698 31.78137367 29.37499522 29.55078125 26.15234375 C29.16664062 25.57097656 28.7825 24.98960937 28.38671875 24.390625 C24.00366275 18.47200857 17.52030308 15.06538058 10.55078125 13.15234375 C0.84433424 12.18779096 -7.17988146 12.44935252 -15.44921875 18.15234375 Z " fill="#23CFA1" transform="translate(70.44921875,175.84765625)"/>
<path d="M0 0 C11.37943009 6.58539733 19.8945736 15.86078281 23.78125 28.55078125 C26.91659566 42.47419124 24.46216148 54.34172044 17.13378906 66.27587891 C10.86079625 75.8150424 0.2093331 82.63346659 -11 85 C-26.36014454 85.92861132 -37.83983721 84.1806014 -50 74 C-57.21928399 67.41398653 -63.22448979 57.98579183 -64.19287109 48.01391602 C-64.70820424 33.55804056 -63.56871834 22.54960959 -53.94921875 11.03125 C-40.13491521 -3.36441701 -18.3702128 -9.90292173 0 0 Z M-44.5 19.25 C-50.58186652 26.85233315 -52.74732706 34.10697024 -52.37109375 43.83203125 C-51.21515155 53.70012734 -46.18973746 60.35677975 -39 67 C-30.85244365 73.03110128 -21.69292772 72.6645494 -12 72 C-3.60507579 70.03447473 3.27127514 64.00942742 7.875 56.875 C12.45990682 49.1479892 12.98730702 41.7983909 12 33 C9.03530244 23.81049262 3.59460669 16.65304574 -4.625 11.625 C-18.31969791 5.03125656 -34.15589983 8.52490166 -44.5 19.25 Z " fill="#23CFA1" transform="translate(240,180)"/>
<path d="M0 0 C12.54 0 25.08 0 38 0 C38 26.4 38 52.8 38 80 C25.46 80 12.92 80 0 80 C0 53.6 0 27.2 0 0 Z " fill="#B3F1D8" transform="translate(404,11)"/>
<path d="M0 0 C12.54 0 25.08 0 38 0 C38 26.4 38 52.8 38 80 C25.46 80 12.92 80 0 80 C0 53.6 0 27.2 0 0 Z " fill="#B3F1D8" transform="translate(351,11)"/>
<path d="M0 0 C12.54 0 25.08 0 38 0 C38 26.4 38 52.8 38 80 C25.46 80 12.92 80 0 80 C0 53.6 0 27.2 0 0 Z " fill="#B3F1D8" transform="translate(298,11)"/>
<path d="M0 0 C3.39488422 2.05107588 4.80323081 3.70484621 7 7 C7.1953125 10.35546875 7.1953125 10.35546875 7.125 14.1875 C7.10695313 15.45980469 7.08890625 16.73210937 7.0703125 18.04296875 C7.04710937 19.01878906 7.02390625 19.99460937 7 21 C7.86882812 20.95359375 8.73765625 20.9071875 9.6328125 20.859375 C20.22127518 20.5277453 20.22127518 20.5277453 23.6875 22.8125 C26.16609849 25.1571202 27.83383708 26.86004505 28.3359375 30.3046875 C28.40080195 34.57276853 28.43985326 37.24596584 26.25 41 C21.96628136 44.8077499 18.97770126 45.23955403 13.25 45.125 C12.07953125 45.10695313 10.9090625 45.08890625 9.703125 45.0703125 C8.81109375 45.04710937 7.9190625 45.02390625 7 45 C7.04640625 45.95261719 7.0928125 46.90523438 7.140625 47.88671875 C7.19476563 49.76810547 7.19476563 49.76810547 7.25 51.6875 C7.29640625 52.92886719 7.3428125 54.17023438 7.390625 55.44921875 C6.93424876 59.59767878 5.91772808 61.08751963 3 64 C-1.22923068 66.81948712 -5.03272568 66.7934943 -10 66 C-13.15835169 63.56543724 -14.79981495 61.30027757 -17 58 C-17.1953125 54.86328125 -17.1953125 54.86328125 -17.125 51.3125 C-17.10695313 50.13300781 -17.08890625 48.95351563 -17.0703125 47.73828125 C-17.04710937 46.83464844 -17.02390625 45.93101562 -17 45 C-17.95261719 45.04640625 -18.90523438 45.0928125 -19.88671875 45.140625 C-21.14097656 45.17671875 -22.39523437 45.2128125 -23.6875 45.25 C-24.92886719 45.29640625 -26.17023438 45.3428125 -27.44921875 45.390625 C-31.59767878 44.93424876 -33.08751963 43.91772808 -36 41 C-38.82220955 36.76668568 -38.78619823 32.97131405 -38 28 C-35.45525722 24.60700963 -32.91485438 22.55767093 -29 21 C-25.984375 20.8046875 -25.984375 20.8046875 -22.75 20.875 C-21.67234375 20.89304687 -20.5946875 20.91109375 -19.484375 20.9296875 C-18.25460937 20.96449219 -18.25460937 20.96449219 -17 21 C-17.05220703 19.80503906 -17.05220703 19.80503906 -17.10546875 18.5859375 C-17.38325991 7.71239773 -17.38325991 7.71239773 -14 3 C-9.69656906 -0.88335634 -5.5612791 -0.82923448 0 0 Z " fill="#B5F0D8" transform="translate(375,266)"/>
<path d="M0 0 C12.81833818 9.32917663 21.46416179 27.80465863 24.6484375 42.88574219 C25.37784251 47.91749703 25.22793372 52.96268572 25.1484375 58.03515625 C25.13941406 59.13923828 25.13039063 60.24332031 25.12109375 61.38085938 C25.09773878 64.07835795 25.06498804 66.77538702 25.0234375 69.47265625 C25.99168457 69.44123535 25.99168457 69.44123535 26.97949219 69.40917969 C29.91064818 69.3259142 32.84155527 69.27396419 35.7734375 69.22265625 C36.78921875 69.18914062 37.805 69.155625 38.8515625 69.12109375 C46.35389459 69.02237885 46.35389459 69.02237885 49.6953125 71.26953125 C51.6564529 74.52271709 51.5547645 76.75336722 51.0234375 80.47265625 C48.88894246 83.29130049 47.68676037 84.34519063 44.18261719 85.01855469 C42.58015137 85.04997559 42.58015137 85.04997559 40.9453125 85.08203125 C39.78515625 85.11425781 38.625 85.14648438 37.4296875 85.1796875 C36.223125 85.19386719 35.0165625 85.20804687 33.7734375 85.22265625 C32.55140625 85.25230469 31.329375 85.28195312 30.0703125 85.3125 C27.05462106 85.38318027 24.039702 85.435888 21.0234375 85.47265625 C20.52714844 86.52324219 20.03085937 87.57382812 19.51953125 88.65625 C14.11781575 99.89765793 8.13746281 108.85727062 -0.9765625 117.47265625 C-6.28683504 116.0123313 -10.43986282 113.48944639 -14.9765625 110.47265625 C-13.61417032 107.63042428 -12.42423081 105.51237984 -9.9765625 103.47265625 C-9.3165625 103.47265625 -8.6565625 103.47265625 -7.9765625 103.47265625 C-7.70457031 102.88742187 -7.43257813 102.3021875 -7.15234375 101.69921875 C-5.99689763 99.51116463 -4.71410236 97.76986927 -3.1640625 95.84765625 C7.04218498 82.43017481 10.31454351 67.02484642 9.0234375 50.47265625 C6.88508462 34.97568259 -0.38190491 20.5026046 -12.4765625 10.34765625 C-13.3015625 9.72890625 -14.1265625 9.11015625 -14.9765625 8.47265625 C-11.78753625 4.72901674 -5.27787905 -1.40812979 0 0 Z " fill="#0295F2" transform="translate(264.9765625,383.52734375)"/>
<path d="M0 0 C7.59 0 15.18 0 23 0 C28.57026081 5.57026081 28.57026081 5.57026081 28.62210083 10.38169861 C28.60412445 11.06502762 28.58614807 11.74835663 28.56762695 12.45239258 C28.56835709 13.1846405 28.56908722 13.91688843 28.56983948 14.67132568 C28.56636958 17.07982746 28.52754128 19.48636949 28.48828125 21.89453125 C28.47895089 23.56889286 28.47183583 25.24326816 28.46684265 26.91764832 C28.44779016 31.31564296 28.39870522 35.71280644 28.34332275 40.11047363 C28.29209205 44.60152951 28.2693205 49.09272025 28.24414062 53.58398438 C28.1905838 62.38974607 28.102663 71.19467375 28 80 C18.76 80 9.52 80 0 80 C0 53.6 0 27.2 0 0 Z " fill="#B3F1D8" transform="translate(457,11)"/>
<path d="M0 0 C0 26.4 0 52.8 0 80 C-9.24 80 -18.48 80 -28 80 C-28.06780602 70.43796044 -28.12283351 60.87608085 -28.15543652 51.31385517 C-28.17108517 46.87361524 -28.19230877 42.43354848 -28.22631836 37.9934082 C-28.25894044 33.70753975 -28.27685904 29.42183776 -28.28463173 25.13585472 C-28.29017013 23.50159269 -28.30098535 21.86733965 -28.31719017 20.23314857 C-28.33900272 17.94209814 -28.34196539 15.65173346 -28.34057617 13.3605957 C-28.34723801 12.05709671 -28.35389984 10.75359772 -28.36076355 9.41059875 C-27.97558011 5.76913839 -27.20442298 3.88998991 -25 1 C-17.54047961 -2.72976019 -8.33999734 0 0 0 Z " fill="#B4F1D8" transform="translate(283,11)"/>
<path d="M0 0 C4.95 0 9.9 0 15 0 C15 39.93 15 79.86 15 121 C10.05 121 5.1 121 0 121 C0 81.07 0 41.14 0 0 Z " fill="#E2035A" transform="translate(294,236)"/>
<path d="M0 0 C5.94 0 11.88 0 18 0 C25.09517317 12.61364119 27.3476968 24.51054723 27.4375 38.8125 C27.4475708 39.84963135 27.4576416 40.8867627 27.46801758 41.95532227 C27.36008727 51.56265081 24.93864195 60.05842841 21.4375 68.9375 C21.02371094 69.99839844 20.60992187 71.05929687 20.18359375 72.15234375 C19.21748635 74.47674077 18.12571622 76.74856756 17 79 C10.73 79 4.46 79 -2 79 C-0.7480981 76.4961962 0.52814905 74.00425402 1.83984375 71.53125 C10.36288457 55.30189239 14.55792763 38.11027552 9.375 19.9375 C7.51086367 14.75934354 5.04943325 9.98561522 2.26953125 5.2421875 C1 3 1 3 0 0 Z " fill="#FDDAB2" transform="translate(339,404)"/>
<path d="M0 0 C0.6461879 -0.00554901 1.29237579 -0.01109802 1.95814514 -0.01681519 C4.08288998 -0.02857527 6.20548423 -0.0043788 8.33007812 0.02148438 C9.81310936 0.02319659 11.29614363 0.02312867 12.7791748 0.0213623 C15.88286411 0.02301345 18.98582929 0.04167196 22.08935547 0.07324219 C26.0606948 0.11291997 30.03108643 0.11728634 34.00258636 0.10977936 C37.06362537 0.10670468 40.1244527 0.11884772 43.18544006 0.13591003 C44.64940564 0.14292386 46.11339519 0.14606653 47.57737732 0.1452179 C49.62624169 0.1470228 51.67398643 0.16846072 53.72265625 0.1953125 C55.46875183 0.20794128 55.46875183 0.20794128 57.25012207 0.2208252 C60.69022423 0.6569287 62.59659845 1.55577516 65.36132812 3.61523438 C66.20898438 5.51757812 66.20898438 5.51757812 66.42382812 7.55273438 C66.51792969 8.22175781 66.61203125 8.89078125 66.70898438 9.58007812 C66.18179736 12.66619535 64.7880115 13.69234407 62.36132812 15.61523438 C59.24975586 16.12316895 59.24975586 16.12316895 55.54492188 16.1328125 C54.868013 16.13982178 54.19110413 16.14683105 53.49368286 16.15405273 C51.26164425 16.17162262 49.03087906 16.1600151 46.79882812 16.14648438 C45.24470782 16.14917962 43.69058915 16.15306231 42.13647461 16.15808105 C38.88150964 16.16397468 35.62698415 16.15541804 32.37207031 16.13671875 C28.20209268 16.11392865 24.03314481 16.12705255 19.86320496 16.15100861 C16.6546657 16.16547062 13.44637013 16.16085889 10.23782349 16.15049744 C8.70044838 16.14783123 7.16305107 16.15109622 5.6257019 16.16041565 C3.47578427 16.17058867 1.32752837 16.15507325 -0.82226562 16.1328125 C-2.04486084 16.12963013 -3.26745605 16.12644775 -4.52709961 16.12316895 C-8.23156053 15.51845094 -9.41473665 14.58841072 -11.63867188 11.61523438 C-12.20117188 8.67773438 -12.20117188 8.67773438 -11.63867188 5.61523438 C-8.01410036 1.07998118 -5.75979326 -0.0101654 0 0 Z " fill="#FE407E" transform="translate(342.638671875,372.384765625)"/>
<path d="M0 0 C7.10832328 4.91158502 13.14172102 11.98846596 19.22973633 18.09936523 C20.95474713 19.82980137 22.68512428 21.5547449 24.41601562 23.27929688 C25.51594633 24.37988729 26.61556738 25.48078728 27.71484375 26.58203125 C28.23143051 27.09659378 28.74801727 27.61115631 29.28025818 28.14131165 C33.86481725 32.75631868 33.86481725 32.75631868 34.3125 36.875 C34 40 34 40 32.4375 42.375 C28.91751657 44.72165562 27.16889057 44.7642966 23 44 C16.05217641 39.17405748 10.21502373 32.36889091 4.25244141 26.3828125 C2.61084038 24.73579365 0.96388532 23.09426198 -0.68359375 21.453125 C-1.73469625 20.40136262 -2.78548901 19.34929058 -3.8359375 18.296875 C-4.3254892 17.80934753 -4.81504089 17.32182007 -5.31942749 16.81951904 C-10.83892656 11.26174192 -10.83892656 11.26174192 -11.375 7.0625 C-11 4 -11 4 -9.4375 1.625 C-5.91751657 -0.72165562 -4.16889057 -0.7642966 0 0 Z " fill="#6DBEFE" transform="translate(187,433)"/>
<path d="M0 0 C1.22332031 -0.01933594 2.44664063 -0.03867187 3.70703125 -0.05859375 C13.66379055 -0.00418523 13.66379055 -0.00418523 16.80859375 2.97265625 C18.88572227 6.2298624 19.22600756 7.83362721 18.5 11.625 C16.6329009 13.92775556 15.14352259 15.30323871 12.5 16.625 C8.42340532 16.94899495 4.33787117 16.94953245 0.25 17 C-1.44962891 17.05607422 -1.44962891 17.05607422 -3.18359375 17.11328125 C-12.56373698 17.21225111 -12.56373698 17.21225111 -16.25390625 14.2890625 C-18.5 11.625 -18.5 11.625 -19.1875 8.625 C-18.49347623 5.59653262 -17.69397051 3.82527562 -15.43286133 1.67675781 C-10.83470616 -0.82530767 -5.08632543 -0.08039503 0 0 Z " fill="#25D0A4" transform="translate(52.5,394.375)"/>
<path d="M0 0 C1.51013672 -0.04350586 1.51013672 -0.04350586 3.05078125 -0.08789062 C10.43832377 -0.15166091 10.43832377 -0.15166091 13.7890625 2.11328125 C15.76284997 5.36252788 15.65663049 7.59108655 15.125 11.3125 C13.78125 13.5 13.78125 13.5 11.125 15.3125 C7.45120653 15.91400271 3.83980191 15.87009383 0.125 15.8125 C-0.87273437 15.82796875 -1.87046875 15.8434375 -2.8984375 15.859375 C-10.16434035 15.82041574 -10.16434035 15.82041574 -13.50390625 13.43359375 C-15.14064409 10.90154632 -15.8011431 9.34063299 -15.875 6.3125 C-12.32145059 -1.13303209 -7.45147624 0.07101153 0 0 Z " fill="#FFDBB1" transform="translate(411.875,132.6875)"/>
<path d="M0 0 C2.875 1.75 2.875 1.75 5 5 C5.86091458 9.68648236 6.43535188 14.69963474 3.8203125 18.890625 C1.58039168 20.91003548 -0.65424218 21.91566883 -3.5625 22.625 C-7.47804045 21.62101527 -8.72865542 20.37456909 -11 17 C-11.98364949 11.30270216 -12.08315394 6.65658838 -8.875 1.75 C-5.44812458 -0.33592417 -3.9330652 -0.81938858 0 0 Z " fill="#FECB6F" transform="translate(213,309)"/>
<path d="M0 0 C2.875 1.8125 2.875 1.8125 5 5 C5.88502228 10.13312923 5.72646116 14.45627004 3.5 19.1875 C0.47208477 21.38273854 -1.40737149 21.7468242 -5.09375 21.46484375 C-7 21 -7 21 -9.5 19.1875 C-11.72646116 14.45627004 -11.88502228 10.13312923 -11 5 C-7.98994095 0.48491143 -5.40761204 -1.12658584 0 0 Z " fill="#FECB6F" transform="translate(213,210)"/>
<path d="M0 0 C1.65625 1.1484375 1.65625 1.1484375 3 3 C3.92859676 8.86563621 4.06824364 14.25196495 0.9375 19.375 C-2 21 -2 21 -5.625 21.0625 C-9.40309524 19.87309965 -10.11509004 19.36591065 -12 16 C-12.3984375 12.87109375 -12.3984375 12.87109375 -12.375 9.4375 C-12.38273437 8.30183594 -12.39046875 7.16617187 -12.3984375 5.99609375 C-12 3 -12 3 -10.6640625 1.16015625 C-6.96669004 -1.41758934 -4.20285015 -1.05071254 0 0 Z " fill="#FECC70" transform="translate(68,310)"/>
<path d="M0 0 C2.97975696 2.21353374 3.89684579 3.39927841 4.53125 7.09375 C4.5209375 8.2178125 4.510625 9.341875 4.5 10.5 C4.5103125 11.6240625 4.520625 12.748125 4.53125 13.90625 C3.89684579 17.60072159 2.97975696 18.78646626 0 21 C-3.86818303 21.55259758 -5.99871124 21.74381451 -9.1875 19.375 C-11.55326687 16.27502961 -11.53547382 14.36664651 -11.5 10.5 C-11.51546875 8.81390625 -11.51546875 8.81390625 -11.53125 7.09375 C-10.38368478 0.41087018 -6.27998419 -0.8971406 0 0 Z " fill="#FFCC71" transform="translate(67,210)"/>
<path d="M0 0 C4.65851244 2.95417862 9.01502899 6.1682971 13 10 C13 10.33 13 10.66 13 11 C3.99894292 11.61839323 3.99894292 11.61839323 0.375 9.375 C-1.36000519 6.37817286 -1.37881436 4.40932922 -1 1 C-0.67 0.67 -0.34 0.34 0 0 Z " fill="#DF0A5D" transform="translate(332,377)"/>
</svg>
