<?xml version="1.0" encoding="UTF-8"?>
<svg version="1.1" xmlns="http://www.w3.org/2000/svg" width="512" height="512">
<path d="M0 0 C0.83805176 0.28713867 1.67610352 0.57427734 2.53955078 0.87011719 C44.82847818 15.62299588 84.38426064 42.47272449 112 78 C112.78761719 78.98226562 113.57523437 79.96453125 114.38671875 80.9765625 C145.27225148 119.78803859 165.77994411 170.52821844 166.23828125 220.51953125 C166.24812042 221.40768021 166.25795959 222.29582916 166.26809692 223.21089172 C166.83934759 288.23401213 148.00189549 349.6775763 103 398 C101.82858546 399.35006164 100.6617058 400.70407514 99.5 402.0625 C92.34625512 410.23352053 84.52213531 417.28455737 76 424 C74.51886719 425.18916016 74.51886719 425.18916016 73.0078125 426.40234375 C33.92337809 457.25078138 -16.55507885 477.79170461 -66.7734375 478.23828125 C-67.686698 478.2480751 -68.5999585 478.25786896 -69.54089355 478.26795959 C-89.67421084 478.43934918 -109.24347808 478.36140139 -129 474 C-129.99531738 473.78037598 -130.99063477 473.56075195 -132.01611328 473.33447266 C-138.75196677 471.79512914 -145.38409039 469.98929679 -152 468 C-153.22082275 467.63962646 -153.22082275 467.63962646 -154.46630859 467.27197266 C-183.38157038 458.54361752 -210.86897861 443.31183875 -234 424 C-234.57556641 423.52594727 -235.15113281 423.05189453 -235.74414062 422.56347656 C-248.3873169 412.12971974 -259.9234684 400.96332173 -270 388 C-270.78761719 387.01773437 -271.57523437 386.03546875 -272.38671875 385.0234375 C-289.75059956 363.20358253 -303.11428069 338.41896266 -312 312 C-312.27392578 311.19852539 -312.54785156 310.39705078 -312.83007812 309.57128906 C-333.72289539 247.522139 -327.34960771 179.14476831 -298.47265625 120.7578125 C-291.04889037 106.22374874 -282.22187258 92.70790785 -272 80 C-271.5369043 79.42121094 -271.07380859 78.84242187 -270.59667969 78.24609375 C-258.621862 63.42736235 -245.09185289 49.52764788 -229.70214844 38.2578125 C-227.95886801 36.96960528 -226.24832302 35.64543593 -224.5390625 34.3125 C-162.04864656 -13.81899942 -73.92223611 -25.39460141 0 0 Z M-205 57 C-205.55300781 57.39896484 -206.10601562 57.79792969 -206.67578125 58.20898438 C-214.79755955 64.11486766 -222.26009932 70.6280135 -229.50830078 77.57128906 C-230.88165496 78.88665218 -232.2664824 80.1900085 -233.65234375 81.4921875 C-240.5200266 88.11033369 -246.29085706 95.39056645 -252 103 C-252.42812988 103.56203125 -252.85625977 104.1240625 -253.29736328 104.703125 C-260.5492303 114.25695057 -266.47468477 124.36423171 -272 135 C-272.35835938 135.68400879 -272.71671875 136.36801758 -273.0859375 137.07275391 C-281.37864596 153.10870095 -286.98250466 170.33729771 -290.875 187.9375 C-291.06602295 188.79875488 -291.2570459 189.66000977 -291.45385742 190.54736328 C-294.34751732 204.54979009 -295.41458908 218.60633633 -295.375 232.875 C-295.37445618 233.62502289 -295.37391235 234.37504578 -295.37335205 235.14779663 C-295.20394165 286.52726005 -276.25340493 333.50862625 -244 373 C-237.87477223 370.47446729 -233.1538194 365.07449084 -228.42504883 360.56469727 C-227.1881769 359.40110704 -225.93379022 358.25584587 -224.66235352 357.13012695 C-216.98789056 350.60198602 -216.98789056 350.60198602 -213.70385742 341.54418945 C-214.32751547 338.30440449 -215.18130984 335.28388614 -216.27859497 332.17459106 C-217.63975705 328.07152721 -218.50638106 323.83711141 -219.48046875 319.62890625 C-219.92351934 317.79942231 -220.36951283 315.97064871 -220.81835938 314.14257812 C-221.04289795 313.22549072 -221.26743652 312.30840332 -221.4987793 311.36352539 C-221.96113879 309.48311047 -222.42568741 307.60323257 -222.89233398 305.72387695 C-223.57579098 302.96500082 -224.24768878 300.20350895 -224.91796875 297.44140625 C-225.12729538 296.61105362 -225.33662201 295.78070099 -225.55229187 294.92518616 C-226.78111208 289.81800062 -227.2916286 285.25707675 -227 280 C-225.26043342 278.26043342 -222.8063378 278.62809614 -220.4375 278.4375 C-218.91962891 278.31181641 -218.91962891 278.31181641 -217.37109375 278.18359375 C-216.58863281 278.12300781 -215.80617188 278.06242187 -215 278 C-212.33582451 272.77821605 -211.63764658 269.90353148 -213 264 C-213.33 263.01 -213.66 262.02 -214 261 C-214.38432162 256.22554291 -214.61074483 251.65260367 -212.9375 247.125 C-211 245 -211 245 -209.20703125 244.0546875 C-206.98888084 242.8592771 -205.55563149 242.00199166 -204 240 C-203.85686367 236.64971536 -204.2680857 233.55185724 -204.7109375 230.23046875 C-205.23748085 224.34599108 -203.38836581 220.68065334 -199.625 216.125 C-195.96259797 213.16019836 -193.18271141 212.12671908 -188.5 211.625 C-184.22601753 209.64065099 -183.94934893 208.4336079 -182.1875 204.1875 C-181.43928807 202.13183242 -180.70928788 200.06942045 -180 198 C-179.34230551 196.32977242 -178.67882945 194.66174992 -178 193 C-178.78761719 192.74347656 -179.57523437 192.48695313 -180.38671875 192.22265625 C-199.57148346 185.47960877 -212.76343179 172.92889218 -221.75 154.6875 C-225.90578609 145.07295857 -228.00861809 134.4741109 -227 124 C-226.67 123.34 -226.34 122.68 -226 122 C-216.43812827 121.64730801 -208.18033116 122.00924056 -199 125 C-198.17242187 125.25523437 -197.34484375 125.51046875 -196.4921875 125.7734375 C-182.87443468 130.54621903 -172.09154407 140.33865707 -164 152 C-163.67 152 -163.34 152 -163 152 C-162.0321552 144.17720608 -162.0321552 144.17720608 -164.27734375 136.91796875 C-165.47844401 135.71142133 -166.69458365 134.5197397 -167.921875 133.33984375 C-178.96882632 120.90164104 -182.57774343 102.27076813 -181.8203125 86.18359375 C-180.6289146 71.95339707 -175.97014658 59.17557268 -167 48 C-166.56816406 47.37222656 -166.13632813 46.74445313 -165.69140625 46.09765625 C-163.66119967 43.26867987 -161.91989269 41.9630274 -158.75 40.5 C-153.44373399 41.20750213 -151.60516734 43.66847582 -148.27734375 47.71875 C-141.92201734 56.87565255 -137.15997984 67.03251616 -135 78 C-134.6596875 79.670625 -134.6596875 79.670625 -134.3125 81.375 C-132.64017151 100.77401049 -136.83352673 117.97853836 -148 134 C-149.07314453 134.90685547 -149.07314453 134.90685547 -150.16796875 135.83203125 C-152.80099172 138.94786867 -152.39835427 141.24443463 -152.25 145.25 C-152.21390625 146.51328125 -152.1778125 147.7765625 -152.140625 149.078125 C-152.09421875 150.04234375 -152.0478125 151.0065625 -152 152 C-151.44183594 151.28457031 -150.88367188 150.56914062 -150.30859375 149.83203125 C-138.70465794 135.59708461 -123.58386368 124.73126481 -105 122 C-102.40470645 121.90769876 -99.84366554 121.86000771 -97.25 121.875 C-96.56550781 121.87113281 -95.88101563 121.86726563 -95.17578125 121.86328125 C-90.12672061 121.87327939 -90.12672061 121.87327939 -89 123 C-88.91330568 124.4887186 -88.89296506 125.981445 -88.90234375 127.47265625 C-88.90556641 128.37177734 -88.90878906 129.27089844 -88.91210938 130.19726562 C-88.92048828 131.14279297 -88.92886719 132.08832031 -88.9375 133.0625 C-88.94201172 134.01189453 -88.94652344 134.96128906 -88.95117188 135.93945312 C-88.9629989 138.29303065 -88.97947975 140.64648477 -89 143 C-88.31454102 143.03569092 -87.62908203 143.07138184 -86.92285156 143.1081543 C-81.60166495 143.41968286 -77.5998242 144.27930583 -72.984375 146.96484375 C-70.29406966 148.36825106 -67.97958265 149.34279342 -65 150 C-61.8161483 148.99247464 -61.8161483 148.99247464 -58.8125 147.1875 C-52.23541335 143.57217061 -47.50457756 142.23352638 -40 143 C-32.90533209 145.60137824 -30.40191123 150.47032423 -27 157 C-21.65304023 152.535788 -16.68153184 147.8191737 -11.76977539 142.88330078 C-10.97871399 142.09238541 -10.18765259 141.30147003 -9.37261963 140.48658752 C-6.77858558 137.89186111 -4.18810398 135.2936189 -1.59765625 132.6953125 C0.20816034 130.88762933 2.01419896 129.08016794 3.82044983 127.2729187 C8.07552727 123.01442329 12.32837186 118.75371057 16.58012348 114.49189556 C21.42463409 109.63617012 26.27201732 104.78331665 31.1196326 99.930691 C41.08293322 89.95696499 51.0426579 79.9796745 61 70 C59.04683048 65.5845465 55.93653508 63.3028017 52.125 60.5 C51.06575317 59.71713623 51.06575317 59.71713623 49.98510742 58.91845703 C12.35581205 31.62975581 -32.35150503 16.49591838 -78.875 16.625 C-79.62502289 16.62554382 -80.37504578 16.62608765 -81.14779663 16.62664795 C-125.45472376 16.7727385 -169.11859928 30.86989759 -205 57 Z M80.7915802 95.92753601 C80.1310817 96.57661423 79.47058319 97.22569244 78.79006958 97.8944397 C78.06633148 98.61594208 77.34259338 99.33744446 76.59692383 100.08081055 C75.83424698 100.83355759 75.07157013 101.58630463 74.28578186 102.36186218 C71.75384832 104.86448254 69.22986192 107.37492406 66.70703125 109.88671875 C64.9587243 111.62352945 63.21040773 113.36033048 61.46208191 115.09712219 C57.7938088 118.74435601 54.1302409 122.39625092 50.46899414 126.05053711 C45.76772206 130.74082942 41.04819472 135.412288 36.32405567 140.07953167 C32.70504318 143.66136972 29.09944552 147.25648211 25.49744225 150.85541725 C23.76277882 152.58400981 22.02309402 154.30757802 20.2784214 156.02606773 C17.84293435 158.42759292 15.42692309 160.84716553 13.01489258 163.2722168 C12.28508179 163.98359802 11.555271 164.69497925 10.80334473 165.42791748 C10.15130569 166.09109482 9.49926666 166.75427216 8.82746887 167.43754578 C7.96718441 168.29343056 7.96718441 168.29343056 7.08952045 169.16660595 C5.74352077 171.01503588 5.74352077 171.01503588 6.27128124 173.55761433 C7.04729743 176.15852282 7.85756025 178.70856671 8.8125 181.25 C9.12832031 182.12140625 9.44414062 182.9928125 9.76953125 183.890625 C10.79608838 186.12761179 10.79608838 186.12761179 12.84765625 186.8046875 C15.14373534 187.01304313 17.32228819 186.98751035 19.625 186.875 C26.37127141 186.82524874 32.90173528 188.14160776 38.4375 192.1875 C43.43101658 197.66818893 44.36347436 203.03919888 44.10546875 210.3125 C44.05326172 211.1478125 44.05326172 211.1478125 44 212 C44.79664063 212.17015625 45.59328125 212.3403125 46.4140625 212.515625 C53.90037115 214.22782211 59.41088143 215.61976186 64.25 221.9375 C66.07531545 225.37952342 66.46045347 228.71986829 66.9375 232.5625 C67.67542183 238.40549919 68.8300971 240.93701769 73 245 C74.92023827 250.7607148 74.50910176 256.10312898 72.375 261.75 C71.07838395 265.11581354 71.07838395 265.11581354 71.75 268.625 C72.1625 269.40875 72.575 270.1925 73 271 C73.3813074 273.32597511 73.72460254 275.65912158 74 278 C74.78246094 278.06058594 75.56492187 278.12117187 76.37109375 278.18359375 C77.38300781 278.26738281 78.39492188 278.35117187 79.4375 278.4375 C80.95150391 278.55931641 80.95150391 278.55931641 82.49609375 278.68359375 C85 279 85 279 86 280 C86.26198228 285.07898945 85.61594905 289.49259843 84.44287109 294.42553711 C84.19398132 295.48579605 84.19398132 295.48579605 83.94006348 296.56747437 C83.39258215 298.88942816 82.83352768 301.20840169 82.2734375 303.52734375 C81.88385135 305.16043325 81.49466776 306.79361884 81.10586548 308.42689514 C80.2889316 311.85010194 79.46605821 315.27181395 78.63916016 318.69262695 C77.59145932 323.02958356 76.56007711 327.37022423 75.53351402 331.71222591 C74.73257999 335.09023338 73.92188551 338.46584498 73.10853958 341.84088326 C72.72515544 343.43735737 72.34483038 345.03456991 71.96790695 346.63258171 C65.17052447 375.37618805 53.28794269 399.66052844 27.7578125 416.0859375 C19.95369372 420.84986219 11.84634775 424.579022 3 427 C1.76134438 427.37134819 1.76134438 427.37134819 0.49766541 427.75019836 C-12.10810053 431.01646284 -24.94208972 430.43388405 -37.87109375 430.3984375 C-40.48316021 430.40046229 -43.09522611 430.40337709 -45.70729065 430.40713501 C-51.16306183 430.41256343 -56.61871041 430.40547907 -62.07446289 430.39111328 C-68.34114338 430.37480055 -74.60753072 430.38007695 -80.8742041 430.3965925 C-86.95361545 430.41196042 -93.03289906 430.41018944 -99.11232185 430.4014473 C-101.67609766 430.39946045 -104.23988107 430.40185062 -106.80364799 430.40888596 C-138.31988038 430.47640488 -163.09630868 424.10097537 -186.5625 401.875 C-191.67231215 396.69986355 -195.47962525 391.08338163 -199.22265625 384.87109375 C-200.85017756 381.99712955 -200.85017756 381.99712955 -203 380 C-208.28 385.28 -213.56 390.56 -219 396 C-216.75005644 400.49988711 -214.06456476 402.60305203 -210.125 405.5 C-209.06575317 406.28286377 -209.06575317 406.28286377 -207.98510742 407.08154297 C-170.35581205 434.37024419 -125.64849497 449.50408162 -79.125 449.375 C-77.99996567 449.37418427 -77.99996567 449.37418427 -76.85220337 449.37335205 C-17.68245071 449.1782552 35.1556052 424.06182779 77.0625 383.125 C82.08734306 378.02971522 86.62096608 372.65625214 91 367 C91.64388672 366.17072998 91.64388672 366.17072998 92.30078125 365.32470703 C121.28880561 327.72172586 137.55770214 281.47590087 137.3125 233.9375 C137.31034485 233.17786957 137.3081897 232.41823914 137.30596924 231.6355896 C137.08169443 182.05983737 119.95099546 129.9922084 86 93 C83.25486751 93 82.72468627 94.01444316 80.7915802 95.92753601 Z " fill="#2A4368" transform="translate(335,23)"/>
<path d="M0 0 C1.62274873 0.05257052 1.62274873 0.05257052 3.27828026 0.10620308 C31.67833638 1.04317486 60.0030354 2.74630505 88.3125 5.1875 C88.00478389 7.2568723 87.6940597 9.32579743 87.38208008 11.39453125 C87.20937088 12.54671143 87.03666168 13.6988916 86.85871887 14.88598633 C86.16560485 19.07537917 85.15341497 23.10576149 84 27.1875 C83.55516236 28.81973368 83.11253595 30.45257127 82.671875 32.0859375 C82.44693359 32.91963867 82.22199219 33.75333984 81.99023438 34.61230469 C80.83683876 38.99487562 79.79173353 43.40227956 78.75 47.8125 C78.54068848 48.69252686 78.33137695 49.57255371 78.11572266 50.47924805 C77.1506011 54.55626311 76.20782953 58.63582884 75.3203125 62.73046875 C69.9235189 87.3625592 59.06901741 109.92093121 37.3125 124.1875 C21.25540423 133.43197189 5.48322742 138.49514502 -13.15307617 138.47802734 C-14.7679744 138.48810318 -14.7679744 138.48810318 -16.41549683 138.49838257 C-19.93720247 138.5172148 -23.45871604 138.52127933 -26.98046875 138.5234375 C-29.45608088 138.52987586 -31.93169227 138.53660497 -34.40730286 138.54360962 C-39.58413454 138.55554566 -44.76089968 138.55929425 -49.93774414 138.55810547 C-56.52964133 138.55790254 -63.12110617 138.585195 -69.71290112 138.61964989 C-74.8237143 138.64202706 -79.93442523 138.64593969 -85.04528236 138.64488602 C-87.47344768 138.64722609 -89.90161651 138.65595821 -92.32973289 138.67155075 C-120.60060265 138.83610299 -144.54308508 133.34191103 -165.4375 113 C-171.73690861 106.65247549 -180.38850758 97.36717805 -181.6875 88.1875 C-181.03665543 86.39906693 -181.03665543 86.39906693 -179.9151001 84.55548096 C-179.48878957 83.85158139 -179.06247904 83.14768183 -178.62325001 82.42245197 C-178.13688415 81.6607479 -177.65051828 80.89904383 -177.14941406 80.11425781 C-176.63638827 79.30436244 -176.12336248 78.49446707 -175.59479046 77.66002941 C-168.46009267 66.66547225 -160.40660282 56.42801154 -151.9375 46.4375 C-151.1103738 45.45724728 -150.2832476 44.47699455 -149.43105698 43.4670372 C-109.0393691 -3.45625767 -58.26286457 -1.93704692 0 0 Z " fill="#54D7D7" transform="translate(321.6875,305.8125)"/>
<path d="M0 0 C0.83805176 0.28713867 1.67610352 0.57427734 2.53955078 0.87011719 C44.82847818 15.62299588 84.38426064 42.47272449 112 78 C112.78761719 78.98226562 113.57523437 79.96453125 114.38671875 80.9765625 C145.27225148 119.78803859 165.77994411 170.52821844 166.23828125 220.51953125 C166.24812042 221.40768021 166.25795959 222.29582916 166.26809692 223.21089172 C166.83934759 288.23401213 148.00189549 349.6775763 103 398 C101.82858546 399.35006164 100.6617058 400.70407514 99.5 402.0625 C92.34625512 410.23352053 84.52213531 417.28455737 76 424 C74.51886719 425.18916016 74.51886719 425.18916016 73.0078125 426.40234375 C33.92337809 457.25078138 -16.55507885 477.79170461 -66.7734375 478.23828125 C-67.686698 478.2480751 -68.5999585 478.25786896 -69.54089355 478.26795959 C-89.67421084 478.43934918 -109.24347808 478.36140139 -129 474 C-129.99531738 473.78037598 -130.99063477 473.56075195 -132.01611328 473.33447266 C-138.75196677 471.79512914 -145.38409039 469.98929679 -152 468 C-153.22082275 467.63962646 -153.22082275 467.63962646 -154.46630859 467.27197266 C-183.38157038 458.54361752 -210.86897861 443.31183875 -234 424 C-234.57556641 423.52594727 -235.15113281 423.05189453 -235.74414062 422.56347656 C-248.3873169 412.12971974 -259.9234684 400.96332173 -270 388 C-270.78761719 387.01773437 -271.57523437 386.03546875 -272.38671875 385.0234375 C-289.75059956 363.20358253 -303.11428069 338.41896266 -312 312 C-312.27392578 311.19852539 -312.54785156 310.39705078 -312.83007812 309.57128906 C-333.72289539 247.522139 -327.34960771 179.14476831 -298.47265625 120.7578125 C-291.04889037 106.22374874 -282.22187258 92.70790785 -272 80 C-271.5369043 79.42121094 -271.07380859 78.84242187 -270.59667969 78.24609375 C-258.621862 63.42736235 -245.09185289 49.52764788 -229.70214844 38.2578125 C-227.95886801 36.96960528 -226.24832302 35.64543593 -224.5390625 34.3125 C-162.04864656 -13.81899942 -73.92223611 -25.39460141 0 0 Z M-121 1 C-121.76231934 1.12858398 -122.52463867 1.25716797 -123.31005859 1.38964844 C-170.39096787 9.59669982 -211.81798082 34.45789778 -246 67 C-247.08861328 68.02673828 -247.08861328 68.02673828 -248.19921875 69.07421875 C-288.11070493 107.7311199 -313.08719584 167.36415242 -314.18359375 222.55859375 C-315.09819654 288.93411532 -293.28672519 349.87223834 -247 398 C-246.53062012 398.49129395 -246.06124023 398.98258789 -245.57763672 399.48876953 C-239.13090982 406.20646218 -232.39954982 412.35200294 -225 418 C-224.05906494 418.72292236 -224.05906494 418.72292236 -223.09912109 419.46044922 C-205.42932631 432.92574759 -186.49890421 443.48365302 -166 452 C-165.32195312 452.28568848 -164.64390625 452.57137695 -163.9453125 452.86572266 C-137.36968595 463.9322298 -109.00953779 468.35604161 -80.375 468.375 C-79.58447235 468.37699402 -78.7939447 468.37898804 -77.97946167 468.38104248 C-66.85177063 468.37785648 -56.01916796 467.5183047 -45 466 C-44.05560059 465.88076172 -43.11120117 465.76152344 -42.13818359 465.63867188 C16.50784948 457.926701 71.70043697 423.08768382 107.5625 376.75 C123.37154866 355.88926586 135.4863859 332.7320974 144 308 C144.42104004 306.81011475 144.42104004 306.81011475 144.85058594 305.59619141 C149.29320746 292.96166883 152.0822132 280.24711231 154 267 C154.11859375 266.1843457 154.2371875 265.36869141 154.359375 264.52832031 C162.81516794 202.79599861 146.33981739 141.1343612 109.21875 91.2265625 C102.98296966 83.02053023 96.13206908 75.430105 89 68 C88.51418457 67.48695312 88.02836914 66.97390625 87.52783203 66.4453125 C79.94269252 58.45722037 71.82120697 51.58332062 63 45 C62.45682129 44.58540527 61.91364258 44.17081055 61.35400391 43.74365234 C21.39544083 13.27660652 -28.24693913 -2.20576682 -78.1875 -2.25 C-78.97968933 -2.25100708 -79.77187866 -2.25201416 -80.58807373 -2.25305176 C-94.24345607 -2.24136668 -107.53176157 -1.38491866 -121 1 Z " fill="#2A4268" transform="translate(335,23)"/>
<path d="M0 0 C1.13462677 -0.0080365 1.13462677 -0.0080365 2.29217529 -0.01623535 C16.72712788 -0.0936891 30.8516688 1.14226436 45 4.125 C45.83998535 4.2993457 46.6799707 4.47369141 47.54541016 4.65332031 C84.21033767 12.40385727 117.54966742 27.94032136 146.875 51.25 C147.43493652 51.69279297 147.99487305 52.13558594 148.57177734 52.59179688 C161.98573457 63.29720529 174.51586553 75.55776194 184.875 89.25 C185.30087402 89.80478027 185.72674805 90.35956055 186.16552734 90.93115234 C193.09885938 99.98798628 199.28903102 109.30769291 204.875 119.25 C205.2757373 119.95576172 205.67647461 120.66152344 206.08935547 121.38867188 C231.49661563 166.50863252 240.02688935 218.16211894 232.875 269.25 C232.77268066 270.06597656 232.67036133 270.88195312 232.56494141 271.72265625 C226.85163996 315.92601694 205.12692552 358.10058193 175.875 391.25 C175.21612793 392.00361816 175.21612793 392.00361816 174.54394531 392.77246094 C153.85213732 416.34793083 128.44157356 435.23988473 99.875 448.25 C99.17004395 448.57419922 98.46508789 448.89839844 97.73876953 449.23242188 C42.39194868 474.397872 -21.71336868 478.1882415 -79.12817383 457.48413086 C-120.12832868 442.09427853 -158.42886966 416.39670397 -185.125 381.25 C-185.55232422 380.69376953 -185.97964844 380.13753906 -186.41992188 379.56445312 C-193.35266369 370.50763722 -199.51697376 361.17806075 -205.125 351.25 C-205.67752441 350.28852051 -205.67752441 350.28852051 -206.24121094 349.30761719 C-226.490672 313.8491073 -235.38388885 274.07754453 -235.3125 233.5 C-235.31156342 232.80278839 -235.31062683 232.10557678 -235.30966187 231.38723755 C-235.12974678 169.26867418 -208.5446047 110.87598074 -165.0625 66.9375 C-159.72492234 61.64738665 -154.0484775 56.87540615 -148.125 52.25 C-147.16464844 51.47269531 -146.20429688 50.69539063 -145.21484375 49.89453125 C-136.00666882 42.5722278 -126.2111367 36.29294943 -116.125 30.25 C-115.49400391 29.87101562 -114.86300781 29.49203125 -114.21289062 29.1015625 C-96.01858337 18.3586419 -75.54017815 11.36714182 -55.125 6.25 C-54.3510791 6.05180664 -53.5771582 5.85361328 -52.77978516 5.64941406 C-35.21918542 1.21155527 -18.05456968 0.07131618 0 0 Z M-42.125 12.25 C-43.26952637 12.47437744 -44.41405273 12.69875488 -45.59326172 12.92993164 C-85.54579413 21.28053619 -121.46394752 39.40728928 -151.62109375 66.96875 C-153.28576737 68.48539492 -154.96554101 69.98563528 -156.66015625 71.46875 C-193.05247593 103.41749433 -215.33957796 150.26644888 -224.125 197.25 C-224.41648926 198.80364258 -224.41648926 198.80364258 -224.71386719 200.38867188 C-226.47397777 211.0246342 -226.52064806 221.61839549 -226.5 232.375 C-226.50012085 233.34166595 -226.5002417 234.30833191 -226.50036621 235.30429077 C-226.4714407 251.59490171 -225.44280313 267.25754239 -222.125 283.25 C-221.89272705 284.37196777 -221.89272705 284.37196777 -221.65576172 285.51660156 C-220.71219149 289.84469444 -219.47928569 294.03467369 -218.125 298.25 C-217.88942383 299.01763672 -217.65384766 299.78527344 -217.41113281 300.57617188 C-199.13603477 360.05622749 -158.57851506 408.26247383 -103.76855469 437.50732422 C-83.17347052 448.25959518 -61.07257144 455.65232574 -38.125 459.25 C-37.26616211 459.39663086 -36.40732422 459.54326172 -35.52246094 459.69433594 C20.95431785 469.24057445 81.81707841 455.17952884 128.6875 422.25 C135.31108982 417.51268689 141.71048754 412.57567057 147.875 407.25 C148.6896875 406.54617188 149.504375 405.84234375 150.34375 405.1171875 C161.77012384 395.02871186 171.77015893 384.44987484 180.875 372.25 C181.28959473 371.70682129 181.70418945 371.16364258 182.13134766 370.60400391 C209.19085007 335.11454949 225.26621094 289.85391197 226.875 245.25 C226.92599854 243.9513501 226.92599854 243.9513501 226.97802734 242.62646484 C228.91220295 185.65173872 209.09624743 128.75303462 170.875 86.25 C169.749684 84.91693335 168.6246486 83.58362975 167.5 82.25 C158.70582988 72.32783656 149.24741128 63.45287823 138.61035156 55.54101562 C137.47978336 54.69992887 136.35385704 53.85255486 135.23339844 52.99804688 C118.62928198 40.33678104 100.28776169 30.81624585 80.875 23.25 C80.05708984 22.92660645 79.23917969 22.60321289 78.39648438 22.27001953 C64.90301509 17.0036835 51.14763963 13.65971053 36.875 11.25 C35.7907373 11.06236084 34.70647461 10.87472168 33.58935547 10.68139648 C23.24221519 9.08433479 13.01317272 8.91078925 2.56103516 8.93432617 C-0.35682807 8.93748036 -3.2736678 8.913956 -6.19140625 8.88867188 C-18.44767516 8.84666976 -30.10448738 9.86360932 -42.125 12.25 Z " fill="#F85980" transform="translate(256.125,20.75)"/>
<path d="M0 0 C0.99 0.33 1.98 0.66 3 1 C3.84789232 3.42254948 4.33351795 5.84957441 4.86328125 8.359375 C6.42414996 11.98531055 8.53125375 14.21151969 12 16 C15.17666302 16.61598926 18.27201612 16.61019183 21.5 16.5625 C28.02929813 16.49649621 31.86463969 16.76657797 37 21 C38.87309243 22.87309243 38.17721858 26.24423959 38.25 28.75 C38.63029774 34.23038382 38.63029774 34.23038382 40.8125 39.1875 C44.80747388 41.45915181 48.70673648 42.22162224 53.17578125 43.18359375 C57.10378436 44.31907459 58.59224207 45.76198072 61 49 C62.79108125 52.58216251 62.75237914 56.79046044 63.20703125 60.73828125 C64.10208765 64.41991717 65.57670606 66.15020633 68 69 C68.68519793 74.38369803 67.4088729 77.28262389 65 82 C64.68547728 85.14522722 64.57958179 87.15916359 66 90 C67 92 67 92 67 98 C54.46 98 41.92 98 29 98 C28.01 95.03 27.02 92.06 26 89 C24.72380224 86.7268273 24.72380224 86.7268273 23.1875 85.125 C22.72730469 84.59132813 22.26710938 84.05765625 21.79296875 83.5078125 C16.04889916 78.67728774 10.70707859 78.55781822 3.50390625 78.6953125 C-1.10308472 79.09592041 -4.73963715 80.23709123 -9 82 C-9 84.31 -9 86.62 -9 89 C-7.7625 88.835 -6.525 88.67 -5.25 88.5 C9.87748964 86.89629461 9.87748964 86.89629461 15.125 89.625 C17 92 17 92 19 98 C-19.28 98 -57.56 98 -97 98 C-90.25 90.125 -90.25 90.125 -86.82376099 86.70350647 C-86.04982498 85.9281958 -85.27588898 85.15288513 -84.47850037 84.3540802 C-83.64915482 83.52832993 -82.81980927 82.70257965 -81.96533203 81.85180664 C-81.07688095 80.96320953 -80.18842987 80.07461243 -79.27305603 79.15908813 C-76.85586711 76.74247322 -74.43649312 74.32808699 -72.01608896 71.91469502 C-69.47985876 69.3847499 -66.9464926 66.85194005 -64.41281128 64.31944275 C-59.62323711 59.53296677 -54.83112136 54.7490439 -50.03806961 49.96605057 C-44.57776393 44.51695315 -39.1203245 39.06498889 -33.66311479 33.61279118 C-22.4452454 22.40535192 -11.22381183 11.20148832 0 0 Z " fill="#FDF7CB" transform="translate(331,203)"/>
<path d="M0 0 C3.56623383 0.90963059 6.20051245 2.63722411 9.3125 4.58984375 C11.22916667 5.42317708 11.22916667 5.42317708 13.3125 5.58984375 C14.488125 5.73421875 15.66375 5.87859375 16.875 6.02734375 C20.88082126 6.01989799 23.3406114 4.61924173 26.75 2.58984375 C31.02527631 0.11125083 34.36524044 -1.48746876 39.3671875 -1.12890625 C42.60016784 0.06560857 43.82140937 2.32474198 45.4375 5.25390625 C45.870625 6.41019531 45.870625 6.41019531 46.3125 7.58984375 C46.66497803 8.44449219 47.01745605 9.29914063 47.38061523 10.1796875 C47.2833981 15.04681654 44.98282685 16.71492085 41.63209534 20.06332397 C40.79573044 20.86355988 39.95936554 21.66379578 39.09765625 22.48828125 C38.2527916 23.32324127 37.40792694 24.15820129 36.53746033 25.01846313 C33.832604 27.68410462 31.10444372 30.32440624 28.375 32.96484375 C26.538127 34.76661314 24.70281951 36.56998003 22.86914062 38.375 C18.36826846 42.79865176 13.84801464 47.20173274 9.3125 51.58984375 C7.1444519 49.43551748 5.01561015 47.26951522 2.9375 45.02734375 C-0.88827047 41.4748426 -3.98747973 39.80234628 -9.1875 39.15234375 C-14.31020228 39.79268154 -17.28037151 42.18271526 -20.875 45.77734375 C-24.02741942 47.80890293 -25.51129739 47.85017736 -29.1875 48.02734375 C-33.25192499 48.2570959 -34.38745874 48.36328198 -37.75 50.90234375 C-41.26291078 55.77509096 -42.03607298 58.43172108 -41.6875 64.58984375 C-40.56215895 65.94602874 -40.56215895 65.94602874 -37.625 65.65234375 C-36.655625 65.63171875 -35.68625 65.61109375 -34.6875 65.58984375 C-33.6975 62.94984375 -32.7075 60.30984375 -31.6875 57.58984375 C-31.0584375 57.57566406 -30.429375 57.56148437 -29.78125 57.546875 C-22.54985799 57.14392093 -17.1694447 55.27050986 -12.11328125 49.92578125 C-10.6875 48.58984375 -10.6875 48.58984375 -8.3125 48.58984375 C-4.81428804 49.92249593 -3.08598469 51.73759168 -0.6875 54.58984375 C0.3025 57.06484375 0.3025 57.06484375 1.3125 59.58984375 C-12.2175 73.11984375 -25.7475 86.64984375 -39.6875 100.58984375 C-40.3475 99.26984375 -41.0075 97.94984375 -41.6875 96.58984375 C-45.8388369 90.3567514 -50.20780318 84.72689998 -57.6875 82.58984375 C-63.19079241 81.86299381 -66.38739128 83.0356046 -70.86328125 86.01953125 C-72.75820721 87.65070948 -73.75418613 89.12752777 -75 91.27734375 C-76.59893075 93.80626483 -77.29484444 94.47929611 -80.2265625 95.3046875 C-82.15964538 95.57823696 -84.09463188 95.83865427 -86.03125 96.0859375 C-90.76231976 96.98344926 -93.10295314 99.41916356 -95.93359375 103.296875 C-98.10152308 106.74005688 -99.3847394 109.52261394 -98.6875 113.58984375 C-98.0275 114.24984375 -97.3675 114.90984375 -96.6875 115.58984375 C-94.19159407 115.6124349 -94.19159407 115.6124349 -91.6875 114.58984375 C-89.83804782 112.58066432 -89.83804782 112.58066432 -88.4375 110.08984375 C-87.68726563 108.8678125 -87.68726563 108.8678125 -86.921875 107.62109375 C-86.51453125 106.95078125 -86.1071875 106.28046875 -85.6875 105.58984375 C-84.16114408 104.06348783 -82.62190638 104.40174362 -80.5 104.27734375 C-75.91785257 103.79080829 -73.24230196 102.65989999 -69.6875 99.58984375 C-68.82861582 98.37839292 -67.99583128 97.1480948 -67.1875 95.90234375 C-65.41433652 93.29342169 -64.80637443 92.64411251 -61.8125 91.27734375 C-57.13930238 91.74466351 -54.77611825 94.19311516 -51.6875 97.58984375 C-50.24396594 99.53839128 -48.97878339 101.5333554 -47.6875 103.58984375 C-47.0275 103.91984375 -46.3675 104.24984375 -45.6875 104.58984375 C-49.56185178 112.76279195 -55.7229827 120.18200021 -63.6875 124.58984375 C-73.25291844 127.14315099 -83.40823931 126.10371245 -93.1875 125.58984375 C-95.86046117 125.50021735 -98.53327672 125.43647471 -101.20703125 125.37109375 C-107.70569402 125.19619386 -114.19548546 124.92976401 -120.6875 124.58984375 C-120.65269531 123.17832031 -120.65269531 123.17832031 -120.6171875 121.73828125 C-120.59914062 120.49304688 -120.58109375 119.2478125 -120.5625 117.96484375 C-120.52769531 116.12019531 -120.52769531 116.12019531 -120.4921875 114.23828125 C-120.68548524 110.62747943 -121.41493875 107.95095971 -122.6875 104.58984375 C-123.1875 101.96484375 -123.1875 101.96484375 -122.6875 99.58984375 C-117.71452703 95.58984375 -117.71452703 95.58984375 -114.6875 95.58984375 C-111.89959014 90.24094692 -112.63191986 84.93374189 -112.94140625 79.09570312 C-113.10741004 73.21233335 -113.10741004 73.21233335 -111.01953125 70.1171875 C-108.39003903 68.39502426 -106.32838243 67.80404871 -103.25 67.21484375 C-99.0614619 66.15656949 -96.26144869 65.24596051 -93.66015625 61.53515625 C-91.98628762 58.187419 -90.91131057 54.62463731 -89.7109375 51.0859375 C-87.90804189 46.68879897 -85.18179124 45.25011197 -81 43.40234375 C-77.3829192 42.51513525 -73.96417315 42.25985466 -70.25 42.12890625 C-66.61826341 41.36491288 -64.54880546 39.95137453 -61.6875 37.58984375 C-60.21614135 35.13664691 -58.9952613 32.85439132 -57.8125 30.27734375 C-54.79872089 24.18375823 -51.70857078 19.15694871 -45.6875 15.58984375 C-42.89369038 14.73187336 -40.51639662 14.50305194 -37.60546875 14.6328125 C-36.45401367 14.6647168 -36.45401367 14.6647168 -35.27929688 14.69726562 C-33.68770222 14.75027568 -32.09645615 14.81521192 -30.50585938 14.89257812 C-24.67526018 15.0240954 -21.45181239 14.00823789 -16.6875 10.58984375 C-14.81168849 8.63953214 -14.81168849 8.63953214 -13.5 6.52734375 C-9.63178218 0.71944321 -6.88604433 -1.00799004 0 0 Z " fill="#FCF6CA" transform="translate(252.6875,176.41015625)"/>
<path d="M0 0 C3.76488042 1.72154788 6.15063897 3.99234114 9 7 C7.41221865 10.85725297 4.95308776 13.29542841 2.02184105 16.22425461 C1.50795613 16.74044721 0.99407122 17.25663982 0.46461403 17.78847462 C-1.26672302 19.52512536 -3.00512959 21.25452264 -4.74356079 22.98406982 C-5.9955288 24.23690961 -7.24705737 25.49018866 -8.49818265 26.74387002 C-11.94385166 30.19402186 -15.39574411 33.63788843 -18.84865713 37.08078837 C-22.56869489 40.79220743 -26.28296986 44.50938565 -29.99794006 48.22587585 C-36.43730164 54.66628728 -42.88032156 61.10302012 -49.32582474 67.53728485 C-58.64499078 76.84021244 -67.95864413 86.14864293 -77.27095143 95.45843557 C-92.37887448 110.56197891 -107.49126057 125.66104843 -122.60644531 140.75732422 C-137.29140213 155.42392936 -151.97426163 170.09262887 -166.65429688 184.76416016 C-167.55883109 185.66816892 -168.4633653 186.57217769 -169.39530964 187.50358066 C-173.93297634 192.03863732 -178.47060174 196.5737353 -183.00820661 201.10885382 C-220.66573747 238.74564361 -258.33050845 276.37518156 -296 314 C-299.76488042 312.27845212 -302.15063897 310.00765886 -305 307 C-303.41221865 303.14274703 -300.95308776 300.70457159 -298.02184105 297.77574539 C-297.50795613 297.25955279 -296.99407122 296.74336018 -296.46461403 296.21152538 C-294.73327698 294.47487464 -292.99487041 292.74547736 -291.25643921 291.01593018 C-290.0044712 289.76309039 -288.75294263 288.50981134 -287.50181735 287.25612998 C-284.05614834 283.80597814 -280.60425589 280.36211157 -277.15134287 276.91921163 C-273.43130511 273.20779257 -269.71703014 269.49061435 -266.00205994 265.77412415 C-259.56269836 259.33371272 -253.11967844 252.89697988 -246.67417526 246.46271515 C-237.35500922 237.15978756 -228.04135587 227.85135707 -218.72904857 218.54156443 C-203.62112552 203.43802109 -188.50873943 188.33895157 -173.39355469 173.24267578 C-158.70859787 158.57607064 -144.02573837 143.90737113 -129.34570312 129.23583984 C-128.44116891 128.33183108 -127.5366347 127.42782231 -126.60469036 126.49641934 C-122.06702366 121.96136268 -117.52939826 117.4262647 -112.99179339 112.89114618 C-75.33426253 75.25435639 -37.66949155 37.62481844 0 0 Z " fill="#E04C77" transform="translate(404,99)"/>
<path d="M0 0 C-0.38671875 0.70125 -0.7734375 1.4025 -1.171875 2.125 C-1.69265625 3.07375 -2.2134375 4.0225 -2.75 5 C-3.29914063 6.0003125 -3.84828125 7.000625 -4.4140625 8.03125 C-5.73023257 10.49501663 -6.94494421 12.96996039 -8.125 15.5 C-9.97269142 18.94902399 -10.74042764 20.07898055 -14 22 C-16.953125 22.58984375 -16.953125 22.58984375 -20.25 22.9375 C-27.14283728 23.88130039 -32.15750637 25.38797883 -37.3125 30.125 C-38.92065759 32.86482404 -39.62487226 35.02184345 -40.4375 38.0625 C-41.35936802 41.36259136 -41.88863187 42.87272213 -44.1875 45.5 C-47.16054612 47.0856246 -49.80234064 47.80263052 -53.0703125 48.51171875 C-56.43774677 49.36380232 -59.06079246 50.73813952 -61.1484375 53.54296875 C-62.68027082 57.96279975 -61.91293989 62.74312479 -61.5703125 67.35742188 C-61.35833631 73.17231409 -61.35833631 73.17231409 -63.24804688 75.60986328 C-64.828125 76.94140625 -64.828125 76.94140625 -68 79 C-69.485 79.99 -69.485 79.99 -71 81 C-71 82.093125 -71 83.18625 -71 84.3125 C-71 88.40487067 -71.87961886 89.64272985 -74 93 C-74.41780879 95.62694422 -74.41780879 95.62694422 -74 98 C-73.34 98.66 -72.68 99.32 -72 100 C-69.50409407 100.02259115 -69.50409407 100.02259115 -67 99 C-65.15054782 96.99082057 -65.15054782 96.99082057 -63.75 94.5 C-62.99976563 93.27796875 -62.99976563 93.27796875 -62.234375 92.03125 C-61.82703125 91.3609375 -61.4196875 90.690625 -61 90 C-59.47364408 88.47364408 -57.93440638 88.81189987 -55.8125 88.6875 C-51.23035257 88.20096454 -48.55480196 87.07005624 -45 84 C-44.14111582 82.78854917 -43.30833128 81.55825105 -42.5 80.3125 C-40.72683652 77.70357794 -40.11887443 77.05426876 -37.125 75.6875 C-32.45180238 76.15481976 -30.08861825 78.60327141 -27 82 C-25.55646594 83.94854753 -24.29128339 85.94351165 -23 88 C-22.34 88.33 -21.68 88.66 -21 89 C-24.87435178 97.1729482 -31.0354827 104.59215646 -39 109 C-48.56541844 111.55330724 -58.72073931 110.5138687 -68.5 110 C-71.17296117 109.9103736 -73.84577672 109.84663096 -76.51953125 109.78125 C-83.01819402 109.60635011 -89.50798546 109.33992026 -96 109 C-95.96519531 107.58847656 -95.96519531 107.58847656 -95.9296875 106.1484375 C-95.91164062 104.90320313 -95.89359375 103.65796875 -95.875 102.375 C-95.84019531 100.53035156 -95.84019531 100.53035156 -95.8046875 98.6484375 C-95.99798524 95.03763568 -96.72743875 92.36111596 -98 89 C-98.5 86.375 -98.5 86.375 -98 84 C-93.02702703 80 -93.02702703 80 -90 80 C-87.21209014 74.65110317 -87.94441986 69.34389814 -88.25390625 63.50585938 C-88.41991004 57.6224896 -88.41991004 57.6224896 -86.33203125 54.52734375 C-83.70253903 52.80518051 -81.64088243 52.21420496 -78.5625 51.625 C-74.3739619 50.56672574 -71.57394869 49.65611676 -68.97265625 45.9453125 C-67.29878762 42.59757525 -66.22381057 39.03479356 -65.0234375 35.49609375 C-63.22054189 31.09895522 -60.49429124 29.66026822 -56.3125 27.8125 C-52.6954192 26.9252915 -49.27667315 26.67001091 -45.5625 26.5390625 C-41.93076341 25.77506913 -39.86130546 24.36153078 -37 22 C-35.52864135 19.54680316 -34.3077613 17.26454757 -33.125 14.6875 C-29.93001358 8.22752989 -26.30532627 1.80059558 -19.06640625 -0.65625 C-12.75049703 -1.70691165 -6.26692494 -1.08989999 0 0 Z " fill="#E0D7A7" transform="translate(228,192)"/>
<path d="M0 0 C13.11150029 -0.55471732 25.3295569 5.60570141 35.20703125 13.83984375 C45.06617915 23.05805278 53.55073895 37.2177347 54.125 51 C54.08375 51.66 54.0425 52.32 54 53 C41.97591295 54.11851973 30.60408581 48.18182035 21.40625 40.96484375 C10.36657229 31.53789004 2.72166602 19.35060265 0 5 C-0.125 2 -0.125 2 0 0 Z " fill="#99DE47" transform="translate(118,155)"/>
<path d="M0 0 C0.66 0 1.32 0 2 0 C13.38811234 14.57219413 15.9750441 29.14585911 15 47 C13.61172133 57.72974703 8.94156781 67.73908452 2 76 C-2.05337744 74.64887419 -3.03946226 72.0540195 -5 68.5 C-5.53282593 67.54649658 -5.53282593 67.54649658 -6.07641602 66.57373047 C-10.04606022 59.31216374 -12.51329526 52.33297507 -13 44 C-13.05285156 43.11699219 -13.10570312 42.23398438 -13.16015625 41.32421875 C-13.61887958 26.26612692 -9.29818773 11.9548128 0 0 Z " fill="#99DE47" transform="translate(176,76)"/>
<path d="M0 0 C19.47 0 38.94 0 59 0 C52.24646637 7.87912257 52.24646637 7.87912257 48.58691406 11.55834961 C47.7729718 12.37867172 46.95902954 13.19899384 46.12042236 14.04417419 C45.26083923 14.90487015 44.4012561 15.7655661 43.515625 16.65234375 C42.61882019 17.55247696 41.72201538 18.45261017 40.79803467 19.38002014 C38.91336764 21.26972655 37.02761953 23.15827967 35.14013672 25.04516602 C32.71841429 27.46678591 30.30369818 29.8952685 27.8905983 32.32547665 C25.58258099 34.64723423 23.26742749 36.9618537 20.953125 39.27734375 C19.65160492 40.58964211 19.65160492 40.58964211 18.3237915 41.92845154 C17.52245789 42.72670853 16.72112427 43.52496552 15.89550781 44.34741211 C14.8367746 45.40828285 14.8367746 45.40828285 13.75665283 46.49058533 C12 48 12 48 10 48 C9.80365967 47.11852295 9.60731934 46.2370459 9.4050293 45.32885742 C8.66343674 42.00531114 7.91950574 38.6823052 7.17407227 35.35961914 C6.85414815 33.93143809 6.53511178 32.50305784 6.21704102 31.07446289 C5.75520086 29.00090971 5.29065283 26.92799322 4.82421875 24.85546875 C4.6718576 24.17773407 4.51949646 23.49999939 4.36251831 22.80172729 C3.25669107 17.95325863 1.97481245 13.17983913 0.52661133 8.4230957 C0 6 0 6 0 0 Z " fill="#45B4B2" transform="translate(119,311)"/>
<path d="M0 0 C0.66 0.33 1.32 0.66 2 1 C2.52770608 2.88405905 3.04373949 4.77229487 3.49536133 6.67602539 C6.75111068 20.37596078 12.5797034 32.31439836 22.56640625 42.3984375 C24 44 24 44 24 46 C24.88365234 46.39832031 24.88365234 46.39832031 25.78515625 46.8046875 C28.05812354 48.03136826 29.57793351 49.3441234 31.4375 51.125 C41.68659206 60.29928091 52.71683335 66.45288643 66.52514648 66.43237305 C67.56004715 66.4425647 68.59494781 66.45275635 69.66120911 66.46325684 C73.06455948 66.49332823 76.4676281 66.50264406 79.87109375 66.51171875 C82.23764477 66.52856973 84.60418686 66.54672053 86.97071838 66.56611633 C93.18652558 66.61357667 99.40229657 66.6434119 105.6182251 66.66955566 C111.96625924 66.69938103 118.31416871 66.74590464 124.66210938 66.79101562 C137.10800764 66.87700376 149.5539316 66.94436919 162 67 C162 67.33 162 67.66 162 68 C147.56029717 68.09395015 133.12064258 68.16395806 118.68069553 68.20724869 C111.97411097 68.22776723 105.26774583 68.25619144 98.5612793 68.30175781 C92.07732577 68.34553173 85.59356991 68.36920333 79.1094799 68.37950897 C76.64780508 68.38684405 74.18613987 68.40116603 71.72455025 68.42292023 C43.28945393 68.66399643 19.28117823 63.28755796 -1.75 42.8125 C-7.72472086 36.79214326 -17.32228713 26.85593252 -18 18 C-16.46118164 15.89355469 -16.46118164 15.89355469 -14.16015625 13.671875 C-13.34482422 12.87265625 -12.52949219 12.0734375 -11.68945312 11.25 C-10.38911133 10.0125 -10.38911133 10.0125 -9.0625 8.75 C-8.19947266 7.90953125 -7.33644531 7.0690625 -6.44726562 6.203125 C-4.30889685 4.12382718 -2.15975911 2.05703385 0 0 Z " fill="#45B5B3" transform="translate(158,376)"/>
<path d="M0 0 C1.7325 0.1546875 1.7325 0.1546875 3.5 0.3125 C6.10865977 4.22548966 5.83203988 7.64104489 5.9375 12.1875 C6.93219756 38.21778778 12.33513431 65.36848897 24.25 88.74609375 C25.86317246 92.05813846 25.60451453 93.84116863 24.5 97.3125 C21.5 99.3125 21.5 99.3125 18.52734375 99.328125 C15.5 98.3125 15.5 98.3125 13.62890625 95.671875 C13.11199219 94.48078125 12.59507813 93.2896875 12.0625 92.0625 C11.63155029 91.06972046 11.63155029 91.06972046 11.19189453 90.05688477 C0.80163564 65.42446493 -5.54929012 39.19881755 -5.75 12.4375 C-5.75942627 11.46683594 -5.76885254 10.49617188 -5.77856445 9.49609375 C-5.77429443 8.59246094 -5.77002441 7.68882812 -5.765625 6.7578125 C-5.76336914 5.94844238 -5.76111328 5.13907227 -5.75878906 4.30517578 C-5.26241415 0.48308894 -3.60824046 0.32216433 0 0 Z " fill="#274167" transform="translate(59.5,248.6875)"/>
<path d="M0 0 C1.70702264 1.59952751 3.10315332 3.30202338 4.54296875 5.14453125 C6.50805653 7.64698888 8.71909503 9.78618047 11 12 C7.0707955 20.20265611 1.32099001 27.959387 -7 32 C-17.53900487 34.45348222 -29.34577534 32.97470036 -40 32 C-39.71442644 30.69728172 -39.41811075 29.39691465 -39.1171875 28.09765625 C-38.95331543 27.37328369 -38.78944336 26.64891113 -38.62060547 25.90258789 C-37.76050458 23.26577978 -36.26250937 22.53052105 -34 21 C-32.52642586 18.73624842 -31.29500518 16.37417617 -30 14 C-27.61650879 11.61650879 -26.99332392 11.76841228 -23.75 11.625 C-19.17368944 11.18497014 -16.54922024 10.06523566 -13 7 C-11.59219314 5.2128674 -10.30761482 3.40218706 -9.078125 1.48828125 C-6.56496948 -1.98096604 -3.7231594 -1.14558751 0 0 Z " fill="#FAF5CA" transform="translate(196,269)"/>
<path d="M0 0 C0.31034589 6.14484859 -0.54076879 10.6251162 -2.8125 16.3125 C-3.07353516 17.01439453 -3.33457031 17.71628906 -3.60351562 18.43945312 C-4.94180136 21.90577841 -6.03996857 24.69770483 -9 27 C-10.92602539 27.26123047 -10.92602539 27.26123047 -13.09765625 27.1171875 C-14.29334229 27.06340942 -14.29334229 27.06340942 -15.51318359 27.00854492 C-16.35445801 26.9644751 -17.19573242 26.92040527 -18.0625 26.875 C-27.51395702 26.62347072 -33.35181632 28.19694062 -40.75 34.25 C-45.50534072 40.06208311 -49.31170769 45.98057008 -52 53 C-52.33 53 -52.66 53 -53 53 C-52.66574014 37.56327208 -45.56823993 26.00978498 -35.375 14.8125 C-26.32660444 6.17297104 -12.77498914 -1.03580993 0 0 Z " fill="#98DD47" transform="translate(236,155)"/>
<path d="M0 0 C10.56 0 21.12 0 32 0 C29.99989392 4.00021216 28.14151829 6.08999341 24.9921875 9.203125 C24.50670441 9.6857782 24.02122131 10.1684314 23.52102661 10.66571045 C21.97700134 12.19858562 20.42615176 13.72434004 18.875 15.25 C17.82375991 16.29120361 16.77297343 17.33286541 15.72265625 18.375 C13.15366996 20.92199464 10.57851839 23.46265177 8 26 C7.01 25.67 6.02 25.34 5 25 C4.20043945 23.0222168 4.20043945 23.0222168 3.61328125 20.44921875 C3.39736328 19.52302734 3.18144531 18.59683594 2.95898438 17.64257812 C2.74564453 16.66740234 2.53230469 15.69222656 2.3125 14.6875 C2.08755859 13.72392578 1.86261719 12.76035156 1.63085938 11.76757812 C0.70338664 7.69966581 0 4.19666112 0 0 Z " fill="#54D5D5" transform="translate(144,312)"/>
<path d="M0 0 C3 0.25 3 0.25 5 2.25 C5.81625404 9.16415185 5.10485 16.61062747 3 23.25 C1 25.25 1 25.25 -2 25.5 C-5 25.25 -5 25.25 -7 23.25 C-7.73357939 16.33493549 -7.39250712 8.83677885 -5 2.25 C-3 0.25 -3 0.25 0 0 Z " fill="#274167" transform="translate(62,214.75)"/>
<path d="M0 0 C3.46841401 1.0865651 6.15213966 2.71471169 9.20703125 4.69140625 C10.53322293 5.37216894 11.86507944 6.04226253 13.20703125 6.69140625 C6.53749558 10.30802135 1.1730111 11.22862632 -6.35546875 10.94140625 C-7.72541992 10.91433594 -7.72541992 10.91433594 -9.12304688 10.88671875 C-11.34750389 10.84013326 -13.56963842 10.7747611 -15.79296875 10.69140625 C-13.07634957 3.00088045 -8.42263797 -1.59269645 0 0 Z " fill="#DDD5A6" transform="translate(252.79296875,176.30859375)"/>
</svg>
