<?xml version="1.0" encoding="UTF-8"?>
<svg version="1.1" xmlns="http://www.w3.org/2000/svg" width="512" height="512">
<path d="M0 0 C4.60081948 2.17933554 6.78469851 4.47501146 9 9 C9.36914349 12.28580952 9.36914349 12.28580952 9.36076355 16.09309387 C9.36332682 16.79565345 9.3658901 17.49821303 9.36853105 18.22206229 C9.37346196 20.56990785 9.3569881 22.91710653 9.34057617 25.26489258 C9.33972975 26.95033757 9.34020534 28.63578368 9.34190369 30.32122803 C9.34276446 34.89319717 9.32512532 39.46493022 9.30418181 44.03684449 C9.28542881 48.81611068 9.28366566 53.59538227 9.28010559 58.37467957 C9.27078109 67.4233449 9.24616179 76.4719015 9.21605712 85.52051896 C9.17625601 97.74904264 9.16006151 109.97759605 9.14255047 122.20616817 C9.11434102 141.47086023 9.05457416 160.73532283 9 180 C39.69 179.67 70.38 179.34 102 179 C99.03 177.68 96.06 176.36 93 175 C81.64704023 168.79507905 75.72845848 160.03987651 70.88671875 148.30078125 C68.01945026 137.62746902 68.52370219 123.67222176 74 114 C80.1441821 103.86140606 87.97217893 96.50071614 99 92 C99.86882812 91.64292969 100.73765625 91.28585938 101.6328125 90.91796875 C112.31197692 88.00659562 126.31301414 88.51534293 136 94 C145.97832257 100.04705458 153.78951926 107.96483894 158 119 C158.75 122.5 158.75 122.5 159 125 C159.66 125 160.32 125 161 125 C161.185625 123.741875 161.37125 122.48375 161.5625 121.1875 C163.85518683 111.06146651 170.70068412 102.94739249 179 97 C182.24161851 95.08049176 185.51516627 93.42939126 189 92 C189.8229572 91.65472952 190.6459144 91.30945904 191.4938097 90.95372581 C196.22870223 89.66577826 200.67043739 89.71729839 205.55607605 89.73257446 C206.61924854 89.72804335 207.68242103 89.72351224 208.77781087 89.71884382 C212.34044349 89.70618338 215.90292355 89.70782128 219.46557617 89.70947266 C222.02001136 89.70348838 224.57444474 89.69668307 227.12887573 89.68911743 C233.34815301 89.67327502 239.56737442 89.6670085 245.78666999 89.66589268 C250.84459997 89.66494135 255.90251747 89.66082685 260.9604435 89.65449142 C275.31237356 89.6368815 289.66427375 89.62765195 304.01621469 89.62915237 C305.17619989 89.62927224 305.17619989 89.62927224 306.35961914 89.62939453 C307.13389117 89.62947629 307.9081632 89.62955805 308.70589802 89.62964229 C321.24643161 89.63045472 333.78684496 89.61132731 346.32734378 89.5831178 C359.21538684 89.55435622 372.10337132 89.54057936 384.99144727 89.54230535 C392.22242487 89.54296821 399.45327647 89.53752194 406.68422508 89.51594925 C413.48784344 89.49578108 420.29115218 89.49644456 427.09479904 89.51098251 C429.5880389 89.51307145 432.0812954 89.50836472 434.57450676 89.4962616 C437.9863169 89.48077571 441.39721458 89.4901405 444.80900574 89.50552368 C446.27811103 89.49009299 446.27811103 89.49009299 447.77689523 89.47435057 C459.6529856 89.59213712 469.16221946 94.23429859 478 102 C486.73070955 111.28144077 491.31308993 121.59462506 491.26742554 134.2989502 C491.27195665 135.22680974 491.27648776 136.15466928 491.28115618 137.11064577 C491.29380143 140.21509073 491.29217974 143.31936029 491.29052734 146.42382812 C491.29651238 148.65140508 491.30331787 150.87897997 491.31088257 153.10655212 C491.32854911 159.15393858 491.33323814 165.20126844 491.33451414 171.24867821 C491.33641346 176.29612148 491.34377112 181.34355158 491.35085833 186.39098978 C491.36621142 197.61675837 491.37219602 208.84250021 491.37084763 220.06827611 C491.37072776 221.07789496 491.37072776 221.07789496 491.37060547 222.10791016 C491.37052371 222.78181284 491.37044195 223.45571552 491.37035771 224.15003949 C491.36954439 235.07732681 491.38869605 246.00447642 491.4168822 256.93172389 C491.44560956 268.15749294 491.45905636 279.38319685 491.45769465 290.60901022 C491.4571843 296.90924845 491.46290844 303.20933073 491.48405075 309.50953674 C491.50338485 315.43245165 491.50359054 321.35506098 491.48901749 327.27798653 C491.48692252 329.45242826 491.49167103 331.62688888 491.5037384 333.80129814 C491.51913874 336.76824335 491.50991698 339.73412798 491.49447632 342.7010498 C491.50476344 343.5627253 491.51505057 344.4244008 491.52564943 345.31218767 C491.46382546 350.68271591 490.56362162 353.73549722 487 358 C481.77740143 362.05630398 476.34659858 361.77397544 470 361 C464.93805921 358.60223857 463.97785351 356.96308918 461 352 C461 334.84 461 317.68 461 300 C311.84 300 162.68 300 9 300 C9 317.16 9 334.32 9 352 C4.24385102 359.13422347 4.24385102 359.13422347 0 361 C-5.54808604 361.82885269 -10.47140883 361.7240695 -15.5625 359.3125 C-18.79498355 356.24578484 -20.77545163 353.67484285 -21.37719816 349.18658549 C-21.37822729 348.14978394 -21.37925642 347.11298239 -21.38031673 346.04476261 C-21.38875668 344.84370288 -21.39719662 343.64264315 -21.40589231 342.40518767 C-21.39988227 341.08924933 -21.39387222 339.77331099 -21.38768005 338.41749573 C-21.39185299 337.00264578 -21.39733028 335.58779917 -21.40399987 334.17295879 C-21.41847861 330.28503281 -21.41420223 326.39731838 -21.40683305 322.5093807 C-21.40210968 318.31638359 -21.41460385 314.12343279 -21.42485046 309.93045044 C-21.44206004 301.71610604 -21.44287402 293.50183806 -21.43763756 285.2874803 C-21.43359869 278.61191783 -21.43503604 271.93637797 -21.44038582 265.26081657 C-21.44150845 263.8365079 -21.44150845 263.8365079 -21.44265376 262.38342531 C-21.44418522 260.45453636 -21.44572356 258.52564741 -21.44726873 256.59675848 C-21.46100155 238.5017886 -21.45555056 220.40686194 -21.44408352 202.31189304 C-21.43414997 185.75221381 -21.44709252 169.19264629 -21.47101771 152.63298429 C-21.49539123 135.63513885 -21.50502091 118.63734548 -21.49836498 101.63948292 C-21.49486892 92.09420742 -21.49713037 82.54901787 -21.51461601 73.00375557 C-21.52931614 64.87818854 -21.53000215 56.75276797 -21.5125451 48.62720389 C-21.50401467 44.48061345 -21.50193513 40.33428489 -21.51719666 36.1877079 C-21.53099325 32.39220406 -21.52634605 28.59718767 -21.50695742 24.80171239 C-21.50139193 22.77731952 -21.51551077 20.75290215 -21.53031152 18.72855574 C-21.4406901 7.73699225 -21.4406901 7.73699225 -17 3 C-11.77740143 -1.05630398 -6.34659858 -0.77397544 0 0 Z M159 145 C158.8040625 145.66644531 158.608125 146.33289063 158.40625 147.01953125 C154.22312415 159.91149239 146.83634427 168.99644549 134.875 175.25 C131.66236109 176.7737813 128.40924669 177.97722599 125 179 C125 179.33 125 179.66 125 180 C136.55 180 148.1 180 160 180 C160 168.45 160 156.9 160 145 C159.67 145 159.34 145 159 145 Z " fill="#FA5E97" transform="translate(21,151)"/>
<path d="M0 0 C4.60081948 2.17933554 6.78469851 4.47501146 9 9 C9.36914349 12.28580952 9.36914349 12.28580952 9.36076355 16.09309387 C9.36332682 16.79565345 9.3658901 17.49821303 9.36853105 18.22206229 C9.37346196 20.56990785 9.3569881 22.91710653 9.34057617 25.26489258 C9.33972975 26.95033757 9.34020534 28.63578368 9.34190369 30.32122803 C9.34276446 34.89319717 9.32512532 39.46493022 9.30418181 44.03684449 C9.28542881 48.81611068 9.28366566 53.59538227 9.28010559 58.37467957 C9.27078109 67.4233449 9.24616179 76.4719015 9.21605712 85.52051896 C9.17625601 97.74904264 9.16006151 109.97759605 9.14255047 122.20616817 C9.11434102 141.47086023 9.05457416 160.73532283 9 180 C58.83 180 108.66 180 160 180 C160.33 196.17 160.66 212.34 161 229 C164.64699381 236.23734765 164.64699381 236.23734765 171 239 C175.29294475 239.4212619 179.55909603 239.41574991 183.8699646 239.39872742 C185.83775956 239.40869766 185.83775956 239.40869766 187.84530795 239.41886932 C191.48031219 239.43688766 195.11511207 239.43633845 198.75015044 239.43273985 C202.67240558 239.43211596 206.59459217 239.44873651 210.51681519 239.46325684 C217.3102405 239.48604909 224.10361452 239.49792903 230.89707565 239.50238609 C240.7192518 239.50884604 250.54133519 239.53178068 260.36347397 239.55872939 C276.29943184 239.6020053 292.23538581 239.63196747 308.17138672 239.65356445 C323.65122395 239.67457173 339.13102923 239.70184463 354.61083984 239.73754883 C355.56510209 239.73974765 356.51936433 239.74194648 357.50254361 239.74421193 C362.28982285 239.75528152 367.07710179 239.76647434 371.8643806 239.77772844 C411.57622589 239.87092493 451.28808789 239.94251763 491 240 C491.09351512 254.49929799 491.16374818 268.99854909 491.20724869 283.49808693 C491.22785841 290.23076088 491.25594818 296.96324724 491.30175781 303.69580078 C491.34594249 310.19264396 491.36913575 316.68936542 491.37950897 323.18635178 C491.38690176 325.66549116 491.40133801 328.14461984 491.42292023 330.6236763 C491.45194183 334.09521819 491.45595636 337.56595404 491.45410156 341.03759766 C491.46848267 342.06330872 491.48286377 343.08901978 491.49768066 344.14581299 C491.46328915 350.09157668 490.95402079 353.46782646 487 358 C481.77740143 362.05630398 476.34659858 361.77397544 470 361 C464.93805921 358.60223857 463.97785351 356.96308918 461 352 C461 334.84 461 317.68 461 300 C311.84 300 162.68 300 9 300 C9 317.16 9 334.32 9 352 C4.24385102 359.13422347 4.24385102 359.13422347 0 361 C-5.54808604 361.82885269 -10.47140883 361.7240695 -15.5625 359.3125 C-18.79498355 356.24578484 -20.77545163 353.67484285 -21.37719816 349.18658549 C-21.37822729 348.14978394 -21.37925642 347.11298239 -21.38031673 346.04476261 C-21.38875668 344.84370288 -21.39719662 343.64264315 -21.40589231 342.40518767 C-21.39988227 341.08924933 -21.39387222 339.77331099 -21.38768005 338.41749573 C-21.39185299 337.00264578 -21.39733028 335.58779917 -21.40399987 334.17295879 C-21.41847861 330.28503281 -21.41420223 326.39731838 -21.40683305 322.5093807 C-21.40210968 318.31638359 -21.41460385 314.12343279 -21.42485046 309.93045044 C-21.44206004 301.71610604 -21.44287402 293.50183806 -21.43763756 285.2874803 C-21.43359869 278.61191783 -21.43503604 271.93637797 -21.44038582 265.26081657 C-21.44150845 263.8365079 -21.44150845 263.8365079 -21.44265376 262.38342531 C-21.44418522 260.45453636 -21.44572356 258.52564741 -21.44726873 256.59675848 C-21.46100155 238.5017886 -21.45555056 220.40686194 -21.44408352 202.31189304 C-21.43414997 185.75221381 -21.44709252 169.19264629 -21.47101771 152.63298429 C-21.49539123 135.63513885 -21.50502091 118.63734548 -21.49836498 101.63948292 C-21.49486892 92.09420742 -21.49713037 82.54901787 -21.51461601 73.00375557 C-21.52931614 64.87818854 -21.53000215 56.75276797 -21.5125451 48.62720389 C-21.50401467 44.48061345 -21.50193513 40.33428489 -21.51719666 36.1877079 C-21.53099325 32.39220406 -21.52634605 28.59718767 -21.50695742 24.80171239 C-21.50139193 22.77731952 -21.51551077 20.75290215 -21.53031152 18.72855574 C-21.4406901 7.73699225 -21.4406901 7.73699225 -17 3 C-11.77740143 -1.05630398 -6.34659858 -0.77397544 0 0 Z " fill="#E0F3FE" transform="translate(21,151)"/>
<path d="M0 0 C9.97832257 6.04705458 17.78951926 13.96483894 22 25 C22.75 28.5 22.75 28.5 23 31 C23.66 31 24.32 31 25 31 C25.2784375 29.1128125 25.2784375 29.1128125 25.5625 27.1875 C27.85518683 17.06146651 34.70068412 8.94739249 43 3 C69.53598519 -12.71315135 94.69102344 -4 129 -4 C129 45.5 129 95 129 146 C105.9515625 146.12375 105.9515625 146.12375 82.4375 146.25 C75.17190063 146.30462402 75.17190063 146.30462402 67.75952148 146.36035156 C61.82434082 146.37841797 61.82434082 146.37841797 59.04188538 146.3817749 C57.10715552 146.3878993 55.17244052 146.40193057 53.23780823 146.42230225 C50.29946553 146.45168434 47.36205211 146.45562072 44.42358398 146.45410156 C43.56814467 146.468494 42.71270536 146.48288643 41.83134365 146.497715 C36.05921672 146.45790564 32.63679371 145.53384825 28 142 C24.09384933 137.39155067 23.41328452 132.71128993 23.45410156 126.76977539 C23.44376389 125.97871399 23.43342621 125.18765259 23.42277527 124.37261963 C23.3934843 121.78075401 23.39185105 119.18967394 23.390625 116.59765625 C23.37563404 114.79160587 23.35890497 112.98556914 23.34051514 111.17955017 C23.29693208 106.4433019 23.27686263 101.70723854 23.26177979 96.9708252 C23.24217603 92.13082995 23.2002097 87.29103344 23.16015625 82.45117188 C23.08495218 72.96750935 23.03460141 63.48389153 23 54 C22.72774597 54.61950531 22.45549194 55.23901062 22.17498779 55.87728882 C21.81656799 56.68912628 21.45814819 57.50096375 21.08886719 58.33740234 C20.55673615 59.54509781 20.55673615 59.54509781 20.01385498 60.77719116 C14.27321739 73.36315287 4.75881113 79.97502001 -7.69921875 85.11328125 C-18.37253098 87.98054974 -32.32777824 87.47629781 -42 82 C-52.13859394 75.8558179 -59.49928386 68.02782107 -64 57 C-64.35707031 56.13117188 -64.71414062 55.26234375 -65.08203125 54.3671875 C-67.99340438 43.68802308 -67.48465707 29.68698586 -62 20 C-55.8558179 9.86140606 -48.02782107 2.50071614 -37 -2 C-36.13117188 -2.35707031 -35.26234375 -2.71414062 -34.3671875 -3.08203125 C-23.68802308 -5.99340438 -9.68698586 -5.48465707 0 0 Z " fill="#FE7CB9" transform="translate(157,245)"/>
<path d="M0 0 C74.58 0 149.16 0 226 0 C226 112 226 112 222 118 C216.77740143 122.05630398 211.34659858 121.77397544 205 121 C199.93805921 118.60223857 198.97785351 116.96308918 196 112 C196 94.84 196 77.68 196 60 C131.32 60 66.64 60 0 60 C0 40.2 0 20.4 0 0 Z " fill="#BBDCFF" transform="translate(286,391)"/>
<path d="M0 0 C4.61339032 2.18529015 6.73462015 4.49431693 9 9 C9.37719816 11.81341451 9.37719816 11.81341451 9.38031673 14.95523739 C9.38875668 16.15629712 9.39719662 17.35735685 9.40589231 18.59481233 C9.39988227 19.91075067 9.39387222 21.22668901 9.38768005 22.58250427 C9.39185299 23.99735422 9.39733028 25.41220083 9.40399987 26.82704121 C9.41847861 30.71496719 9.41420223 34.60268162 9.40683305 38.4906193 C9.40210968 42.68361641 9.41460385 46.87656721 9.42485046 51.06954956 C9.44206004 59.28389396 9.44287402 67.49816194 9.43763756 75.7125197 C9.43359869 82.38808217 9.43503604 89.06362203 9.44038582 95.73918343 C9.44113424 96.68872254 9.44188266 97.63826166 9.44265376 98.61657469 C9.44418522 100.54546364 9.44572356 102.47435259 9.44726873 104.40324152 C9.46100155 122.4982114 9.45555056 140.59313806 9.44408352 158.68810696 C9.43414997 175.24778619 9.44709252 191.80735371 9.47101771 208.36701571 C9.49539123 225.36486115 9.50502091 242.36265452 9.49836498 259.36051708 C9.49486892 268.90579258 9.49713037 278.45098213 9.51461601 287.99624443 C9.52931614 296.12181146 9.53000215 304.24723203 9.5125451 312.37279611 C9.50401467 316.51938655 9.50193513 320.66571511 9.51719666 324.8122921 C9.53099325 328.60779594 9.52634605 332.40281233 9.50695742 336.19828761 C9.50139193 338.22268048 9.51551077 340.24709785 9.53031152 342.27144426 C9.4406901 353.26300775 9.4406901 353.26300775 5 358 C-0.22259857 362.05630398 -5.65340142 361.77397544 -12 361 C-16.61339032 358.81470985 -18.73462015 356.50568307 -21 352 C-21.37719816 349.18658549 -21.37719816 349.18658549 -21.38031673 346.04476261 C-21.38875668 344.84370288 -21.39719662 343.64264315 -21.40589231 342.40518767 C-21.39988227 341.08924933 -21.39387222 339.77331099 -21.38768005 338.41749573 C-21.39185299 337.00264578 -21.39733028 335.58779917 -21.40399987 334.17295879 C-21.41847861 330.28503281 -21.41420223 326.39731838 -21.40683305 322.5093807 C-21.40210968 318.31638359 -21.41460385 314.12343279 -21.42485046 309.93045044 C-21.44206004 301.71610604 -21.44287402 293.50183806 -21.43763756 285.2874803 C-21.43359869 278.61191783 -21.43503604 271.93637797 -21.44038582 265.26081657 C-21.44150845 263.8365079 -21.44150845 263.8365079 -21.44265376 262.38342531 C-21.44418522 260.45453636 -21.44572356 258.52564741 -21.44726873 256.59675848 C-21.46100155 238.5017886 -21.45555056 220.40686194 -21.44408352 202.31189304 C-21.43414997 185.75221381 -21.44709252 169.19264629 -21.47101771 152.63298429 C-21.49539123 135.63513885 -21.50502091 118.63734548 -21.49836498 101.63948292 C-21.49486892 92.09420742 -21.49713037 82.54901787 -21.51461601 73.00375557 C-21.52931614 64.87818854 -21.53000215 56.75276797 -21.5125451 48.62720389 C-21.50401467 44.48061345 -21.50193513 40.33428489 -21.51719666 36.1877079 C-21.53099325 32.39220406 -21.52634605 28.59718767 -21.50695742 24.80171239 C-21.50139193 22.77731952 -21.51551077 20.75290215 -21.53031152 18.72855574 C-21.4406901 7.73699225 -21.4406901 7.73699225 -17 3 C-11.77740143 -1.05630398 -6.34659858 -0.77397544 0 0 Z " fill="#714C2F" transform="translate(21,151)"/>
<path d="M0 0 C10.13859394 6.1441821 17.49928386 13.97217893 22 25 C22.53560547 26.30324219 22.53560547 26.30324219 23.08203125 27.6328125 C25.99340438 38.31197692 25.48465707 52.31301414 20 62 C13.8558179 72.13859394 6.02782107 79.49928386 -5 84 C-6.30324219 84.53560547 -6.30324219 84.53560547 -7.6328125 85.08203125 C-18.31197692 87.99340438 -32.31301414 87.48465707 -42 82 C-52.13859394 75.8558179 -59.49928386 68.02782107 -64 57 C-64.35707031 56.13117188 -64.71414062 55.26234375 -65.08203125 54.3671875 C-67.99340438 43.68802308 -67.48465707 29.68698586 -62 20 C-55.8558179 9.86140606 -48.02782107 2.50071614 -37 -2 C-36.13117188 -2.35707031 -35.26234375 -2.71414062 -34.3671875 -3.08203125 C-23.68802308 -5.99340438 -9.68698586 -5.48465707 0 0 Z " fill="#FFCEBF" transform="translate(157,245)"/>
<path d="M0 0 C0.69013687 -0.01168213 1.38027374 -0.02336426 2.09132385 -0.03540039 C4.36335299 -0.06887847 6.63472863 -0.07971206 8.90698242 -0.08740234 C10.49493126 -0.09959202 12.08287785 -0.11207833 13.67082214 -0.12484741 C16.99707184 -0.14729698 20.32309289 -0.15687457 23.64941406 -0.15917969 C27.89677428 -0.1644578 32.14221429 -0.21576586 36.38905811 -0.27869606 C39.66895407 -0.31970856 42.94839206 -0.32882297 46.22852135 -0.32929611 C47.79337371 -0.33465759 49.35823266 -0.35142323 50.92283058 -0.38014603 C64.65208145 -0.61115363 64.65208145 -0.61115363 69.90966797 3.81347656 C73.28068325 7.32577167 74.12066057 10.39570508 74.26245117 15.20166016 C74.31852539 16.43142578 74.31852539 16.43142578 74.37573242 17.68603516 C73.29016081 24.73727093 68.23015115 29.58054615 63.32104492 34.33837891 C62.69013443 34.96267288 62.05922394 35.58696686 61.40919495 36.23017883 C59.40899322 38.20714488 57.39885398 40.17359716 55.38745117 42.13916016 C53.37428151 44.11716738 51.36331786 46.09734764 49.35499573 48.08027649 C48.10945586 49.30895097 46.86084065 50.53451794 45.60874939 51.7565155 C42.80402982 54.51300271 40.18493736 57.19419647 37.94995117 60.45166016 C39.12968506 60.46567871 39.12968506 60.46567871 40.33325195 60.47998047 C43.91444355 60.53383297 47.49435 60.61745379 51.07495117 60.70166016 C52.93120117 60.72292969 52.93120117 60.72292969 54.82495117 60.74462891 C66.44932787 61.05711215 66.44932787 61.05711215 70.94995117 65.45166016 C75.00625515 70.67425873 74.72392661 76.10506158 73.94995117 82.45166016 C71.76882795 87.05625363 69.47213944 89.22641136 64.94995117 91.45166016 C61.66911316 91.85952759 61.66911316 91.85952759 57.89990234 91.90332031 C57.20976547 91.91500244 56.5196286 91.92668457 55.80857849 91.9387207 C53.53654935 91.97219879 51.26517371 91.98303237 48.99291992 91.99072266 C47.40497108 92.00291234 45.81702449 92.01539864 44.2290802 92.02816772 C40.90283051 92.0506173 37.57680946 92.06019488 34.25048828 92.0625 C30.00312807 92.06777812 25.75768805 92.11908617 21.51084423 92.18201637 C18.23094827 92.22302887 14.95151028 92.23214328 11.671381 92.23261642 C10.10652864 92.23797791 8.54166968 92.25474354 6.97707176 92.28346634 C-6.75217911 92.51447395 -6.75217911 92.51447395 -12.00976562 88.08984375 C-15.3807809 84.57754864 -16.22075823 81.50761523 -16.36254883 76.70166016 C-16.41862305 75.47189453 -16.41862305 75.47189453 -16.47583008 74.21728516 C-15.39025847 67.16604938 -10.3302488 62.32277416 -5.42114258 57.56494141 C-4.79023209 56.94064743 -4.15932159 56.31635345 -3.5092926 55.67314148 C-1.50909088 53.69617543 0.50104836 51.72972315 2.51245117 49.76416016 C4.52562083 47.78615293 6.53658449 45.80597268 8.54490662 43.82304382 C9.79044649 42.59436934 11.0390617 41.36880237 12.29115295 40.14680481 C15.09587253 37.3903176 17.71496498 34.70912385 19.94995117 31.45166016 C18.77021729 31.4376416 18.77021729 31.4376416 17.56665039 31.42333984 C13.98545879 31.36948734 10.40555234 31.28586652 6.82495117 31.20166016 C4.96870117 31.18039063 4.96870117 31.18039063 3.07495117 31.15869141 C-8.54942553 30.84620816 -8.54942553 30.84620816 -13.05004883 26.45166016 C-17.10635281 21.22906158 -16.82402426 15.79825873 -16.05004883 9.45166016 C-12.57696164 2.11958719 -7.85886884 0.09130858 0 0 Z " fill="#00C0F1" transform="translate(287.050048828125,-0.45166015625)"/>
<path d="M0 0 C0.69013687 -0.01168213 1.38027374 -0.02336426 2.09132385 -0.03540039 C4.36335299 -0.06887847 6.63472863 -0.07971206 8.90698242 -0.08740234 C10.49493126 -0.09959202 12.08287785 -0.11207833 13.67082214 -0.12484741 C16.99707184 -0.14729698 20.32309289 -0.15687457 23.64941406 -0.15917969 C27.89677428 -0.1644578 32.14221429 -0.21576586 36.38905811 -0.27869606 C39.66895407 -0.31970856 42.94839206 -0.32882297 46.22852135 -0.32929611 C47.79337371 -0.33465759 49.35823266 -0.35142323 50.92283058 -0.38014603 C64.65208145 -0.61115363 64.65208145 -0.61115363 69.90966797 3.81347656 C73.28068325 7.32577167 74.12066057 10.39570508 74.26245117 15.20166016 C74.31852539 16.43142578 74.31852539 16.43142578 74.37573242 17.68603516 C73.23453522 25.09858211 67.68672405 30.1247264 62.55932617 35.13525391 C61.85471252 35.83562271 61.15009888 36.53599152 60.4241333 37.25758362 C58.18973022 39.47530165 55.94508528 41.6823118 53.69995117 43.88916016 C52.17582294 45.39822847 50.65237803 46.90798727 49.12963867 48.41845703 C45.41094472 52.10421681 41.68380319 55.78126041 37.94995117 59.45166016 C39.12968506 59.46567871 39.12968506 59.46567871 40.33325195 59.47998047 C43.91444355 59.53383297 47.49435 59.61745379 51.07495117 59.70166016 C52.93120117 59.72292969 52.93120117 59.72292969 54.82495117 59.74462891 C66.44932787 60.05711215 66.44932787 60.05711215 70.94995117 64.45166016 C75.00625515 69.67425873 74.72392661 75.10506158 73.94995117 81.45166016 C71.76882795 86.05625363 69.47213944 88.22641136 64.94995117 90.45166016 C61.66911316 90.85952759 61.66911316 90.85952759 57.89990234 90.90332031 C57.20976547 90.91500244 56.5196286 90.92668457 55.80857849 90.9387207 C53.53654935 90.97219879 51.26517371 90.98303237 48.99291992 90.99072266 C47.40497108 91.00291234 45.81702449 91.01539864 44.2290802 91.02816772 C40.90283051 91.0506173 37.57680946 91.06019488 34.25048828 91.0625 C30.00312807 91.06777812 25.75768805 91.11908617 21.51084423 91.18201637 C18.23094827 91.22302887 14.95151028 91.23214328 11.671381 91.23261642 C10.10652864 91.23797791 8.54166968 91.25474354 6.97707176 91.28346634 C-6.75217911 91.51447395 -6.75217911 91.51447395 -12.00976562 87.08984375 C-15.3807809 83.57754864 -16.22075823 80.50761523 -16.36254883 75.70166016 C-16.41862305 74.47189453 -16.41862305 74.47189453 -16.47583008 73.21728516 C-15.33463288 65.8047382 -9.78682171 60.77859391 -4.65942383 55.76806641 C-3.60250336 54.7175132 -3.60250336 54.7175132 -2.52423096 53.64573669 C-0.28982787 51.42801866 1.95481707 49.22100851 4.19995117 47.01416016 C5.72407941 45.50509184 7.24752431 43.99533304 8.77026367 42.48486328 C12.48895762 38.7991035 16.21609916 35.1220599 19.94995117 31.45166016 C18.77021729 31.4376416 18.77021729 31.4376416 17.56665039 31.42333984 C13.98545879 31.36948734 10.40555234 31.28586652 6.82495117 31.20166016 C4.96870117 31.18039063 4.96870117 31.18039063 3.07495117 31.15869141 C-8.54942553 30.84620816 -8.54942553 30.84620816 -13.05004883 26.45166016 C-17.10635281 21.22906158 -16.82402426 15.79825873 -16.05004883 9.45166016 C-12.57696164 2.11958719 -7.85886884 0.09130858 0 0 Z " fill="#25D9F8" transform="translate(167.050048828125,90.54833984375)"/>
<path d="M0 0 C9.9 0 19.8 0 30 0 C30.09190666 7.2963677 30.17152676 14.59072135 30.21972656 21.88720703 C30.23982241 24.36839611 30.26710384 26.84953795 30.30175781 29.33056641 C30.35036294 32.90018382 30.37298972 36.46917416 30.390625 40.0390625 C30.41127014 41.14553131 30.43191528 42.25200012 30.45318604 43.39199829 C30.45498414 49.58534375 30.20150744 53.31658193 26 58 C20.77740143 62.05630398 15.34659858 61.77397544 9 61 C4.38069108 58.8119063 2.28884868 56.49644023 0 52 C-0.36076355 49.42460632 -0.36076355 49.42460632 -0.34057617 46.65893555 C-0.34034958 45.6182341 -0.34012299 44.57753265 -0.33988953 43.5052948 C-0.32440567 42.3936647 -0.30892181 41.28203461 -0.29296875 40.13671875 C-0.28872391 38.98959915 -0.28447906 37.84247955 -0.28010559 36.66059875 C-0.26333484 33.00265879 -0.22568435 29.345273 -0.1875 25.6875 C-0.17245114 23.20508609 -0.15876309 20.72266353 -0.14648438 18.24023438 C-0.11599058 12.15977181 -0.05726321 6.08050506 0 0 Z " fill="#523522" transform="translate(482,451)"/>
</svg>
