<?xml version="1.0" encoding="UTF-8"?>
<svg version="1.1" xmlns="http://www.w3.org/2000/svg" width="512" height="512">
<path d="M0 0 C0 0.66 0 1.32 0 2 C0.65484375 2.02578125 1.3096875 2.0515625 1.984375 2.078125 C13.41668877 2.78860778 22.90435413 6.01552919 32 13 C32.61488281 13.43957031 33.22976563 13.87914063 33.86328125 14.33203125 C42.44502999 20.93484015 47.82285409 31.52226281 50 42 C50.09334368 43.77543912 50.135232 45.55390821 50.1418457 47.33178711 C50.14888016 48.39646713 50.15591461 49.46114716 50.16316223 50.55809021 C50.16732651 51.70294388 50.17149078 52.84779755 50.17578125 54.02734375 C50.19897254 56.4524827 50.22308959 58.87761295 50.24804688 61.30273438 C50.28320954 65.1256296 50.31253749 68.94820268 50.32592773 72.77124023 C50.3413807 76.46117007 50.38156661 80.15016125 50.42578125 83.83984375 C50.42291862 85.55408791 50.42291862 85.55408791 50.41999817 87.30296326 C50.44324794 93.54995885 50.44324794 93.54995885 52.99121094 99.11035156 C53.98556152 100.04572754 53.98556152 100.04572754 55 101 C56.64738971 106.51830543 56.42692105 111.99149361 54.0703125 117.24609375 C51.28926277 121.80336138 47.66069742 124.02015287 42.625 125.3125 C40.830625 125.6528125 40.830625 125.6528125 39 126 C38.9071875 127.6396875 38.9071875 127.6396875 38.8125 129.3125 C37.06772514 142.70482593 27.85109917 154.37018998 17.47265625 162.390625 C15.13644116 163.9111947 13.05096576 164.77115065 10.4375 165.6875 C8.42621968 166.41894774 8.42621968 166.41894774 7 168 C6.00651462 172.34853439 5.89717018 176.55261014 6 181 C7.14082031 181.08765625 8.28164063 181.1753125 9.45703125 181.265625 C16.22682232 182.02238101 22.81841854 183.65126714 29.4362793 185.21875 C31.66303796 185.74422737 33.8927525 186.25539314 36.12304688 186.765625 C57.50312352 191.73766004 76.50275644 199.22292185 88.75 218.625 C90.18946957 221.07296022 91.6040427 223.5275136 93 226 C93.72775635 227.28293945 93.72775635 227.28293945 94.47021484 228.59179688 C96.69858167 232.52349067 98.92212862 236.45782119 101.13598633 240.39770508 C107.32891332 251.41520765 107.32891332 251.41520765 113.94921875 262.17944336 C115 264 115 264 115.87890625 266.27563477 C120.49246061 276.59059863 131.46298997 279.88354288 141.125 284.3125 C143.06689274 285.23032685 145.00748116 286.15091823 146.94677734 287.07421875 C155.59615212 291.17451646 164.30092309 295.14977533 173.03125 299.07421875 C174.34621397 299.66946513 175.66115631 300.26475929 176.97607422 300.86010742 C179.35359058 301.93553484 181.73801881 302.9769749 184.13720703 304.00512695 C185.17731934 304.46749756 186.21743164 304.92986816 187.2890625 305.40625 C188.18318848 305.79103516 189.07731445 306.17582031 189.99853516 306.57226562 C192 308 192 308 192.65771484 310.54638672 C192.77066895 311.3560791 192.88362305 312.16577148 193 313 C195.20644275 314.9548166 195.20644275 314.9548166 198 316.625 C209.51978429 324.61862464 216.60219938 335.92301433 220.375 349.375 C221.94594595 358.48648649 221.94594595 358.48648649 219.4375 362.5 C215.93159518 364.65747989 213.96321344 363.88870653 210 363 C206.77441406 361.26586914 206.77441406 361.26586914 203.515625 359.03515625 C202.93335144 358.64178574 202.35107788 358.24841522 201.75115967 357.84312439 C199.90907248 356.59470963 198.07959871 355.3291267 196.25 354.0625 C195.00730936 353.21562334 193.76382599 352.36990867 192.51953125 351.52539062 C190.24394765 349.97849847 187.97445739 348.4238835 185.70800781 346.86352539 C183.81531683 345.56106323 181.91166825 344.2744455 180 343 C179.01 343.66 178.02 344.32 177 345 C174.30567373 344.31061837 171.87995101 343.5188397 169.29418945 342.53100586 C168.5099057 342.24316223 167.72562195 341.9553186 166.91757202 341.65875244 C164.30939186 340.69451498 161.71075847 339.70753292 159.11328125 338.71484375 C158.2203002 338.3751462 157.32731915 338.03544865 156.40727806 337.68545723 C151.66162284 335.87635842 146.92397461 334.04773794 142.19116211 332.20532227 C138.30811751 330.69779299 134.41398409 329.22847018 130.50366211 327.79321289 C89.67439961 312.78095869 89.67439961 312.78095869 79.24380493 293.24710083 C77.38977598 289.89754826 75.11022475 287.01020805 72.75 284 C72.10546875 283.13375 71.4609375 282.2675 70.796875 281.375 C68.9102858 278.88142123 66.95332401 276.44165501 65 274 C65 304.36 65 334.72 65 366 C76.323125 362.926875 87.64625 359.85375 99.3125 356.6875 C102.86684814 355.72287842 106.42119629 354.75825684 110.08325195 353.7644043 C113.31368497 352.8876203 113.31368497 352.8876203 116.54411316 352.01081848 C117.96528972 351.62509227 119.38647337 351.23939218 120.80766296 350.85371399 C122.27190773 350.45634774 123.73613352 350.05891155 125.20033932 349.66140175 C126.58652519 349.28523475 127.97281022 348.90943293 129.35920811 348.53404808 C132.34780465 347.72419035 135.33384387 346.90672545 138.31602478 346.07351685 C139.28907059 345.80215912 140.26211639 345.53080139 141.26464844 345.2512207 C142.08954773 345.01836868 142.91444702 344.78551666 143.76434326 344.54560852 C154.12963034 342.01597647 164.89791088 343.49220175 174 349 C182.48652695 354.90681564 187.26382013 362.13970147 190.64453125 371.8515625 C191.20567615 375.24309758 191.14350728 378.63556836 191.125 382.0625 C191.12886719 382.78244141 191.13273437 383.50238281 191.13671875 384.24414062 C191.13080799 387.42708639 191.01350713 389.95947862 190 393 C201.88 393 213.76 393 226 393 C226 417.09 226 441.18 226 466 C67.6 466 -90.8 466 -254 466 C-254 441.91 -254 417.82 -254 393 C-237.665 392.505 -237.665 392.505 -221 392 C-221.99 389.36 -222.98 386.72 -224 384 C-224.51877899 381.07191488 -224.5257264 378.22107716 -224.5 375.25 C-224.49355469 374.4650415 -224.48710937 373.68008301 -224.48046875 372.87133789 C-224.11526303 361.14511076 -219.25162636 353.10829786 -211 345 C-212.47981766 345.93647208 -213.95878128 346.87429362 -215.4375 347.8125 C-216.43136719 348.44027344 -217.42523438 349.06804687 -218.44921875 349.71484375 C-221.08500871 351.39492282 -223.68085084 353.12718063 -226.26953125 354.87890625 C-227.00953369 355.37350342 -227.74953613 355.86810059 -228.51196289 356.37768555 C-229.98017664 357.35996491 -231.4418984 358.3520329 -232.89624023 359.35473633 C-237.23163355 362.23536771 -240.63737681 363.90754098 -246 364 C-249 362 -249 362 -249.75390625 359.2578125 C-250.5812359 348.30554386 -245.46140713 336.74538222 -238.85546875 328.23828125 C-233.9773865 322.67876331 -228.73900886 317.55826922 -222.625 313.375 C-220.80712072 312.13998476 -220.80712072 312.13998476 -220.69287109 310.07006836 C-220 308 -220 308 -217.99853516 306.68579102 C-217.10440918 306.29576904 -216.2102832 305.90574707 -215.2890625 305.50390625 C-213.73022339 304.8078125 -213.73022339 304.8078125 -212.13989258 304.09765625 C-210.40002075 303.33775391 -210.40002075 303.33775391 -208.625 302.5625 C-207.3991919 302.00053253 -206.17486568 301.43532341 -204.9519043 300.8671875 C-198.92120521 298.07469463 -192.87506188 295.345718 -186.73193359 292.80810547 C-161.53290941 282.38617837 -144.34051928 274.11713803 -133.45703125 248.34619141 C-131.35279097 243.51363154 -128.71741278 239.06942852 -126 234.5625 C-125.13628104 233.07783369 -124.27422332 231.59219934 -123.4140625 230.10546875 C-111.41619877 209.63429358 -98.39459477 195.79940018 -74.69363403 189.37481689 C-69.64953632 188.08768605 -64.58008746 186.91766995 -59.50097656 185.77758789 C-56.84201806 185.18008857 -54.18656743 184.56853627 -51.53125 183.95507812 C-49.83091448 183.56689571 -48.13039999 183.1794962 -46.4296875 182.79296875 C-45.64117401 182.61179001 -44.85266052 182.43061127 -44.04025269 182.24394226 C-40.58019131 181.47200951 -37.56447873 181 -34 181 C-33.57103286 176.71736086 -33.6030699 173.09834641 -35 169 C-38.96600222 165.85649256 -43.39465607 164.04062455 -48 162 C-57.86952568 155.91714948 -64.14549505 144.56967037 -68 134 C-68.62490217 131.23967053 -68.88873354 128.83729465 -69 126 C-70.175625 125.79375 -71.35125 125.5875 -72.5625 125.375 C-78.2776446 123.94367604 -82.33953724 120.67117922 -85.4375 115.6875 C-86.61603136 110.05673904 -87.06874084 105.7714169 -84.015625 100.7109375 C-80.67122266 94.33367229 -81.39384328 86.96054675 -81.375 79.9375 C-81.18037087 54.77596017 -77.41196229 32.7091608 -59.05859375 14.0234375 C-45.76498354 1.8309142 -16.77226378 -13.09054734 0 0 Z M-93 272 C-94.72587365 274.2064967 -96.40211522 276.43219516 -98.0625 278.6875 C-99.14232998 280.1425948 -100.22311151 281.59698379 -101.3046875 283.05078125 C-101.89217773 283.84049316 -102.47966797 284.63020508 -103.08496094 285.44384766 C-107.2872675 291.05299474 -111.56293452 296.60703757 -115.83032227 302.16674805 C-116.48830811 303.02695557 -117.14629395 303.88716309 -117.82421875 304.7734375 C-118.41291748 305.54091309 -119.00161621 306.30838867 -119.6081543 307.09912109 C-121.04456551 308.9494835 -121.04456551 308.9494835 -122 311 C-123.93209493 311.91498852 -125.90749588 312.73893476 -127.89672852 313.52197266 C-128.51134949 313.76610397 -129.12597046 314.01023529 -129.75921631 314.26176453 C-131.79657645 315.06912161 -133.83765884 315.86659043 -135.87890625 316.6640625 C-137.29019088 317.22110688 -138.70123446 317.77876233 -140.11204529 318.33700562 C-143.82999686 319.80625547 -147.55117452 321.26715766 -151.27307129 322.72637939 C-155.06878607 324.21623034 -158.8614098 325.71390589 -162.65429688 327.2109375 C-170.09985184 330.14831725 -177.54883107 333.07689055 -185 336 C-185 336.33 -185 336.66 -185 337 C-184.227771 337.19408447 -183.45554199 337.38816895 -182.65991211 337.58813477 C-178.75104764 338.57416734 -174.84381235 339.56640949 -170.9375 340.5625 C-170.1964502 340.75141815 -169.45540039 340.9403363 -168.69189453 341.13497925 C-157.61165455 343.96775593 -146.56583429 346.91753788 -135.53515625 349.9375 C-134.29531479 350.27692123 -133.05547333 350.61634247 -131.77806091 350.96604919 C-125.53365099 352.67764431 -119.29123088 354.39624499 -113.05053711 356.12133789 C-110.73161682 356.75930913 -108.41268816 357.39724997 -106.09375 358.03515625 C-105.01710587 358.33474243 -103.94046173 358.63432861 -102.83119202 358.94299316 C-101.34757423 359.35031677 -101.34757423 359.35031677 -99.83398438 359.76586914 C-98.96914429 360.00519669 -98.1043042 360.24452423 -97.21325684 360.49110413 C-94.8912165 361.11204181 -94.8912165 361.11204181 -92 361 C-92 331.63 -92 302.26 -92 272 C-92.33 272 -92.66 272 -93 272 Z M-209 342 C-209.33 342.66 -209.66 343.32 -210 344 C-209.01 343.67 -208.02 343.34 -207 343 C-207.66 342.67 -208.32 342.34 -209 342 Z " fill="#3196CA" transform="translate(270,25)"/>
<path d="M0 0 C11.55 0 23.1 0 35 0 C36.98 2.64 38.96 5.28 41 8 C48.70454124 15.70454124 57.77390987 18.77335359 68.49902344 19.57250977 C69.14380646 19.62142365 69.78858948 19.67033752 70.45291138 19.72073364 C72.58813119 19.88149356 74.72369971 20.03682209 76.859375 20.19140625 C78.36558452 20.30202 79.87178968 20.41269306 81.37799072 20.52342224 C84.54868358 20.75547302 87.71958432 20.98442465 90.890625 21.21166992 C94.09484172 21.44174756 97.29856156 21.67740975 100.50195312 21.91870117 C115.65184121 23.05832915 130.82297242 24.19663065 146.015625 24.52734375 C147.47328278 24.58892418 147.47328278 24.58892418 148.96038818 24.65174866 C151.45785046 24.6703224 153.58595667 24.63911818 156 24 C158.62290256 21.23731482 158.62290256 21.23731482 160 18 C167.93852524 8.18545511 178.60900725 4.77950491 190.76953125 3.38989258 C192.44992745 3.21883893 194.13095772 3.05392478 195.8125 2.89453125 C196.70743164 2.80620529 197.60236328 2.71787933 198.52441406 2.62687683 C200.3963823 2.44359426 202.26862227 2.26306745 204.14111328 2.08520508 C207.02072751 1.81052283 209.89899796 1.5239672 212.77734375 1.23632812 C214.60149411 1.05919014 216.42571072 0.88273277 218.25 0.70703125 C219.11343018 0.62064896 219.97686035 0.53426666 220.86645508 0.44526672 C222.9075254 0.25525994 224.95371487 0.1216052 227 0 C229.69842038 2.69842038 229.14669663 9.72627571 229.5625 13.375 C229.77036133 15.09009766 229.77036133 15.09009766 229.98242188 16.83984375 C230.80102892 23.92906142 231.18709375 30.86512994 231 38 C250.63992053 37.09920379 270.22434081 35.87664316 289.8125 34.1875 C305.61562661 32.82518702 321.4232659 31.6820934 337.25390625 30.69921875 C338.14023302 30.64418119 339.02655979 30.58914364 339.93974495 30.53243828 C348.88810879 29.978384 357.83712085 29.43565968 366.78686142 28.90432262 C387.67972118 27.72945918 387.67972118 27.72945918 408.52734375 25.9609375 C409.24030609 25.88934418 409.95326843 25.81775085 410.68783569 25.74398804 C419.66742363 24.73034806 427.49563138 21.33651394 434 15 C437.72338139 10.29722577 440.31337743 5.37324513 443 0 C455.21 0 467.42 0 480 0 C480 24.09 480 48.18 480 73 C321.6 73 163.2 73 0 73 C0 48.91 0 24.82 0 0 Z " fill="#FBE38B" transform="translate(16,418)"/>
<path d="M0 0 C1.86572124 0.50965848 3.73177081 1.01811638 5.59812927 1.5254364 C10.48847502 2.85834992 15.37402647 4.20807074 20.25878906 5.5612793 C25.21189368 6.92990031 30.16969578 8.28128081 35.12695312 9.63476562 C65.29815091 17.88684762 65.29815091 17.88684762 75.68359375 21.07421875 C88.28079962 24.8250987 100.94376613 28.19741014 113.71386719 31.30957031 C120.03701248 32.86410345 126.31558698 34.51175465 132.56640625 36.33203125 C133.54205536 36.61329361 133.54205536 36.61329361 134.53741455 36.90023804 C137.67047463 37.80372855 140.79680316 38.72296799 143.91601562 39.67333984 C150.93334683 41.70724759 156.50309631 42.55149564 163.68359375 41.07421875 C164.44575195 40.91969238 165.20791016 40.76516602 165.99316406 40.60595703 C168.34321182 40.08344747 170.66750115 39.49752833 172.99609375 38.88671875 C173.84929199 38.66822266 174.70249023 38.44972656 175.58154297 38.22460938 C183.43891961 36.18894529 191.24244681 33.96820436 199.03515625 31.69921875 C206.1416902 29.63841807 213.27708187 27.68069102 220.40777588 25.70556641 C223.81608248 24.76004857 227.2224989 23.80780171 230.62890625 22.85546875 C234.86648224 21.67110738 239.10518849 20.49107216 243.34667969 19.32080078 C244.52568848 18.99545853 244.52568848 18.99545853 245.72851562 18.6635437 C247.37496307 18.20924723 249.02144812 17.75508704 250.66796875 17.30105591 C256.42752079 15.70895625 262.17705411 14.08373683 267.92367554 12.44561768 C272.20174922 11.23040997 276.48466931 10.03289244 280.76849365 8.83813477 C282.85346438 8.25257228 284.93642793 7.65980796 287.01715088 7.05932617 C317.35189008 -1.68257461 317.35189008 -1.68257461 331.93359375 5.41015625 C341.78263421 11.36994493 347.71346637 19.01439625 351.3046875 29.96875 C353.54204648 42.40108497 351.52043355 51.62721015 344.68359375 62.07421875 C341.98276467 65.70731371 339.183579 68.77349712 335.37109375 71.26171875 C334.67371094 71.72964844 333.97632813 72.19757813 333.2578125 72.6796875 C326.90534887 76.12100695 320.96004895 77.57857163 313.84716797 78.18554688 C313.02341108 78.26373909 312.1996542 78.3419313 311.35093498 78.42249298 C303.41176846 79.15285566 295.45947565 79.6850909 287.50091934 80.15052795 C284.97300159 80.29843376 282.44546043 80.45181202 279.91793823 80.60632324 C274.54843254 80.93361776 269.17854092 81.25426222 263.80859375 81.57421875 C256.7275842 81.99673432 249.64677836 82.42239186 242.56640625 82.85546875 C241.28865483 82.93351683 241.28865483 82.93351683 239.98509026 83.01314163 C229.91807822 83.63224682 219.87811912 84.3395101 209.84385681 85.37472534 C200.26287693 86.35467844 190.65543707 86.92720433 181.04321289 87.50683594 C177.85586285 87.70014247 174.6691716 87.90253145 171.48242188 88.10546875 C169.39716888 88.23361866 167.3118834 88.36124119 165.2265625 88.48828125 C163.84152779 88.57730209 163.84152779 88.57730209 162.42851257 88.66812134 C154.13950624 89.15533037 146.03839533 89.07421875 137.68359375 89.07421875 C135.70359375 70.75921875 135.70359375 70.75921875 133.68359375 52.07421875 C128.00877996 52.60198924 122.33451444 53.13326861 116.66088867 53.67333984 C114.7339971 53.85571588 112.80691483 54.0360894 110.87963867 54.21435547 C108.09630633 54.47216478 105.3137581 54.73736484 102.53125 55.00390625 C101.68087662 55.0810788 100.83050323 55.15825134 99.95436096 55.23776245 C87.02961304 56.49737805 76.62207611 59.43645831 67.375 69.01171875 C65.54702048 71.01672851 65.54702048 71.01672851 64.69995117 73.67480469 C62.68359375 76.07421875 62.68359375 76.07421875 60.76869202 76.51501465 C58.07337867 76.65890252 55.42834041 76.61913369 52.73046875 76.52734375 C51.68405212 76.50859192 50.6376355 76.48984009 49.55950928 76.47052002 C35.56392805 76.13334677 21.5856883 75.16319365 7.625 74.15771484 C3.68643689 73.87459786 -0.25327713 73.6139008 -4.19372177 73.35850143 C-7.28317456 73.15484592 -10.37148502 72.93671253 -13.45966339 72.71463776 C-14.91192554 72.61237929 -16.36454329 72.51502581 -17.81749725 72.42311859 C-32.85457816 71.45991725 -44.63450718 68.44714375 -55.06640625 57.19921875 C-62.9507463 47.82081426 -64.11405475 38.22108691 -63.52978516 26.31689453 C-62.5963948 16.50668424 -56.68706959 8.28289189 -49.31640625 2.07421875 C-45.77587513 -0.06621614 -42.22622008 -1.59143346 -38.31640625 -2.92578125 C-37.28193359 -3.29123047 -37.28193359 -3.29123047 -36.2265625 -3.6640625 C-23.85066506 -7.38442431 -11.94953768 -3.33314372 0 0 Z " fill="#5DB4E0" transform="translate(109.31640625,366.92578125)"/>
<path d="M0 0 C0 0.66 0 1.32 0 2 C0.65484375 2.02578125 1.3096875 2.0515625 1.984375 2.078125 C13.41668877 2.78860778 22.90435413 6.01552919 32 13 C32.61488281 13.43957031 33.22976563 13.87914063 33.86328125 14.33203125 C42.44502999 20.93484015 47.82285409 31.52226281 50 42 C50.09334368 43.77543912 50.135232 45.55390821 50.1418457 47.33178711 C50.15239738 48.92880714 50.15239738 48.92880714 50.16316223 50.55809021 C50.16732651 51.70294388 50.17149078 52.84779755 50.17578125 54.02734375 C50.19897254 56.4524827 50.22308959 58.87761295 50.24804688 61.30273438 C50.28320954 65.1256296 50.31253749 68.94820268 50.32592773 72.77124023 C50.3413807 76.46117007 50.38156661 80.15016125 50.42578125 83.83984375 C50.42291862 85.55408791 50.42291862 85.55408791 50.41999817 87.30296326 C50.44324794 93.54995885 50.44324794 93.54995885 52.99121094 99.11035156 C53.98556152 100.04572754 53.98556152 100.04572754 55 101 C56.64738971 106.51830543 56.42692105 111.99149361 54.0703125 117.24609375 C51.28926277 121.80336138 47.66069742 124.02015287 42.625 125.3125 C40.830625 125.6528125 40.830625 125.6528125 39 126 C38.938125 127.093125 38.87625 128.18625 38.8125 129.3125 C37.06772514 142.70482593 27.85109917 154.37018998 17.47265625 162.390625 C15.13644116 163.9111947 13.05096576 164.77115065 10.4375 165.6875 C8.42621968 166.41894774 8.42621968 166.41894774 7 168 C6.00651462 172.34853439 5.89717018 176.55261014 6 181 C7.98 181.33 9.96 181.66 12 182 C9.49098752 188.11406726 3.11954347 191.22859358 -2.6875 193.875 C-12.0252981 196.95665901 -21.62175662 195.6076987 -30.35546875 191.50390625 C-34.11159937 189.36784969 -36.97640482 187.09231325 -40 184 C-40 183.34 -40 182.68 -40 182 C-38.02 181.67 -36.04 181.34 -34 181 C-33.57103286 176.71736086 -33.6030699 173.09834641 -35 169 C-38.96600222 165.85649256 -43.39465607 164.04062455 -48 162 C-57.86952568 155.91714948 -64.14549505 144.56967037 -68 134 C-68.62490217 131.23967053 -68.88873354 128.83729465 -69 126 C-70.175625 125.79375 -71.35125 125.5875 -72.5625 125.375 C-78.2776446 123.94367604 -82.33953724 120.67117922 -85.4375 115.6875 C-86.61603136 110.05673904 -87.06874084 105.7714169 -84.015625 100.7109375 C-80.67122266 94.33367229 -81.39384328 86.96054675 -81.375 79.9375 C-81.18037087 54.77596017 -77.41196229 32.7091608 -59.05859375 14.0234375 C-45.76498354 1.8309142 -16.77226378 -13.09054734 0 0 Z " fill="#F9C0AB" transform="translate(270,25)"/>
<path d="M0 0 C2.3203125 -0.2265625 2.3203125 -0.2265625 5 0 C6.5546875 1.5390625 6.5546875 1.5390625 7.875 3.625 C13.95989762 12.36624887 21.59763827 16.75345782 32 19 C34.16302914 19.22529429 36.33030515 19.41091291 38.49902344 19.57250977 C39.14380646 19.62142365 39.78858948 19.67033752 40.45291138 19.72073364 C42.58813119 19.88149356 44.72369971 20.03682209 46.859375 20.19140625 C48.36558452 20.30202 49.87178968 20.41269306 51.37799072 20.52342224 C54.54868358 20.75547302 57.71958432 20.98442465 60.890625 21.21166992 C64.09484172 21.44174756 67.29856156 21.67740975 70.50195312 21.91870117 C85.65184121 23.05832915 100.82297242 24.19663065 116.015625 24.52734375 C117.47328278 24.58892418 117.47328278 24.58892418 118.96038818 24.65174866 C121.45785046 24.6703224 123.58595667 24.63911818 126 24 C128.62290256 21.23731482 128.62290256 21.23731482 130 18 C137.93852524 8.18545511 148.60900725 4.77950491 160.76953125 3.38989258 C162.44992745 3.21883893 164.13095772 3.05392478 165.8125 2.89453125 C166.70743164 2.80620529 167.60236328 2.71787933 168.52441406 2.62687683 C170.3963823 2.44359426 172.26862227 2.26306745 174.14111328 2.08520508 C177.02072751 1.81052283 179.89899796 1.5239672 182.77734375 1.23632812 C184.60149411 1.05919014 186.42571072 0.88273277 188.25 0.70703125 C189.11343018 0.62064896 189.97686035 0.53426666 190.86645508 0.44526672 C192.9075254 0.25525994 194.95371487 0.1216052 197 0 C199.69842038 2.69842038 199.14669663 9.72627571 199.5625 13.375 C199.77036133 15.09009766 199.77036133 15.09009766 199.98242188 16.83984375 C200.80102892 23.92906142 201.18709375 30.86512994 201 38 C220.63992053 37.09920379 240.22434081 35.87664316 259.8125 34.1875 C275.61562661 32.82518702 291.4232659 31.6820934 307.25390625 30.69921875 C308.14023302 30.64418119 309.02655979 30.58914364 309.93974495 30.53243828 C318.88810879 29.978384 327.83712085 29.43565968 336.78686142 28.90432262 C357.67972118 27.72945918 357.67972118 27.72945918 378.52734375 25.9609375 C379.24030609 25.88934418 379.95326843 25.81775085 380.68783569 25.74398804 C389.66742363 24.73034806 397.49563138 21.33651394 404 15 C407.66134741 10.37557708 410.53306289 5.3450304 413 0 C413.66 0 414.32 0 415 0 C415.9747186 10.80854627 413.10410999 20.12469011 406.75 28.9375 C397.75694023 39.59232081 386.23039148 42.58363445 372.91125488 43.76611328 C362.1211096 44.63298059 351.31123492 45.24139919 340.50537109 45.875 C334.2193555 46.24383337 327.93372626 46.61898647 321.6484375 47 C320.96798748 47.0411046 320.28753746 47.08220921 319.58646774 47.1245594 C310.14688671 47.69836117 300.72986274 48.41594317 291.31243896 49.27952576 C280.09984756 50.29284504 268.86346244 50.91326953 257.625 51.5625 C254.37688534 51.75115802 251.12884213 51.94081686 247.88095093 52.13328552 C245.88761566 52.25134315 243.89415297 52.36727799 241.90054321 52.48060608 C237.81643522 52.72189042 233.77552514 53.00989379 229.71875 53.54321289 C223.40038197 54.28047926 217.06128839 54.06319789 210.7109375 53.9921875 C209.32158998 53.98266545 207.93223584 53.97406905 206.5428772 53.96633911 C200.6990238 53.93317876 194.8553262 53.89225377 189.01171875 53.82861328 C173.06795463 53.66063008 157.47318667 53.79452795 141.67578125 56.32373047 C135.49250318 57.30156963 129.24516756 57.53944969 123 57 C121.43904523 55.43904523 121.83038072 53.90999105 121.8125 51.75 C121.79832031 50.98171875 121.78414063 50.2134375 121.76953125 49.421875 C122.03266509 46.65673973 122.93011269 44.54949615 124 42 C123.33282959 41.98018066 122.66565918 41.96036133 121.97827148 41.93994141 C109.3708408 41.54996534 96.82676409 41.00256594 84.26928711 39.80126953 C78.3606037 39.25206983 72.45543612 38.82755563 66.53125 38.49609375 C65.78786377 38.45436539 65.04447754 38.41263702 64.27856445 38.36964417 C60.59889815 38.16552374 56.91895238 37.97046772 53.23828125 37.78540039 C35.85948659 36.87592209 20.63754547 36.04693453 7.9453125 22.55859375 C2.89788713 15.91991179 0.47623663 8.25476821 0 0 Z " fill="#FBC325" transform="translate(46,418)"/>
<path d="M0 0 C1.86572124 0.50965848 3.73177081 1.01811638 5.59812927 1.5254364 C10.48847502 2.85834992 15.37402647 4.20807074 20.25878906 5.5612793 C25.21189368 6.92990031 30.16969578 8.28128081 35.12695312 9.63476562 C64.86083841 17.76723889 64.86083841 17.76723889 75.68359375 21.07421875 C77.43329938 21.57977704 79.18422118 22.08119506 80.9375 22.57421875 C81.81212891 22.82171875 82.68675781 23.06921875 83.58789062 23.32421875 C85.36364455 23.8252397 87.13968797 24.32523571 88.91601562 24.82421875 C94.56063231 26.42387396 100.13542252 28.16647995 105.68359375 30.07421875 C98.62477894 44.78625437 80.95851496 53.60150329 66.23046875 58.91796875 C62.06772315 60.27498714 57.89247758 61.55581757 53.68359375 62.76171875 C52.63510254 63.06565552 52.63510254 63.06565552 51.56542969 63.37573242 C39.95941393 66.56167147 28.55644904 67.37719963 16.55859375 67.26171875 C15.27855469 67.26107422 13.99851562 67.26042969 12.6796875 67.25976562 C1.86701701 67.20996315 -8.44457737 66.63163537 -18.94140625 63.94921875 C-19.79677979 63.73112549 -20.65215332 63.51303223 -21.53344727 63.28833008 C-34.85577491 59.74170876 -54.79654873 53.70481494 -63.31640625 42.07421875 C-63.7505926 39.07983012 -63.93614301 36.56166803 -63.87890625 33.57421875 C-63.86722412 32.77048828 -63.85554199 31.96675781 -63.84350586 31.13867188 C-63.44220437 20.21277411 -59.42437279 12.06124147 -51.84375 4.203125 C-47.73416932 0.74142257 -43.36919616 -1.20135667 -38.31640625 -2.92578125 C-37.28193359 -3.29123047 -37.28193359 -3.29123047 -36.2265625 -3.6640625 C-23.85066506 -7.38442431 -11.94953768 -3.33314372 0 0 Z " fill="#A5DFF5" transform="translate(109.31640625,366.92578125)"/>
<path d="M0 0 C0 0.66 0 1.32 0 2 C0.65484375 2.02578125 1.3096875 2.0515625 1.984375 2.078125 C13.41668877 2.78860778 22.90435413 6.01552919 32 13 C32.61488281 13.43957031 33.22976563 13.87914063 33.86328125 14.33203125 C42.42622127 20.9203687 47.85897003 31.52929978 50 42 C50.106114 44.01483479 50.15851694 46.03275047 50.17700195 48.05029297 C50.19625481 49.88272049 50.19625481 49.88272049 50.21589661 51.75216675 C50.22328354 53.0688736 50.23067047 54.38558044 50.23828125 55.7421875 C50.24235678 56.41504917 50.2464323 57.08791084 50.25063133 57.78116226 C50.27144903 61.34124693 50.28577044 64.90129352 50.29516602 68.46142578 C50.30623469 72.12891454 50.34065115 75.79579731 50.38033772 79.46307182 C50.40653431 82.29246109 50.41486037 85.12170635 50.41844749 87.95120621 C50.42565675 89.9575389 50.45207803 91.96377298 50.47883606 93.96994019 C50.45168518 105.36574091 50.45168518 105.36574091 46 110 C43 112 43 112 40 112 C39.97421875 111.09378906 39.9484375 110.18757813 39.921875 109.25390625 C39.56146985 101.51338665 38.59046005 95.8135793 35 89 C30.80498579 80.69558412 29.4272143 73.93503721 29.3359375 64.76171875 C28.85416562 59.36699412 27.52018373 55.44417454 23.5 51.625 C20.06251482 49.39063463 17.34276856 48.86241643 13.33203125 48.68359375 C11.99301758 48.62075195 11.99301758 48.62075195 10.62695312 48.55664062 C9.69818359 48.51732422 8.76941406 48.47800781 7.8125 48.4375 C6.40194336 48.37272461 6.40194336 48.37272461 4.96289062 48.30664062 C2.64207146 48.20061335 0.32114675 48.09854971 -2 48 C-2.26941406 48.9075 -2.53882813 49.815 -2.81640625 50.75 C-5.75868274 58.82912225 -11.97848554 62.99441861 -19.3515625 66.87109375 C-23.90995604 68.8141258 -27.93903323 69.0612681 -32.87597656 69.13793945 C-44.06618883 69.39158093 -52.43435014 72.56593264 -61 80 C-68.65466479 89.27469967 -69.51602282 100.41792549 -70 112 C-73.94118422 110.48866985 -76.4710958 109.48814372 -79 106 C-81.52286317 98.24227203 -81.30829089 90.03270724 -81.26074219 81.97045898 C-81.25010467 79.8335271 -81.26064608 77.69745193 -81.2734375 75.56054688 C-81.30010441 51.98155986 -75.99308909 31.26459372 -59.05859375 14.0234375 C-45.76498354 1.8309142 -16.77226378 -13.09054734 0 0 Z " fill="#5D5D5C" transform="translate(270,25)"/>
<path d="M0 0 C-1.87871686 16.67625077 -12.4099717 31.3316076 -25 42 C-56.98372537 66.86129913 -98.34685677 76.17815034 -138.30859375 71.45703125 C-142.58767635 70.83893156 -146.78861938 69.97032284 -151 69 C-152.5507729 68.66011814 -154.10155439 68.32027548 -155.65234375 67.98046875 C-161.8646338 66.58509083 -167.97963541 65.10338825 -174 63 C-175.11165232 58.5621439 -175.11527763 54.23043614 -175.0625 49.6875 C-175.05798828 48.94693359 -175.05347656 48.20636719 -175.04882812 47.44335938 C-175.03712175 45.62887101 -175.01918898 43.81442466 -175 42 C-163.65526929 38.61156218 -152.31941904 35.23594546 -140.8125 32.4375 C-132.45913865 30.40363811 -124.19711786 28.12047059 -115.94140625 25.72265625 C-106.96987489 23.11694518 -97.98795816 20.54844708 -89 18 C-88.37898785 17.82389317 -87.75797569 17.64778633 -87.11814499 17.46634293 C-78.32831536 14.9752361 -69.53202496 12.50859081 -60.7258215 10.07596302 C-56.80086811 8.99118989 -52.87845325 7.89858504 -48.96069336 6.78808594 C-45.09640463 5.69303686 -41.22686793 4.61871559 -37.3530674 3.557827 C-35.9045489 3.15751156 -34.45791495 2.75029601 -33.01352501 2.33533096 C-22.63430104 -0.63949914 -10.57781077 -3.52593692 0 0 Z " fill="#A4DFF5" transform="translate(435,370)"/>
<path d="M0 0 C2.3203125 -0.2265625 2.3203125 -0.2265625 5 0 C6.5546875 1.5390625 6.5546875 1.5390625 7.875 3.625 C13.9312817 12.32514072 21.61064941 16.83220784 32 19 C34.71201473 19.25331284 37.41300709 19.46820683 40.12988281 19.6484375 C40.94667007 19.70549866 41.76345734 19.76255981 42.60499573 19.8213501 C45.30415732 20.00916134 48.00363291 20.19200616 50.703125 20.375 C52.58399005 20.50532162 54.46482877 20.63602377 56.34564209 20.76708984 C61.30059783 21.11164332 66.25581324 21.45229289 71.21112061 21.79174805 C79.12810398 22.33429253 87.04481047 22.8807724 94.96126556 23.43096924 C97.71958939 23.62181484 100.47809769 23.80980254 103.2366333 23.99755859 C104.94194298 24.11544772 106.64724529 24.23344348 108.35253906 24.3515625 C109.49218864 24.42796967 109.49218864 24.42796967 110.65486145 24.50592041 C115.46434122 24.84248415 120.2204599 25.36521272 125 26 C125 30.62 125 35.24 125 40 C130.95679957 40.14814838 136.56664676 39.7364144 142.46557617 38.93286133 C161.29927697 36.40257781 180.04065443 36.72843378 199 37 C199.99 44.92 199.99 44.92 201 53 C199.87843506 53.01458252 198.75687012 53.02916504 197.60131836 53.04418945 C170.78080648 53.27184359 170.78080648 53.27184359 144.13208008 55.97485352 C137.07655324 57.05953254 130.14752226 57.61739395 123 57 C121.43904523 55.43904523 121.83038072 53.90999105 121.8125 51.75 C121.79832031 50.98171875 121.78414063 50.2134375 121.76953125 49.421875 C122.03266509 46.65673973 122.93011269 44.54949615 124 42 C123.33282959 41.98018066 122.66565918 41.96036133 121.97827148 41.93994141 C109.3708408 41.54996534 96.82676409 41.00256594 84.26928711 39.80126953 C78.3606037 39.25206983 72.45543612 38.82755563 66.53125 38.49609375 C65.78786377 38.45436539 65.04447754 38.41263702 64.27856445 38.36964417 C60.59889815 38.16552374 56.91895238 37.97046772 53.23828125 37.78540039 C35.85948659 36.87592209 20.63754547 36.04693453 7.9453125 22.55859375 C2.89788713 15.91991179 0.47623663 8.25476821 0 0 Z " fill="#FCC324" transform="translate(46,418)"/>
<path d="M0 0 C0.50972081 4.12385827 1.00597627 8.24923423 1.5 12.375 C1.64308594 13.53128906 1.78617187 14.68757813 1.93359375 15.87890625 C2.73395088 22.62477351 3.20967886 29.20679329 3 36 C1.92967529 36.01458252 0.85935059 36.02916504 -0.2434082 36.04418945 C-19.83477915 36.33077527 -39.17392366 36.80386999 -58.62109375 39.37890625 C-63.46671721 39.99846548 -68.11677365 40.1937394 -73 40 C-74 39 -74 39 -74.1328125 36.34765625 C-74.13023437 35.26355469 -74.12765625 34.17945313 -74.125 33.0625 C-74.12757813 31.98097656 -74.13015625 30.89945312 -74.1328125 29.78515625 C-74 27 -74 27 -73 25 C-75.64 25 -78.28 25 -81 25 C-81 24.67 -81 24.34 -81 24 C-80.09507812 23.99613281 -80.09507812 23.99613281 -79.171875 23.9921875 C-76.66749383 23.87100777 -74.42612802 23.64245899 -72 23 C-69.74348693 20.3669115 -69.74348693 20.3669115 -68 17 C-59.56094542 6.56584285 -48.10723277 3.56447725 -35.28923035 2.13789368 C-34.51702652 2.05758408 -33.74482269 1.97727448 -32.94921875 1.89453125 C-32.12799026 1.80620529 -31.30676178 1.71787933 -30.46064758 1.62687683 C-28.74251461 1.44370951 -27.02409871 1.26317813 -25.30541992 1.08520508 C-22.67587227 0.81128876 -20.04796796 0.5242561 -17.41992188 0.23632812 C-15.74227083 0.0591052 -14.06453894 -0.1173544 -12.38671875 -0.29296875 C-11.60439377 -0.37935104 -10.82206879 -0.46573334 -10.01603699 -0.55473328 C-6.4023627 -0.91886459 -3.48122738 -1.01496242 0 0 Z " fill="#F8C0AB" transform="translate(244,419)"/>
<path d="M0 0 C6.35782485 0.62605112 12.26026952 2.00578237 18.40625 3.72265625 C19.3715564 3.98759384 20.33686279 4.25253143 21.3314209 4.52549744 C24.38907216 5.36597362 27.44453674 6.21410805 30.5 7.0625 C32.58319319 7.63657648 34.66652523 8.21014941 36.75 8.78320312 C41.83495395 10.18298076 46.91813877 11.5890381 52 13 C49.35261084 14.4606285 48.10551666 15 45 15 C45 16.98 45 18.96 45 21 C44.67 21 44.34 21 44 21 C44 19.02 44 17.04 44 15 C42.2675 15.7115625 42.2675 15.7115625 40.5 16.4375 C36.31429668 18.02208768 32.44761014 18.60289195 28 19 C28 19.66 28 20.32 28 21 C21.18681644 22.26382272 14.37856164 23.2251645 7.48828125 23.9296875 C6.37101151 24.04609589 6.37101151 24.04609589 5.23117065 24.16485596 C2.14604271 24.48510974 -0.9390337 24.80328598 -4.02661133 25.09912109 C-16.49780162 26.26641802 -16.49780162 26.26641802 -28 31 C-29.03125 31.5775 -30.0625 32.155 -31.125 32.75 C-35.88261319 36.47334945 -39.65611259 40.98416889 -43 46 C-44.862854 46.37628174 -44.862854 46.37628174 -47.18847656 46.37207031 C-48.07968201 46.37422546 -48.97088745 46.37638062 -49.88909912 46.37860107 C-50.87960266 46.36194397 -51.8701062 46.34528687 -52.890625 46.328125 C-53.94155334 46.31839661 -54.99248169 46.30866821 -56.07525635 46.29864502 C-70.09331447 46.07465508 -84.07909946 45.09051896 -98.05859375 44.08349609 C-101.99715686 43.80037911 -105.93687088 43.53968205 -109.87731552 43.28428268 C-112.96676831 43.08062717 -116.05507877 42.86249378 -119.14325714 42.64041901 C-120.59551929 42.53816054 -122.04813704 42.44080706 -123.501091 42.34889984 C-138.53817191 41.3856985 -150.31810093 38.372925 -160.75 27.125 C-163.93182413 23.35340984 -165.99296108 19.49576718 -168 15 C-164.08297069 15 -162.624743 16.39463347 -159.375 18.5625 C-148.57837738 25.43391372 -136.99297082 29.72155769 -124.625 32.875 C-123.82956787 33.07826904 -123.03413574 33.28153809 -122.21459961 33.4909668 C-101.99925279 38.31349348 -77.13016104 38.30543908 -57 33 C-56.21512207 32.80132324 -55.43024414 32.60264648 -54.62158203 32.39794922 C-38.57714173 28.25414426 -24.21101871 22.1240876 -11 12 C-9.63875 11.0409375 -9.63875 11.0409375 -8.25 10.0625 C-4.99846245 7.08192391 -2.53778526 3.59301556 0 0 Z " fill="#5FB4E0" transform="translate(215,397)"/>
<path d="M0 0 C1.71371692 3.80648736 3.42258281 7.61510294 5.12695312 11.42578125 C5.70764887 12.72227868 6.28967458 14.01818127 6.87304688 15.31347656 C7.71052399 17.17358729 8.54322138 19.03577294 9.375 20.8984375 C9.87773438 22.01911621 10.38046875 23.13979492 10.8984375 24.29443359 C12 27 12 27 12 29 C9.7823373 30.67823641 7.56626699 32.22803742 5.24609375 33.75390625 C4.55242203 34.21482162 3.85875031 34.675737 3.14405823 35.15061951 C1.66933338 36.12677245 0.1921127 37.09916341 -1.28735352 38.06811523 C-3.53785493 39.54631238 -5.7738995 41.0447103 -8.00976562 42.54492188 C-9.44447201 43.49085933 -10.8799945 44.4355604 -12.31640625 45.37890625 C-12.98023819 45.82682022 -13.64407013 46.27473419 -14.32801819 46.73622131 C-18.51165427 49.44131702 -21.88501004 50.86255679 -27 51 C-30 49 -30 49 -30.75390625 46.2578125 C-31.5812359 35.30554386 -26.46140713 23.74538222 -19.85546875 15.23828125 C-6.48495889 0 -6.48495889 0 0 0 Z " fill="#FAC0AB" transform="translate(51,338)"/>
<path d="M0 0 C12.33952705 4.40540842 20.42423928 15.21388705 25.875 26.6875 C28.65515053 33.26812566 30.83585957 39.75588373 30 47 C28.4375 49.5 28.4375 49.5 26 51 C20.45849466 50.72602671 17.09259152 49.17075092 12.55078125 46.0703125 C11.68092842 45.48381424 11.68092842 45.48381424 10.79350281 44.88546753 C8.95816806 43.643747 7.13549251 42.38475035 5.3125 41.125 C4.07825273 40.28661279 2.84323257 39.4493622 1.60742188 38.61328125 C-2.99072495 35.49202226 -7.58093856 32.3726692 -12 29 C-9.91932667 22.23703646 -7.26750264 15.86121387 -4.3125 9.4375 C-3.89677734 8.52419922 -3.48105469 7.61089844 -3.05273438 6.66992188 C-2.03917098 4.44474248 -1.02154784 2.22152219 0 0 Z " fill="#FAC0AB" transform="translate(461,338)"/>
<path d="M0 0 C0.495 0.99 0.495 0.99 1 2 C-4.24721111 10.10745559 -10.91422464 15.62844315 -20.23046875 18.5 C-23.91364396 19.1649456 -27.58151912 19.20772476 -31.3125 19.3125 C-41.52751701 19.6346556 -49.26516077 23.28698736 -57 30 C-64.65466479 39.27469967 -65.51602282 50.41792549 -66 62 C-69.94118422 60.48866985 -72.4710958 59.48814372 -75 56 C-77.89708977 47.31220858 -77.22788734 37.90579045 -77.125 28.875 C-77.11494704 27.33073499 -77.10582529 25.78646362 -77.09765625 24.2421875 C-77.07583336 20.49465751 -77.04143206 16.74737054 -77 13 C-76.34 12.67 -75.68 12.34 -75 12 C-74.93941406 12.95261719 -74.87882813 13.90523437 -74.81640625 14.88671875 C-74.73261719 16.14097656 -74.64882812 17.39523438 -74.5625 18.6875 C-74.48128906 19.92886719 -74.40007812 21.17023438 -74.31640625 22.44921875 C-74.05508683 25.38180337 -73.65201621 28.13441617 -73 31 C-68.63718555 29.62948237 -66.66126753 27.77755454 -63.8125 24.25 C-57.93785274 17.46173703 -51.16151243 12.48675643 -42.04248047 11.76635742 C-40.91213379 11.71326416 -39.78178711 11.6601709 -38.6171875 11.60546875 C-36.74160156 11.50202148 -36.74160156 11.50202148 -34.828125 11.39648438 C-32.2166774 11.2584286 -29.60466507 11.13062887 -26.9921875 11.01367188 C-17.73998553 10.47806797 -9.2270531 9.48640247 -2.375 2.75 C-1.59125 1.8425 -0.8075 0.935 0 0 Z " fill="#454444" transform="translate(266,75)"/>
<path d="M0 0 C3.00099588 -0.10890711 5.99796378 -0.18773555 9 -0.25 C9.83917969 -0.28351562 10.67835938 -0.31703125 11.54296875 -0.3515625 C17.5789623 -0.4451438 21.98340538 0.5545285 27 4 C29.05859375 6 29.05859375 6 30.4375 8 C30.91058594 8.66 31.38367188 9.32 31.87109375 10 C34.06848228 13.89295131 34.10726832 17.44847708 34.23901367 21.88916016 C34.58894317 32.53585237 36.27804313 40.62478842 43.6328125 48.72265625 C44.99339992 50.11496413 44.99339992 50.11496413 47 51 C47.68868203 64.96494126 47.68868203 64.96494126 45.1875 68.75 C43 71 43 71 40 73 C39.01 73 38.02 73 37 73 C36.96132813 71.64068359 36.96132813 71.64068359 36.921875 70.25390625 C36.56146985 62.51338665 35.59046005 56.8135793 32 50 C27.80498579 41.69558412 26.4272143 34.93503721 26.3359375 25.76171875 C25.86112023 20.44486959 24.53887287 16.49837621 20.625 12.6875 C15.18468521 9.19015478 10.50705288 8.62926533 4.1875 8.375 C3.00510742 8.31699219 3.00510742 8.31699219 1.79882812 8.2578125 C-0.1337538 8.16411156 -2.06684376 8.08099221 -4 8 C-2.68 5.36 -1.36 2.72 0 0 Z " fill="#444343" transform="translate(273,64)"/>
<path d="M0 0 C0.5763607 4.81897331 1.14575161 9.63870317 1.70898438 14.45922852 C1.90112852 16.09551645 2.09510259 17.73159067 2.29101562 19.36743164 C2.57395075 21.73268265 2.85007118 24.09865032 3.125 26.46484375 C3.21249512 27.18397446 3.29999023 27.90310516 3.39013672 28.64402771 C3.97883255 33.79011916 4.07141582 38.82012162 4 44 C-1.28 44 -6.56 44 -12 44 C-13.32 30.8 -14.64 17.6 -16 4 C-2 0 -2 0 0 0 Z " fill="#2F446C" transform="translate(259,412)"/>
<path d="M0 0 C1.32 0 2.64 0 4 0 C4 49.5 4 99 4 150 C2.68 150 1.36 150 0 150 C0 100.5 0 51 0 0 Z " fill="#A5DFF5" transform="translate(254,241)"/>
<path d="M0 0 C1.43931117 0.45261358 2.87638999 0.91232979 4.3125 1.375 C5.11300781 1.63023437 5.91351563 1.88546875 6.73828125 2.1484375 C9 3 9 3 12 5 C11.25446572 8.60786314 9.85526839 11.76736457 8.34765625 15.12109375 C7.55391602 16.89516602 7.55391602 16.89516602 6.74414062 18.70507812 C6.18376105 19.94929411 5.62321262 21.19343406 5.0625 22.4375 C3.9686146 24.873057 2.87677392 27.30951822 1.78515625 29.74609375 C1.29926025 30.82560303 0.81336426 31.9051123 0.31274414 33.01733398 C-0.84983263 35.65880701 -1.94777984 38.31299736 -3 41 C-4.81881824 40.43667573 -6.63000472 39.84866086 -8.4375 39.25 C-9.44683594 38.92515625 -10.45617187 38.6003125 -11.49609375 38.265625 C-14 37 -14 37 -14.82373047 35.33300781 C-15.08680084 31.85115123 -13.77438026 29.56106364 -12.32421875 26.40625 C-12.03899857 25.77771118 -11.75377838 25.14917236 -11.45991516 24.50158691 C-10.54658056 22.49590817 -9.61727046 20.49810438 -8.6875 18.5 C-8.07251897 17.1554271 -7.45857482 15.81037942 -6.84570312 14.46484375 C-2.32104833 4.56213306 -2.32104833 4.56213306 0 0 Z " fill="#2E466E" transform="translate(451,329)"/>
<path d="M0 0 C1.26946914 2.33484903 2.35105116 4.59179773 3.390625 7.02734375 C3.85393219 8.08351646 3.85393219 8.08351646 4.32659912 9.161026 C4.97715502 10.65091205 5.62238755 12.14313213 6.26269531 13.63745117 C7.24707441 15.93068448 8.25102815 18.21457534 9.2578125 20.49804688 C9.88660222 21.94479781 10.5142458 23.39204754 11.140625 24.83984375 C11.44260803 25.52634506 11.74459106 26.21284637 12.0557251 26.92015076 C12.76452912 28.58893091 13.3904411 30.29246719 14 32 C12.59719304 34.80561393 10.9490995 35.00680507 8.0625 36.125 C6.71865234 36.65480469 6.71865234 36.65480469 5.34765625 37.1953125 C3 38 3 38 1 38 C-0.83706934 33.80250795 -2.67003892 29.60325865 -4.49926758 25.40234375 C-5.12184688 23.97412124 -5.74553468 22.54638139 -6.37036133 21.11914062 C-7.26937537 19.06506877 -8.16436085 17.00928201 -9.05859375 14.953125 C-9.3377916 14.31755676 -9.61698944 13.68198853 -9.90464783 13.02716064 C-11.19341773 10.05370936 -12.35704787 7.18348192 -13 4 C-11.40233897 3.13372601 -9.79660056 2.28233535 -8.1875 1.4375 C-7.29417969 0.96183594 -6.40085937 0.48617188 -5.48046875 -0.00390625 C-3 -1 -3 -1 0 0 Z " fill="#2F456D" transform="translate(62,330)"/>
<path d="M0 0 C0.92039063 0.32484375 1.84078125 0.6496875 2.7890625 0.984375 C7.93331975 2.44825112 13.06482944 2.29116411 18.375 2.25 C19.365 2.25773438 20.355 2.26546875 21.375 2.2734375 C27.55330093 2.25713591 33.02047778 1.55987536 39 0 C35.16374206 3.94544934 31.12821098 7.56089586 26.9375 11.125 C26.02000977 11.91197266 26.02000977 11.91197266 25.08398438 12.71484375 C23.398398 14.15442562 21.70044643 15.57804258 20 17 C19.27425781 17.62648437 18.54851562 18.25296875 17.80078125 18.8984375 C16 20 16 20 12.25 19.5 C10.81975509 19.04027842 9.40289137 18.5374386 8 18 C7.24203125 17.73574219 6.4840625 17.47148437 5.703125 17.19921875 C3.17374904 16.03767908 1.73030427 15.19892834 0 13 C-0.68462999 8.59269447 -0.46627208 4.42310872 0 0 Z " fill="#FA9E70" transform="translate(236,193)"/>
<path d="M0 0 C2.31640625 1.05859375 2.31640625 1.05859375 4.5625 2.4375 C10.87604517 6.27814879 16.67811292 6.70856972 24 6 C29.06854953 4.63414566 33.6271116 2.91525893 38 0 C41.6875 0.375 41.6875 0.375 45 1 C42.49098752 7.11406726 36.11954347 10.22859358 30.3125 12.875 C20.9747019 15.95665901 11.37824338 14.6076987 2.64453125 10.50390625 C-1.11159937 8.36784969 -3.97640482 6.09231325 -7 3 C-7 2.34 -7 1.68 -7 1 C-4.44252087 -0.27873957 -2.84473417 -0.22975092 0 0 Z " fill="#A0DAF1" transform="translate(237,206)"/>
<path d="M0 0 C0.66 0 1.32 0 2 0 C2.07476562 0.66386719 2.14953125 1.32773438 2.2265625 2.01171875 C3.11116009 8.29903333 3.11116009 8.29903333 7 13.0625 C9.78069201 14.9360012 9.78069201 14.9360012 12 16 C12 11.38 12 6.76 12 2 C12.33 2 12.66 2 13 2 C13 11.24 13 20.48 13 30 C5.13028727 28.03257182 0.80352773 26.51002287 -3.4375 19.6875 C-5.06499883 11.91167224 -3.97914558 6.83915647 0 0 Z " fill="#F39A6D" transform="translate(188,121)"/>
<path d="M0 0 C3.83168428 2.94744944 5.34946813 4.95968177 6 9.8125 C6.24274357 14.75564183 5.59521633 18.74725499 3 23 C-1.64427615 27.96829541 -3.91758372 28.22939593 -11 30 C-11 20.76 -11 11.52 -11 2 C-10.67 2 -10.34 2 -10 2 C-10 6.62 -10 11.24 -10 16 C-3.82760652 13.19919163 -3.82760652 13.19919163 -1 8 C-0.49197611 5.320423 -0.23098431 2.72561488 0 0 Z " fill="#F59C6F" transform="translate(320,121)"/>
<path d="M0 0 C0.99 0 1.98 0 3 0 C4.71371692 3.80648736 6.42258281 7.61510294 8.12695312 11.42578125 C8.70764887 12.72227868 9.28967458 14.01818127 9.87304688 15.31347656 C10.71052399 17.17358729 11.54322138 19.03577294 12.375 20.8984375 C12.87773438 22.01911621 13.38046875 23.13979492 13.8984375 24.29443359 C15 27 15 27 15 29 C12.69404616 30.62946228 10.39803293 32.1435897 8 33.625 C6.99839844 34.25535156 6.99839844 34.25535156 5.9765625 34.8984375 C4.32168546 35.93864592 2.66133712 36.97014051 1 38 C0.67 37.34 0.34 36.68 0 36 C0.30292969 35.15953125 0.60585938 34.3190625 0.91796875 33.453125 C2.27487464 29.12278275 2.34099839 25.2585348 2.3125 20.75 C2.31121094 19.91041748 2.30992188 19.07083496 2.30859375 18.20581055 C2.21405501 12.1015622 1.44141284 6.65303331 -1 1 C-0.67 0.67 -0.34 0.34 0 0 Z " fill="#F89D71" transform="translate(48,338)"/>
<path d="M0 0 C0.99 0.33 1.98 0.66 3 1 C2.7834375 1.69222656 2.566875 2.38445312 2.34375 3.09765625 C-0.96854669 14.73669877 -1.08695772 26.28609795 2 38 C0.03434435 36.93001008 -1.92232441 35.84349833 -3.875 34.75 C-4.96554687 34.14671875 -6.05609375 33.5434375 -7.1796875 32.921875 C-10.08746486 30.94039791 -11.02536724 30.29788528 -12 27 C-11.12548828 24.06738281 -11.12548828 24.06738281 -9.5703125 20.703125 C-9.30113007 20.10949158 -9.03194763 19.51585815 -8.75460815 18.90423584 C-7.89266564 17.01239178 -7.00930097 15.1314812 -6.125 13.25 C-5.53632014 11.96810835 -4.94906286 10.68556239 -4.36328125 9.40234375 C-2.92527484 6.26047317 -1.46788948 3.12804022 0 0 Z " fill="#F79D70" transform="translate(461,338)"/>
<path d="M0 0 C2.375 -0.125 2.375 -0.125 5 0 C5.66 0.66 6.32 1.32 7 2 C9.5 2.33333333 9.5 2.33333333 12 2 C12.66 1.34 13.32 0.68 14 0 C16.625 -0.125 16.625 -0.125 19 0 C19.33 1.65 19.66 3.3 20 5 C15.80758159 8.98791019 13.06121159 11.10823592 7 11 C3.84888274 9.27580377 1.52993681 7.52993681 -1 5 C-0.625 2.375 -0.625 2.375 0 0 Z " fill="#5E5B5A" transform="translate(272,133)"/>
<path d="M0 0 C2.5625 0.1875 2.5625 0.1875 4.5625 2.1875 C7.14604218 2.35437448 7.14604218 2.35437448 9.5625 2.1875 C9.8925 1.5275 10.2225 0.8675 10.5625 0.1875 C12.22861905 0.144779 13.89632885 0.14686168 15.5625 0.1875 C16.5625 1.1875 16.5625 1.1875 16.9375 3.5 C16.5625 6.1875 16.5625 6.1875 14.1875 8.4375 C10.30903622 11.02314252 8.26552735 11.63971417 3.5625 11.1875 C0.25 9.5625 0.25 9.5625 -2.4375 7.1875 C-3.375 4 -3.375 4 -3.4375 1.1875 C-2.4375 0.1875 -2.4375 0.1875 0 0 Z " fill="#5E5B5A" transform="translate(223.4375,132.8125)"/>
<path d="M0 0 C1.31291016 -0.03867188 1.31291016 -0.03867188 2.65234375 -0.078125 C5.0625 0.25 5.0625 0.25 6.890625 1.5390625 C8.0625 3.25 8.0625 3.25 7.875 6.875 C7.606875 7.98875 7.33875 9.1025 7.0625 10.25 C4.60867866 11.47691067 2.86265897 11.45175931 0.125 11.5 C-0.75027344 11.52578125 -1.62554687 11.5515625 -2.52734375 11.578125 C-4.9375 11.25 -4.9375 11.25 -6.765625 9.9609375 C-7.9375 8.25 -7.9375 8.25 -7.75 4.625 C-7.481875 3.51125 -7.21375 2.3975 -6.9375 1.25 C-4.48367866 0.02308933 -2.73765897 0.04824069 0 0 Z " fill="#EA9807" transform="translate(134.9375,197.75)"/>
<path d="M0 0 C2.73229014 0.38469067 4.26284706 1.32081052 6.1640625 3.3046875 C5.90844927 5.6478088 5.57135478 7.98312153 5.1640625 10.3046875 C2.56226587 11.60558581 0.5671437 11.47308828 -2.3359375 11.4921875 C-3.315625 11.50636719 -4.2953125 11.52054688 -5.3046875 11.53515625 C-7.8359375 11.3046875 -7.8359375 11.3046875 -9.8359375 9.3046875 C-10.39445281 4.05464359 -10.39445281 4.05464359 -8.59375 1.63671875 C-5.81614367 -0.4680896 -3.3716679 -0.09884368 0 0 Z " fill="#EA9906" transform="translate(401.8359375,70.6953125)"/>
<path d="M0 0 C1.7578125 1.33203125 1.7578125 1.33203125 3 3 C3.3125 6.0625 3.3125 6.0625 3 9 C0.39813892 11.60186108 -0.82354355 11.29810177 -4.4375 11.3125 C-5.88962891 11.33763672 -5.88962891 11.33763672 -7.37109375 11.36328125 C-10 11 -10 11 -11.8203125 9.63671875 C-13 8 -13 8 -13.4375 5.5 C-13 3 -13 3 -11.5625 1.1875 C-7.83016911 -0.54211675 -4.0446535 -0.75976917 0 0 Z " fill="#EA9806" transform="translate(379,71)"/>
<path d="M0 0 C0.87785156 0.00515625 1.75570312 0.0103125 2.66015625 0.015625 C3.53542969 0.01046875 4.41070312 0.0053125 5.3125 0 C7.72265625 0.265625 7.72265625 0.265625 10.72265625 2.265625 C11.09765625 5.765625 11.09765625 5.765625 10.72265625 9.265625 C7.52520483 11.39725928 6.43507709 11.58538064 2.72265625 11.640625 C1.85640625 11.66898438 0.99015625 11.69734375 0.09765625 11.7265625 C-2.27734375 11.265625 -2.27734375 11.265625 -4.1015625 9.40625 C-5.27734375 7.265625 -5.27734375 7.265625 -5.08984375 4.640625 C-4.04492073 1.58623464 -3.28779758 0.38348239 0 0 Z " fill="#EA9906" transform="translate(106.27734375,197.734375)"/>
<path d="M0 0 C3.0625 0.375 3.0625 0.375 4.9375 1.875 C6.5377025 5.43100556 6.76023981 8.54135094 6.0625 12.375 C4.4375 14.9375 4.4375 14.9375 2.0625 16.375 C-1.125 16.25 -1.125 16.25 -3.9375 15.375 C-5.23839831 12.77320337 -5.10590078 10.7780812 -5.125 7.875 C-5.13917969 6.8953125 -5.15335937 5.915625 -5.16796875 4.90625 C-4.82087712 1.09412493 -3.72109198 0.47503302 0 0 Z " fill="#EA9906" transform="translate(121.9375,182.625)"/>
<path d="M0 0 C2.375 0.875 2.375 0.875 4.375 3.875 C4.91473013 10.6755997 4.91473013 10.6755997 3.25 14.375 C1.375 15.875 1.375 15.875 -1.6875 16.25 C-4.625 15.875 -4.625 15.875 -6.625 13.875 C-6.9609375 11.37890625 -6.9609375 11.37890625 -7 8.4375 C-7.02835937 7.46941406 -7.05671875 6.50132812 -7.0859375 5.50390625 C-6.625 2.875 -6.625 2.875 -4.765625 1.01953125 C-2.625 -0.125 -2.625 -0.125 0 0 Z " fill="#EA9806" transform="translate(123.625,208.125)"/>
<path d="M0 0 C3 0.25 3 0.25 5 2.25 C5.30078125 5 5.30078125 5 5.3125 8.25 C5.32925781 9.3225 5.34601563 10.395 5.36328125 11.5 C5.18345703 12.86125 5.18345703 12.86125 5 14.25 C2 16.25 2 16.25 -1.0625 16.1875 C-4 15.25 -4 15.25 -5.4375 13.1875 C-6.20409305 9.18418076 -5.78909057 6.26121041 -5 2.25 C-3 0.25 -3 0.25 0 0 Z " fill="#EA9B06" transform="translate(387,55.75)"/>
<path d="M0 0 C2.9375 0.4375 2.9375 0.4375 4.9375 2.4375 C5.1328125 5.2578125 5.1328125 5.2578125 5.0625 8.5625 C5.04445313 9.65820312 5.02640625 10.75390625 5.0078125 11.8828125 C4.98460937 12.72585937 4.96140625 13.56890625 4.9375 14.4375 C-0.43485624 16.6352821 -0.43485624 16.6352821 -3.20703125 15.76171875 C-5.0625 14.4375 -5.0625 14.4375 -5.77734375 12.44921875 C-6.14002249 8.66336173 -6.26240121 6.01368584 -5 2.375 C-3.0625 0.4375 -3.0625 0.4375 0 0 Z " fill="#EB9C06" transform="translate(387.0625,81.5625)"/>
<path d="M0 0 C0.66 0 1.32 0 2 0 C2 3.63 2 7.26 2 11 C1.67 11 1.34 11 1 11 C0.855625 9.906875 0.71125 8.81375 0.5625 7.6875 C0.11711896 4.06877013 0.11711896 4.06877013 -1 1 C-0.67 0.67 -0.34 0.34 0 0 Z " fill="#F6CB48" transform="translate(459,418)"/>
</svg>
