<svg width="409" height="430" viewBox="0 0 409 430" fill="none" xmlns="http://www.w3.org/2000/svg">
<g opacity="0.11">
<path fill-rule="evenodd" clip-rule="evenodd" d="M68.3222 351.071C67.6368 351.772 66.8267 352.325 65.9383 352.696C65.0499 353.068 64.1006 353.252 63.1444 353.238C62.1883 353.225 61.2442 353.013 60.3659 352.615C59.4876 352.218 58.6924 351.642 58.0257 350.922C56.6792 349.466 55.9378 347.508 55.9646 345.478C55.9913 343.448 56.784 341.512 58.1683 340.096C65.2814 332.935 74.1442 327.988 83.7716 325.805C93.5128 323.526 103.653 323.984 113.172 327.133C122.533 330.186 130.882 335.958 137.255 343.785C143.455 351.393 147.193 360.877 147.929 370.865C148.006 371.874 147.891 372.889 147.592 373.852C147.293 374.814 146.816 375.705 146.188 376.472C145.56 377.24 144.793 377.869 143.933 378.323C143.072 378.778 142.135 379.048 141.174 379.119C140.213 379.191 139.249 379.061 138.336 378.738C137.423 378.416 136.58 377.906 135.856 377.239C135.132 376.572 134.54 375.76 134.116 374.852C133.691 373.943 133.442 372.955 133.383 371.944C132.868 365.202 130.329 358.807 126.132 353.681C121.532 348.069 115.516 343.939 108.78 341.767C101.702 339.411 94.1585 339.056 86.9086 340.737C79.9235 342.309 73.4897 345.886 68.3222 351.071ZM150.836 257.106C152.764 257.121 154.608 257.942 155.962 259.387C157.315 260.832 158.067 262.784 158.052 264.812C158.037 266.839 157.256 268.778 155.881 270.201C154.507 271.624 152.651 272.414 150.722 272.398C138.55 272.246 126.517 275.136 115.614 280.83C105.267 286.183 96.4144 294.264 89.9209 304.284C88.838 305.948 87.1741 307.095 85.2909 307.477C83.4077 307.858 81.4574 307.443 79.8639 306.321C78.2705 305.198 77.1627 303.46 76.7814 301.484C76.4001 299.508 76.776 297.454 77.8275 295.768C85.7284 283.548 96.5067 273.69 109.111 267.154C122.066 260.377 136.367 256.932 150.836 257.103V257.106ZM63.8376 221.878C62.8825 221.796 61.9523 221.516 61.1 221.055C60.2477 220.595 59.4901 219.962 58.8703 219.193C58.2506 218.425 57.7809 217.536 57.4881 216.576C57.1953 215.617 57.0851 214.606 57.1638 213.602C57.3227 211.574 58.2413 209.696 59.7176 208.38C60.4486 207.728 61.2945 207.234 62.207 206.927C63.1195 206.619 64.0808 206.503 65.0359 206.586C78.3347 207.785 88.2809 206.942 94.8745 204.058C97.8075 202.925 100.287 200.777 101.904 197.966C93.7185 193.132 86.7324 186.336 81.5133 178.131C75.2606 168.318 72.1539 156.661 72.6463 144.861C72.7295 142.833 73.5757 140.923 74.9986 139.551C76.4215 138.179 78.3046 137.457 80.2336 137.545C82.1626 137.632 83.9795 138.522 85.2846 140.018C86.5898 141.514 87.2762 143.493 87.1929 145.521C86.8464 154.092 89.1134 162.555 93.6635 169.675C98.5291 177.246 105.338 183.21 113.299 186.874C113.494 186.953 113.682 187.042 113.867 187.137C122.35 190.983 131.637 192.454 140.821 191.405C149.956 190.436 158.675 186.903 166.064 181.174C166.829 180.572 167.698 180.134 168.623 179.884C169.549 179.635 170.511 179.58 171.457 179.722C172.403 179.864 173.312 180.2 174.134 180.712C174.956 181.224 175.674 181.9 176.247 182.704C176.82 183.507 177.237 184.421 177.474 185.394C177.711 186.367 177.764 187.379 177.629 188.373C177.494 189.367 177.174 190.324 176.687 191.188C176.2 192.052 175.557 192.807 174.792 193.409C165.306 200.798 154.104 205.367 142.36 206.639C133.319 207.661 124.175 206.781 115.461 204.049C112.656 210.345 107.656 215.066 100.463 218.214C91.6579 222.068 79.4488 223.291 63.836 221.882L63.8376 221.878ZM197.199 386.97V43.0302C195.588 32.1442 189.834 22.5859 181.542 15.6883C172.268 8.1425 160.848 4.09845 149.122 4.20761C140.271 4.16854 131.55 6.45158 123.749 10.8499C119.689 13.1501 115.964 16.052 112.689 19.4667C117.641 20.9804 122.381 23.1773 126.784 25.9999C135.378 31.4357 142.309 39.3488 146.754 48.8008C147.584 50.6286 147.691 52.7275 147.052 54.6381C146.413 56.5488 145.081 58.1156 143.346 58.9959C141.611 59.8761 139.615 59.9981 137.795 59.3351C135.975 58.6721 134.479 57.2782 133.634 55.4582C130.411 48.6586 125.402 42.9725 119.2 39.0737C112.531 34.8297 104.93 32.4709 97.1376 32.2265C89.2922 31.9242 81.5042 33.7415 74.5171 37.5049C67.9883 40.9703 62.5211 46.3005 58.7427 52.8841C55.2595 59.0256 53.6857 66.1565 54.2405 73.2831C54.6882 78.6983 56.3337 83.9285 59.0454 88.5565C60.9983 87.8902 62.9789 87.3076 64.9871 86.8088C78.2495 83.5252 92.1027 83.9949 105.136 88.1702C117.931 92.1747 129.382 99.9161 138.157 110.494C146.621 120.703 151.76 133.489 152.823 146.986C152.967 149.014 152.338 151.019 151.076 152.56C149.814 154.101 148.021 155.052 146.092 155.203C144.163 155.354 142.256 154.693 140.79 153.366C139.324 152.039 138.42 150.154 138.276 148.126C137.449 137.883 133.531 128.186 127.093 120.45C120.132 112.081 111.055 105.962 100.917 102.804C90.3241 99.4262 79.0694 99.06 68.2983 101.742C57.8965 104.238 48.3666 109.745 40.7866 117.639C33.776 124.916 29.1313 134.337 27.5157 144.555C26.0311 154.559 27.7051 164.799 32.2815 173.707C33.1891 175.497 33.3835 177.592 32.8219 179.532C32.2603 181.472 30.9886 183.098 29.2867 184.053C29.1269 184.144 28.9626 184.228 28.7938 184.305L28.8018 184.323C22.018 187.41 16.1089 192.289 11.6486 198.486C7.52217 204.248 5.0547 211.133 4.53899 218.325C4.07624 225.434 5.59294 232.531 8.90379 238.749C10.0552 240.929 11.3966 242.992 12.9107 244.911C12.953 244.961 12.9954 245.012 13.0369 245.064C13.0928 245.133 13.1464 245.203 13.1967 245.274C16.2489 249.035 19.8747 252.236 23.9258 254.746C30.6251 258.89 38.1765 261.274 45.9391 261.695C53.7631 262.165 61.581 260.668 68.7448 257.328C69.6175 256.919 70.5584 256.694 71.5137 256.666C72.4691 256.639 73.4202 256.81 74.3127 257.169C75.2053 257.528 76.0218 258.069 76.7156 258.76C77.4095 259.451 77.9671 260.279 78.3567 261.196C78.7463 262.114 78.9601 263.103 78.9861 264.107C79.012 265.111 78.8495 266.111 78.5079 267.05C78.1663 267.988 77.6522 268.847 76.995 269.576C76.3378 270.306 75.5504 270.892 74.6777 271.301C65.4018 275.639 55.2761 277.589 45.1402 276.99C35.042 276.44 25.219 273.337 16.5054 267.943C13.2665 265.924 10.222 263.578 7.41477 260.939C6.44519 262.187 5.55649 263.502 4.75468 264.875C2.85162 268.133 1.4871 271.706 0.718997 275.443C0.422632 276.89 0.810063 274.835 0.611155 275.863C-0.23294 280.387 -0.165234 285.047 0.8099 289.543C1.78503 294.038 3.64593 298.268 6.27245 301.961C11.591 309.649 19.9843 315.507 30.2788 317.842C31.5625 318.134 29.9921 317.811 30.8636 317.996C32.0499 318.246 33.1582 318.803 34.0881 319.616C35.018 320.43 35.7402 321.475 36.1893 322.656C36.6384 323.837 36.8002 325.117 36.66 326.381C36.5198 327.644 36.0821 328.851 35.3865 329.891L35.3985 329.901C30.8251 336.607 28.7875 344.861 29.6821 353.059C30.708 361.431 34.5717 369.132 40.5637 374.75C47.1562 380.952 55.439 384.815 64.237 385.789C73.2174 386.909 82.3091 385.12 90.2964 380.662C91.3444 380.07 92.5142 379.757 93.7038 379.749C94.8933 379.742 96.0665 380.041 97.121 380.62C98.1755 381.199 99.0791 382.04 99.7532 383.071C100.427 384.101 100.851 385.29 100.988 386.532C102.506 397.598 108.304 407.318 116.708 414.308C126.031 421.756 137.417 425.788 149.126 425.788C160.835 425.788 172.222 421.756 181.544 414.308C189.838 407.41 195.592 397.852 197.201 386.966L197.199 386.97ZM270.723 148.126C270.579 150.154 269.675 152.039 268.209 153.366C266.744 154.693 264.837 155.354 262.908 155.203C260.979 155.052 259.186 154.101 257.923 152.56C256.661 151.019 256.033 149.014 256.176 146.986C257.24 133.489 262.379 120.703 270.843 110.494C279.617 99.9161 291.068 92.1747 303.863 88.1702C316.897 83.9949 330.75 83.5252 344.012 86.8088C346.018 87.3065 347.998 87.8891 349.954 88.5565C352.666 83.9286 354.312 78.6984 354.76 73.2831C355.314 66.1565 353.74 59.0255 350.257 52.8841C346.478 46.3004 341.01 40.9701 334.481 37.5049C327.495 33.7418 319.707 31.9245 311.863 32.2265C304.071 32.4718 296.473 34.8305 289.805 39.0737C283.603 42.9725 278.594 48.6586 275.371 55.4582C274.526 57.2782 273.03 58.6721 271.21 59.3351C269.39 59.9981 267.394 59.8761 265.659 58.9959C263.924 58.1156 262.591 56.5488 261.953 54.6381C261.314 52.7275 261.421 50.6286 262.251 48.8008C266.696 39.3488 273.627 31.4357 282.221 25.9999C286.624 23.177 291.364 20.9799 296.316 19.4659C293.041 16.0513 289.316 13.1496 285.256 10.8499C277.454 6.45076 268.731 4.16771 259.878 4.20761C248.152 4.09922 236.733 8.14321 227.46 15.6883C219.166 22.5859 213.413 32.1442 211.803 43.0302V386.97C213.414 397.856 219.167 407.413 227.46 414.312C236.783 421.76 248.169 425.792 259.878 425.792C271.587 425.792 282.974 421.76 292.296 414.312C300.744 407.286 306.556 397.501 308.041 386.363C308.203 385.14 308.643 383.975 309.325 382.969C310.008 381.963 310.911 381.145 311.959 380.586C313.007 380.026 314.168 379.741 315.343 379.755C316.518 379.769 317.672 380.081 318.708 380.666C326.695 385.125 335.787 386.913 344.767 385.793C353.565 384.819 361.848 380.957 368.44 374.754C374.433 369.137 378.296 361.435 379.322 353.064C380.217 344.866 378.179 336.611 373.606 329.905C372.903 328.854 372.463 327.635 372.326 326.359C372.189 325.084 372.359 323.792 372.82 322.603C373.281 321.414 374.019 320.366 374.966 319.555C375.913 318.744 377.038 318.196 378.239 317.961L378.724 317.846C389.019 315.511 397.412 309.653 402.731 301.965C405.357 298.273 407.218 294.042 408.193 289.547C409.169 285.052 409.236 280.391 408.392 275.867C408.19 274.815 408.577 276.87 408.284 275.447C407.515 271.709 406.15 268.134 404.245 264.876C403.443 263.502 402.554 262.187 401.585 260.939C398.777 263.579 395.733 265.925 392.494 267.945C383.78 273.338 373.957 276.442 363.859 276.991C353.723 277.59 343.598 275.64 334.322 271.303C333.449 270.894 332.661 270.307 332.004 269.578C331.347 268.848 330.833 267.99 330.491 267.051C330.15 266.113 329.987 265.113 330.013 264.109C330.039 263.104 330.253 262.115 330.643 261.198C331.032 260.28 331.59 259.452 332.284 258.761C332.978 258.07 333.794 257.53 334.687 257.171C335.579 256.812 336.53 256.641 337.486 256.668C338.441 256.695 339.382 256.92 340.254 257.33C347.418 260.67 355.236 262.167 363.06 261.697C370.824 261.277 378.378 258.893 385.078 254.749C389.128 252.239 392.752 249.039 395.803 245.281C395.858 245.208 395.912 245.137 395.969 245.066C396.012 245.013 396.054 244.961 396.098 244.91C397.611 242.992 398.952 240.93 400.103 238.752C403.414 232.534 404.93 225.437 404.467 218.327C403.952 211.136 401.484 204.25 397.358 198.489C392.898 192.291 386.989 187.412 380.205 184.326L380.213 184.307C380.047 184.231 379.883 184.147 379.72 184.055C378.877 183.583 378.131 182.941 377.524 182.165C376.917 181.389 376.462 180.496 376.183 179.535C375.905 178.574 375.81 177.565 375.903 176.566C375.996 175.566 376.276 174.596 376.726 173.71C381.302 164.801 382.975 154.561 381.491 144.557C379.875 134.339 375.231 124.919 368.22 117.641C360.64 109.747 351.11 104.241 340.708 101.745C329.937 99.0625 318.682 99.4288 308.09 102.806C297.952 105.965 288.874 112.084 281.914 120.452C275.476 128.189 271.557 137.886 270.73 148.128L270.723 148.126ZM350.832 340.096C352.216 341.512 353.009 343.448 353.036 345.478C353.062 347.508 352.321 349.466 350.974 350.922C349.628 352.377 347.787 353.21 345.856 353.238C343.925 353.267 342.062 352.487 340.678 351.071C335.51 345.886 329.077 342.309 322.092 340.737C314.842 339.056 307.298 339.411 300.22 341.767C293.483 343.939 287.467 348.069 282.865 353.681C278.667 358.806 276.128 365.202 275.614 371.944C275.555 372.955 275.306 373.943 274.881 374.852C274.457 375.76 273.865 376.572 273.141 377.239C272.417 377.906 271.574 378.416 270.661 378.738C269.748 379.061 268.784 379.191 267.823 379.119C266.862 379.048 265.925 378.778 265.064 378.323C264.204 377.869 263.437 377.24 262.809 376.472C262.181 375.705 261.704 374.814 261.405 373.852C261.106 372.889 260.991 371.874 261.067 370.865C261.804 360.877 265.542 351.393 271.741 343.785C278.116 335.959 286.464 330.186 295.824 327.133C305.344 323.984 315.485 323.526 325.226 325.805C334.853 327.988 343.716 332.935 350.829 340.096H350.832ZM258.278 272.398C256.349 272.414 254.493 271.624 253.119 270.201C251.744 268.778 250.963 266.839 250.948 264.812C250.933 262.784 251.685 260.832 253.038 259.387C254.392 257.942 256.236 257.121 258.165 257.106C272.633 256.934 286.934 260.378 299.889 267.154C312.493 273.689 323.272 283.546 331.173 295.765C332.224 297.451 332.6 299.506 332.219 301.482C331.837 303.458 330.73 305.196 329.136 306.318C327.543 307.44 325.592 307.856 323.709 307.474C321.826 307.093 320.162 305.945 319.079 304.281C312.586 294.261 303.734 286.18 293.386 280.828C282.483 275.134 270.451 272.244 258.278 272.396V272.398ZM343.964 206.586C345.893 206.419 347.806 207.064 349.283 208.38C350.759 209.696 351.677 211.574 351.836 213.602C351.995 215.63 351.381 217.641 350.13 219.193C348.878 220.745 347.091 221.711 345.163 221.878C329.55 223.287 317.341 222.064 308.535 218.211C301.343 215.063 296.343 210.342 293.537 204.047C284.823 206.778 275.679 207.658 266.638 206.635C254.895 205.363 243.693 200.794 234.206 193.406C232.663 192.189 231.643 190.378 231.37 188.37C231.097 186.362 231.594 184.323 232.751 182.7C233.909 181.078 235.632 180.005 237.541 179.719C239.451 179.432 241.391 179.954 242.934 181.171C250.324 186.899 259.042 190.433 268.177 191.402C277.362 192.45 286.648 190.98 295.132 187.134C295.316 187.038 295.505 186.95 295.7 186.87C303.661 183.206 310.469 177.242 315.335 169.672C319.885 162.551 322.152 154.089 321.806 145.518C321.762 144.513 321.908 143.508 322.234 142.562C322.561 141.616 323.061 140.746 323.708 140.004C324.354 139.262 325.133 138.66 326.001 138.235C326.869 137.81 327.807 137.568 328.764 137.525C329.72 137.481 330.676 137.637 331.575 137.982C332.474 138.327 333.3 138.856 334.004 139.537C334.709 140.218 335.279 141.038 335.682 141.952C336.085 142.865 336.312 143.852 336.351 144.858C336.844 156.658 333.737 168.315 327.484 178.127C322.265 186.334 315.279 193.131 307.092 197.966C308.71 200.777 311.189 202.925 314.122 204.058C320.717 206.943 330.664 207.785 343.964 206.586Z" fill="black"/>
</g>
</svg>
